G04 #@! TF.GenerationSoftware,KiCad,Pcbnew,8.0.9-8.0.9-0~ubuntu22.04.1*
G04 #@! TF.CreationDate,2025-06-17T17:41:38-06:00*
G04 #@! TF.ProjectId,dongle,646f6e67-6c65-42e6-9b69-6361645f7063,rev?*
G04 #@! TF.SameCoordinates,Original*
G04 #@! TF.FileFunction,Paste,Top*
G04 #@! TF.FilePolarity,Positive*
%FSLAX46Y46*%
G04 Gerber Fmt 4.6, Leading zero omitted, Abs format (unit mm)*
G04 Created by KiCad (PCBNEW 8.0.9-8.0.9-0~ubuntu22.04.1) date 2025-06-17 17:41:38*
%MOMM*%
%LPD*%
G01*
G04 APERTURE LIST*
G04 Aperture macros list*
%AMRoundRect*
0 Rectangle with rounded corners*
0 $1 Rounding radius*
0 $2 $3 $4 $5 $6 $7 $8 $9 X,Y pos of 4 corners*
0 Add a 4 corners polygon primitive as box body*
4,1,4,$2,$3,$4,$5,$6,$7,$8,$9,$2,$3,0*
0 Add four circle primitives for the rounded corners*
1,1,$1+$1,$2,$3*
1,1,$1+$1,$4,$5*
1,1,$1+$1,$6,$7*
1,1,$1+$1,$8,$9*
0 Add four rect primitives between the rounded corners*
20,1,$1+$1,$2,$3,$4,$5,0*
20,1,$1+$1,$4,$5,$6,$7,0*
20,1,$1+$1,$6,$7,$8,$9,0*
20,1,$1+$1,$8,$9,$2,$3,0*%
G04 Aperture macros list end*
%ADD10RoundRect,0.147500X-0.147500X-0.172500X0.147500X-0.172500X0.147500X0.172500X-0.147500X0.172500X0*%
%ADD11R,0.850000X0.300000*%
%ADD12R,0.300000X0.850000*%
%ADD13RoundRect,0.079500X0.100500X-0.079500X0.100500X0.079500X-0.100500X0.079500X-0.100500X-0.079500X0*%
%ADD14RoundRect,0.140000X-0.170000X0.140000X-0.170000X-0.140000X0.170000X-0.140000X0.170000X0.140000X0*%
%ADD15RoundRect,0.079500X0.079500X0.100500X-0.079500X0.100500X-0.079500X-0.100500X0.079500X-0.100500X0*%
%ADD16RoundRect,0.147500X-0.172500X0.147500X-0.172500X-0.147500X0.172500X-0.147500X0.172500X0.147500X0*%
%ADD17RoundRect,0.079500X-0.079500X-0.100500X0.079500X-0.100500X0.079500X0.100500X-0.079500X0.100500X0*%
%ADD18R,1.200000X1.000000*%
%ADD19RoundRect,0.140000X0.140000X0.170000X-0.140000X0.170000X-0.140000X-0.170000X0.140000X-0.170000X0*%
%ADD20RoundRect,0.050000X-0.050000X0.050000X-0.050000X-0.050000X0.050000X-0.050000X0.050000X0.050000X0*%
G04 APERTURE END LIST*
D10*
X152065000Y-89800000D03*
X153035000Y-89800000D03*
D11*
X144550000Y-94475000D03*
X144550000Y-94975000D03*
X144550000Y-95475000D03*
X144550000Y-95975000D03*
X144550000Y-96475000D03*
X144550000Y-96975000D03*
X144550000Y-97475000D03*
X144550000Y-97975000D03*
D12*
X145250000Y-98675000D03*
X145750000Y-98675000D03*
X146250000Y-98675000D03*
X146750000Y-98675000D03*
X147250000Y-98675000D03*
X147750000Y-98675000D03*
X148250000Y-98675000D03*
X148750000Y-98675000D03*
D11*
X149450000Y-97975000D03*
X149450000Y-97475000D03*
X149450000Y-96975000D03*
X149450000Y-96475000D03*
X149450000Y-95975000D03*
X149450000Y-95475000D03*
X149450000Y-94975000D03*
X149450000Y-94475000D03*
D12*
X148750000Y-93775000D03*
X148250000Y-93775000D03*
X147750000Y-93775000D03*
X147250000Y-93775000D03*
X146750000Y-93775000D03*
X146250000Y-93775000D03*
X145750000Y-93775000D03*
X145250000Y-93775000D03*
D13*
X143675003Y-99219999D03*
X143674997Y-98530001D03*
D14*
X150700000Y-91625000D03*
X150700000Y-92584998D03*
D15*
X144345000Y-100124993D03*
X143655000Y-100125007D03*
D16*
X150750000Y-95540000D03*
X150750000Y-96510000D03*
D17*
X142630000Y-95000000D03*
X143320000Y-95000000D03*
D18*
X146050000Y-91599998D03*
X147750000Y-91599998D03*
X147750000Y-90299998D03*
X146050000Y-90299998D03*
D16*
X150725000Y-97515000D03*
X150725000Y-98485000D03*
D17*
X142630000Y-95800000D03*
X143320000Y-95800000D03*
D19*
X153030000Y-90825000D03*
X152070000Y-90825000D03*
D20*
X153080002Y-89600002D03*
D16*
X150700000Y-93565000D03*
X150700000Y-94535000D03*
M02*
