G04 #@! TF.GenerationSoftware,KiCad,Pcbnew,8.0.9-8.0.9-0~ubuntu22.04.1*
G04 #@! TF.CreationDate,2025-06-17T17:41:39-06:00*
G04 #@! TF.ProjectId,dongle,646f6e67-6c65-42e6-9b69-6361645f7063,rev?*
G04 #@! TF.SameCoordinates,Original*
G04 #@! TF.FileFunction,Profile,NP*
%FSLAX46Y46*%
G04 Gerber Fmt 4.6, Leading zero omitted, Abs format (unit mm)*
G04 Created by KiCad (PCBNEW 8.0.9-8.0.9-0~ubuntu22.04.1) date 2025-06-17 17:41:39*
%MOMM*%
%LPD*%
G01*
G04 APERTURE LIST*
G04 #@! TA.AperFunction,Profile*
%ADD10C,0.150000*%
G04 #@! TD*
G04 APERTURE END LIST*
D10*
X149875002Y-88400000D02*
X148374998Y-88400000D01*
X151050000Y-99250000D02*
X151050000Y-101050000D01*
X148375000Y-101300000D02*
X149875000Y-101300000D01*
X148200005Y-88650002D02*
X141750000Y-88650000D01*
X141750000Y-101050000D02*
X141750000Y-100050000D01*
X141750000Y-100050000D02*
X140250000Y-100050000D01*
X154450000Y-101050000D02*
X157150000Y-99950000D01*
X157150000Y-88650000D02*
X157150000Y-99950000D01*
X150050000Y-88650000D02*
X149875002Y-88400000D01*
X151050000Y-88650000D02*
X150050006Y-88649990D01*
X150050000Y-101050000D02*
X151050000Y-101050000D01*
X140250000Y-89650000D02*
X140250000Y-100050000D01*
X148200000Y-101050000D02*
X148375000Y-101300000D01*
X147675000Y-101050000D02*
X148200000Y-101050000D01*
X149875000Y-101300000D02*
X150050000Y-101050000D01*
X152050000Y-99250000D02*
X152050000Y-101050000D01*
X154450000Y-101050000D02*
X152050000Y-101050000D01*
X141750000Y-88650000D02*
X141750000Y-89650000D01*
X141750000Y-89650000D02*
X140250000Y-89650000D01*
X153250000Y-92675000D02*
G75*
G02*
X152050000Y-92675000I-600000J0D01*
G01*
X152050000Y-92675000D02*
G75*
G02*
X153250000Y-92675000I600000J0D01*
G01*
X148374998Y-88400000D02*
X148200005Y-88650002D01*
X141750000Y-101050000D02*
X147675000Y-101050000D01*
X157150000Y-88650000D02*
X151050000Y-88650000D01*
X151050000Y-99250000D02*
G75*
G02*
X152050000Y-99250000I500000J0D01*
G01*
M02*
