G04 #@! TF.GenerationSoftware,KiCad,Pcbnew,8.0.9-8.0.9-0~ubuntu22.04.1*
G04 #@! TF.CreationDate,2025-06-17T17:41:38-06:00*
G04 #@! TF.ProjectId,dongle,646f6e67-6c65-42e6-9b69-6361645f7063,rev?*
G04 #@! TF.SameCoordinates,Original*
G04 #@! TF.FileFunction,Legend,Top*
G04 #@! TF.FilePolarity,Positive*
%FSLAX46Y46*%
G04 Gerber Fmt 4.6, Leading zero omitted, Abs format (unit mm)*
G04 Created by KiCad (PCBNEW 8.0.9-8.0.9-0~ubuntu22.04.1) date 2025-06-17 17:41:38*
%MOMM*%
%LPD*%
G01*
G04 APERTURE LIST*
G04 Aperture macros list*
%AMRoundRect*
0 Rectangle with rounded corners*
0 $1 Rounding radius*
0 $2 $3 $4 $5 $6 $7 $8 $9 X,Y pos of 4 corners*
0 Add a 4 corners polygon primitive as box body*
4,1,4,$2,$3,$4,$5,$6,$7,$8,$9,$2,$3,0*
0 Add four circle primitives for the rounded corners*
1,1,$1+$1,$2,$3*
1,1,$1+$1,$4,$5*
1,1,$1+$1,$6,$7*
1,1,$1+$1,$8,$9*
0 Add four rect primitives between the rounded corners*
20,1,$1+$1,$2,$3,$4,$5,0*
20,1,$1+$1,$4,$5,$6,$7,0*
20,1,$1+$1,$6,$7,$8,$9,0*
20,1,$1+$1,$8,$9,$2,$3,0*%
G04 Aperture macros list end*
%ADD10C,0.125000*%
%ADD11C,0.150000*%
%ADD12C,0.250000*%
%ADD13C,0.120000*%
%ADD14C,0.100000*%
%ADD15RoundRect,0.147500X-0.147500X-0.172500X0.147500X-0.172500X0.147500X0.172500X-0.147500X0.172500X0*%
%ADD16R,0.850000X0.300000*%
%ADD17R,0.300000X0.850000*%
%ADD18RoundRect,0.100000X0.100000X-0.130000X0.100000X0.130000X-0.100000X0.130000X-0.100000X-0.130000X0*%
%ADD19RoundRect,0.140000X-0.170000X0.140000X-0.170000X-0.140000X0.170000X-0.140000X0.170000X0.140000X0*%
%ADD20RoundRect,0.100000X0.130000X0.100000X-0.130000X0.100000X-0.130000X-0.100000X0.130000X-0.100000X0*%
%ADD21RoundRect,0.147500X-0.172500X0.147500X-0.172500X-0.147500X0.172500X-0.147500X0.172500X0.147500X0*%
%ADD22RoundRect,0.100000X-0.130000X-0.100000X0.130000X-0.100000X0.130000X0.100000X-0.130000X0.100000X0*%
%ADD23R,1.200000X1.000000*%
%ADD24RoundRect,0.140000X0.140000X0.170000X-0.140000X0.170000X-0.140000X-0.170000X0.140000X-0.170000X0*%
%ADD25RoundRect,0.050000X-0.050000X0.050000X-0.050000X-0.050000X0.050000X-0.050000X0.050000X0.050000X0*%
%ADD26O,2.500000X1.200000*%
G04 APERTURE END LIST*
D10*
X140526283Y-96507309D02*
X140526283Y-96007309D01*
X140526283Y-96007309D02*
X140645331Y-96007309D01*
X140645331Y-96007309D02*
X140716759Y-96031119D01*
X140716759Y-96031119D02*
X140764378Y-96078738D01*
X140764378Y-96078738D02*
X140788188Y-96126357D01*
X140788188Y-96126357D02*
X140811997Y-96221595D01*
X140811997Y-96221595D02*
X140811997Y-96293023D01*
X140811997Y-96293023D02*
X140788188Y-96388261D01*
X140788188Y-96388261D02*
X140764378Y-96435880D01*
X140764378Y-96435880D02*
X140716759Y-96483500D01*
X140716759Y-96483500D02*
X140645331Y-96507309D01*
X140645331Y-96507309D02*
X140526283Y-96507309D01*
X141026283Y-96316833D02*
X141407236Y-96316833D01*
X141216759Y-96507309D02*
X141216759Y-96126357D01*
X140501283Y-95282309D02*
X140501283Y-94782309D01*
X140501283Y-94782309D02*
X140620331Y-94782309D01*
X140620331Y-94782309D02*
X140691759Y-94806119D01*
X140691759Y-94806119D02*
X140739378Y-94853738D01*
X140739378Y-94853738D02*
X140763188Y-94901357D01*
X140763188Y-94901357D02*
X140786997Y-94996595D01*
X140786997Y-94996595D02*
X140786997Y-95068023D01*
X140786997Y-95068023D02*
X140763188Y-95163261D01*
X140763188Y-95163261D02*
X140739378Y-95210880D01*
X140739378Y-95210880D02*
X140691759Y-95258500D01*
X140691759Y-95258500D02*
X140620331Y-95282309D01*
X140620331Y-95282309D02*
X140501283Y-95282309D01*
X141001283Y-95091833D02*
X141382236Y-95091833D01*
X153039378Y-99882309D02*
X152801283Y-99882309D01*
X152801283Y-99882309D02*
X152801283Y-99382309D01*
X153206045Y-99882309D02*
X153206045Y-99382309D01*
X153206045Y-99382309D02*
X153325093Y-99382309D01*
X153325093Y-99382309D02*
X153396521Y-99406119D01*
X153396521Y-99406119D02*
X153444140Y-99453738D01*
X153444140Y-99453738D02*
X153467950Y-99501357D01*
X153467950Y-99501357D02*
X153491759Y-99596595D01*
X153491759Y-99596595D02*
X153491759Y-99668023D01*
X153491759Y-99668023D02*
X153467950Y-99763261D01*
X153467950Y-99763261D02*
X153444140Y-99810880D01*
X153444140Y-99810880D02*
X153396521Y-99858500D01*
X153396521Y-99858500D02*
X153325093Y-99882309D01*
X153325093Y-99882309D02*
X153206045Y-99882309D01*
X153706045Y-99691833D02*
X154086998Y-99691833D01*
X154610807Y-99882309D02*
X154444141Y-99644214D01*
X154325093Y-99882309D02*
X154325093Y-99382309D01*
X154325093Y-99382309D02*
X154515569Y-99382309D01*
X154515569Y-99382309D02*
X154563188Y-99406119D01*
X154563188Y-99406119D02*
X154586998Y-99429928D01*
X154586998Y-99429928D02*
X154610807Y-99477547D01*
X154610807Y-99477547D02*
X154610807Y-99548976D01*
X154610807Y-99548976D02*
X154586998Y-99596595D01*
X154586998Y-99596595D02*
X154563188Y-99620404D01*
X154563188Y-99620404D02*
X154515569Y-99644214D01*
X154515569Y-99644214D02*
X154325093Y-99644214D01*
X154753665Y-99382309D02*
X154920331Y-99882309D01*
X154920331Y-99882309D02*
X155086998Y-99382309D01*
X155515569Y-99882309D02*
X155229855Y-99882309D01*
X155372712Y-99882309D02*
X155372712Y-99382309D01*
X155372712Y-99382309D02*
X155325093Y-99453738D01*
X155325093Y-99453738D02*
X155277474Y-99501357D01*
X155277474Y-99501357D02*
X155229855Y-99525166D01*
X155729854Y-99834690D02*
X155753664Y-99858500D01*
X155753664Y-99858500D02*
X155729854Y-99882309D01*
X155729854Y-99882309D02*
X155706045Y-99858500D01*
X155706045Y-99858500D02*
X155729854Y-99834690D01*
X155729854Y-99834690D02*
X155729854Y-99882309D01*
X156063187Y-99382309D02*
X156110806Y-99382309D01*
X156110806Y-99382309D02*
X156158425Y-99406119D01*
X156158425Y-99406119D02*
X156182235Y-99429928D01*
X156182235Y-99429928D02*
X156206044Y-99477547D01*
X156206044Y-99477547D02*
X156229854Y-99572785D01*
X156229854Y-99572785D02*
X156229854Y-99691833D01*
X156229854Y-99691833D02*
X156206044Y-99787071D01*
X156206044Y-99787071D02*
X156182235Y-99834690D01*
X156182235Y-99834690D02*
X156158425Y-99858500D01*
X156158425Y-99858500D02*
X156110806Y-99882309D01*
X156110806Y-99882309D02*
X156063187Y-99882309D01*
X156063187Y-99882309D02*
X156015568Y-99858500D01*
X156015568Y-99858500D02*
X155991759Y-99834690D01*
X155991759Y-99834690D02*
X155967949Y-99787071D01*
X155967949Y-99787071D02*
X155944140Y-99691833D01*
X155944140Y-99691833D02*
X155944140Y-99572785D01*
X155944140Y-99572785D02*
X155967949Y-99477547D01*
X155967949Y-99477547D02*
X155991759Y-99429928D01*
X155991759Y-99429928D02*
X156015568Y-99406119D01*
X156015568Y-99406119D02*
X156063187Y-99382309D01*
X154141666Y-90124809D02*
X153903571Y-90124809D01*
X153903571Y-90124809D02*
X153903571Y-89624809D01*
X154522619Y-89791476D02*
X154522619Y-90124809D01*
X154403571Y-89601000D02*
X154284524Y-89958142D01*
X154284524Y-89958142D02*
X154594047Y-89958142D01*
X144069047Y-93199809D02*
X144069047Y-93604571D01*
X144069047Y-93604571D02*
X144092857Y-93652190D01*
X144092857Y-93652190D02*
X144116666Y-93676000D01*
X144116666Y-93676000D02*
X144164285Y-93699809D01*
X144164285Y-93699809D02*
X144259523Y-93699809D01*
X144259523Y-93699809D02*
X144307142Y-93676000D01*
X144307142Y-93676000D02*
X144330952Y-93652190D01*
X144330952Y-93652190D02*
X144354761Y-93604571D01*
X144354761Y-93604571D02*
X144354761Y-93199809D01*
X144854762Y-93699809D02*
X144569048Y-93699809D01*
X144711905Y-93699809D02*
X144711905Y-93199809D01*
X144711905Y-93199809D02*
X144664286Y-93271238D01*
X144664286Y-93271238D02*
X144616667Y-93318857D01*
X144616667Y-93318857D02*
X144569048Y-93342666D01*
X143124809Y-98983333D02*
X142886714Y-99149999D01*
X143124809Y-99269047D02*
X142624809Y-99269047D01*
X142624809Y-99269047D02*
X142624809Y-99078571D01*
X142624809Y-99078571D02*
X142648619Y-99030952D01*
X142648619Y-99030952D02*
X142672428Y-99007142D01*
X142672428Y-99007142D02*
X142720047Y-98983333D01*
X142720047Y-98983333D02*
X142791476Y-98983333D01*
X142791476Y-98983333D02*
X142839095Y-99007142D01*
X142839095Y-99007142D02*
X142862904Y-99030952D01*
X142862904Y-99030952D02*
X142886714Y-99078571D01*
X142886714Y-99078571D02*
X142886714Y-99269047D01*
X142624809Y-98530952D02*
X142624809Y-98769047D01*
X142624809Y-98769047D02*
X142862904Y-98792856D01*
X142862904Y-98792856D02*
X142839095Y-98769047D01*
X142839095Y-98769047D02*
X142815285Y-98721428D01*
X142815285Y-98721428D02*
X142815285Y-98602380D01*
X142815285Y-98602380D02*
X142839095Y-98554761D01*
X142839095Y-98554761D02*
X142862904Y-98530952D01*
X142862904Y-98530952D02*
X142910523Y-98507142D01*
X142910523Y-98507142D02*
X143029571Y-98507142D01*
X143029571Y-98507142D02*
X143077190Y-98530952D01*
X143077190Y-98530952D02*
X143101000Y-98554761D01*
X143101000Y-98554761D02*
X143124809Y-98602380D01*
X143124809Y-98602380D02*
X143124809Y-98721428D01*
X143124809Y-98721428D02*
X143101000Y-98769047D01*
X143101000Y-98769047D02*
X143077190Y-98792856D01*
X151952190Y-92208333D02*
X151976000Y-92232142D01*
X151976000Y-92232142D02*
X151999809Y-92303571D01*
X151999809Y-92303571D02*
X151999809Y-92351190D01*
X151999809Y-92351190D02*
X151976000Y-92422618D01*
X151976000Y-92422618D02*
X151928380Y-92470237D01*
X151928380Y-92470237D02*
X151880761Y-92494047D01*
X151880761Y-92494047D02*
X151785523Y-92517856D01*
X151785523Y-92517856D02*
X151714095Y-92517856D01*
X151714095Y-92517856D02*
X151618857Y-92494047D01*
X151618857Y-92494047D02*
X151571238Y-92470237D01*
X151571238Y-92470237D02*
X151523619Y-92422618D01*
X151523619Y-92422618D02*
X151499809Y-92351190D01*
X151499809Y-92351190D02*
X151499809Y-92303571D01*
X151499809Y-92303571D02*
X151523619Y-92232142D01*
X151523619Y-92232142D02*
X151547428Y-92208333D01*
X151499809Y-91755952D02*
X151499809Y-91994047D01*
X151499809Y-91994047D02*
X151737904Y-92017856D01*
X151737904Y-92017856D02*
X151714095Y-91994047D01*
X151714095Y-91994047D02*
X151690285Y-91946428D01*
X151690285Y-91946428D02*
X151690285Y-91827380D01*
X151690285Y-91827380D02*
X151714095Y-91779761D01*
X151714095Y-91779761D02*
X151737904Y-91755952D01*
X151737904Y-91755952D02*
X151785523Y-91732142D01*
X151785523Y-91732142D02*
X151904571Y-91732142D01*
X151904571Y-91732142D02*
X151952190Y-91755952D01*
X151952190Y-91755952D02*
X151976000Y-91779761D01*
X151976000Y-91779761D02*
X151999809Y-91827380D01*
X151999809Y-91827380D02*
X151999809Y-91946428D01*
X151999809Y-91946428D02*
X151976000Y-91994047D01*
X151976000Y-91994047D02*
X151952190Y-92017856D01*
X145191666Y-100352190D02*
X145167857Y-100376000D01*
X145167857Y-100376000D02*
X145096428Y-100399809D01*
X145096428Y-100399809D02*
X145048809Y-100399809D01*
X145048809Y-100399809D02*
X144977381Y-100376000D01*
X144977381Y-100376000D02*
X144929762Y-100328380D01*
X144929762Y-100328380D02*
X144905952Y-100280761D01*
X144905952Y-100280761D02*
X144882143Y-100185523D01*
X144882143Y-100185523D02*
X144882143Y-100114095D01*
X144882143Y-100114095D02*
X144905952Y-100018857D01*
X144905952Y-100018857D02*
X144929762Y-99971238D01*
X144929762Y-99971238D02*
X144977381Y-99923619D01*
X144977381Y-99923619D02*
X145048809Y-99899809D01*
X145048809Y-99899809D02*
X145096428Y-99899809D01*
X145096428Y-99899809D02*
X145167857Y-99923619D01*
X145167857Y-99923619D02*
X145191666Y-99947428D01*
X145358333Y-99899809D02*
X145691666Y-99899809D01*
X145691666Y-99899809D02*
X145477381Y-100399809D01*
X152024809Y-96108333D02*
X152024809Y-96346428D01*
X152024809Y-96346428D02*
X151524809Y-96346428D01*
X152024809Y-95679761D02*
X152024809Y-95965475D01*
X152024809Y-95822618D02*
X151524809Y-95822618D01*
X151524809Y-95822618D02*
X151596238Y-95870237D01*
X151596238Y-95870237D02*
X151643857Y-95917856D01*
X151643857Y-95917856D02*
X151667666Y-95965475D01*
X140473770Y-91295603D02*
X140708920Y-91124806D01*
X140468783Y-91009932D02*
X140968707Y-91001206D01*
X140968707Y-91001206D02*
X140972032Y-91191653D01*
X140972032Y-91191653D02*
X140949057Y-91239680D01*
X140949057Y-91239680D02*
X140925666Y-91263902D01*
X140925666Y-91263902D02*
X140878470Y-91288538D01*
X140878470Y-91288538D02*
X140807052Y-91289785D01*
X140807052Y-91289785D02*
X140759025Y-91266810D01*
X140759025Y-91266810D02*
X140734804Y-91243420D01*
X140734804Y-91243420D02*
X140710167Y-91196224D01*
X140710167Y-91196224D02*
X140706842Y-91005776D01*
X140477925Y-91533662D02*
X140479587Y-91628885D01*
X140479587Y-91628885D02*
X140504224Y-91676081D01*
X140504224Y-91676081D02*
X140528446Y-91699472D01*
X140528446Y-91699472D02*
X140600694Y-91745837D01*
X140600694Y-91745837D02*
X140696334Y-91767981D01*
X140696334Y-91767981D02*
X140886781Y-91764656D01*
X140886781Y-91764656D02*
X140933977Y-91740019D01*
X140933977Y-91740019D02*
X140957367Y-91715798D01*
X140957367Y-91715798D02*
X140980342Y-91667771D01*
X140980342Y-91667771D02*
X140978680Y-91572547D01*
X140978680Y-91572547D02*
X140954043Y-91525351D01*
X140954043Y-91525351D02*
X140929822Y-91501961D01*
X140929822Y-91501961D02*
X140881794Y-91478986D01*
X140881794Y-91478986D02*
X140762765Y-91481063D01*
X140762765Y-91481063D02*
X140715569Y-91505700D01*
X140715569Y-91505700D02*
X140692178Y-91529922D01*
X140692178Y-91529922D02*
X140669203Y-91577949D01*
X140669203Y-91577949D02*
X140670866Y-91673173D01*
X140670866Y-91673173D02*
X140695503Y-91720369D01*
X140695503Y-91720369D02*
X140719724Y-91743759D01*
X140719724Y-91743759D02*
X140767751Y-91766734D01*
D11*
X144014285Y-89894771D02*
X144414285Y-90494771D01*
X144414285Y-89894771D02*
X144014285Y-90494771D01*
X144957142Y-90494771D02*
X144614285Y-90494771D01*
X144785714Y-90494771D02*
X144785714Y-89894771D01*
X144785714Y-89894771D02*
X144728571Y-89980485D01*
X144728571Y-89980485D02*
X144671428Y-90037628D01*
X144671428Y-90037628D02*
X144614285Y-90066200D01*
D10*
X152024809Y-98083333D02*
X152024809Y-98321428D01*
X152024809Y-98321428D02*
X151524809Y-98321428D01*
X151572428Y-97940475D02*
X151548619Y-97916666D01*
X151548619Y-97916666D02*
X151524809Y-97869047D01*
X151524809Y-97869047D02*
X151524809Y-97749999D01*
X151524809Y-97749999D02*
X151548619Y-97702380D01*
X151548619Y-97702380D02*
X151572428Y-97678571D01*
X151572428Y-97678571D02*
X151620047Y-97654761D01*
X151620047Y-97654761D02*
X151667666Y-97654761D01*
X151667666Y-97654761D02*
X151739095Y-97678571D01*
X151739095Y-97678571D02*
X152024809Y-97964285D01*
X152024809Y-97964285D02*
X152024809Y-97654761D01*
X140519615Y-93532544D02*
X140754765Y-93361747D01*
X140514628Y-93246873D02*
X141014552Y-93238147D01*
X141014552Y-93238147D02*
X141017876Y-93428594D01*
X141017876Y-93428594D02*
X140994901Y-93476621D01*
X140994901Y-93476621D02*
X140971511Y-93500843D01*
X140971511Y-93500843D02*
X140924315Y-93525480D01*
X140924315Y-93525480D02*
X140852897Y-93526726D01*
X140852897Y-93526726D02*
X140804870Y-93503752D01*
X140804870Y-93503752D02*
X140780648Y-93480361D01*
X140780648Y-93480361D02*
X140756011Y-93433165D01*
X140756011Y-93433165D02*
X140752687Y-93242718D01*
X140527925Y-94008662D02*
X140522939Y-93722991D01*
X140525432Y-93865826D02*
X141025356Y-93857100D01*
X141025356Y-93857100D02*
X140953107Y-93810735D01*
X140953107Y-93810735D02*
X140904664Y-93763954D01*
X140904664Y-93763954D02*
X140880027Y-93716758D01*
X141033251Y-94309412D02*
X141034082Y-94357024D01*
X141034082Y-94357024D02*
X141011107Y-94405051D01*
X141011107Y-94405051D02*
X140987717Y-94429272D01*
X140987717Y-94429272D02*
X140940521Y-94453909D01*
X140940521Y-94453909D02*
X140845713Y-94479377D01*
X140845713Y-94479377D02*
X140726683Y-94481455D01*
X140726683Y-94481455D02*
X140631044Y-94459311D01*
X140631044Y-94459311D02*
X140583017Y-94436336D01*
X140583017Y-94436336D02*
X140558795Y-94412946D01*
X140558795Y-94412946D02*
X140534158Y-94365750D01*
X140534158Y-94365750D02*
X140533327Y-94318138D01*
X140533327Y-94318138D02*
X140556302Y-94270111D01*
X140556302Y-94270111D02*
X140579692Y-94245889D01*
X140579692Y-94245889D02*
X140626889Y-94221252D01*
X140626889Y-94221252D02*
X140721697Y-94195784D01*
X140721697Y-94195784D02*
X140840726Y-94193707D01*
X140840726Y-94193707D02*
X140936365Y-94215850D01*
X140936365Y-94215850D02*
X140984393Y-94238825D01*
X140984393Y-94238825D02*
X141008614Y-94262216D01*
X141008614Y-94262216D02*
X141033251Y-94309412D01*
X154153571Y-91202190D02*
X154129762Y-91226000D01*
X154129762Y-91226000D02*
X154058333Y-91249809D01*
X154058333Y-91249809D02*
X154010714Y-91249809D01*
X154010714Y-91249809D02*
X153939286Y-91226000D01*
X153939286Y-91226000D02*
X153891667Y-91178380D01*
X153891667Y-91178380D02*
X153867857Y-91130761D01*
X153867857Y-91130761D02*
X153844048Y-91035523D01*
X153844048Y-91035523D02*
X153844048Y-90964095D01*
X153844048Y-90964095D02*
X153867857Y-90868857D01*
X153867857Y-90868857D02*
X153891667Y-90821238D01*
X153891667Y-90821238D02*
X153939286Y-90773619D01*
X153939286Y-90773619D02*
X154010714Y-90749809D01*
X154010714Y-90749809D02*
X154058333Y-90749809D01*
X154058333Y-90749809D02*
X154129762Y-90773619D01*
X154129762Y-90773619D02*
X154153571Y-90797428D01*
X154629762Y-91249809D02*
X154344048Y-91249809D01*
X154486905Y-91249809D02*
X154486905Y-90749809D01*
X154486905Y-90749809D02*
X154439286Y-90821238D01*
X154439286Y-90821238D02*
X154391667Y-90868857D01*
X154391667Y-90868857D02*
X154344048Y-90892666D01*
X155058333Y-90749809D02*
X154963095Y-90749809D01*
X154963095Y-90749809D02*
X154915476Y-90773619D01*
X154915476Y-90773619D02*
X154891666Y-90797428D01*
X154891666Y-90797428D02*
X154844047Y-90868857D01*
X154844047Y-90868857D02*
X154820238Y-90964095D01*
X154820238Y-90964095D02*
X154820238Y-91154571D01*
X154820238Y-91154571D02*
X154844047Y-91202190D01*
X154844047Y-91202190D02*
X154867857Y-91226000D01*
X154867857Y-91226000D02*
X154915476Y-91249809D01*
X154915476Y-91249809D02*
X155010714Y-91249809D01*
X155010714Y-91249809D02*
X155058333Y-91226000D01*
X155058333Y-91226000D02*
X155082142Y-91202190D01*
X155082142Y-91202190D02*
X155105952Y-91154571D01*
X155105952Y-91154571D02*
X155105952Y-91035523D01*
X155105952Y-91035523D02*
X155082142Y-90987904D01*
X155082142Y-90987904D02*
X155058333Y-90964095D01*
X155058333Y-90964095D02*
X155010714Y-90940285D01*
X155010714Y-90940285D02*
X154915476Y-90940285D01*
X154915476Y-90940285D02*
X154867857Y-90964095D01*
X154867857Y-90964095D02*
X154844047Y-90987904D01*
X154844047Y-90987904D02*
X154820238Y-91035523D01*
X152099809Y-94133333D02*
X152099809Y-94371428D01*
X152099809Y-94371428D02*
X151599809Y-94371428D01*
X151599809Y-94014285D02*
X151599809Y-93704761D01*
X151599809Y-93704761D02*
X151790285Y-93871428D01*
X151790285Y-93871428D02*
X151790285Y-93799999D01*
X151790285Y-93799999D02*
X151814095Y-93752380D01*
X151814095Y-93752380D02*
X151837904Y-93728571D01*
X151837904Y-93728571D02*
X151885523Y-93704761D01*
X151885523Y-93704761D02*
X152004571Y-93704761D01*
X152004571Y-93704761D02*
X152052190Y-93728571D01*
X152052190Y-93728571D02*
X152076000Y-93752380D01*
X152076000Y-93752380D02*
X152099809Y-93799999D01*
X152099809Y-93799999D02*
X152099809Y-93942856D01*
X152099809Y-93942856D02*
X152076000Y-93990475D01*
X152076000Y-93990475D02*
X152052190Y-94014285D01*
D12*
X144250000Y-93725000D02*
G75*
G02*
X144000000Y-93725000I-125000J0D01*
G01*
X144000000Y-93725000D02*
G75*
G02*
X144250000Y-93725000I125000J0D01*
G01*
D13*
X150339998Y-91997166D02*
X150340002Y-92212837D01*
X151059998Y-91997161D02*
X151060002Y-92212832D01*
D14*
X145580000Y-92839998D02*
X146380000Y-92839998D01*
X145990000Y-92409998D02*
X145580000Y-92839998D01*
X146380000Y-92839998D02*
X145990000Y-92409998D01*
D13*
X152657836Y-90465000D02*
X152442164Y-90465000D01*
X152657836Y-91185000D02*
X152442164Y-91185000D01*
%LPC*%
D15*
X152065000Y-89800000D03*
X153035000Y-89800000D03*
D16*
X144550000Y-94475000D03*
X144550000Y-94975000D03*
X144550000Y-95475000D03*
X144550000Y-95975000D03*
X144550000Y-96475000D03*
X144550000Y-96975000D03*
X144550000Y-97475000D03*
X144550000Y-97975000D03*
D17*
X145250000Y-98675000D03*
X145750000Y-98675000D03*
X146250000Y-98675000D03*
X146750000Y-98675000D03*
X147250000Y-98675000D03*
X147750000Y-98675000D03*
X148250000Y-98675000D03*
X148750000Y-98675000D03*
D16*
X149450000Y-97975000D03*
X149450000Y-97475000D03*
X149450000Y-96975000D03*
X149450000Y-96475000D03*
X149450000Y-95975000D03*
X149450000Y-95475000D03*
X149450000Y-94975000D03*
X149450000Y-94475000D03*
D17*
X148750000Y-93775000D03*
X148250000Y-93775000D03*
X147750000Y-93775000D03*
X147250000Y-93775000D03*
X146750000Y-93775000D03*
X146250000Y-93775000D03*
X145750000Y-93775000D03*
X145250000Y-93775000D03*
D18*
X143675002Y-99195000D03*
X143674998Y-98555000D03*
D19*
X150700000Y-91625000D03*
X150700000Y-92584998D03*
D20*
X144319998Y-100124997D03*
X143680002Y-100125003D03*
D21*
X150750000Y-95540000D03*
X150750000Y-96510000D03*
D22*
X142655000Y-95000000D03*
X143295000Y-95000000D03*
D23*
X146050000Y-91599998D03*
X147750000Y-91599998D03*
X147750000Y-90299998D03*
X146050000Y-90299998D03*
D21*
X150725000Y-97515000D03*
X150725000Y-98485000D03*
D22*
X142654999Y-95799999D03*
X143295001Y-95800001D03*
D24*
X153030000Y-90825000D03*
X152070000Y-90825000D03*
D25*
X153080002Y-89600002D03*
D21*
X150700000Y-93565000D03*
X150700000Y-94535000D03*
D26*
X142163495Y-97199998D03*
X142163504Y-92499997D03*
%LPD*%
M02*
