G04 #@! TF.GenerationSoftware,KiCad,Pcbnew,8.0.9-8.0.9-0~ubuntu22.04.1*
G04 #@! TF.CreationDate,2025-06-17T17:41:39-06:00*
G04 #@! TF.ProjectId,dongle,646f6e67-6c65-42e6-9b69-6361645f7063,rev?*
G04 #@! TF.SameCoordinates,Original*
G04 #@! TF.FileFunction,Legend,Bot*
G04 #@! TF.FilePolarity,Positive*
%FSLAX46Y46*%
G04 Gerber Fmt 4.6, Leading zero omitted, Abs format (unit mm)*
G04 Created by KiCad (PCBNEW 8.0.9-8.0.9-0~ubuntu22.04.1) date 2025-06-17 17:41:39*
%MOMM*%
%LPD*%
G01*
G04 APERTURE LIST*
G04 Aperture macros list*
%AMRoundRect*
0 Rectangle with rounded corners*
0 $1 Rounding radius*
0 $2 $3 $4 $5 $6 $7 $8 $9 X,Y pos of 4 corners*
0 Add a 4 corners polygon primitive as box body*
4,1,4,$2,$3,$4,$5,$6,$7,$8,$9,$2,$3,0*
0 Add four circle primitives for the rounded corners*
1,1,$1+$1,$2,$3*
1,1,$1+$1,$4,$5*
1,1,$1+$1,$6,$7*
1,1,$1+$1,$8,$9*
0 Add four rect primitives between the rounded corners*
20,1,$1+$1,$2,$3,$4,$5,0*
20,1,$1+$1,$4,$5,$6,$7,0*
20,1,$1+$1,$6,$7,$8,$9,0*
20,1,$1+$1,$8,$9,$2,$3,0*%
G04 Aperture macros list end*
%ADD10C,0.150000*%
%ADD11C,0.125000*%
%ADD12C,0.254000*%
%ADD13C,0.120000*%
%ADD14C,0.127000*%
%ADD15C,0.200000*%
%ADD16C,0.000000*%
%ADD17R,2.000000X1.300000*%
%ADD18O,2.500000X1.200000*%
%ADD19RoundRect,0.100000X-0.130000X-0.100000X0.130000X-0.100000X0.130000X0.100000X-0.130000X0.100000X0*%
%ADD20RoundRect,0.100000X0.100000X-0.130000X0.100000X0.130000X-0.100000X0.130000X-0.100000X-0.130000X0*%
%ADD21RoundRect,0.140000X-0.140000X-0.170000X0.140000X-0.170000X0.140000X0.170000X-0.140000X0.170000X0*%
%ADD22RoundRect,0.100000X0.130000X0.100000X-0.130000X0.100000X-0.130000X-0.100000X0.130000X-0.100000X0*%
%ADD23RoundRect,0.140000X0.170000X-0.140000X0.170000X0.140000X-0.170000X0.140000X-0.170000X-0.140000X0*%
%ADD24RoundRect,0.099250X-0.297750X0.607750X-0.297750X-0.607750X0.297750X-0.607750X0.297750X0.607750X0*%
G04 APERTURE END LIST*
D10*
X144800000Y-99444771D02*
X144800000Y-99873342D01*
X144800000Y-99873342D02*
X144828571Y-99959057D01*
X144828571Y-99959057D02*
X144885714Y-100016200D01*
X144885714Y-100016200D02*
X144971428Y-100044771D01*
X144971428Y-100044771D02*
X145028571Y-100044771D01*
X144200000Y-100044771D02*
X144542857Y-100044771D01*
X144371428Y-100044771D02*
X144371428Y-99444771D01*
X144371428Y-99444771D02*
X144428571Y-99530485D01*
X144428571Y-99530485D02*
X144485714Y-99587628D01*
X144485714Y-99587628D02*
X144542857Y-99616200D01*
D11*
X147888333Y-93577197D02*
X147912142Y-93601007D01*
X147912142Y-93601007D02*
X147983571Y-93624816D01*
X147983571Y-93624816D02*
X148031190Y-93624816D01*
X148031190Y-93624816D02*
X148102618Y-93601007D01*
X148102618Y-93601007D02*
X148150237Y-93553387D01*
X148150237Y-93553387D02*
X148174047Y-93505768D01*
X148174047Y-93505768D02*
X148197856Y-93410530D01*
X148197856Y-93410530D02*
X148197856Y-93339102D01*
X148197856Y-93339102D02*
X148174047Y-93243864D01*
X148174047Y-93243864D02*
X148150237Y-93196245D01*
X148150237Y-93196245D02*
X148102618Y-93148626D01*
X148102618Y-93148626D02*
X148031190Y-93124816D01*
X148031190Y-93124816D02*
X147983571Y-93124816D01*
X147983571Y-93124816D02*
X147912142Y-93148626D01*
X147912142Y-93148626D02*
X147888333Y-93172435D01*
X147697856Y-93172435D02*
X147674047Y-93148626D01*
X147674047Y-93148626D02*
X147626428Y-93124816D01*
X147626428Y-93124816D02*
X147507380Y-93124816D01*
X147507380Y-93124816D02*
X147459761Y-93148626D01*
X147459761Y-93148626D02*
X147435952Y-93172435D01*
X147435952Y-93172435D02*
X147412142Y-93220054D01*
X147412142Y-93220054D02*
X147412142Y-93267673D01*
X147412142Y-93267673D02*
X147435952Y-93339102D01*
X147435952Y-93339102D02*
X147721666Y-93624816D01*
X147721666Y-93624816D02*
X147412142Y-93624816D01*
X149308333Y-94302190D02*
X149332142Y-94326000D01*
X149332142Y-94326000D02*
X149403571Y-94349809D01*
X149403571Y-94349809D02*
X149451190Y-94349809D01*
X149451190Y-94349809D02*
X149522618Y-94326000D01*
X149522618Y-94326000D02*
X149570237Y-94278380D01*
X149570237Y-94278380D02*
X149594047Y-94230761D01*
X149594047Y-94230761D02*
X149617856Y-94135523D01*
X149617856Y-94135523D02*
X149617856Y-94064095D01*
X149617856Y-94064095D02*
X149594047Y-93968857D01*
X149594047Y-93968857D02*
X149570237Y-93921238D01*
X149570237Y-93921238D02*
X149522618Y-93873619D01*
X149522618Y-93873619D02*
X149451190Y-93849809D01*
X149451190Y-93849809D02*
X149403571Y-93849809D01*
X149403571Y-93849809D02*
X149332142Y-93873619D01*
X149332142Y-93873619D02*
X149308333Y-93897428D01*
X149022618Y-94064095D02*
X149070237Y-94040285D01*
X149070237Y-94040285D02*
X149094047Y-94016476D01*
X149094047Y-94016476D02*
X149117856Y-93968857D01*
X149117856Y-93968857D02*
X149117856Y-93945047D01*
X149117856Y-93945047D02*
X149094047Y-93897428D01*
X149094047Y-93897428D02*
X149070237Y-93873619D01*
X149070237Y-93873619D02*
X149022618Y-93849809D01*
X149022618Y-93849809D02*
X148927380Y-93849809D01*
X148927380Y-93849809D02*
X148879761Y-93873619D01*
X148879761Y-93873619D02*
X148855952Y-93897428D01*
X148855952Y-93897428D02*
X148832142Y-93945047D01*
X148832142Y-93945047D02*
X148832142Y-93968857D01*
X148832142Y-93968857D02*
X148855952Y-94016476D01*
X148855952Y-94016476D02*
X148879761Y-94040285D01*
X148879761Y-94040285D02*
X148927380Y-94064095D01*
X148927380Y-94064095D02*
X149022618Y-94064095D01*
X149022618Y-94064095D02*
X149070237Y-94087904D01*
X149070237Y-94087904D02*
X149094047Y-94111714D01*
X149094047Y-94111714D02*
X149117856Y-94159333D01*
X149117856Y-94159333D02*
X149117856Y-94254571D01*
X149117856Y-94254571D02*
X149094047Y-94302190D01*
X149094047Y-94302190D02*
X149070237Y-94326000D01*
X149070237Y-94326000D02*
X149022618Y-94349809D01*
X149022618Y-94349809D02*
X148927380Y-94349809D01*
X148927380Y-94349809D02*
X148879761Y-94326000D01*
X148879761Y-94326000D02*
X148855952Y-94302190D01*
X148855952Y-94302190D02*
X148832142Y-94254571D01*
X148832142Y-94254571D02*
X148832142Y-94159333D01*
X148832142Y-94159333D02*
X148855952Y-94111714D01*
X148855952Y-94111714D02*
X148879761Y-94087904D01*
X148879761Y-94087904D02*
X148927380Y-94064095D01*
X154877190Y-91028571D02*
X154901000Y-91004762D01*
X154901000Y-91004762D02*
X154924809Y-90933333D01*
X154924809Y-90933333D02*
X154924809Y-90885714D01*
X154924809Y-90885714D02*
X154901000Y-90814286D01*
X154901000Y-90814286D02*
X154853380Y-90766667D01*
X154853380Y-90766667D02*
X154805761Y-90742857D01*
X154805761Y-90742857D02*
X154710523Y-90719048D01*
X154710523Y-90719048D02*
X154639095Y-90719048D01*
X154639095Y-90719048D02*
X154543857Y-90742857D01*
X154543857Y-90742857D02*
X154496238Y-90766667D01*
X154496238Y-90766667D02*
X154448619Y-90814286D01*
X154448619Y-90814286D02*
X154424809Y-90885714D01*
X154424809Y-90885714D02*
X154424809Y-90933333D01*
X154424809Y-90933333D02*
X154448619Y-91004762D01*
X154448619Y-91004762D02*
X154472428Y-91028571D01*
X154924809Y-91504762D02*
X154924809Y-91219048D01*
X154924809Y-91361905D02*
X154424809Y-91361905D01*
X154424809Y-91361905D02*
X154496238Y-91314286D01*
X154496238Y-91314286D02*
X154543857Y-91266667D01*
X154543857Y-91266667D02*
X154567666Y-91219048D01*
X154924809Y-91980952D02*
X154924809Y-91695238D01*
X154924809Y-91838095D02*
X154424809Y-91838095D01*
X154424809Y-91838095D02*
X154496238Y-91790476D01*
X154496238Y-91790476D02*
X154543857Y-91742857D01*
X154543857Y-91742857D02*
X154567666Y-91695238D01*
X152727190Y-91341666D02*
X152751000Y-91317857D01*
X152751000Y-91317857D02*
X152774809Y-91246428D01*
X152774809Y-91246428D02*
X152774809Y-91198809D01*
X152774809Y-91198809D02*
X152751000Y-91127381D01*
X152751000Y-91127381D02*
X152703380Y-91079762D01*
X152703380Y-91079762D02*
X152655761Y-91055952D01*
X152655761Y-91055952D02*
X152560523Y-91032143D01*
X152560523Y-91032143D02*
X152489095Y-91032143D01*
X152489095Y-91032143D02*
X152393857Y-91055952D01*
X152393857Y-91055952D02*
X152346238Y-91079762D01*
X152346238Y-91079762D02*
X152298619Y-91127381D01*
X152298619Y-91127381D02*
X152274809Y-91198809D01*
X152274809Y-91198809D02*
X152274809Y-91246428D01*
X152274809Y-91246428D02*
X152298619Y-91317857D01*
X152298619Y-91317857D02*
X152322428Y-91341666D01*
X152774809Y-91579762D02*
X152774809Y-91675000D01*
X152774809Y-91675000D02*
X152751000Y-91722619D01*
X152751000Y-91722619D02*
X152727190Y-91746428D01*
X152727190Y-91746428D02*
X152655761Y-91794047D01*
X152655761Y-91794047D02*
X152560523Y-91817857D01*
X152560523Y-91817857D02*
X152370047Y-91817857D01*
X152370047Y-91817857D02*
X152322428Y-91794047D01*
X152322428Y-91794047D02*
X152298619Y-91770238D01*
X152298619Y-91770238D02*
X152274809Y-91722619D01*
X152274809Y-91722619D02*
X152274809Y-91627381D01*
X152274809Y-91627381D02*
X152298619Y-91579762D01*
X152298619Y-91579762D02*
X152322428Y-91555952D01*
X152322428Y-91555952D02*
X152370047Y-91532143D01*
X152370047Y-91532143D02*
X152489095Y-91532143D01*
X152489095Y-91532143D02*
X152536714Y-91555952D01*
X152536714Y-91555952D02*
X152560523Y-91579762D01*
X152560523Y-91579762D02*
X152584333Y-91627381D01*
X152584333Y-91627381D02*
X152584333Y-91722619D01*
X152584333Y-91722619D02*
X152560523Y-91770238D01*
X152560523Y-91770238D02*
X152536714Y-91794047D01*
X152536714Y-91794047D02*
X152489095Y-91817857D01*
X148021428Y-89452190D02*
X148045237Y-89476000D01*
X148045237Y-89476000D02*
X148116666Y-89499809D01*
X148116666Y-89499809D02*
X148164285Y-89499809D01*
X148164285Y-89499809D02*
X148235713Y-89476000D01*
X148235713Y-89476000D02*
X148283332Y-89428380D01*
X148283332Y-89428380D02*
X148307142Y-89380761D01*
X148307142Y-89380761D02*
X148330951Y-89285523D01*
X148330951Y-89285523D02*
X148330951Y-89214095D01*
X148330951Y-89214095D02*
X148307142Y-89118857D01*
X148307142Y-89118857D02*
X148283332Y-89071238D01*
X148283332Y-89071238D02*
X148235713Y-89023619D01*
X148235713Y-89023619D02*
X148164285Y-88999809D01*
X148164285Y-88999809D02*
X148116666Y-88999809D01*
X148116666Y-88999809D02*
X148045237Y-89023619D01*
X148045237Y-89023619D02*
X148021428Y-89047428D01*
X147545237Y-89499809D02*
X147830951Y-89499809D01*
X147688094Y-89499809D02*
X147688094Y-88999809D01*
X147688094Y-88999809D02*
X147735713Y-89071238D01*
X147735713Y-89071238D02*
X147783332Y-89118857D01*
X147783332Y-89118857D02*
X147830951Y-89142666D01*
X147354761Y-89047428D02*
X147330952Y-89023619D01*
X147330952Y-89023619D02*
X147283333Y-88999809D01*
X147283333Y-88999809D02*
X147164285Y-88999809D01*
X147164285Y-88999809D02*
X147116666Y-89023619D01*
X147116666Y-89023619D02*
X147092857Y-89047428D01*
X147092857Y-89047428D02*
X147069047Y-89095047D01*
X147069047Y-89095047D02*
X147069047Y-89142666D01*
X147069047Y-89142666D02*
X147092857Y-89214095D01*
X147092857Y-89214095D02*
X147378571Y-89499809D01*
X147378571Y-89499809D02*
X147069047Y-89499809D01*
X153477190Y-91003571D02*
X153501000Y-90979762D01*
X153501000Y-90979762D02*
X153524809Y-90908333D01*
X153524809Y-90908333D02*
X153524809Y-90860714D01*
X153524809Y-90860714D02*
X153501000Y-90789286D01*
X153501000Y-90789286D02*
X153453380Y-90741667D01*
X153453380Y-90741667D02*
X153405761Y-90717857D01*
X153405761Y-90717857D02*
X153310523Y-90694048D01*
X153310523Y-90694048D02*
X153239095Y-90694048D01*
X153239095Y-90694048D02*
X153143857Y-90717857D01*
X153143857Y-90717857D02*
X153096238Y-90741667D01*
X153096238Y-90741667D02*
X153048619Y-90789286D01*
X153048619Y-90789286D02*
X153024809Y-90860714D01*
X153024809Y-90860714D02*
X153024809Y-90908333D01*
X153024809Y-90908333D02*
X153048619Y-90979762D01*
X153048619Y-90979762D02*
X153072428Y-91003571D01*
X153524809Y-91479762D02*
X153524809Y-91194048D01*
X153524809Y-91336905D02*
X153024809Y-91336905D01*
X153024809Y-91336905D02*
X153096238Y-91289286D01*
X153096238Y-91289286D02*
X153143857Y-91241667D01*
X153143857Y-91241667D02*
X153167666Y-91194048D01*
X153024809Y-91789285D02*
X153024809Y-91836904D01*
X153024809Y-91836904D02*
X153048619Y-91884523D01*
X153048619Y-91884523D02*
X153072428Y-91908333D01*
X153072428Y-91908333D02*
X153120047Y-91932142D01*
X153120047Y-91932142D02*
X153215285Y-91955952D01*
X153215285Y-91955952D02*
X153334333Y-91955952D01*
X153334333Y-91955952D02*
X153429571Y-91932142D01*
X153429571Y-91932142D02*
X153477190Y-91908333D01*
X153477190Y-91908333D02*
X153501000Y-91884523D01*
X153501000Y-91884523D02*
X153524809Y-91836904D01*
X153524809Y-91836904D02*
X153524809Y-91789285D01*
X153524809Y-91789285D02*
X153501000Y-91741666D01*
X153501000Y-91741666D02*
X153477190Y-91717857D01*
X153477190Y-91717857D02*
X153429571Y-91694047D01*
X153429571Y-91694047D02*
X153334333Y-91670238D01*
X153334333Y-91670238D02*
X153215285Y-91670238D01*
X153215285Y-91670238D02*
X153120047Y-91694047D01*
X153120047Y-91694047D02*
X153072428Y-91717857D01*
X153072428Y-91717857D02*
X153048619Y-91741666D01*
X153048619Y-91741666D02*
X153024809Y-91789285D01*
X151483333Y-91349809D02*
X151649999Y-91111714D01*
X151769047Y-91349809D02*
X151769047Y-90849809D01*
X151769047Y-90849809D02*
X151578571Y-90849809D01*
X151578571Y-90849809D02*
X151530952Y-90873619D01*
X151530952Y-90873619D02*
X151507142Y-90897428D01*
X151507142Y-90897428D02*
X151483333Y-90945047D01*
X151483333Y-90945047D02*
X151483333Y-91016476D01*
X151483333Y-91016476D02*
X151507142Y-91064095D01*
X151507142Y-91064095D02*
X151530952Y-91087904D01*
X151530952Y-91087904D02*
X151578571Y-91111714D01*
X151578571Y-91111714D02*
X151769047Y-91111714D01*
X151197618Y-91064095D02*
X151245237Y-91040285D01*
X151245237Y-91040285D02*
X151269047Y-91016476D01*
X151269047Y-91016476D02*
X151292856Y-90968857D01*
X151292856Y-90968857D02*
X151292856Y-90945047D01*
X151292856Y-90945047D02*
X151269047Y-90897428D01*
X151269047Y-90897428D02*
X151245237Y-90873619D01*
X151245237Y-90873619D02*
X151197618Y-90849809D01*
X151197618Y-90849809D02*
X151102380Y-90849809D01*
X151102380Y-90849809D02*
X151054761Y-90873619D01*
X151054761Y-90873619D02*
X151030952Y-90897428D01*
X151030952Y-90897428D02*
X151007142Y-90945047D01*
X151007142Y-90945047D02*
X151007142Y-90968857D01*
X151007142Y-90968857D02*
X151030952Y-91016476D01*
X151030952Y-91016476D02*
X151054761Y-91040285D01*
X151054761Y-91040285D02*
X151102380Y-91064095D01*
X151102380Y-91064095D02*
X151197618Y-91064095D01*
X151197618Y-91064095D02*
X151245237Y-91087904D01*
X151245237Y-91087904D02*
X151269047Y-91111714D01*
X151269047Y-91111714D02*
X151292856Y-91159333D01*
X151292856Y-91159333D02*
X151292856Y-91254571D01*
X151292856Y-91254571D02*
X151269047Y-91302190D01*
X151269047Y-91302190D02*
X151245237Y-91326000D01*
X151245237Y-91326000D02*
X151197618Y-91349809D01*
X151197618Y-91349809D02*
X151102380Y-91349809D01*
X151102380Y-91349809D02*
X151054761Y-91326000D01*
X151054761Y-91326000D02*
X151030952Y-91302190D01*
X151030952Y-91302190D02*
X151007142Y-91254571D01*
X151007142Y-91254571D02*
X151007142Y-91159333D01*
X151007142Y-91159333D02*
X151030952Y-91111714D01*
X151030952Y-91111714D02*
X151054761Y-91087904D01*
X151054761Y-91087904D02*
X151102380Y-91064095D01*
X150977190Y-96191666D02*
X151001000Y-96167857D01*
X151001000Y-96167857D02*
X151024809Y-96096428D01*
X151024809Y-96096428D02*
X151024809Y-96048809D01*
X151024809Y-96048809D02*
X151001000Y-95977381D01*
X151001000Y-95977381D02*
X150953380Y-95929762D01*
X150953380Y-95929762D02*
X150905761Y-95905952D01*
X150905761Y-95905952D02*
X150810523Y-95882143D01*
X150810523Y-95882143D02*
X150739095Y-95882143D01*
X150739095Y-95882143D02*
X150643857Y-95905952D01*
X150643857Y-95905952D02*
X150596238Y-95929762D01*
X150596238Y-95929762D02*
X150548619Y-95977381D01*
X150548619Y-95977381D02*
X150524809Y-96048809D01*
X150524809Y-96048809D02*
X150524809Y-96096428D01*
X150524809Y-96096428D02*
X150548619Y-96167857D01*
X150548619Y-96167857D02*
X150572428Y-96191666D01*
X150691476Y-96620238D02*
X151024809Y-96620238D01*
X150501000Y-96501190D02*
X150858142Y-96382143D01*
X150858142Y-96382143D02*
X150858142Y-96691666D01*
X154224809Y-91391666D02*
X153986714Y-91225000D01*
X154224809Y-91105952D02*
X153724809Y-91105952D01*
X153724809Y-91105952D02*
X153724809Y-91296428D01*
X153724809Y-91296428D02*
X153748619Y-91344047D01*
X153748619Y-91344047D02*
X153772428Y-91367857D01*
X153772428Y-91367857D02*
X153820047Y-91391666D01*
X153820047Y-91391666D02*
X153891476Y-91391666D01*
X153891476Y-91391666D02*
X153939095Y-91367857D01*
X153939095Y-91367857D02*
X153962904Y-91344047D01*
X153962904Y-91344047D02*
X153986714Y-91296428D01*
X153986714Y-91296428D02*
X153986714Y-91105952D01*
X153772428Y-91582143D02*
X153748619Y-91605952D01*
X153748619Y-91605952D02*
X153724809Y-91653571D01*
X153724809Y-91653571D02*
X153724809Y-91772619D01*
X153724809Y-91772619D02*
X153748619Y-91820238D01*
X153748619Y-91820238D02*
X153772428Y-91844047D01*
X153772428Y-91844047D02*
X153820047Y-91867857D01*
X153820047Y-91867857D02*
X153867666Y-91867857D01*
X153867666Y-91867857D02*
X153939095Y-91844047D01*
X153939095Y-91844047D02*
X154224809Y-91558333D01*
X154224809Y-91558333D02*
X154224809Y-91867857D01*
X146383333Y-100549809D02*
X146549999Y-100311714D01*
X146669047Y-100549809D02*
X146669047Y-100049809D01*
X146669047Y-100049809D02*
X146478571Y-100049809D01*
X146478571Y-100049809D02*
X146430952Y-100073619D01*
X146430952Y-100073619D02*
X146407142Y-100097428D01*
X146407142Y-100097428D02*
X146383333Y-100145047D01*
X146383333Y-100145047D02*
X146383333Y-100216476D01*
X146383333Y-100216476D02*
X146407142Y-100264095D01*
X146407142Y-100264095D02*
X146430952Y-100287904D01*
X146430952Y-100287904D02*
X146478571Y-100311714D01*
X146478571Y-100311714D02*
X146669047Y-100311714D01*
X146216666Y-100049809D02*
X145883333Y-100049809D01*
X145883333Y-100049809D02*
X146097618Y-100549809D01*
X148552190Y-90196670D02*
X148576000Y-90172861D01*
X148576000Y-90172861D02*
X148599809Y-90101432D01*
X148599809Y-90101432D02*
X148599809Y-90053813D01*
X148599809Y-90053813D02*
X148576000Y-89982385D01*
X148576000Y-89982385D02*
X148528380Y-89934766D01*
X148528380Y-89934766D02*
X148480761Y-89910956D01*
X148480761Y-89910956D02*
X148385523Y-89887147D01*
X148385523Y-89887147D02*
X148314095Y-89887147D01*
X148314095Y-89887147D02*
X148218857Y-89910956D01*
X148218857Y-89910956D02*
X148171238Y-89934766D01*
X148171238Y-89934766D02*
X148123619Y-89982385D01*
X148123619Y-89982385D02*
X148099809Y-90053813D01*
X148099809Y-90053813D02*
X148099809Y-90101432D01*
X148099809Y-90101432D02*
X148123619Y-90172861D01*
X148123619Y-90172861D02*
X148147428Y-90196670D01*
X148599809Y-90672861D02*
X148599809Y-90387147D01*
X148599809Y-90530004D02*
X148099809Y-90530004D01*
X148099809Y-90530004D02*
X148171238Y-90482385D01*
X148171238Y-90482385D02*
X148218857Y-90434766D01*
X148218857Y-90434766D02*
X148242666Y-90387147D01*
X148730952Y-99274809D02*
X148730952Y-99679571D01*
X148730952Y-99679571D02*
X148707142Y-99727190D01*
X148707142Y-99727190D02*
X148683333Y-99751000D01*
X148683333Y-99751000D02*
X148635714Y-99774809D01*
X148635714Y-99774809D02*
X148540476Y-99774809D01*
X148540476Y-99774809D02*
X148492857Y-99751000D01*
X148492857Y-99751000D02*
X148469047Y-99727190D01*
X148469047Y-99727190D02*
X148445238Y-99679571D01*
X148445238Y-99679571D02*
X148445238Y-99274809D01*
X148254761Y-99274809D02*
X147945237Y-99274809D01*
X147945237Y-99274809D02*
X148111904Y-99465285D01*
X148111904Y-99465285D02*
X148040475Y-99465285D01*
X148040475Y-99465285D02*
X147992856Y-99489095D01*
X147992856Y-99489095D02*
X147969047Y-99512904D01*
X147969047Y-99512904D02*
X147945237Y-99560523D01*
X147945237Y-99560523D02*
X147945237Y-99679571D01*
X147945237Y-99679571D02*
X147969047Y-99727190D01*
X147969047Y-99727190D02*
X147992856Y-99751000D01*
X147992856Y-99751000D02*
X148040475Y-99774809D01*
X148040475Y-99774809D02*
X148183332Y-99774809D01*
X148183332Y-99774809D02*
X148230951Y-99751000D01*
X148230951Y-99751000D02*
X148254761Y-99727190D01*
X151771428Y-92027190D02*
X151795237Y-92051000D01*
X151795237Y-92051000D02*
X151866666Y-92074809D01*
X151866666Y-92074809D02*
X151914285Y-92074809D01*
X151914285Y-92074809D02*
X151985713Y-92051000D01*
X151985713Y-92051000D02*
X152033332Y-92003380D01*
X152033332Y-92003380D02*
X152057142Y-91955761D01*
X152057142Y-91955761D02*
X152080951Y-91860523D01*
X152080951Y-91860523D02*
X152080951Y-91789095D01*
X152080951Y-91789095D02*
X152057142Y-91693857D01*
X152057142Y-91693857D02*
X152033332Y-91646238D01*
X152033332Y-91646238D02*
X151985713Y-91598619D01*
X151985713Y-91598619D02*
X151914285Y-91574809D01*
X151914285Y-91574809D02*
X151866666Y-91574809D01*
X151866666Y-91574809D02*
X151795237Y-91598619D01*
X151795237Y-91598619D02*
X151771428Y-91622428D01*
X151295237Y-92074809D02*
X151580951Y-92074809D01*
X151438094Y-92074809D02*
X151438094Y-91574809D01*
X151438094Y-91574809D02*
X151485713Y-91646238D01*
X151485713Y-91646238D02*
X151533332Y-91693857D01*
X151533332Y-91693857D02*
X151580951Y-91717666D01*
X150866666Y-91741476D02*
X150866666Y-92074809D01*
X150985714Y-91551000D02*
X151104761Y-91908142D01*
X151104761Y-91908142D02*
X150795238Y-91908142D01*
X150077190Y-96191666D02*
X150101000Y-96167857D01*
X150101000Y-96167857D02*
X150124809Y-96096428D01*
X150124809Y-96096428D02*
X150124809Y-96048809D01*
X150124809Y-96048809D02*
X150101000Y-95977381D01*
X150101000Y-95977381D02*
X150053380Y-95929762D01*
X150053380Y-95929762D02*
X150005761Y-95905952D01*
X150005761Y-95905952D02*
X149910523Y-95882143D01*
X149910523Y-95882143D02*
X149839095Y-95882143D01*
X149839095Y-95882143D02*
X149743857Y-95905952D01*
X149743857Y-95905952D02*
X149696238Y-95929762D01*
X149696238Y-95929762D02*
X149648619Y-95977381D01*
X149648619Y-95977381D02*
X149624809Y-96048809D01*
X149624809Y-96048809D02*
X149624809Y-96096428D01*
X149624809Y-96096428D02*
X149648619Y-96167857D01*
X149648619Y-96167857D02*
X149672428Y-96191666D01*
X149624809Y-96358333D02*
X149624809Y-96667857D01*
X149624809Y-96667857D02*
X149815285Y-96501190D01*
X149815285Y-96501190D02*
X149815285Y-96572619D01*
X149815285Y-96572619D02*
X149839095Y-96620238D01*
X149839095Y-96620238D02*
X149862904Y-96644047D01*
X149862904Y-96644047D02*
X149910523Y-96667857D01*
X149910523Y-96667857D02*
X150029571Y-96667857D01*
X150029571Y-96667857D02*
X150077190Y-96644047D01*
X150077190Y-96644047D02*
X150101000Y-96620238D01*
X150101000Y-96620238D02*
X150124809Y-96572619D01*
X150124809Y-96572619D02*
X150124809Y-96429762D01*
X150124809Y-96429762D02*
X150101000Y-96382143D01*
X150101000Y-96382143D02*
X150077190Y-96358333D01*
D12*
X140313500Y-99799994D02*
X143913501Y-99799996D01*
X143913497Y-92719000D02*
X143913501Y-92231001D01*
X143913497Y-99300000D02*
X143913496Y-99231001D01*
X143913498Y-89899995D02*
X140313497Y-89899996D01*
X143913501Y-95218998D02*
X143913499Y-94480998D01*
X143913501Y-97469000D02*
X143913503Y-96981000D01*
X143913501Y-99799996D02*
X143913496Y-99231001D01*
X143913504Y-90469002D02*
X143913498Y-89899995D01*
D13*
X145832831Y-90135003D02*
X145617162Y-90134995D01*
X145832838Y-89415005D02*
X145617169Y-89414997D01*
X150364998Y-97742167D02*
X150365002Y-97957838D01*
X151084998Y-97742162D02*
X151085002Y-97957833D01*
D14*
X146010004Y-96047499D02*
X146009998Y-97672500D01*
X149140002Y-96047500D02*
X149139996Y-97672501D01*
D15*
X146729998Y-94305000D02*
G75*
G02*
X146530000Y-94305000I-99999J0D01*
G01*
X146530000Y-94305000D02*
G75*
G02*
X146729998Y-94305000I99999J0D01*
G01*
D16*
G36*
X153444572Y-98704344D02*
G01*
X154144143Y-99405000D01*
X153593984Y-99405000D01*
X153043825Y-99405000D01*
X152963520Y-99275000D01*
X152912015Y-99181613D01*
X152809958Y-98913364D01*
X152747959Y-98613223D01*
X152733194Y-98311224D01*
X152745000Y-98003689D01*
X153444572Y-98704344D01*
G37*
G36*
X154665182Y-99884817D02*
G01*
X154650461Y-99899605D01*
X154493849Y-100056709D01*
X154378472Y-100164271D01*
X154288469Y-100227088D01*
X154207980Y-100249956D01*
X154121145Y-100237673D01*
X154012106Y-100195036D01*
X153865000Y-100126841D01*
X153709268Y-100046158D01*
X153421283Y-99847429D01*
X153185498Y-99615000D01*
X153077889Y-99485000D01*
X154070694Y-99485000D01*
X155063500Y-99485000D01*
X154665182Y-99884817D01*
G37*
G36*
X154365000Y-97025000D02*
G01*
X154214533Y-97175407D01*
X154036286Y-97352893D01*
X153883510Y-97504233D01*
X153763947Y-97621789D01*
X153685339Y-97697924D01*
X153655429Y-97725000D01*
X153654151Y-97720827D01*
X153650553Y-97660241D01*
X153647649Y-97538730D01*
X153645708Y-97370676D01*
X153645000Y-97170462D01*
X153645000Y-96615925D01*
X153875000Y-96512815D01*
X153947668Y-96481281D01*
X154208046Y-96390354D01*
X154467584Y-96341267D01*
X154764572Y-96325977D01*
X155064143Y-96325000D01*
X154365000Y-97025000D01*
G37*
G36*
X155765001Y-99474628D02*
G01*
X155765001Y-100043374D01*
X155604974Y-100125013D01*
X155548766Y-100151455D01*
X155392732Y-100212991D01*
X155234974Y-100263194D01*
X155144944Y-100282252D01*
X154998638Y-100301992D01*
X154835993Y-100315621D01*
X154676157Y-100322416D01*
X154538281Y-100321653D01*
X154441512Y-100312608D01*
X154405000Y-100294558D01*
X154417783Y-100275920D01*
X154479213Y-100206655D01*
X154584438Y-100094803D01*
X154725670Y-99948492D01*
X154895120Y-99775848D01*
X155085000Y-99585000D01*
X155765001Y-98905882D01*
X155765001Y-99474628D01*
G37*
G36*
X156284818Y-98384818D02*
G01*
X156429425Y-98531151D01*
X156549941Y-98660781D01*
X156624061Y-98753496D01*
X156658832Y-98818268D01*
X156661302Y-98864067D01*
X156630597Y-98956985D01*
X156512927Y-99214580D01*
X156356185Y-99469116D01*
X156180309Y-99686504D01*
X156145525Y-99722563D01*
X156041002Y-99825812D01*
X155960414Y-99897899D01*
X155918912Y-99925000D01*
X155912057Y-99904966D01*
X155903332Y-99815949D01*
X155895883Y-99665640D01*
X155890091Y-99464918D01*
X155886337Y-99224662D01*
X155885000Y-98955750D01*
X155885000Y-97986500D01*
X156284818Y-98384818D01*
G37*
G36*
X153532042Y-96731081D02*
G01*
X153543137Y-96799197D01*
X153552269Y-96936981D01*
X153559149Y-97137024D01*
X153563490Y-97391916D01*
X153565000Y-97694249D01*
X153565000Y-98663499D01*
X153165183Y-98265181D01*
X153138396Y-98238537D01*
X152984037Y-98084672D01*
X152879114Y-97970656D01*
X152819357Y-97880008D01*
X152800495Y-97796244D01*
X152818259Y-97702884D01*
X152868376Y-97583445D01*
X152946578Y-97421446D01*
X152958921Y-97396689D01*
X153041986Y-97255311D01*
X153146749Y-97105270D01*
X153260431Y-96961891D01*
X153370255Y-96840502D01*
X153463442Y-96756430D01*
X153527215Y-96724999D01*
X153532042Y-96731081D01*
G37*
G36*
X155332759Y-96413674D02*
G01*
X155444828Y-96457510D01*
X155596505Y-96527118D01*
X155675096Y-96568625D01*
X155809624Y-96655392D01*
X155954165Y-96761944D01*
X156093346Y-96875534D01*
X156211794Y-96983418D01*
X156294137Y-97072852D01*
X156325000Y-97131088D01*
X156304967Y-97137943D01*
X156215950Y-97146668D01*
X156065641Y-97154117D01*
X155864919Y-97159909D01*
X155624663Y-97163663D01*
X155355751Y-97165000D01*
X154386501Y-97165000D01*
X154784819Y-96765182D01*
X154803827Y-96746082D01*
X154959016Y-96590337D01*
X155073426Y-96483938D01*
X155163136Y-96422172D01*
X155244221Y-96400322D01*
X155332759Y-96413674D01*
G37*
G36*
X155914263Y-97245010D02*
G01*
X156116840Y-97245911D01*
X156256405Y-97249897D01*
X156347075Y-97259247D01*
X156402966Y-97276237D01*
X156438194Y-97303145D01*
X156466876Y-97342248D01*
X156575445Y-97550454D01*
X156669802Y-97871101D01*
X156715548Y-98255000D01*
X156719752Y-98362800D01*
X156720216Y-98508187D01*
X156713675Y-98607949D01*
X156700777Y-98645000D01*
X156675943Y-98628202D01*
X156601845Y-98562923D01*
X156489139Y-98457370D01*
X156347446Y-98321120D01*
X156186388Y-98163752D01*
X156015587Y-97994844D01*
X155844665Y-97823974D01*
X155683244Y-97660721D01*
X155540945Y-97514663D01*
X155427390Y-97395378D01*
X155352202Y-97312444D01*
X155325000Y-97275441D01*
X155327776Y-97272351D01*
X155384137Y-97261620D01*
X155502031Y-97252936D01*
X155666874Y-97247121D01*
X155864078Y-97244999D01*
X155914263Y-97245010D01*
G37*
G36*
X155165000Y-97423172D02*
G01*
X155164988Y-97432074D01*
X155157645Y-97522128D01*
X155121404Y-97558334D01*
X155033770Y-97565000D01*
X154979511Y-97567616D01*
X154904994Y-97598868D01*
X154857572Y-97684132D01*
X154845157Y-97723770D01*
X154842051Y-97771365D01*
X154856265Y-97830559D01*
X154892924Y-97912532D01*
X154957151Y-98028466D01*
X155054069Y-98189539D01*
X155188802Y-98406933D01*
X155297096Y-98581438D01*
X155404160Y-98755625D01*
X155489007Y-98895522D01*
X155544875Y-98989967D01*
X155565000Y-99027800D01*
X155554269Y-99033400D01*
X155485799Y-99041123D01*
X155375000Y-99043495D01*
X155185000Y-99041991D01*
X154946118Y-98660366D01*
X154860284Y-98524850D01*
X154774722Y-98393435D01*
X154712037Y-98301366D01*
X154681789Y-98263015D01*
X154658944Y-98290994D01*
X154614717Y-98380139D01*
X154555643Y-98516525D01*
X154488132Y-98686144D01*
X154421805Y-98853314D01*
X154361347Y-98994452D01*
X154315278Y-99089913D01*
X154290228Y-99125000D01*
X154244707Y-99114480D01*
X154144233Y-99084291D01*
X154012767Y-99041327D01*
X153972290Y-99027417D01*
X153845816Y-98975315D01*
X153783062Y-98922247D01*
X153772637Y-98852376D01*
X153803151Y-98749865D01*
X153829743Y-98693702D01*
X153876354Y-98667823D01*
X153965247Y-98685070D01*
X153984982Y-98690468D01*
X154071059Y-98700239D01*
X154109409Y-98667936D01*
X154124554Y-98628795D01*
X154165206Y-98524034D01*
X154225474Y-98368858D01*
X154300226Y-98176483D01*
X154384327Y-97960127D01*
X154639030Y-97305000D01*
X154902015Y-97293172D01*
X155165000Y-97281344D01*
X155165000Y-97423172D01*
G37*
D13*
X149439998Y-97742167D02*
X149440002Y-97957838D01*
X150159998Y-97742162D02*
X150160002Y-97957833D01*
%LPC*%
D17*
X144463501Y-98349999D03*
X144463502Y-96099999D03*
X144463500Y-93599998D03*
X144463499Y-91349999D03*
D18*
X142163495Y-97199998D03*
X142163504Y-92499997D03*
D19*
X146255002Y-93400003D03*
X146894998Y-93399997D03*
X147605002Y-94125003D03*
X148244998Y-94124997D03*
D20*
X150299998Y-92020000D03*
X150300002Y-91380000D03*
X147649998Y-92020000D03*
X147650002Y-91380000D03*
D21*
X145245001Y-89774999D03*
X146204999Y-89775001D03*
D20*
X148349998Y-92020000D03*
X148350002Y-91380000D03*
D22*
X146670000Y-90900000D03*
X146030000Y-90900000D03*
D23*
X150725000Y-98329999D03*
X150725000Y-97370001D03*
D20*
X149599997Y-92020000D03*
X149600003Y-91380000D03*
D22*
X146620000Y-99625000D03*
X145980000Y-99625000D03*
D20*
X147650000Y-90600000D03*
X147650004Y-89960000D03*
D24*
X146624999Y-95605004D03*
X147575004Y-95605001D03*
X148525000Y-95604996D03*
X148525001Y-98114996D03*
X147574996Y-98114999D03*
X146625000Y-98115004D03*
D19*
X146035004Y-91600006D03*
X146675000Y-91600000D03*
D23*
X149800001Y-98329999D03*
X149799999Y-97370001D03*
%LPD*%
M02*
