%TF.GenerationSoftware,KiCad,Pcbnew,8.0.9-8.0.9-0~ubuntu22.04.1*%
%TF.CreationDate,2025-06-17T17:41:43-06:00*%
%TF.ProjectId,dongle,646f6e67-6c65-42e6-9b69-6361645f7063,rev?*%
%TF.SameCoordinates,Original*%
%TF.FileFunction,Drillmap*%
%TF.FilePolarity,Positive*%
%FSLAX45Y45*%
G04 Gerber Fmt 4.5, Leading zero omitted, Abs format (unit mm)*
G04 Created by KiCad (PCBNEW 8.0.9-8.0.9-0~ubuntu22.04.1) date 2025-06-17 17:41:43*
%MOMM*%
%LPD*%
G01*
G04 APERTURE LIST*
%ADD10C,0.150000*%
%ADD11C,0.200000*%
%ADD12C,0.100000*%
G04 APERTURE END LIST*
D10*
X14987500Y-8840000D02*
X14837500Y-8840000D01*
X15105000Y-9925000D02*
X15105000Y-10105000D01*
X14837500Y-10130000D02*
X14987500Y-10130000D01*
X14820000Y-8865000D02*
X14175000Y-8865000D01*
X14175000Y-10105000D02*
X14175000Y-10005000D01*
X14175000Y-10005000D02*
X14025000Y-10005000D01*
X15445000Y-10105000D02*
X15715000Y-9995000D01*
X15715000Y-8865000D02*
X15715000Y-9995000D01*
X15005000Y-8865000D02*
X14987500Y-8840000D01*
X15105000Y-8865000D02*
X15005001Y-8864999D01*
X15005000Y-10105000D02*
X15105000Y-10105000D01*
X14025000Y-8965000D02*
X14025000Y-10005000D01*
X14820000Y-10105000D02*
X14837500Y-10130000D01*
X14767500Y-10105000D02*
X14820000Y-10105000D01*
X14987500Y-10130000D02*
X15005000Y-10105000D01*
X15205000Y-9925000D02*
X15205000Y-10105000D01*
X15445000Y-10105000D02*
X15205000Y-10105000D01*
X14175000Y-8865000D02*
X14175000Y-8965000D01*
X14175000Y-8965000D02*
X14025000Y-8965000D01*
X15325000Y-9267500D02*
G75*
G02*
X15205000Y-9267500I-60000J0D01*
G01*
X15205000Y-9267500D02*
G75*
G02*
X15325000Y-9267500I60000J0D01*
G01*
X14837500Y-8840000D02*
X14820000Y-8865000D01*
X14175000Y-10105000D02*
X14767500Y-10105000D01*
X15715000Y-8865000D02*
X15105000Y-8865000D01*
X15105000Y-9925000D02*
G75*
G02*
X15205000Y-9925000I50000J0D01*
G01*
D11*
D12*
X14135000Y-9887500D02*
X14165000Y-9917500D01*
X14165000Y-9887500D02*
X14135000Y-9917500D01*
X14140000Y-9060000D02*
X14170000Y-9090000D01*
X14170000Y-9060000D02*
X14140000Y-9090000D01*
X14140000Y-9567500D02*
X14170000Y-9597500D01*
X14170000Y-9567500D02*
X14140000Y-9597500D01*
X14142500Y-9452500D02*
X14172500Y-9482500D01*
X14172500Y-9452500D02*
X14142500Y-9482500D01*
X14240000Y-9052500D02*
X14270000Y-9082500D01*
X14270000Y-9052500D02*
X14240000Y-9082500D01*
X14260000Y-9950000D02*
X14290000Y-9980000D01*
X14290000Y-9950000D02*
X14260000Y-9980000D01*
X14395000Y-8932500D02*
X14425000Y-8962500D01*
X14425000Y-8932500D02*
X14395000Y-8962500D01*
X14467500Y-9227500D02*
X14497500Y-9257500D01*
X14497500Y-9227500D02*
X14467500Y-9257500D01*
X14502500Y-9950000D02*
X14532500Y-9980000D01*
X14532500Y-9950000D02*
X14502500Y-9980000D01*
X14547500Y-10027500D02*
X14577500Y-10057500D01*
X14577500Y-10027500D02*
X14547500Y-10057500D01*
X14567500Y-9740000D02*
X14597500Y-9770000D01*
X14597500Y-9740000D02*
X14567500Y-9770000D01*
X14584000Y-9226000D02*
X14614000Y-9256000D01*
X14614000Y-9226000D02*
X14584000Y-9256000D01*
X14605000Y-9445000D02*
X14635000Y-9475000D01*
X14635000Y-9445000D02*
X14605000Y-9475000D01*
X14657500Y-9262500D02*
X14687500Y-9292500D01*
X14687500Y-9262500D02*
X14657500Y-9292500D01*
X14677500Y-9437500D02*
X14707500Y-9467500D01*
X14707500Y-9437500D02*
X14677500Y-9467500D01*
X14707500Y-8932500D02*
X14737500Y-8962500D01*
X14737500Y-8932500D02*
X14707500Y-8962500D01*
X14710000Y-9687500D02*
X14740000Y-9717500D01*
X14740000Y-9687500D02*
X14710000Y-9717500D01*
X14752500Y-9240000D02*
X14782500Y-9270000D01*
X14782500Y-9240000D02*
X14752500Y-9270000D01*
X14760000Y-9445000D02*
X14790000Y-9475000D01*
X14790000Y-9445000D02*
X14760000Y-9475000D01*
X14797500Y-10002500D02*
X14827500Y-10032500D01*
X14827500Y-10002500D02*
X14797500Y-10032500D01*
X14820000Y-9240000D02*
X14850000Y-9270000D01*
X14850000Y-9240000D02*
X14820000Y-9270000D01*
X14832500Y-9682500D02*
X14862500Y-9712500D01*
X14862500Y-9682500D02*
X14832500Y-9712500D01*
X14865000Y-8932500D02*
X14895000Y-8962500D01*
X14895000Y-8932500D02*
X14865000Y-8962500D01*
X14880000Y-9172500D02*
X14910000Y-9202500D01*
X14910000Y-9172500D02*
X14880000Y-9202500D01*
X14927500Y-9295000D02*
X14957500Y-9325000D01*
X14957500Y-9295000D02*
X14927500Y-9325000D01*
X14930000Y-10002500D02*
X14960000Y-10032500D01*
X14960000Y-10002500D02*
X14930000Y-10032500D01*
X14945000Y-9372500D02*
X14975000Y-9402500D01*
X14975000Y-9372500D02*
X14945000Y-9402500D01*
X14992500Y-8965000D02*
X15022500Y-8995000D01*
X15022500Y-8965000D02*
X14992500Y-8995000D01*
X14992500Y-9902500D02*
X15022500Y-9932500D01*
X15022500Y-9902500D02*
X14992500Y-9932500D01*
X15097500Y-8965000D02*
X15127500Y-8995000D01*
X15127500Y-8965000D02*
X15097500Y-8995000D01*
X15115000Y-9195000D02*
X15145000Y-9225000D01*
X15145000Y-9195000D02*
X15115000Y-9225000D01*
X15117500Y-9390000D02*
X15147500Y-9420000D01*
X15147500Y-9390000D02*
X15117500Y-9420000D01*
X15117500Y-9787500D02*
X15147500Y-9817500D01*
X15147500Y-9787500D02*
X15117500Y-9817500D01*
X15120000Y-9587500D02*
X15150000Y-9617500D01*
X15150000Y-9587500D02*
X15120000Y-9617500D01*
X14261349Y-9720000D02*
G75*
G02*
X14171349Y-9720000I-45000J0D01*
G01*
X14171349Y-9720000D02*
G75*
G02*
X14261349Y-9720000I45000J0D01*
G01*
X14151349Y-9765000D02*
X14281349Y-9765000D01*
X14281349Y-9675000D02*
G75*
G02*
X14281349Y-9765000I0J-45000D01*
G01*
X14281349Y-9675000D02*
X14151349Y-9675000D01*
X14151349Y-9675000D02*
G75*
G03*
X14151349Y-9765000I0J-45000D01*
G01*
X14261350Y-9250000D02*
G75*
G02*
X14171350Y-9250000I-45000J0D01*
G01*
X14171350Y-9250000D02*
G75*
G02*
X14261350Y-9250000I45000J0D01*
G01*
X14151350Y-9295000D02*
X14281350Y-9295000D01*
X14281350Y-9205000D02*
G75*
G02*
X14281350Y-9295000I0J-45000D01*
G01*
X14281350Y-9205000D02*
X14151350Y-9205000D01*
X14151350Y-9205000D02*
G75*
G03*
X14151350Y-9295000I0J-45000D01*
G01*
D11*
X14278277Y-10448984D02*
X14278277Y-10248984D01*
X14278277Y-10248984D02*
X14325896Y-10248984D01*
X14325896Y-10248984D02*
X14354467Y-10258508D01*
X14354467Y-10258508D02*
X14373515Y-10277555D01*
X14373515Y-10277555D02*
X14383039Y-10296603D01*
X14383039Y-10296603D02*
X14392562Y-10334698D01*
X14392562Y-10334698D02*
X14392562Y-10363270D01*
X14392562Y-10363270D02*
X14383039Y-10401365D01*
X14383039Y-10401365D02*
X14373515Y-10420412D01*
X14373515Y-10420412D02*
X14354467Y-10439460D01*
X14354467Y-10439460D02*
X14325896Y-10448984D01*
X14325896Y-10448984D02*
X14278277Y-10448984D01*
X14478277Y-10448984D02*
X14478277Y-10315650D01*
X14478277Y-10353746D02*
X14487801Y-10334698D01*
X14487801Y-10334698D02*
X14497324Y-10325174D01*
X14497324Y-10325174D02*
X14516372Y-10315650D01*
X14516372Y-10315650D02*
X14535420Y-10315650D01*
X14602086Y-10448984D02*
X14602086Y-10315650D01*
X14602086Y-10248984D02*
X14592562Y-10258508D01*
X14592562Y-10258508D02*
X14602086Y-10268031D01*
X14602086Y-10268031D02*
X14611610Y-10258508D01*
X14611610Y-10258508D02*
X14602086Y-10248984D01*
X14602086Y-10248984D02*
X14602086Y-10268031D01*
X14725896Y-10448984D02*
X14706848Y-10439460D01*
X14706848Y-10439460D02*
X14697324Y-10420412D01*
X14697324Y-10420412D02*
X14697324Y-10248984D01*
X14830658Y-10448984D02*
X14811610Y-10439460D01*
X14811610Y-10439460D02*
X14802086Y-10420412D01*
X14802086Y-10420412D02*
X14802086Y-10248984D01*
X15059229Y-10448984D02*
X15059229Y-10248984D01*
X15059229Y-10248984D02*
X15125896Y-10391841D01*
X15125896Y-10391841D02*
X15192562Y-10248984D01*
X15192562Y-10248984D02*
X15192562Y-10448984D01*
X15373515Y-10448984D02*
X15373515Y-10344222D01*
X15373515Y-10344222D02*
X15363991Y-10325174D01*
X15363991Y-10325174D02*
X15344943Y-10315650D01*
X15344943Y-10315650D02*
X15306848Y-10315650D01*
X15306848Y-10315650D02*
X15287801Y-10325174D01*
X15373515Y-10439460D02*
X15354467Y-10448984D01*
X15354467Y-10448984D02*
X15306848Y-10448984D01*
X15306848Y-10448984D02*
X15287801Y-10439460D01*
X15287801Y-10439460D02*
X15278277Y-10420412D01*
X15278277Y-10420412D02*
X15278277Y-10401365D01*
X15278277Y-10401365D02*
X15287801Y-10382317D01*
X15287801Y-10382317D02*
X15306848Y-10372793D01*
X15306848Y-10372793D02*
X15354467Y-10372793D01*
X15354467Y-10372793D02*
X15373515Y-10363270D01*
X15468753Y-10315650D02*
X15468753Y-10515650D01*
X15468753Y-10325174D02*
X15487801Y-10315650D01*
X15487801Y-10315650D02*
X15525896Y-10315650D01*
X15525896Y-10315650D02*
X15544943Y-10325174D01*
X15544943Y-10325174D02*
X15554467Y-10334698D01*
X15554467Y-10334698D02*
X15563991Y-10353746D01*
X15563991Y-10353746D02*
X15563991Y-10410889D01*
X15563991Y-10410889D02*
X15554467Y-10429936D01*
X15554467Y-10429936D02*
X15544943Y-10439460D01*
X15544943Y-10439460D02*
X15525896Y-10448984D01*
X15525896Y-10448984D02*
X15487801Y-10448984D01*
X15487801Y-10448984D02*
X15468753Y-10439460D01*
X15649705Y-10429936D02*
X15659229Y-10439460D01*
X15659229Y-10439460D02*
X15649705Y-10448984D01*
X15649705Y-10448984D02*
X15640182Y-10439460D01*
X15640182Y-10439460D02*
X15649705Y-10429936D01*
X15649705Y-10429936D02*
X15649705Y-10448984D01*
X15649705Y-10325174D02*
X15659229Y-10334698D01*
X15659229Y-10334698D02*
X15649705Y-10344222D01*
X15649705Y-10344222D02*
X15640182Y-10334698D01*
X15640182Y-10334698D02*
X15649705Y-10325174D01*
X15649705Y-10325174D02*
X15649705Y-10344222D01*
D12*
X13987500Y-10762500D02*
X14017500Y-10792500D01*
X14017500Y-10762500D02*
X13987500Y-10792500D01*
D11*
X14316372Y-10668984D02*
X14335420Y-10668984D01*
X14335420Y-10668984D02*
X14354467Y-10678508D01*
X14354467Y-10678508D02*
X14363991Y-10688031D01*
X14363991Y-10688031D02*
X14373515Y-10707079D01*
X14373515Y-10707079D02*
X14383039Y-10745174D01*
X14383039Y-10745174D02*
X14383039Y-10792793D01*
X14383039Y-10792793D02*
X14373515Y-10830889D01*
X14373515Y-10830889D02*
X14363991Y-10849936D01*
X14363991Y-10849936D02*
X14354467Y-10859460D01*
X14354467Y-10859460D02*
X14335420Y-10868984D01*
X14335420Y-10868984D02*
X14316372Y-10868984D01*
X14316372Y-10868984D02*
X14297324Y-10859460D01*
X14297324Y-10859460D02*
X14287801Y-10849936D01*
X14287801Y-10849936D02*
X14278277Y-10830889D01*
X14278277Y-10830889D02*
X14268753Y-10792793D01*
X14268753Y-10792793D02*
X14268753Y-10745174D01*
X14268753Y-10745174D02*
X14278277Y-10707079D01*
X14278277Y-10707079D02*
X14287801Y-10688031D01*
X14287801Y-10688031D02*
X14297324Y-10678508D01*
X14297324Y-10678508D02*
X14316372Y-10668984D01*
X14468753Y-10849936D02*
X14478277Y-10859460D01*
X14478277Y-10859460D02*
X14468753Y-10868984D01*
X14468753Y-10868984D02*
X14459229Y-10859460D01*
X14459229Y-10859460D02*
X14468753Y-10849936D01*
X14468753Y-10849936D02*
X14468753Y-10868984D01*
X14544943Y-10668984D02*
X14668753Y-10668984D01*
X14668753Y-10668984D02*
X14602086Y-10745174D01*
X14602086Y-10745174D02*
X14630658Y-10745174D01*
X14630658Y-10745174D02*
X14649705Y-10754698D01*
X14649705Y-10754698D02*
X14659229Y-10764222D01*
X14659229Y-10764222D02*
X14668753Y-10783270D01*
X14668753Y-10783270D02*
X14668753Y-10830889D01*
X14668753Y-10830889D02*
X14659229Y-10849936D01*
X14659229Y-10849936D02*
X14649705Y-10859460D01*
X14649705Y-10859460D02*
X14630658Y-10868984D01*
X14630658Y-10868984D02*
X14573515Y-10868984D01*
X14573515Y-10868984D02*
X14554467Y-10859460D01*
X14554467Y-10859460D02*
X14544943Y-10849936D01*
X14792562Y-10668984D02*
X14811610Y-10668984D01*
X14811610Y-10668984D02*
X14830658Y-10678508D01*
X14830658Y-10678508D02*
X14840182Y-10688031D01*
X14840182Y-10688031D02*
X14849705Y-10707079D01*
X14849705Y-10707079D02*
X14859229Y-10745174D01*
X14859229Y-10745174D02*
X14859229Y-10792793D01*
X14859229Y-10792793D02*
X14849705Y-10830889D01*
X14849705Y-10830889D02*
X14840182Y-10849936D01*
X14840182Y-10849936D02*
X14830658Y-10859460D01*
X14830658Y-10859460D02*
X14811610Y-10868984D01*
X14811610Y-10868984D02*
X14792562Y-10868984D01*
X14792562Y-10868984D02*
X14773515Y-10859460D01*
X14773515Y-10859460D02*
X14763991Y-10849936D01*
X14763991Y-10849936D02*
X14754467Y-10830889D01*
X14754467Y-10830889D02*
X14744943Y-10792793D01*
X14744943Y-10792793D02*
X14744943Y-10745174D01*
X14744943Y-10745174D02*
X14754467Y-10707079D01*
X14754467Y-10707079D02*
X14763991Y-10688031D01*
X14763991Y-10688031D02*
X14773515Y-10678508D01*
X14773515Y-10678508D02*
X14792562Y-10668984D01*
X14983039Y-10668984D02*
X15002086Y-10668984D01*
X15002086Y-10668984D02*
X15021134Y-10678508D01*
X15021134Y-10678508D02*
X15030658Y-10688031D01*
X15030658Y-10688031D02*
X15040182Y-10707079D01*
X15040182Y-10707079D02*
X15049705Y-10745174D01*
X15049705Y-10745174D02*
X15049705Y-10792793D01*
X15049705Y-10792793D02*
X15040182Y-10830889D01*
X15040182Y-10830889D02*
X15030658Y-10849936D01*
X15030658Y-10849936D02*
X15021134Y-10859460D01*
X15021134Y-10859460D02*
X15002086Y-10868984D01*
X15002086Y-10868984D02*
X14983039Y-10868984D01*
X14983039Y-10868984D02*
X14963991Y-10859460D01*
X14963991Y-10859460D02*
X14954467Y-10849936D01*
X14954467Y-10849936D02*
X14944943Y-10830889D01*
X14944943Y-10830889D02*
X14935420Y-10792793D01*
X14935420Y-10792793D02*
X14935420Y-10745174D01*
X14935420Y-10745174D02*
X14944943Y-10707079D01*
X14944943Y-10707079D02*
X14954467Y-10688031D01*
X14954467Y-10688031D02*
X14963991Y-10678508D01*
X14963991Y-10678508D02*
X14983039Y-10668984D01*
X15135420Y-10868984D02*
X15135420Y-10735650D01*
X15135420Y-10754698D02*
X15144943Y-10745174D01*
X15144943Y-10745174D02*
X15163991Y-10735650D01*
X15163991Y-10735650D02*
X15192563Y-10735650D01*
X15192563Y-10735650D02*
X15211610Y-10745174D01*
X15211610Y-10745174D02*
X15221134Y-10764222D01*
X15221134Y-10764222D02*
X15221134Y-10868984D01*
X15221134Y-10764222D02*
X15230658Y-10745174D01*
X15230658Y-10745174D02*
X15249705Y-10735650D01*
X15249705Y-10735650D02*
X15278277Y-10735650D01*
X15278277Y-10735650D02*
X15297324Y-10745174D01*
X15297324Y-10745174D02*
X15306848Y-10764222D01*
X15306848Y-10764222D02*
X15306848Y-10868984D01*
X15402086Y-10868984D02*
X15402086Y-10735650D01*
X15402086Y-10754698D02*
X15411610Y-10745174D01*
X15411610Y-10745174D02*
X15430658Y-10735650D01*
X15430658Y-10735650D02*
X15459229Y-10735650D01*
X15459229Y-10735650D02*
X15478277Y-10745174D01*
X15478277Y-10745174D02*
X15487801Y-10764222D01*
X15487801Y-10764222D02*
X15487801Y-10868984D01*
X15487801Y-10764222D02*
X15497324Y-10745174D01*
X15497324Y-10745174D02*
X15516372Y-10735650D01*
X15516372Y-10735650D02*
X15544943Y-10735650D01*
X15544943Y-10735650D02*
X15563991Y-10745174D01*
X15563991Y-10745174D02*
X15573515Y-10764222D01*
X15573515Y-10764222D02*
X15573515Y-10868984D01*
X15963991Y-10659460D02*
X15792563Y-10916603D01*
X16221134Y-10668984D02*
X16240182Y-10668984D01*
X16240182Y-10668984D02*
X16259229Y-10678508D01*
X16259229Y-10678508D02*
X16268753Y-10688031D01*
X16268753Y-10688031D02*
X16278277Y-10707079D01*
X16278277Y-10707079D02*
X16287801Y-10745174D01*
X16287801Y-10745174D02*
X16287801Y-10792793D01*
X16287801Y-10792793D02*
X16278277Y-10830889D01*
X16278277Y-10830889D02*
X16268753Y-10849936D01*
X16268753Y-10849936D02*
X16259229Y-10859460D01*
X16259229Y-10859460D02*
X16240182Y-10868984D01*
X16240182Y-10868984D02*
X16221134Y-10868984D01*
X16221134Y-10868984D02*
X16202086Y-10859460D01*
X16202086Y-10859460D02*
X16192563Y-10849936D01*
X16192563Y-10849936D02*
X16183039Y-10830889D01*
X16183039Y-10830889D02*
X16173515Y-10792793D01*
X16173515Y-10792793D02*
X16173515Y-10745174D01*
X16173515Y-10745174D02*
X16183039Y-10707079D01*
X16183039Y-10707079D02*
X16192563Y-10688031D01*
X16192563Y-10688031D02*
X16202086Y-10678508D01*
X16202086Y-10678508D02*
X16221134Y-10668984D01*
X16373515Y-10849936D02*
X16383039Y-10859460D01*
X16383039Y-10859460D02*
X16373515Y-10868984D01*
X16373515Y-10868984D02*
X16363991Y-10859460D01*
X16363991Y-10859460D02*
X16373515Y-10849936D01*
X16373515Y-10849936D02*
X16373515Y-10868984D01*
X16506848Y-10668984D02*
X16525896Y-10668984D01*
X16525896Y-10668984D02*
X16544944Y-10678508D01*
X16544944Y-10678508D02*
X16554467Y-10688031D01*
X16554467Y-10688031D02*
X16563991Y-10707079D01*
X16563991Y-10707079D02*
X16573515Y-10745174D01*
X16573515Y-10745174D02*
X16573515Y-10792793D01*
X16573515Y-10792793D02*
X16563991Y-10830889D01*
X16563991Y-10830889D02*
X16554467Y-10849936D01*
X16554467Y-10849936D02*
X16544944Y-10859460D01*
X16544944Y-10859460D02*
X16525896Y-10868984D01*
X16525896Y-10868984D02*
X16506848Y-10868984D01*
X16506848Y-10868984D02*
X16487801Y-10859460D01*
X16487801Y-10859460D02*
X16478277Y-10849936D01*
X16478277Y-10849936D02*
X16468753Y-10830889D01*
X16468753Y-10830889D02*
X16459229Y-10792793D01*
X16459229Y-10792793D02*
X16459229Y-10745174D01*
X16459229Y-10745174D02*
X16468753Y-10707079D01*
X16468753Y-10707079D02*
X16478277Y-10688031D01*
X16478277Y-10688031D02*
X16487801Y-10678508D01*
X16487801Y-10678508D02*
X16506848Y-10668984D01*
X16763991Y-10868984D02*
X16649706Y-10868984D01*
X16706848Y-10868984D02*
X16706848Y-10668984D01*
X16706848Y-10668984D02*
X16687801Y-10697555D01*
X16687801Y-10697555D02*
X16668753Y-10716603D01*
X16668753Y-10716603D02*
X16649706Y-10726127D01*
X16954468Y-10868984D02*
X16840182Y-10868984D01*
X16897325Y-10868984D02*
X16897325Y-10668984D01*
X16897325Y-10668984D02*
X16878277Y-10697555D01*
X16878277Y-10697555D02*
X16859229Y-10716603D01*
X16859229Y-10716603D02*
X16840182Y-10726127D01*
X17068753Y-10754698D02*
X17049706Y-10745174D01*
X17049706Y-10745174D02*
X17040182Y-10735650D01*
X17040182Y-10735650D02*
X17030658Y-10716603D01*
X17030658Y-10716603D02*
X17030658Y-10707079D01*
X17030658Y-10707079D02*
X17040182Y-10688031D01*
X17040182Y-10688031D02*
X17049706Y-10678508D01*
X17049706Y-10678508D02*
X17068753Y-10668984D01*
X17068753Y-10668984D02*
X17106849Y-10668984D01*
X17106849Y-10668984D02*
X17125896Y-10678508D01*
X17125896Y-10678508D02*
X17135420Y-10688031D01*
X17135420Y-10688031D02*
X17144944Y-10707079D01*
X17144944Y-10707079D02*
X17144944Y-10716603D01*
X17144944Y-10716603D02*
X17135420Y-10735650D01*
X17135420Y-10735650D02*
X17125896Y-10745174D01*
X17125896Y-10745174D02*
X17106849Y-10754698D01*
X17106849Y-10754698D02*
X17068753Y-10754698D01*
X17068753Y-10754698D02*
X17049706Y-10764222D01*
X17049706Y-10764222D02*
X17040182Y-10773746D01*
X17040182Y-10773746D02*
X17030658Y-10792793D01*
X17030658Y-10792793D02*
X17030658Y-10830889D01*
X17030658Y-10830889D02*
X17040182Y-10849936D01*
X17040182Y-10849936D02*
X17049706Y-10859460D01*
X17049706Y-10859460D02*
X17068753Y-10868984D01*
X17068753Y-10868984D02*
X17106849Y-10868984D01*
X17106849Y-10868984D02*
X17125896Y-10859460D01*
X17125896Y-10859460D02*
X17135420Y-10849936D01*
X17135420Y-10849936D02*
X17144944Y-10830889D01*
X17144944Y-10830889D02*
X17144944Y-10792793D01*
X17144944Y-10792793D02*
X17135420Y-10773746D01*
X17135420Y-10773746D02*
X17125896Y-10764222D01*
X17125896Y-10764222D02*
X17106849Y-10754698D01*
X17221134Y-10668984D02*
X17221134Y-10707079D01*
X17297325Y-10668984D02*
X17297325Y-10707079D01*
X17592563Y-10945174D02*
X17583039Y-10935650D01*
X17583039Y-10935650D02*
X17563991Y-10907079D01*
X17563991Y-10907079D02*
X17554468Y-10888031D01*
X17554468Y-10888031D02*
X17544944Y-10859460D01*
X17544944Y-10859460D02*
X17535420Y-10811841D01*
X17535420Y-10811841D02*
X17535420Y-10773746D01*
X17535420Y-10773746D02*
X17544944Y-10726127D01*
X17544944Y-10726127D02*
X17554468Y-10697555D01*
X17554468Y-10697555D02*
X17563991Y-10678508D01*
X17563991Y-10678508D02*
X17583039Y-10649936D01*
X17583039Y-10649936D02*
X17592563Y-10640412D01*
X17649706Y-10668984D02*
X17773515Y-10668984D01*
X17773515Y-10668984D02*
X17706849Y-10745174D01*
X17706849Y-10745174D02*
X17735420Y-10745174D01*
X17735420Y-10745174D02*
X17754468Y-10754698D01*
X17754468Y-10754698D02*
X17763991Y-10764222D01*
X17763991Y-10764222D02*
X17773515Y-10783270D01*
X17773515Y-10783270D02*
X17773515Y-10830889D01*
X17773515Y-10830889D02*
X17763991Y-10849936D01*
X17763991Y-10849936D02*
X17754468Y-10859460D01*
X17754468Y-10859460D02*
X17735420Y-10868984D01*
X17735420Y-10868984D02*
X17678277Y-10868984D01*
X17678277Y-10868984D02*
X17659230Y-10859460D01*
X17659230Y-10859460D02*
X17649706Y-10849936D01*
X17944944Y-10735650D02*
X17944944Y-10868984D01*
X17897325Y-10659460D02*
X17849706Y-10802317D01*
X17849706Y-10802317D02*
X17973515Y-10802317D01*
X18202087Y-10868984D02*
X18202087Y-10668984D01*
X18287801Y-10868984D02*
X18287801Y-10764222D01*
X18287801Y-10764222D02*
X18278277Y-10745174D01*
X18278277Y-10745174D02*
X18259230Y-10735650D01*
X18259230Y-10735650D02*
X18230658Y-10735650D01*
X18230658Y-10735650D02*
X18211611Y-10745174D01*
X18211611Y-10745174D02*
X18202087Y-10754698D01*
X18411611Y-10868984D02*
X18392563Y-10859460D01*
X18392563Y-10859460D02*
X18383039Y-10849936D01*
X18383039Y-10849936D02*
X18373515Y-10830889D01*
X18373515Y-10830889D02*
X18373515Y-10773746D01*
X18373515Y-10773746D02*
X18383039Y-10754698D01*
X18383039Y-10754698D02*
X18392563Y-10745174D01*
X18392563Y-10745174D02*
X18411611Y-10735650D01*
X18411611Y-10735650D02*
X18440182Y-10735650D01*
X18440182Y-10735650D02*
X18459230Y-10745174D01*
X18459230Y-10745174D02*
X18468753Y-10754698D01*
X18468753Y-10754698D02*
X18478277Y-10773746D01*
X18478277Y-10773746D02*
X18478277Y-10830889D01*
X18478277Y-10830889D02*
X18468753Y-10849936D01*
X18468753Y-10849936D02*
X18459230Y-10859460D01*
X18459230Y-10859460D02*
X18440182Y-10868984D01*
X18440182Y-10868984D02*
X18411611Y-10868984D01*
X18592563Y-10868984D02*
X18573515Y-10859460D01*
X18573515Y-10859460D02*
X18563992Y-10840412D01*
X18563992Y-10840412D02*
X18563992Y-10668984D01*
X18744944Y-10859460D02*
X18725896Y-10868984D01*
X18725896Y-10868984D02*
X18687801Y-10868984D01*
X18687801Y-10868984D02*
X18668753Y-10859460D01*
X18668753Y-10859460D02*
X18659230Y-10840412D01*
X18659230Y-10840412D02*
X18659230Y-10764222D01*
X18659230Y-10764222D02*
X18668753Y-10745174D01*
X18668753Y-10745174D02*
X18687801Y-10735650D01*
X18687801Y-10735650D02*
X18725896Y-10735650D01*
X18725896Y-10735650D02*
X18744944Y-10745174D01*
X18744944Y-10745174D02*
X18754468Y-10764222D01*
X18754468Y-10764222D02*
X18754468Y-10783270D01*
X18754468Y-10783270D02*
X18659230Y-10802317D01*
X18830658Y-10859460D02*
X18849706Y-10868984D01*
X18849706Y-10868984D02*
X18887801Y-10868984D01*
X18887801Y-10868984D02*
X18906849Y-10859460D01*
X18906849Y-10859460D02*
X18916373Y-10840412D01*
X18916373Y-10840412D02*
X18916373Y-10830889D01*
X18916373Y-10830889D02*
X18906849Y-10811841D01*
X18906849Y-10811841D02*
X18887801Y-10802317D01*
X18887801Y-10802317D02*
X18859230Y-10802317D01*
X18859230Y-10802317D02*
X18840182Y-10792793D01*
X18840182Y-10792793D02*
X18830658Y-10773746D01*
X18830658Y-10773746D02*
X18830658Y-10764222D01*
X18830658Y-10764222D02*
X18840182Y-10745174D01*
X18840182Y-10745174D02*
X18859230Y-10735650D01*
X18859230Y-10735650D02*
X18887801Y-10735650D01*
X18887801Y-10735650D02*
X18906849Y-10745174D01*
X18983039Y-10945174D02*
X18992563Y-10935650D01*
X18992563Y-10935650D02*
X19011611Y-10907079D01*
X19011611Y-10907079D02*
X19021134Y-10888031D01*
X19021134Y-10888031D02*
X19030658Y-10859460D01*
X19030658Y-10859460D02*
X19040182Y-10811841D01*
X19040182Y-10811841D02*
X19040182Y-10773746D01*
X19040182Y-10773746D02*
X19030658Y-10726127D01*
X19030658Y-10726127D02*
X19021134Y-10697555D01*
X19021134Y-10697555D02*
X19011611Y-10678508D01*
X19011611Y-10678508D02*
X18992563Y-10649936D01*
X18992563Y-10649936D02*
X18983039Y-10640412D01*
D12*
X14017500Y-11041500D02*
G75*
G02*
X13927500Y-11041500I-45000J0D01*
G01*
X13927500Y-11041500D02*
G75*
G02*
X14017500Y-11041500I45000J0D01*
G01*
D11*
X14316372Y-10932984D02*
X14335420Y-10932984D01*
X14335420Y-10932984D02*
X14354467Y-10942508D01*
X14354467Y-10942508D02*
X14363991Y-10952031D01*
X14363991Y-10952031D02*
X14373515Y-10971079D01*
X14373515Y-10971079D02*
X14383039Y-11009174D01*
X14383039Y-11009174D02*
X14383039Y-11056793D01*
X14383039Y-11056793D02*
X14373515Y-11094889D01*
X14373515Y-11094889D02*
X14363991Y-11113936D01*
X14363991Y-11113936D02*
X14354467Y-11123460D01*
X14354467Y-11123460D02*
X14335420Y-11132984D01*
X14335420Y-11132984D02*
X14316372Y-11132984D01*
X14316372Y-11132984D02*
X14297324Y-11123460D01*
X14297324Y-11123460D02*
X14287801Y-11113936D01*
X14287801Y-11113936D02*
X14278277Y-11094889D01*
X14278277Y-11094889D02*
X14268753Y-11056793D01*
X14268753Y-11056793D02*
X14268753Y-11009174D01*
X14268753Y-11009174D02*
X14278277Y-10971079D01*
X14278277Y-10971079D02*
X14287801Y-10952031D01*
X14287801Y-10952031D02*
X14297324Y-10942508D01*
X14297324Y-10942508D02*
X14316372Y-10932984D01*
X14468753Y-11113936D02*
X14478277Y-11123460D01*
X14478277Y-11123460D02*
X14468753Y-11132984D01*
X14468753Y-11132984D02*
X14459229Y-11123460D01*
X14459229Y-11123460D02*
X14468753Y-11113936D01*
X14468753Y-11113936D02*
X14468753Y-11132984D01*
X14573515Y-11132984D02*
X14611610Y-11132984D01*
X14611610Y-11132984D02*
X14630658Y-11123460D01*
X14630658Y-11123460D02*
X14640182Y-11113936D01*
X14640182Y-11113936D02*
X14659229Y-11085365D01*
X14659229Y-11085365D02*
X14668753Y-11047270D01*
X14668753Y-11047270D02*
X14668753Y-10971079D01*
X14668753Y-10971079D02*
X14659229Y-10952031D01*
X14659229Y-10952031D02*
X14649705Y-10942508D01*
X14649705Y-10942508D02*
X14630658Y-10932984D01*
X14630658Y-10932984D02*
X14592562Y-10932984D01*
X14592562Y-10932984D02*
X14573515Y-10942508D01*
X14573515Y-10942508D02*
X14563991Y-10952031D01*
X14563991Y-10952031D02*
X14554467Y-10971079D01*
X14554467Y-10971079D02*
X14554467Y-11018698D01*
X14554467Y-11018698D02*
X14563991Y-11037746D01*
X14563991Y-11037746D02*
X14573515Y-11047270D01*
X14573515Y-11047270D02*
X14592562Y-11056793D01*
X14592562Y-11056793D02*
X14630658Y-11056793D01*
X14630658Y-11056793D02*
X14649705Y-11047270D01*
X14649705Y-11047270D02*
X14659229Y-11037746D01*
X14659229Y-11037746D02*
X14668753Y-11018698D01*
X14792562Y-10932984D02*
X14811610Y-10932984D01*
X14811610Y-10932984D02*
X14830658Y-10942508D01*
X14830658Y-10942508D02*
X14840182Y-10952031D01*
X14840182Y-10952031D02*
X14849705Y-10971079D01*
X14849705Y-10971079D02*
X14859229Y-11009174D01*
X14859229Y-11009174D02*
X14859229Y-11056793D01*
X14859229Y-11056793D02*
X14849705Y-11094889D01*
X14849705Y-11094889D02*
X14840182Y-11113936D01*
X14840182Y-11113936D02*
X14830658Y-11123460D01*
X14830658Y-11123460D02*
X14811610Y-11132984D01*
X14811610Y-11132984D02*
X14792562Y-11132984D01*
X14792562Y-11132984D02*
X14773515Y-11123460D01*
X14773515Y-11123460D02*
X14763991Y-11113936D01*
X14763991Y-11113936D02*
X14754467Y-11094889D01*
X14754467Y-11094889D02*
X14744943Y-11056793D01*
X14744943Y-11056793D02*
X14744943Y-11009174D01*
X14744943Y-11009174D02*
X14754467Y-10971079D01*
X14754467Y-10971079D02*
X14763991Y-10952031D01*
X14763991Y-10952031D02*
X14773515Y-10942508D01*
X14773515Y-10942508D02*
X14792562Y-10932984D01*
X14983039Y-10932984D02*
X15002086Y-10932984D01*
X15002086Y-10932984D02*
X15021134Y-10942508D01*
X15021134Y-10942508D02*
X15030658Y-10952031D01*
X15030658Y-10952031D02*
X15040182Y-10971079D01*
X15040182Y-10971079D02*
X15049705Y-11009174D01*
X15049705Y-11009174D02*
X15049705Y-11056793D01*
X15049705Y-11056793D02*
X15040182Y-11094889D01*
X15040182Y-11094889D02*
X15030658Y-11113936D01*
X15030658Y-11113936D02*
X15021134Y-11123460D01*
X15021134Y-11123460D02*
X15002086Y-11132984D01*
X15002086Y-11132984D02*
X14983039Y-11132984D01*
X14983039Y-11132984D02*
X14963991Y-11123460D01*
X14963991Y-11123460D02*
X14954467Y-11113936D01*
X14954467Y-11113936D02*
X14944943Y-11094889D01*
X14944943Y-11094889D02*
X14935420Y-11056793D01*
X14935420Y-11056793D02*
X14935420Y-11009174D01*
X14935420Y-11009174D02*
X14944943Y-10971079D01*
X14944943Y-10971079D02*
X14954467Y-10952031D01*
X14954467Y-10952031D02*
X14963991Y-10942508D01*
X14963991Y-10942508D02*
X14983039Y-10932984D01*
X15135420Y-11132984D02*
X15135420Y-10999650D01*
X15135420Y-11018698D02*
X15144943Y-11009174D01*
X15144943Y-11009174D02*
X15163991Y-10999650D01*
X15163991Y-10999650D02*
X15192563Y-10999650D01*
X15192563Y-10999650D02*
X15211610Y-11009174D01*
X15211610Y-11009174D02*
X15221134Y-11028222D01*
X15221134Y-11028222D02*
X15221134Y-11132984D01*
X15221134Y-11028222D02*
X15230658Y-11009174D01*
X15230658Y-11009174D02*
X15249705Y-10999650D01*
X15249705Y-10999650D02*
X15278277Y-10999650D01*
X15278277Y-10999650D02*
X15297324Y-11009174D01*
X15297324Y-11009174D02*
X15306848Y-11028222D01*
X15306848Y-11028222D02*
X15306848Y-11132984D01*
X15402086Y-11132984D02*
X15402086Y-10999650D01*
X15402086Y-11018698D02*
X15411610Y-11009174D01*
X15411610Y-11009174D02*
X15430658Y-10999650D01*
X15430658Y-10999650D02*
X15459229Y-10999650D01*
X15459229Y-10999650D02*
X15478277Y-11009174D01*
X15478277Y-11009174D02*
X15487801Y-11028222D01*
X15487801Y-11028222D02*
X15487801Y-11132984D01*
X15487801Y-11028222D02*
X15497324Y-11009174D01*
X15497324Y-11009174D02*
X15516372Y-10999650D01*
X15516372Y-10999650D02*
X15544943Y-10999650D01*
X15544943Y-10999650D02*
X15563991Y-11009174D01*
X15563991Y-11009174D02*
X15573515Y-11028222D01*
X15573515Y-11028222D02*
X15573515Y-11132984D01*
X15963991Y-10923460D02*
X15792563Y-11180603D01*
X16221134Y-10932984D02*
X16240182Y-10932984D01*
X16240182Y-10932984D02*
X16259229Y-10942508D01*
X16259229Y-10942508D02*
X16268753Y-10952031D01*
X16268753Y-10952031D02*
X16278277Y-10971079D01*
X16278277Y-10971079D02*
X16287801Y-11009174D01*
X16287801Y-11009174D02*
X16287801Y-11056793D01*
X16287801Y-11056793D02*
X16278277Y-11094889D01*
X16278277Y-11094889D02*
X16268753Y-11113936D01*
X16268753Y-11113936D02*
X16259229Y-11123460D01*
X16259229Y-11123460D02*
X16240182Y-11132984D01*
X16240182Y-11132984D02*
X16221134Y-11132984D01*
X16221134Y-11132984D02*
X16202086Y-11123460D01*
X16202086Y-11123460D02*
X16192563Y-11113936D01*
X16192563Y-11113936D02*
X16183039Y-11094889D01*
X16183039Y-11094889D02*
X16173515Y-11056793D01*
X16173515Y-11056793D02*
X16173515Y-11009174D01*
X16173515Y-11009174D02*
X16183039Y-10971079D01*
X16183039Y-10971079D02*
X16192563Y-10952031D01*
X16192563Y-10952031D02*
X16202086Y-10942508D01*
X16202086Y-10942508D02*
X16221134Y-10932984D01*
X16373515Y-11113936D02*
X16383039Y-11123460D01*
X16383039Y-11123460D02*
X16373515Y-11132984D01*
X16373515Y-11132984D02*
X16363991Y-11123460D01*
X16363991Y-11123460D02*
X16373515Y-11113936D01*
X16373515Y-11113936D02*
X16373515Y-11132984D01*
X16506848Y-10932984D02*
X16525896Y-10932984D01*
X16525896Y-10932984D02*
X16544944Y-10942508D01*
X16544944Y-10942508D02*
X16554467Y-10952031D01*
X16554467Y-10952031D02*
X16563991Y-10971079D01*
X16563991Y-10971079D02*
X16573515Y-11009174D01*
X16573515Y-11009174D02*
X16573515Y-11056793D01*
X16573515Y-11056793D02*
X16563991Y-11094889D01*
X16563991Y-11094889D02*
X16554467Y-11113936D01*
X16554467Y-11113936D02*
X16544944Y-11123460D01*
X16544944Y-11123460D02*
X16525896Y-11132984D01*
X16525896Y-11132984D02*
X16506848Y-11132984D01*
X16506848Y-11132984D02*
X16487801Y-11123460D01*
X16487801Y-11123460D02*
X16478277Y-11113936D01*
X16478277Y-11113936D02*
X16468753Y-11094889D01*
X16468753Y-11094889D02*
X16459229Y-11056793D01*
X16459229Y-11056793D02*
X16459229Y-11009174D01*
X16459229Y-11009174D02*
X16468753Y-10971079D01*
X16468753Y-10971079D02*
X16478277Y-10952031D01*
X16478277Y-10952031D02*
X16487801Y-10942508D01*
X16487801Y-10942508D02*
X16506848Y-10932984D01*
X16640182Y-10932984D02*
X16763991Y-10932984D01*
X16763991Y-10932984D02*
X16697325Y-11009174D01*
X16697325Y-11009174D02*
X16725896Y-11009174D01*
X16725896Y-11009174D02*
X16744944Y-11018698D01*
X16744944Y-11018698D02*
X16754467Y-11028222D01*
X16754467Y-11028222D02*
X16763991Y-11047270D01*
X16763991Y-11047270D02*
X16763991Y-11094889D01*
X16763991Y-11094889D02*
X16754467Y-11113936D01*
X16754467Y-11113936D02*
X16744944Y-11123460D01*
X16744944Y-11123460D02*
X16725896Y-11132984D01*
X16725896Y-11132984D02*
X16668753Y-11132984D01*
X16668753Y-11132984D02*
X16649706Y-11123460D01*
X16649706Y-11123460D02*
X16640182Y-11113936D01*
X16944944Y-10932984D02*
X16849706Y-10932984D01*
X16849706Y-10932984D02*
X16840182Y-11028222D01*
X16840182Y-11028222D02*
X16849706Y-11018698D01*
X16849706Y-11018698D02*
X16868753Y-11009174D01*
X16868753Y-11009174D02*
X16916372Y-11009174D01*
X16916372Y-11009174D02*
X16935420Y-11018698D01*
X16935420Y-11018698D02*
X16944944Y-11028222D01*
X16944944Y-11028222D02*
X16954468Y-11047270D01*
X16954468Y-11047270D02*
X16954468Y-11094889D01*
X16954468Y-11094889D02*
X16944944Y-11113936D01*
X16944944Y-11113936D02*
X16935420Y-11123460D01*
X16935420Y-11123460D02*
X16916372Y-11132984D01*
X16916372Y-11132984D02*
X16868753Y-11132984D01*
X16868753Y-11132984D02*
X16849706Y-11123460D01*
X16849706Y-11123460D02*
X16840182Y-11113936D01*
X17125896Y-10999650D02*
X17125896Y-11132984D01*
X17078277Y-10923460D02*
X17030658Y-11066317D01*
X17030658Y-11066317D02*
X17154468Y-11066317D01*
X17221134Y-10932984D02*
X17221134Y-10971079D01*
X17297325Y-10932984D02*
X17297325Y-10971079D01*
X17592563Y-11209174D02*
X17583039Y-11199650D01*
X17583039Y-11199650D02*
X17563991Y-11171079D01*
X17563991Y-11171079D02*
X17554468Y-11152031D01*
X17554468Y-11152031D02*
X17544944Y-11123460D01*
X17544944Y-11123460D02*
X17535420Y-11075841D01*
X17535420Y-11075841D02*
X17535420Y-11037746D01*
X17535420Y-11037746D02*
X17544944Y-10990127D01*
X17544944Y-10990127D02*
X17554468Y-10961555D01*
X17554468Y-10961555D02*
X17563991Y-10942508D01*
X17563991Y-10942508D02*
X17583039Y-10913936D01*
X17583039Y-10913936D02*
X17592563Y-10904412D01*
X17706849Y-10932984D02*
X17725896Y-10932984D01*
X17725896Y-10932984D02*
X17744944Y-10942508D01*
X17744944Y-10942508D02*
X17754468Y-10952031D01*
X17754468Y-10952031D02*
X17763991Y-10971079D01*
X17763991Y-10971079D02*
X17773515Y-11009174D01*
X17773515Y-11009174D02*
X17773515Y-11056793D01*
X17773515Y-11056793D02*
X17763991Y-11094889D01*
X17763991Y-11094889D02*
X17754468Y-11113936D01*
X17754468Y-11113936D02*
X17744944Y-11123460D01*
X17744944Y-11123460D02*
X17725896Y-11132984D01*
X17725896Y-11132984D02*
X17706849Y-11132984D01*
X17706849Y-11132984D02*
X17687801Y-11123460D01*
X17687801Y-11123460D02*
X17678277Y-11113936D01*
X17678277Y-11113936D02*
X17668753Y-11094889D01*
X17668753Y-11094889D02*
X17659230Y-11056793D01*
X17659230Y-11056793D02*
X17659230Y-11009174D01*
X17659230Y-11009174D02*
X17668753Y-10971079D01*
X17668753Y-10971079D02*
X17678277Y-10952031D01*
X17678277Y-10952031D02*
X17687801Y-10942508D01*
X17687801Y-10942508D02*
X17706849Y-10932984D01*
X18011611Y-11132984D02*
X18011611Y-10932984D01*
X18097325Y-11132984D02*
X18097325Y-11028222D01*
X18097325Y-11028222D02*
X18087801Y-11009174D01*
X18087801Y-11009174D02*
X18068753Y-10999650D01*
X18068753Y-10999650D02*
X18040182Y-10999650D01*
X18040182Y-10999650D02*
X18021134Y-11009174D01*
X18021134Y-11009174D02*
X18011611Y-11018698D01*
X18221134Y-11132984D02*
X18202087Y-11123460D01*
X18202087Y-11123460D02*
X18192563Y-11113936D01*
X18192563Y-11113936D02*
X18183039Y-11094889D01*
X18183039Y-11094889D02*
X18183039Y-11037746D01*
X18183039Y-11037746D02*
X18192563Y-11018698D01*
X18192563Y-11018698D02*
X18202087Y-11009174D01*
X18202087Y-11009174D02*
X18221134Y-10999650D01*
X18221134Y-10999650D02*
X18249706Y-10999650D01*
X18249706Y-10999650D02*
X18268753Y-11009174D01*
X18268753Y-11009174D02*
X18278277Y-11018698D01*
X18278277Y-11018698D02*
X18287801Y-11037746D01*
X18287801Y-11037746D02*
X18287801Y-11094889D01*
X18287801Y-11094889D02*
X18278277Y-11113936D01*
X18278277Y-11113936D02*
X18268753Y-11123460D01*
X18268753Y-11123460D02*
X18249706Y-11132984D01*
X18249706Y-11132984D02*
X18221134Y-11132984D01*
X18402087Y-11132984D02*
X18383039Y-11123460D01*
X18383039Y-11123460D02*
X18373515Y-11104412D01*
X18373515Y-11104412D02*
X18373515Y-10932984D01*
X18554468Y-11123460D02*
X18535420Y-11132984D01*
X18535420Y-11132984D02*
X18497325Y-11132984D01*
X18497325Y-11132984D02*
X18478277Y-11123460D01*
X18478277Y-11123460D02*
X18468753Y-11104412D01*
X18468753Y-11104412D02*
X18468753Y-11028222D01*
X18468753Y-11028222D02*
X18478277Y-11009174D01*
X18478277Y-11009174D02*
X18497325Y-10999650D01*
X18497325Y-10999650D02*
X18535420Y-10999650D01*
X18535420Y-10999650D02*
X18554468Y-11009174D01*
X18554468Y-11009174D02*
X18563992Y-11028222D01*
X18563992Y-11028222D02*
X18563992Y-11047270D01*
X18563992Y-11047270D02*
X18468753Y-11066317D01*
X18640182Y-11123460D02*
X18659230Y-11132984D01*
X18659230Y-11132984D02*
X18697325Y-11132984D01*
X18697325Y-11132984D02*
X18716373Y-11123460D01*
X18716373Y-11123460D02*
X18725896Y-11104412D01*
X18725896Y-11104412D02*
X18725896Y-11094889D01*
X18725896Y-11094889D02*
X18716373Y-11075841D01*
X18716373Y-11075841D02*
X18697325Y-11066317D01*
X18697325Y-11066317D02*
X18668753Y-11066317D01*
X18668753Y-11066317D02*
X18649706Y-11056793D01*
X18649706Y-11056793D02*
X18640182Y-11037746D01*
X18640182Y-11037746D02*
X18640182Y-11028222D01*
X18640182Y-11028222D02*
X18649706Y-11009174D01*
X18649706Y-11009174D02*
X18668753Y-10999650D01*
X18668753Y-10999650D02*
X18697325Y-10999650D01*
X18697325Y-10999650D02*
X18716373Y-11009174D01*
X18963992Y-11056793D02*
X19116373Y-11056793D01*
X19040182Y-11132984D02*
X19040182Y-10980603D01*
X19354468Y-10952031D02*
X19363992Y-10942508D01*
X19363992Y-10942508D02*
X19383039Y-10932984D01*
X19383039Y-10932984D02*
X19430658Y-10932984D01*
X19430658Y-10932984D02*
X19449706Y-10942508D01*
X19449706Y-10942508D02*
X19459230Y-10952031D01*
X19459230Y-10952031D02*
X19468754Y-10971079D01*
X19468754Y-10971079D02*
X19468754Y-10990127D01*
X19468754Y-10990127D02*
X19459230Y-11018698D01*
X19459230Y-11018698D02*
X19344944Y-11132984D01*
X19344944Y-11132984D02*
X19468754Y-11132984D01*
X19697325Y-11123460D02*
X19716373Y-11132984D01*
X19716373Y-11132984D02*
X19754468Y-11132984D01*
X19754468Y-11132984D02*
X19773516Y-11123460D01*
X19773516Y-11123460D02*
X19783039Y-11104412D01*
X19783039Y-11104412D02*
X19783039Y-11094889D01*
X19783039Y-11094889D02*
X19773516Y-11075841D01*
X19773516Y-11075841D02*
X19754468Y-11066317D01*
X19754468Y-11066317D02*
X19725896Y-11066317D01*
X19725896Y-11066317D02*
X19706849Y-11056793D01*
X19706849Y-11056793D02*
X19697325Y-11037746D01*
X19697325Y-11037746D02*
X19697325Y-11028222D01*
X19697325Y-11028222D02*
X19706849Y-11009174D01*
X19706849Y-11009174D02*
X19725896Y-10999650D01*
X19725896Y-10999650D02*
X19754468Y-10999650D01*
X19754468Y-10999650D02*
X19773516Y-11009174D01*
X19897325Y-11132984D02*
X19878277Y-11123460D01*
X19878277Y-11123460D02*
X19868754Y-11104412D01*
X19868754Y-11104412D02*
X19868754Y-10932984D01*
X20002087Y-11132984D02*
X19983039Y-11123460D01*
X19983039Y-11123460D02*
X19973516Y-11113936D01*
X19973516Y-11113936D02*
X19963992Y-11094889D01*
X19963992Y-11094889D02*
X19963992Y-11037746D01*
X19963992Y-11037746D02*
X19973516Y-11018698D01*
X19973516Y-11018698D02*
X19983039Y-11009174D01*
X19983039Y-11009174D02*
X20002087Y-10999650D01*
X20002087Y-10999650D02*
X20030658Y-10999650D01*
X20030658Y-10999650D02*
X20049706Y-11009174D01*
X20049706Y-11009174D02*
X20059230Y-11018698D01*
X20059230Y-11018698D02*
X20068754Y-11037746D01*
X20068754Y-11037746D02*
X20068754Y-11094889D01*
X20068754Y-11094889D02*
X20059230Y-11113936D01*
X20059230Y-11113936D02*
X20049706Y-11123460D01*
X20049706Y-11123460D02*
X20030658Y-11132984D01*
X20030658Y-11132984D02*
X20002087Y-11132984D01*
X20125897Y-10999650D02*
X20202087Y-10999650D01*
X20154468Y-10932984D02*
X20154468Y-11104412D01*
X20154468Y-11104412D02*
X20163992Y-11123460D01*
X20163992Y-11123460D02*
X20183039Y-11132984D01*
X20183039Y-11132984D02*
X20202087Y-11132984D01*
X20259230Y-11123460D02*
X20278277Y-11132984D01*
X20278277Y-11132984D02*
X20316373Y-11132984D01*
X20316373Y-11132984D02*
X20335420Y-11123460D01*
X20335420Y-11123460D02*
X20344944Y-11104412D01*
X20344944Y-11104412D02*
X20344944Y-11094889D01*
X20344944Y-11094889D02*
X20335420Y-11075841D01*
X20335420Y-11075841D02*
X20316373Y-11066317D01*
X20316373Y-11066317D02*
X20287801Y-11066317D01*
X20287801Y-11066317D02*
X20268754Y-11056793D01*
X20268754Y-11056793D02*
X20259230Y-11037746D01*
X20259230Y-11037746D02*
X20259230Y-11028222D01*
X20259230Y-11028222D02*
X20268754Y-11009174D01*
X20268754Y-11009174D02*
X20287801Y-10999650D01*
X20287801Y-10999650D02*
X20316373Y-10999650D01*
X20316373Y-10999650D02*
X20335420Y-11009174D01*
X20411611Y-11209174D02*
X20421135Y-11199650D01*
X20421135Y-11199650D02*
X20440182Y-11171079D01*
X20440182Y-11171079D02*
X20449706Y-11152031D01*
X20449706Y-11152031D02*
X20459230Y-11123460D01*
X20459230Y-11123460D02*
X20468754Y-11075841D01*
X20468754Y-11075841D02*
X20468754Y-11037746D01*
X20468754Y-11037746D02*
X20459230Y-10990127D01*
X20459230Y-10990127D02*
X20449706Y-10961555D01*
X20449706Y-10961555D02*
X20440182Y-10942508D01*
X20440182Y-10942508D02*
X20421135Y-10913936D01*
X20421135Y-10913936D02*
X20411611Y-10904412D01*
M02*
