M48
; DRILL file {KiCad 8.0.9-8.0.9-0~ubuntu22.04.1} date 2025-06-17T17:41:42-0600
; FORMAT={-:-/ absolute / metric / decimal}
; #@! TF.CreationDate,2025-06-17T17:41:42-06:00
; #@! TF.GenerationSoftware,Kicad,Pcbnew,8.0.9-8.0.9-0~ubuntu22.04.1
; #@! TF.FileFunction,Plated,1,4,PTH
FMAT,2
METRIC
; #@! TA.AperFunction,Plated,PTH,ViaDrill
T1C0.300
; #@! TA.AperFunction,Plated,PTH,ComponentDrill
T2C0.900
%
G90
G05
T1
X141.5Y-99.025
X141.55Y-90.75
X141.55Y-95.825
X141.575Y-94.675
X142.55Y-90.675
X142.75Y-99.65
X144.1Y-89.475
X144.825Y-92.425
X145.175Y-99.65
X145.625Y-100.425
X145.825Y-97.55
X145.99Y-92.41
X146.2Y-94.6
X146.725Y-92.775
X146.925Y-94.525
X147.225Y-89.475
X147.25Y-97.025
X147.675Y-92.55
X147.75Y-94.6
X148.125Y-100.175
X148.35Y-92.55
X148.475Y-96.975
X148.8Y-89.475
X148.95Y-91.875
X149.425Y-93.1
X149.45Y-100.175
X149.6Y-93.875
X150.075Y-89.8
X150.075Y-99.175
X151.125Y-89.8
X151.3Y-92.1
X151.325Y-94.05
X151.325Y-98.025
X151.35Y-96.025
T2
X141.513Y-97.2G85X142.813Y-97.2
G05
X141.514Y-92.5G85X142.814Y-92.5
G05
M30
