G04 #@! TF.GenerationSoftware,KiCad,Pcbnew,9.0.3-9.0.3-0~ubuntu22.04.1*
G04 #@! TF.CreationDate,2025-07-19T11:30:49-06:00*
G04 #@! TF.ProjectId,Steam_Controller,53746561-6d5f-4436-9f6e-74726f6c6c65,rev?*
G04 #@! TF.SameCoordinates,Original*
G04 #@! TF.FileFunction,Profile,NP*
%FSLAX46Y46*%
G04 Gerber Fmt 4.6, Leading zero omitted, Abs format (unit mm)*
G04 Created by KiCad (PCBNEW 9.0.3-9.0.3-0~ubuntu22.04.1) date 2025-07-19 11:30:49*
%MOMM*%
%LPD*%
G01*
G04 APERTURE LIST*
G04 #@! TA.AperFunction,Profile*
%ADD10C,0.050000*%
G04 #@! TD*
G04 APERTURE END LIST*
D10*
X186570000Y-63540000D02*
X186770000Y-63580000D01*
X78306142Y-118136626D02*
X80381053Y-120199562D01*
X213981809Y-70425008D02*
X213981809Y-64238469D01*
X96827115Y-130645243D02*
X96705011Y-131530305D01*
X180304789Y-120972680D02*
G75*
G02*
X194459979Y-129631555I-139J-15899840D01*
G01*
X160903175Y-55935426D02*
G75*
G02*
X160196047Y-55642539I25J1000126D01*
G01*
X118850000Y-61135000D02*
X118210000Y-61105000D01*
X116480000Y-61575000D02*
X116320000Y-61845000D01*
X196579200Y-131935426D02*
X208908478Y-131935426D01*
X94350569Y-130303578D02*
G75*
G02*
X96827030Y-130645231I1238231J-170822D01*
G01*
X112429259Y-57659697D02*
X112096795Y-57327231D01*
X146074659Y-115752520D02*
G75*
G02*
X145214077Y-116252524I-866059J500020D01*
G01*
X90328155Y-71935428D02*
X89816014Y-71935428D01*
X78722871Y-106821702D02*
X78652444Y-107106267D01*
X227087099Y-106821702D02*
X223240885Y-91732492D01*
X227568201Y-109345508D02*
X227479199Y-108723493D01*
X107925909Y-57256734D02*
X107925909Y-58700807D01*
X221245287Y-85094203D02*
X218463670Y-74713084D01*
X188690000Y-63540000D02*
X188950000Y-63400000D01*
X84532831Y-85213078D02*
X84532831Y-85458763D01*
X186550000Y-60980000D02*
X186330000Y-61120000D01*
X117170000Y-63645000D02*
X118790000Y-63675000D01*
X163082622Y-72534700D02*
G75*
G02*
X163545376Y-73361001I3080778J1182600D01*
G01*
X119390000Y-61315000D02*
X119180000Y-61205000D01*
X189510000Y-62710000D02*
X189570000Y-62330000D01*
X224604982Y-125830600D02*
G75*
G02*
X222451151Y-127186622I-1503782J0D01*
G01*
X146295787Y-54658885D02*
X146119240Y-54835431D01*
X181339496Y-61890000D02*
G75*
G02*
X179280504Y-61890000I-1029496J0D01*
G01*
X179280504Y-61890000D02*
G75*
G02*
X181339496Y-61890000I1029496J0D01*
G01*
X145772848Y-55435407D02*
G75*
G02*
X144906800Y-55935423I-866048J500007D01*
G01*
X163545372Y-73361004D02*
G75*
G02*
X163082618Y-72534701I1632728J1457104D01*
G01*
X212906293Y-61945896D02*
G75*
G02*
X213981809Y-64238469I-1924493J-2301404D01*
G01*
X227278848Y-107642471D02*
X227157518Y-107106267D01*
X119120000Y-63645000D02*
X119370000Y-63525000D01*
X188830000Y-61020000D02*
X188500000Y-60890000D01*
X212906293Y-61945896D02*
X210003297Y-59492432D01*
X119950000Y-62635000D02*
X119950000Y-62345000D01*
X217361689Y-130505448D02*
G75*
G02*
X215863329Y-131935421I-1498289J69948D01*
G01*
X131217527Y-115581088D02*
G75*
G02*
X131422569Y-115791570I-786527J-971312D01*
G01*
X167882307Y-120972532D02*
X180304789Y-120972749D01*
X84821553Y-91551594D02*
G75*
G02*
X84340692Y-90914494I2610447J2470294D01*
G01*
X146119240Y-54835431D02*
X145772848Y-55435407D01*
X222751667Y-91148896D02*
G75*
G02*
X223240885Y-91732492I-380367J-815704D01*
G01*
X116980000Y-63605000D02*
X117170000Y-63645000D01*
X159690731Y-54835431D02*
X159510057Y-54654758D01*
X209104959Y-131735400D02*
X209104959Y-131530305D01*
X119910000Y-61985000D02*
X119790000Y-61725000D01*
X96705011Y-131530305D02*
X96705011Y-131739194D01*
X144906800Y-55935426D02*
X138012134Y-55935426D01*
X219855485Y-127152662D02*
G75*
G02*
X222451151Y-127186618I1251815J-3534638D01*
G01*
X82354738Y-127291093D02*
G75*
G02*
X81204903Y-125821684I350162J1458593D01*
G01*
X111922700Y-57256734D02*
X107925909Y-57256734D01*
X193701473Y-57339393D02*
G75*
G02*
X193883178Y-57256734I186127J-168107D01*
G01*
X96905000Y-131935426D02*
G75*
G02*
X96705010Y-131739194I0J200026D01*
G01*
X204957922Y-57256749D02*
X202975771Y-57256742D01*
X185810000Y-62110000D02*
X185810000Y-62380000D01*
X208450000Y-107400000D02*
G75*
G02*
X205653646Y-107400000I-1398177J0D01*
G01*
X205653646Y-107400000D02*
G75*
G02*
X208450000Y-107400000I1398177J0D01*
G01*
X227157518Y-107106267D02*
X227087099Y-106821702D01*
X186770000Y-63580000D02*
X188480000Y-63580000D01*
X109592081Y-128550000D02*
G75*
G02*
X107427919Y-128550000I-1082081J0D01*
G01*
X107427919Y-128550000D02*
G75*
G02*
X109592081Y-128550000I1082081J0D01*
G01*
X80381053Y-120199562D02*
G75*
G02*
X81204904Y-122264600I-2176153J-2065038D01*
G01*
X186450000Y-63490000D02*
X186570000Y-63540000D01*
X133204033Y-57636402D02*
G75*
G02*
X132723352Y-57835408I-480633J480902D01*
G01*
X172032511Y-57256704D02*
X169922900Y-57256704D01*
X89946639Y-131935426D02*
X93870534Y-131935289D01*
X153899823Y-68035426D02*
G75*
G02*
X151910147Y-68035426I-994838J0D01*
G01*
X151910147Y-68035426D02*
G75*
G02*
X153899823Y-68035426I994838J0D01*
G01*
X95806830Y-59492303D02*
G75*
G02*
X97617691Y-58440432I3872870J-4582697D01*
G01*
X110558254Y-131133882D02*
X111434395Y-129468791D01*
X209104959Y-131735400D02*
G75*
G02*
X208908478Y-131935427I-200059J0D01*
G01*
X135876467Y-57256704D02*
X133757700Y-57256704D01*
X198620405Y-128280000D02*
G75*
G02*
X196399595Y-128280000I-1110405J0D01*
G01*
X196399595Y-128280000D02*
G75*
G02*
X198620405Y-128280000I1110405J0D01*
G01*
X95806830Y-59492303D02*
X92891715Y-61955951D01*
X116230000Y-62625000D02*
X116290000Y-62855000D01*
X185890000Y-62750000D02*
X185960000Y-62900000D01*
X91828161Y-70435400D02*
G75*
G02*
X90328155Y-71935461I-1500061J0D01*
G01*
X192951783Y-57835424D02*
X173086600Y-57835424D01*
X186150000Y-63220000D02*
X186320000Y-63370000D01*
X209104959Y-131530305D02*
X208982856Y-130645224D01*
X225504871Y-120122262D02*
X227509102Y-118131396D01*
X202544166Y-62250000D02*
G75*
G02*
X199875834Y-62250000I-1334166J0D01*
G01*
X199875834Y-62250000D02*
G75*
G02*
X202544166Y-62250000I1334166J0D01*
G01*
X189210000Y-61330000D02*
X188830000Y-61020000D01*
X87346300Y-74713084D02*
X84532831Y-85213078D01*
X116320000Y-61845000D02*
X116250000Y-62115000D01*
X137658512Y-56081915D02*
X136905469Y-56834963D01*
X132318300Y-116252523D02*
G75*
G02*
X131870927Y-116157413I0J1099723D01*
G01*
X185810000Y-62380000D02*
X185850000Y-62570000D01*
X169922900Y-57256704D02*
G75*
G02*
X168878559Y-56808416I0J1440604D01*
G01*
X185960000Y-62900000D02*
X186040000Y-63040000D01*
X83655506Y-90819767D02*
X83057913Y-91149109D01*
X82563865Y-91752972D02*
X78722871Y-106821702D01*
X129180875Y-116552500D02*
G75*
G02*
X129982925Y-115385572I1249925J0D01*
G01*
X100075354Y-107550000D02*
G75*
G02*
X97324646Y-107550000I-1375354J0D01*
G01*
X97324646Y-107550000D02*
G75*
G02*
X100075354Y-107550000I1375354J0D01*
G01*
X196579200Y-131935426D02*
G75*
G02*
X195252179Y-131134752I0J1500026D01*
G01*
X125525012Y-120972679D02*
X128752018Y-120972510D01*
X202975771Y-57256742D02*
X202975771Y-58700814D01*
X148485000Y-113077644D02*
X158333200Y-113077644D01*
X215994000Y-71935428D02*
X215481800Y-71935428D01*
X100852052Y-57256749D02*
X97617688Y-58440423D01*
X116200000Y-62375000D02*
X116230000Y-62625000D01*
X186000000Y-61500000D02*
X185900000Y-61670000D01*
X116250000Y-62115000D02*
X116200000Y-62375000D01*
X98010001Y-63310000D02*
G75*
G02*
X95772681Y-63310000I-1118660J0D01*
G01*
X95772681Y-63310000D02*
G75*
G02*
X98010001Y-63310000I1118660J0D01*
G01*
X85339865Y-86284706D02*
G75*
G02*
X84820609Y-91552487I2019555J-2858554D01*
G01*
X85093009Y-86284706D02*
X85339865Y-86284706D01*
X102834203Y-57256742D02*
X100852052Y-57256749D01*
X186330000Y-61120000D02*
X186160000Y-61270000D01*
X220716959Y-86284706D02*
X220823917Y-86240407D01*
X160015385Y-55397130D02*
X159690731Y-54835431D01*
X81204904Y-122264600D02*
X81204904Y-125821684D01*
X133453287Y-57387339D02*
G75*
G02*
X133757700Y-57256703I304413J-289361D01*
G01*
X78330759Y-108723493D02*
X78241757Y-109345508D01*
X132723352Y-57835424D02*
X112853500Y-57835424D01*
X165189183Y-115791572D02*
G75*
G02*
X167152337Y-115765846I991717J-760928D01*
G01*
X137029943Y-73342471D02*
G75*
G02*
X136567196Y-72516166I1633057J1457271D01*
G01*
X88516928Y-72685485D02*
G75*
G02*
X89816014Y-71935427I1299172J-750115D01*
G01*
X159203000Y-54530000D02*
X146606915Y-54530000D01*
X102834203Y-58700814D02*
X102834203Y-57256742D01*
X116690000Y-63435000D02*
X116810000Y-63525000D01*
X119630000Y-61485000D02*
X119390000Y-61315000D01*
X221469270Y-90914499D02*
G75*
G02*
X221864948Y-90735414I397230J-351001D01*
G01*
X167774907Y-55935597D02*
X160903175Y-55935477D01*
X119790000Y-61725000D02*
X119630000Y-61485000D01*
X85090269Y-86291356D02*
G75*
G02*
X84532845Y-85458763I343031J832556D01*
G01*
X116810000Y-63525000D02*
X116980000Y-63605000D01*
X188500000Y-60890000D02*
X186800000Y-60890000D01*
X88516928Y-72685485D02*
X87346300Y-74713084D01*
X221245287Y-85094203D02*
G75*
G02*
X220823917Y-86240407I-923387J-311097D01*
G01*
X167152307Y-115765870D02*
G75*
G02*
X167430902Y-116556398I-971507J-786730D01*
G01*
X172601540Y-57632001D02*
X172320587Y-57351020D01*
X118790000Y-63675000D02*
X119120000Y-63645000D01*
X78531114Y-107642471D02*
X78423860Y-108181674D01*
X111434395Y-129468791D02*
G75*
G02*
X125525012Y-120972679I14071005J-7403909D01*
G01*
X165189289Y-115791648D02*
G75*
G02*
X164300000Y-116252523I-896189J640848D01*
G01*
X189530000Y-61860000D02*
X189400000Y-61590000D01*
X146295787Y-54658885D02*
G75*
G02*
X146606915Y-54529977I311213J-311215D01*
G01*
X222751667Y-91148896D02*
X221864948Y-90735414D01*
X209772015Y-63150000D02*
G75*
G02*
X207650507Y-63150000I-1060754J0D01*
G01*
X207650507Y-63150000D02*
G75*
G02*
X209772015Y-63150000I1060754J0D01*
G01*
X185850000Y-61880000D02*
X185810000Y-62110000D01*
X129180875Y-120532700D02*
G75*
G02*
X128752018Y-120972535I-439975J0D01*
G01*
X188480000Y-63580000D02*
X188690000Y-63540000D01*
X133453287Y-57387339D02*
X133204033Y-57636402D01*
X136567193Y-72516167D02*
G75*
G02*
X137029937Y-73342476I3080807J1182567D01*
G01*
X197884061Y-58700807D02*
X197884065Y-57256734D01*
X167882307Y-120972532D02*
G75*
G02*
X167430874Y-120539493I-11407J439932D01*
G01*
X228370705Y-115622564D02*
X227568155Y-109345514D01*
X111922700Y-57256734D02*
G75*
G02*
X112096805Y-57327221I0J-250266D01*
G01*
X217361690Y-130505448D02*
G75*
G02*
X219855495Y-127152690I3745710J-182252D01*
G01*
X161609600Y-116252523D02*
X164300000Y-116252523D01*
X116900000Y-61245000D02*
X116690000Y-61355000D01*
X172032511Y-57256704D02*
G75*
G02*
X172320574Y-57351037I9889J-456796D01*
G01*
X186320000Y-63370000D02*
X186450000Y-63490000D01*
X117510000Y-61105000D02*
X117220000Y-61145000D01*
X186800000Y-60890000D02*
X186550000Y-60980000D01*
X224604982Y-125830600D02*
X224604982Y-122264800D01*
X118210000Y-61105000D02*
X117510000Y-61105000D01*
X119560000Y-63335000D02*
X119760000Y-63115000D01*
X189570000Y-62330000D02*
X189530000Y-61860000D01*
X91828161Y-64247300D02*
G75*
G02*
X92891717Y-61955954I3000039J0D01*
G01*
X96905000Y-131935426D02*
X109230792Y-131935426D01*
X94161166Y-131676496D02*
G75*
G02*
X93870534Y-131935302I-296966J40896D01*
G01*
X147185999Y-113827622D02*
G75*
G02*
X148485000Y-113077643I1299001J-749978D01*
G01*
X107925909Y-58700807D02*
X102834203Y-58700814D01*
X89946639Y-131935426D02*
G75*
G02*
X88454883Y-130592215I-39J1499926D01*
G01*
X82563865Y-91752972D02*
G75*
G02*
X83057931Y-91149148I874535J-211528D01*
G01*
X168878582Y-56808394D02*
X168119668Y-56050190D01*
X160196056Y-55642530D02*
G75*
G02*
X160015389Y-55397128I725644J723430D01*
G01*
X159203000Y-54530000D02*
G75*
G02*
X159510068Y-54654747I0J-440300D01*
G01*
X117220000Y-61145000D02*
X116900000Y-61245000D01*
X78241762Y-109345508D02*
X77439219Y-115622505D01*
X197884065Y-57256734D02*
X193883178Y-57256734D01*
X136905469Y-56834963D02*
G75*
G02*
X135876467Y-57256731I-1018469J1018663D01*
G01*
X185900000Y-61670000D02*
X185850000Y-61880000D01*
X131870924Y-116157420D02*
G75*
G02*
X131422590Y-115791555I449476J1008420D01*
G01*
X137658512Y-56081915D02*
G75*
G02*
X138012134Y-55935441I353688J-353785D01*
G01*
X159632222Y-113827625D02*
X160743556Y-115752511D01*
X159473805Y-113603471D02*
G75*
G02*
X159632220Y-113827626I-1140305J-973929D01*
G01*
X83275705Y-127219686D02*
G75*
G02*
X88454885Y-130592217I1425395J-3474114D01*
G01*
X193380506Y-57659906D02*
G75*
G02*
X192951783Y-57835425I-424206J424806D01*
G01*
X161609600Y-116252523D02*
G75*
G02*
X160743555Y-115752512I0J1000023D01*
G01*
X78652444Y-107106267D02*
X78531114Y-107642471D01*
X129982915Y-115385547D02*
G75*
G02*
X130690761Y-115329858I448285J-1171553D01*
G01*
X116410000Y-63055000D02*
X116540000Y-63235000D01*
X78423860Y-108181674D02*
X78330759Y-108723493D01*
X193701473Y-57339393D02*
X193380503Y-57659904D01*
X167430874Y-116556398D02*
X167430874Y-120539493D01*
X211460050Y-130308275D02*
X211649054Y-131678281D01*
X215481800Y-71935428D02*
G75*
G02*
X213981808Y-70425008I0J1500028D01*
G01*
X132318300Y-116252523D02*
X145214077Y-116252523D01*
X221469270Y-90914499D02*
G75*
G02*
X220470043Y-86284705I-3018770J1771199D01*
G01*
X189400000Y-61590000D02*
X189210000Y-61330000D01*
X227386102Y-108181674D02*
X227278848Y-107642471D01*
X91828161Y-64247300D02*
X91828161Y-70435400D01*
X83655506Y-90819767D02*
G75*
G02*
X84340661Y-90914519I287294J-447133D01*
G01*
X188950000Y-63400000D02*
X189190000Y-63220000D01*
X185850000Y-62570000D02*
X185890000Y-62750000D01*
X116290000Y-62855000D02*
X116410000Y-63055000D01*
X94161166Y-131676496D02*
X94350569Y-130303578D01*
X110558254Y-131133882D02*
G75*
G02*
X109230792Y-131935439I-1327554J698582D01*
G01*
X129180875Y-120532700D02*
X129180875Y-116552500D01*
X158333200Y-113077644D02*
G75*
G02*
X159473795Y-113603479I0J-1499956D01*
G01*
X116690000Y-61355000D02*
X116480000Y-61575000D01*
X208192174Y-58440382D02*
X204957922Y-57256749D01*
X116540000Y-63235000D02*
X116690000Y-63435000D01*
X78306142Y-118136626D02*
G75*
G02*
X77439286Y-115622513I2108858J2133626D01*
G01*
X227479204Y-108723493D02*
X227386102Y-108181674D01*
X130690765Y-115329837D02*
G75*
G02*
X131217527Y-115581087I-260065J-1223063D01*
G01*
X119180000Y-61205000D02*
X118850000Y-61135000D01*
X218463670Y-74713084D02*
X217274331Y-72654110D01*
X112853500Y-57835424D02*
G75*
G02*
X112429247Y-57659709I0J600024D01*
G01*
X173086600Y-57835424D02*
G75*
G02*
X172601556Y-57631985I200J680424D01*
G01*
X211946000Y-131935426D02*
G75*
G02*
X211649054Y-131678281I0J300026D01*
G01*
X208192174Y-58440382D02*
G75*
G02*
X210003305Y-59492423I-2062474J-5635618D01*
G01*
X224604982Y-122264800D02*
G75*
G02*
X225504858Y-120122249I3000818J-100D01*
G01*
X208982856Y-130645224D02*
G75*
G02*
X211459984Y-130308284I1238244J170824D01*
G01*
X215994000Y-71935428D02*
G75*
G02*
X217274322Y-72654116I0J-1499772D01*
G01*
X220470042Y-86284706D02*
X220716959Y-86284706D01*
X119760000Y-63115000D02*
X119860000Y-62905000D01*
X211946000Y-131935426D02*
X215863329Y-131935426D01*
X105948006Y-62420000D02*
G75*
G02*
X103291994Y-62420000I-1328006J0D01*
G01*
X103291994Y-62420000D02*
G75*
G02*
X105948006Y-62420000I1328006J0D01*
G01*
X186040000Y-63040000D02*
X186150000Y-63220000D01*
X167774907Y-55935597D02*
G75*
G02*
X168119654Y-56050207I15393J-529503D01*
G01*
X119860000Y-62905000D02*
X119950000Y-62635000D01*
X126465317Y-61930000D02*
G75*
G02*
X124334683Y-61930000I-1065317J0D01*
G01*
X124334683Y-61930000D02*
G75*
G02*
X126465317Y-61930000I1065317J0D01*
G01*
X194459979Y-129631555D02*
X195252177Y-131134753D01*
X189190000Y-63220000D02*
X189370000Y-62990000D01*
X186160000Y-61270000D02*
X186000000Y-61500000D01*
X83275705Y-127219686D02*
G75*
G02*
X82354738Y-127291092I-570805J1387186D01*
G01*
X228370705Y-115622564D02*
G75*
G02*
X227509088Y-118131382I-2975605J-380436D01*
G01*
X119950000Y-62345000D02*
X119910000Y-61985000D01*
X119370000Y-63525000D02*
X119560000Y-63335000D01*
X202975771Y-58700814D02*
X197884061Y-58700807D01*
X189370000Y-62990000D02*
X189510000Y-62710000D01*
X146074659Y-115752520D02*
X147185999Y-113827622D01*
M02*
