G04 #@! TF.GenerationSoftware,KiCad,Pcbnew,9.0.3-9.0.3-0~ubuntu22.04.1*
G04 #@! TF.CreationDate,2025-08-06T12:37:18-06:00*
G04 #@! TF.ProjectId,Steam_Controller,53746561-6d5f-4436-9f6e-74726f6c6c65,rev?*
G04 #@! TF.SameCoordinates,Original*
G04 #@! TF.FileFunction,Soldermask,Top*
G04 #@! TF.FilePolarity,Negative*
%FSLAX46Y46*%
G04 Gerber Fmt 4.6, Leading zero omitted, Abs format (unit mm)*
G04 Created by KiCad (PCBNEW 9.0.3-9.0.3-0~ubuntu22.04.1) date 2025-08-06 12:37:18*
%MOMM*%
%LPD*%
G01*
G04 APERTURE LIST*
G04 Aperture macros list*
%AMRoundRect*
0 Rectangle with rounded corners*
0 $1 Rounding radius*
0 $2 $3 $4 $5 $6 $7 $8 $9 X,Y pos of 4 corners*
0 Add a 4 corners polygon primitive as box body*
4,1,4,$2,$3,$4,$5,$6,$7,$8,$9,$2,$3,0*
0 Add four circle primitives for the rounded corners*
1,1,$1+$1,$2,$3*
1,1,$1+$1,$4,$5*
1,1,$1+$1,$6,$7*
1,1,$1+$1,$8,$9*
0 Add four rect primitives between the rounded corners*
20,1,$1+$1,$2,$3,$4,$5,0*
20,1,$1+$1,$4,$5,$6,$7,0*
20,1,$1+$1,$6,$7,$8,$9,0*
20,1,$1+$1,$8,$9,$2,$3,0*%
%AMRotRect*
0 Rectangle, with rotation*
0 The origin of the aperture is its center*
0 $1 length*
0 $2 width*
0 $3 Rotation angle, in degrees counterclockwise*
0 Add horizontal line*
21,1,$1,$2,0,0,$3*%
%AMFreePoly0*
4,1,105,0.153893,1.291506,0.159926,1.290774,0.308326,1.263674,0.314333,1.262194,0.458533,1.217194,0.464282,1.215010,0.601782,1.153010,0.607155,1.150189,0.736355,1.072189,0.741439,1.068681,0.860339,0.975481,0.864921,0.971421,0.971621,0.864721,0.975668,0.860156,1.068868,0.741356,1.072380,0.736270,1.150380,0.607170,1.153216,0.601769,1.215216,0.464169,1.217406,0.458393,
1.262306,0.314093,1.263767,0.308164,1.290967,0.159864,1.291708,0.153762,1.300808,0.003062,1.300808,-0.003060,1.291708,-0.153860,1.290968,-0.159958,1.263768,-0.308358,1.262303,-0.314303,1.217403,-0.458503,1.215210,-0.464282,1.153210,-0.601782,1.150389,-0.607155,1.072389,-0.736355,1.068881,-0.741439,0.975681,-0.860339,0.971621,-0.864921,0.864921,-0.971621,0.860339,-0.975681,
0.741439,-1.068881,0.736355,-1.072389,0.607155,-1.150389,0.601782,-1.153210,0.464282,-1.215210,0.458503,-1.217403,0.314303,-1.262303,0.308358,-1.263768,0.159958,-1.290968,0.153860,-1.291708,0.003060,-1.300808,-0.003062,-1.300808,-0.153762,-1.291708,-0.159864,-1.290967,-0.308164,-1.263767,-0.314093,-1.262306,-0.458393,-1.217406,-0.464169,-1.215216,-0.601769,-1.153216,-0.607170,-1.150380,
-0.736270,-1.072380,-0.741356,-1.068868,-0.860156,-0.975668,-0.864721,-0.971621,-0.971421,-0.864921,-0.975481,-0.860339,-1.068681,-0.741439,-1.072189,-0.736355,-1.150189,-0.607155,-1.153010,-0.601782,-1.215010,-0.464282,-1.217194,-0.458533,-1.262194,-0.314333,-1.263674,-0.308326,-1.290774,-0.159926,-1.291506,-0.153893,-1.300706,-0.003093,-1.300706,0.003095,-1.291506,0.153795,-1.290772,0.159832,
-1.263672,0.308132,-1.262197,0.314124,-1.217197,0.458424,-1.215016,0.464169,-1.153016,0.601769,-1.150180,0.607170,-1.072180,0.736270,-1.068668,0.741356,-0.975468,0.860156,-0.971421,0.864721,-0.864721,0.971421,-0.860156,0.975468,-0.741356,1.068668,-0.736270,1.072180,-0.607170,1.150180,-0.601769,1.153016,-0.464169,1.215016,-0.458424,1.217197,-0.314124,1.262197,-0.308132,1.263672,
-0.159832,1.290772,-0.153795,1.291506,-0.003095,1.300706,0.003093,1.300706,0.153893,1.291506,0.153893,1.291506,$1*%
%AMFreePoly1*
4,1,105,0.153860,1.291708,0.159958,1.290968,0.308358,1.263768,0.314303,1.262303,0.458503,1.217403,0.464282,1.215210,0.601782,1.153210,0.607155,1.150389,0.736355,1.072389,0.741439,1.068881,0.860339,0.975681,0.864921,0.971621,0.971621,0.864921,0.975681,0.860339,1.068881,0.741439,1.072389,0.736355,1.150389,0.607155,1.153210,0.601782,1.215210,0.464282,1.217403,0.458503,
1.262303,0.314303,1.263768,0.308358,1.290968,0.159958,1.291708,0.153860,1.300808,0.003060,1.300808,-0.003062,1.291708,-0.153762,1.290967,-0.159864,1.263767,-0.308164,1.262306,-0.314093,1.217406,-0.458393,1.215216,-0.464169,1.153216,-0.601769,1.150380,-0.607170,1.072380,-0.736270,1.068868,-0.741356,0.975668,-0.860156,0.971621,-0.864721,0.864921,-0.971421,0.860339,-0.975481,
0.741439,-1.068681,0.736355,-1.072189,0.607155,-1.150189,0.601782,-1.153010,0.464282,-1.215010,0.458533,-1.217194,0.314333,-1.262194,0.308326,-1.263674,0.159926,-1.290774,0.153893,-1.291506,0.003093,-1.300706,-0.003095,-1.300706,-0.153795,-1.291506,-0.159832,-1.290772,-0.308132,-1.263672,-0.314124,-1.262197,-0.458424,-1.217197,-0.464169,-1.215016,-0.601769,-1.153016,-0.607170,-1.150180,
-0.736270,-1.072180,-0.741356,-1.068668,-0.860156,-0.975468,-0.864721,-0.971421,-0.971421,-0.864721,-0.975468,-0.860156,-1.068668,-0.741356,-1.072180,-0.736270,-1.150180,-0.607170,-1.153016,-0.601769,-1.215016,-0.464169,-1.217197,-0.458424,-1.262197,-0.314124,-1.263672,-0.308132,-1.290772,-0.159832,-1.291506,-0.153795,-1.300706,-0.003095,-1.300706,0.003093,-1.291506,0.153893,-1.290774,0.159926,
-1.263674,0.308326,-1.262194,0.314333,-1.217194,0.458533,-1.215010,0.464282,-1.153010,0.601782,-1.150189,0.607155,-1.072189,0.736355,-1.068681,0.741439,-0.975481,0.860339,-0.971421,0.864921,-0.864721,0.971621,-0.860156,0.975668,-0.741356,1.068868,-0.736270,1.072380,-0.607170,1.150380,-0.601769,1.153216,-0.464169,1.215216,-0.458393,1.217406,-0.314093,1.262306,-0.308164,1.263767,
-0.159864,1.290967,-0.153762,1.291708,-0.003062,1.300808,0.003060,1.300808,0.153860,1.291708,0.153860,1.291708,$1*%
%AMFreePoly2*
4,1,105,0.153762,1.291708,0.159864,1.290967,0.308164,1.263767,0.314093,1.262306,0.458393,1.217406,0.464169,1.215216,0.601769,1.153216,0.607170,1.150380,0.736270,1.072380,0.741356,1.068868,0.860156,0.975668,0.864721,0.971621,0.971421,0.864921,0.975481,0.860339,1.068681,0.741439,1.072189,0.736355,1.150189,0.607155,1.153010,0.601782,1.215010,0.464282,1.217194,0.458533,
1.262194,0.314333,1.263674,0.308326,1.290774,0.159926,1.291506,0.153893,1.300706,0.003093,1.300706,-0.003095,1.291506,-0.153795,1.290772,-0.159832,1.263672,-0.308132,1.262197,-0.314124,1.217197,-0.458424,1.215016,-0.464169,1.153016,-0.601769,1.150180,-0.607170,1.072180,-0.736270,1.068668,-0.741356,0.975468,-0.860156,0.971421,-0.864721,0.864721,-0.971421,0.860156,-0.975468,
0.741356,-1.068668,0.736270,-1.072180,0.607170,-1.150180,0.601769,-1.153016,0.464169,-1.215016,0.458424,-1.217197,0.314124,-1.262197,0.308132,-1.263672,0.159832,-1.290772,0.153795,-1.291506,0.003095,-1.300706,-0.003093,-1.300706,-0.153893,-1.291506,-0.159926,-1.290774,-0.308326,-1.263674,-0.314333,-1.262194,-0.458533,-1.217194,-0.464282,-1.215010,-0.601782,-1.153010,-0.607155,-1.150189,
-0.736355,-1.072189,-0.741439,-1.068681,-0.860339,-0.975481,-0.864921,-0.971421,-0.971621,-0.864721,-0.975668,-0.860156,-1.068868,-0.741356,-1.072380,-0.736270,-1.150380,-0.607170,-1.153216,-0.601769,-1.215216,-0.464169,-1.217406,-0.458393,-1.262306,-0.314093,-1.263767,-0.308164,-1.290967,-0.159864,-1.291708,-0.153762,-1.300808,-0.003062,-1.300808,0.003060,-1.291708,0.153860,-1.290968,0.159958,
-1.263768,0.308358,-1.262303,0.314303,-1.217403,0.458503,-1.215210,0.464282,-1.153210,0.601782,-1.150389,0.607155,-1.072389,0.736355,-1.068881,0.741439,-0.975681,0.860339,-0.971621,0.864921,-0.864921,0.971621,-0.860339,0.975681,-0.741439,1.068881,-0.736355,1.072389,-0.607155,1.150389,-0.601782,1.153210,-0.464282,1.215210,-0.458503,1.217403,-0.314303,1.262303,-0.308358,1.263768,
-0.159958,1.290968,-0.153860,1.291708,-0.003060,1.300808,0.003062,1.300808,0.153762,1.291708,0.153762,1.291708,$1*%
%AMFreePoly3*
4,1,105,0.153795,1.291506,0.159832,1.290772,0.308132,1.263672,0.314124,1.262197,0.458424,1.217197,0.464169,1.215016,0.601769,1.153016,0.607170,1.150180,0.736270,1.072180,0.741356,1.068668,0.860156,0.975468,0.864721,0.971421,0.971421,0.864721,0.975468,0.860156,1.068668,0.741356,1.072180,0.736270,1.150180,0.607170,1.153016,0.601769,1.215016,0.464169,1.217197,0.458424,
1.262197,0.314124,1.263672,0.308132,1.290772,0.159832,1.291506,0.153795,1.300706,0.003095,1.300706,-0.003093,1.291506,-0.153893,1.290774,-0.159926,1.263674,-0.308326,1.262194,-0.314333,1.217194,-0.458533,1.215010,-0.464282,1.153010,-0.601782,1.150189,-0.607155,1.072189,-0.736355,1.068681,-0.741439,0.975481,-0.860339,0.971421,-0.864921,0.864721,-0.971621,0.860156,-0.975668,
0.741356,-1.068868,0.736270,-1.072380,0.607170,-1.150380,0.601769,-1.153216,0.464169,-1.215216,0.458393,-1.217406,0.314093,-1.262306,0.308164,-1.263767,0.159864,-1.290967,0.153762,-1.291708,0.003062,-1.300808,-0.003060,-1.300808,-0.153860,-1.291708,-0.159958,-1.290968,-0.308358,-1.263768,-0.314303,-1.262303,-0.458503,-1.217403,-0.464282,-1.215210,-0.601782,-1.153210,-0.607155,-1.150389,
-0.736355,-1.072389,-0.741439,-1.068881,-0.860339,-0.975681,-0.864921,-0.971621,-0.971621,-0.864921,-0.975681,-0.860339,-1.068881,-0.741439,-1.072389,-0.736355,-1.150389,-0.607155,-1.153210,-0.601782,-1.215210,-0.464282,-1.217403,-0.458503,-1.262303,-0.314303,-1.263768,-0.308358,-1.290968,-0.159958,-1.291708,-0.153860,-1.300808,-0.003060,-1.300808,0.003062,-1.291708,0.153762,-1.290967,0.159864,
-1.263767,0.308164,-1.262306,0.314093,-1.217406,0.458393,-1.215216,0.464169,-1.153216,0.601769,-1.150380,0.607170,-1.072380,0.736270,-1.068868,0.741356,-0.975668,0.860156,-0.971621,0.864721,-0.864921,0.971421,-0.860339,0.975481,-0.741439,1.068681,-0.736355,1.072189,-0.607155,1.150189,-0.601782,1.153010,-0.464282,1.215010,-0.458533,1.217194,-0.314333,1.262194,-0.308326,1.263674,
-0.159926,1.290774,-0.153893,1.291506,-0.003093,1.300706,0.003095,1.300706,0.153795,1.291506,0.153795,1.291506,$1*%
%AMFreePoly4*
4,1,105,0.153664,1.291508,0.159747,1.290770,0.308347,1.263570,0.314322,1.262097,0.458322,1.217197,0.464000,1.215046,0.601700,1.153246,0.607189,1.150368,0.736489,1.072168,0.741547,1.068675,0.860147,0.975675,0.864721,0.971621,0.971621,0.864721,0.975675,0.860147,1.068675,0.741547,1.072168,0.736489,1.150368,0.607189,1.153246,0.601700,1.215046,0.464000,1.217197,0.458322,
1.262097,0.314322,1.263570,0.308347,1.290770,0.159747,1.291508,0.153664,1.300608,0.003064,1.300608,-0.003064,1.291508,-0.153664,1.290770,-0.159747,1.263570,-0.308347,1.262097,-0.314322,1.217197,-0.458322,1.215046,-0.464000,1.153246,-0.601700,1.150368,-0.607189,1.072168,-0.736489,1.068675,-0.741547,0.975675,-0.860147,0.971621,-0.864721,0.864721,-0.971621,0.860147,-0.975675,
0.741547,-1.068675,0.736489,-1.072168,0.607189,-1.150368,0.601700,-1.153246,0.464000,-1.215046,0.458322,-1.217197,0.314322,-1.262097,0.308347,-1.263570,0.159747,-1.290770,0.153664,-1.291508,0.003064,-1.300608,-0.003064,-1.300608,-0.153664,-1.291508,-0.159747,-1.290770,-0.308347,-1.263570,-0.314322,-1.262097,-0.458322,-1.217197,-0.464000,-1.215046,-0.601700,-1.153246,-0.607189,-1.150368,
-0.736489,-1.072168,-0.741547,-1.068675,-0.860147,-0.975675,-0.864721,-0.971621,-0.971621,-0.864721,-0.975675,-0.860147,-1.068675,-0.741547,-1.072168,-0.736489,-1.150368,-0.607189,-1.153246,-0.601700,-1.215046,-0.464000,-1.217197,-0.458322,-1.262097,-0.314322,-1.263570,-0.308347,-1.290770,-0.159747,-1.291508,-0.153664,-1.300608,-0.003064,-1.300608,0.003064,-1.291508,0.153664,-1.290770,0.159747,
-1.263570,0.308347,-1.262097,0.314322,-1.217197,0.458322,-1.215046,0.464000,-1.153246,0.601700,-1.150368,0.607189,-1.072168,0.736489,-1.068675,0.741547,-0.975675,0.860147,-0.971621,0.864721,-0.864721,0.971621,-0.860147,0.975675,-0.741547,1.068675,-0.736489,1.072168,-0.607189,1.150368,-0.601700,1.153246,-0.464000,1.215046,-0.458322,1.217197,-0.314322,1.262097,-0.308347,1.263570,
-0.159747,1.290770,-0.153664,1.291508,-0.003064,1.300608,0.003064,1.300608,0.153664,1.291508,0.153664,1.291508,$1*%
%AMFreePoly5*
4,1,221,0.021118,0.689316,0.057618,0.687216,0.060555,0.686962,0.096755,0.682762,0.099522,0.682363,0.135522,0.676163,0.138465,0.675566,0.173965,0.667266,0.176742,0.666534,0.211742,0.656234,0.214380,0.655378,0.248780,0.643178,0.251576,0.642093,0.285176,0.627893,0.287839,0.626675,0.320539,0.610575,0.323124,0.609209,0.354924,0.591209,0.357335,0.589754,0.388035,0.570054,
0.390429,0.568420,0.419929,0.547020,0.422291,0.545198,0.450491,0.522098,0.452658,0.520219,0.479558,0.495519,0.481606,0.493530,0.507006,0.467430,0.509003,0.465255,0.532903,0.437655,0.534719,0.435434,0.557019,0.406534,0.558722,0.404191,0.579322,0.374091,0.580948,0.371557,0.599748,0.340257,0.601066,0.337926,0.618166,0.305726,0.619542,0.302932,0.634642,0.269732,
0.635756,0.267085,0.648956,0.233085,0.649903,0.230430,0.661203,0.195730,0.662024,0.192942,0.671324,0.157642,0.671976,0.154850,0.679276,0.119050,0.679801,0.116006,0.684901,0.079906,0.685204,0.077261,0.688404,0.040961,0.688581,0.037891,0.689581,0.001391,0.689581,-0.001391,0.688581,-0.037891,0.688404,-0.040961,0.685204,-0.077261,0.684901,-0.079906,0.679801,-0.116006,
0.679276,-0.119050,0.671976,-0.154850,0.671324,-0.157642,0.662024,-0.192942,0.661203,-0.195730,0.649903,-0.230430,0.648956,-0.233085,0.635756,-0.267085,0.634642,-0.269732,0.619542,-0.302932,0.618166,-0.305726,0.601066,-0.337926,0.599748,-0.340257,0.580948,-0.371557,0.579322,-0.374091,0.558722,-0.404191,0.557019,-0.406534,0.534719,-0.435434,0.532903,-0.437655,0.509003,-0.465255,
0.507006,-0.467430,0.481606,-0.493530,0.479558,-0.495519,0.452658,-0.520219,0.450491,-0.522098,0.422291,-0.545198,0.419929,-0.547020,0.390429,-0.568421,0.388035,-0.570054,0.357335,-0.589754,0.354924,-0.591209,0.323124,-0.609209,0.320539,-0.610575,0.287839,-0.626675,0.285176,-0.627893,0.251576,-0.642093,0.248780,-0.643178,0.214380,-0.655378,0.211742,-0.656234,0.176742,-0.666534,
0.173965,-0.667266,0.138465,-0.675566,0.135522,-0.676163,0.099522,-0.682363,0.096755,-0.682762,0.060555,-0.686962,0.057618,-0.687216,0.021118,-0.689316,0.018200,-0.689400,-0.018200,-0.689400,-0.021118,-0.689316,-0.057618,-0.687216,-0.060555,-0.686962,-0.096755,-0.682762,-0.099522,-0.682363,-0.135522,-0.676163,-0.138465,-0.675566,-0.173965,-0.667266,-0.176742,-0.666534,-0.211742,-0.656234,
-0.214380,-0.655378,-0.248780,-0.643178,-0.251576,-0.642093,-0.285176,-0.627893,-0.287839,-0.626675,-0.320539,-0.610575,-0.323124,-0.609209,-0.354924,-0.591209,-0.357335,-0.589754,-0.388035,-0.570054,-0.390429,-0.568420,-0.419929,-0.547020,-0.422291,-0.545198,-0.450491,-0.522098,-0.452658,-0.520219,-0.479558,-0.495519,-0.481606,-0.493530,-0.507006,-0.467430,-0.509003,-0.465255,-0.532903,-0.437655,
-0.534719,-0.435434,-0.557019,-0.406534,-0.558722,-0.404191,-0.579322,-0.374091,-0.580948,-0.371557,-0.599748,-0.340257,-0.601066,-0.337926,-0.618166,-0.305726,-0.619542,-0.302932,-0.634642,-0.269732,-0.635756,-0.267085,-0.648956,-0.233085,-0.649903,-0.230430,-0.661203,-0.195730,-0.662024,-0.192942,-0.671324,-0.157642,-0.671976,-0.154850,-0.679276,-0.119050,-0.679801,-0.116006,-0.684901,-0.079906,
-0.685204,-0.077261,-0.688404,-0.040961,-0.688581,-0.037891,-0.689581,-0.001391,-0.689581,0.001391,-0.688581,0.037891,-0.688404,0.040961,-0.685204,0.077261,-0.684901,0.079906,-0.679801,0.116006,-0.679276,0.119050,-0.671976,0.154850,-0.671324,0.157642,-0.662024,0.192942,-0.661203,0.195730,-0.649903,0.230430,-0.648956,0.233085,-0.635756,0.267085,-0.634642,0.269732,-0.619542,0.302932,
-0.618166,0.305726,-0.601066,0.337926,-0.599748,0.340257,-0.580948,0.371557,-0.579322,0.374091,-0.558722,0.404191,-0.557019,0.406534,-0.534719,0.435434,-0.532903,0.437655,-0.509003,0.465255,-0.507006,0.467430,-0.481606,0.493530,-0.479558,0.495519,-0.452658,0.520219,-0.450491,0.522098,-0.422291,0.545198,-0.419929,0.547020,-0.390429,0.568421,-0.388035,0.570054,-0.357335,0.589754,
-0.354924,0.591209,-0.323124,0.609209,-0.320539,0.610575,-0.287839,0.626675,-0.285176,0.627893,-0.251576,0.642093,-0.248780,0.643178,-0.214380,0.655378,-0.211742,0.656234,-0.176742,0.666534,-0.173965,0.667266,-0.138465,0.675566,-0.135522,0.676163,-0.099522,0.682363,-0.096755,0.682762,-0.060555,0.686962,-0.057618,0.687216,-0.021118,0.689316,-0.018200,0.689400,0.018200,0.689400,
0.021118,0.689316,0.021118,0.689316,$1*%
%AMFreePoly6*
4,1,209,0.035207,0.607678,0.038367,0.607485,0.071967,0.604385,0.074843,0.604037,0.108143,0.599037,0.111316,0.598457,0.144216,0.591357,0.147197,0.590619,0.179697,0.581519,0.182472,0.580655,0.214272,0.569755,0.217210,0.568646,0.248410,0.555746,0.251296,0.554446,0.281596,0.539646,0.284341,0.538199,0.313641,0.521599,0.316078,0.520127,0.344378,0.501927,0.346993,0.500127,
0.374193,0.480127,0.376636,0.478213,0.402536,0.456613,0.404849,0.454562,0.429349,0.431462,0.431462,0.429349,0.454562,0.404849,0.456613,0.402536,0.478213,0.376636,0.480127,0.374193,0.500127,0.346993,0.501927,0.344378,0.520127,0.316078,0.521599,0.313641,0.538199,0.284341,0.539646,0.281596,0.554446,0.251296,0.555746,0.248410,0.568646,0.217210,0.569755,0.214272,
0.580655,0.182472,0.581519,0.179697,0.590619,0.147197,0.591357,0.144216,0.598457,0.111316,0.599037,0.108143,0.604037,0.074843,0.604385,0.071967,0.607485,0.038367,0.607678,0.035207,0.608678,0.001507,0.608678,-0.001507,0.607678,-0.035207,0.607485,-0.038367,0.604385,-0.071967,0.604037,-0.074843,0.599037,-0.108143,0.598457,-0.111316,0.591357,-0.144216,0.590619,-0.147197,
0.581519,-0.179697,0.580655,-0.182472,0.569755,-0.214272,0.568646,-0.217210,0.555746,-0.248410,0.554446,-0.251296,0.539646,-0.281596,0.538199,-0.284341,0.521599,-0.313641,0.520127,-0.316078,0.501927,-0.344378,0.500127,-0.346993,0.480127,-0.374193,0.478213,-0.376636,0.456613,-0.402536,0.454562,-0.404849,0.431462,-0.429349,0.429349,-0.431462,0.404849,-0.454562,0.402536,-0.456613,
0.376636,-0.478213,0.374193,-0.480127,0.346993,-0.500127,0.344378,-0.501927,0.316078,-0.520127,0.313641,-0.521599,0.284341,-0.538199,0.281596,-0.539646,0.251296,-0.554446,0.248410,-0.555746,0.217210,-0.568646,0.214272,-0.569755,0.182472,-0.580655,0.179697,-0.581519,0.147197,-0.590619,0.144216,-0.591357,0.111316,-0.598457,0.108143,-0.599037,0.074843,-0.604037,0.071967,-0.604385,
0.038367,-0.607485,0.035207,-0.607678,0.001507,-0.608678,-0.001507,-0.608678,-0.035207,-0.607678,-0.038367,-0.607485,-0.071967,-0.604385,-0.074843,-0.604037,-0.108143,-0.599037,-0.111316,-0.598457,-0.144216,-0.591357,-0.147197,-0.590619,-0.179697,-0.581519,-0.182472,-0.580655,-0.214272,-0.569755,-0.217210,-0.568646,-0.248410,-0.555746,-0.251296,-0.554446,-0.281596,-0.539646,-0.284341,-0.538199,
-0.313641,-0.521599,-0.316078,-0.520127,-0.344378,-0.501927,-0.346993,-0.500127,-0.374193,-0.480127,-0.376636,-0.478213,-0.402536,-0.456613,-0.404849,-0.454562,-0.429349,-0.431462,-0.431462,-0.429349,-0.454562,-0.404849,-0.456613,-0.402536,-0.478213,-0.376636,-0.480127,-0.374193,-0.500127,-0.346993,-0.501927,-0.344378,-0.520127,-0.316078,-0.521599,-0.313641,-0.538199,-0.284341,-0.539646,-0.281596,
-0.554446,-0.251296,-0.555746,-0.248410,-0.568646,-0.217210,-0.569755,-0.214272,-0.580655,-0.182472,-0.581519,-0.179697,-0.590619,-0.147197,-0.591357,-0.144216,-0.598457,-0.111316,-0.599037,-0.108143,-0.604037,-0.074843,-0.604385,-0.071967,-0.607485,-0.038367,-0.607678,-0.035207,-0.608678,-0.001507,-0.608678,0.001507,-0.607678,0.035207,-0.607485,0.038367,-0.604385,0.071967,-0.604037,0.074843,
-0.599037,0.108143,-0.598457,0.111316,-0.591357,0.144216,-0.590619,0.147197,-0.581519,0.179697,-0.580655,0.182472,-0.569755,0.214272,-0.568646,0.217210,-0.555746,0.248410,-0.554446,0.251296,-0.539646,0.281596,-0.538199,0.284341,-0.521599,0.313641,-0.520127,0.316078,-0.501927,0.344378,-0.500127,0.346993,-0.480127,0.374193,-0.478213,0.376636,-0.456613,0.402536,-0.454562,0.404849,
-0.431462,0.429349,-0.429349,0.431462,-0.404849,0.454562,-0.402536,0.456613,-0.376636,0.478213,-0.374193,0.480127,-0.346993,0.500127,-0.344378,0.501927,-0.316078,0.520127,-0.313641,0.521599,-0.284341,0.538199,-0.281596,0.539646,-0.251296,0.554446,-0.248410,0.555746,-0.217210,0.568646,-0.214272,0.569755,-0.182472,0.580655,-0.179697,0.581519,-0.147197,0.590619,-0.144216,0.591357,
-0.111316,0.598457,-0.108143,0.599037,-0.074843,0.604037,-0.071967,0.604385,-0.038367,0.607485,-0.035207,0.607678,-0.001507,0.608678,0.001507,0.608678,0.035207,0.607678,0.035207,0.607678,$1*%
G04 Aperture macros list end*
%ADD10C,1.000000*%
%ADD11C,0.355600*%
%ADD12C,0.301600*%
%ADD13C,0.351600*%
%ADD14C,0.601600*%
%ADD15RoundRect,0.100000X0.130000X0.100000X-0.130000X0.100000X-0.130000X-0.100000X0.130000X-0.100000X0*%
%ADD16FreePoly0,0.000000*%
%ADD17FreePoly1,0.000000*%
%ADD18FreePoly2,0.000000*%
%ADD19FreePoly3,0.000000*%
%ADD20FreePoly4,0.000000*%
%ADD21FreePoly5,1.000000*%
%ADD22FreePoly6,1.000000*%
%ADD23RoundRect,0.100000X-0.130000X-0.100000X0.130000X-0.100000X0.130000X0.100000X-0.130000X0.100000X0*%
%ADD24RoundRect,0.100000X0.100000X-0.130000X0.100000X0.130000X-0.100000X0.130000X-0.100000X-0.130000X0*%
%ADD25RoundRect,0.150000X-0.512500X-0.150000X0.512500X-0.150000X0.512500X0.150000X-0.512500X0.150000X0*%
%ADD26RotRect,0.400000X1.600000X161.000000*%
%ADD27RoundRect,0.100000X-0.100000X0.225000X-0.100000X-0.225000X0.100000X-0.225000X0.100000X0.225000X0*%
%ADD28RoundRect,0.150000X-0.150000X0.512500X-0.150000X-0.512500X0.150000X-0.512500X0.150000X0.512500X0*%
%ADD29C,3.000000*%
%ADD30RoundRect,0.100000X-0.100000X0.130000X-0.100000X-0.130000X0.100000X-0.130000X0.100000X0.130000X0*%
%ADD31RoundRect,0.140000X-0.170000X0.140000X-0.170000X-0.140000X0.170000X-0.140000X0.170000X0.140000X0*%
%ADD32RoundRect,0.250000X0.650000X-0.325000X0.650000X0.325000X-0.650000X0.325000X-0.650000X-0.325000X0*%
%ADD33RoundRect,0.150000X0.150000X0.200000X-0.150000X0.200000X-0.150000X-0.200000X0.150000X-0.200000X0*%
%ADD34RoundRect,0.050000X0.725000X0.550000X-0.725000X0.550000X-0.725000X-0.550000X0.725000X-0.550000X0*%
%ADD35RoundRect,0.050000X0.300000X0.425000X-0.300000X0.425000X-0.300000X-0.425000X0.300000X-0.425000X0*%
%ADD36RoundRect,0.062500X-0.062500X0.375000X-0.062500X-0.375000X0.062500X-0.375000X0.062500X0.375000X0*%
%ADD37R,2.000000X1.200000*%
%ADD38FreePoly5,180.000000*%
%ADD39FreePoly6,180.000000*%
%ADD40RoundRect,0.250000X0.328685X0.424372X-0.163719X0.511196X-0.328685X-0.424372X0.163719X-0.511196X0*%
%ADD41FreePoly5,270.000000*%
%ADD42FreePoly6,270.000000*%
%ADD43RoundRect,0.200000X0.200000X0.275000X-0.200000X0.275000X-0.200000X-0.275000X0.200000X-0.275000X0*%
%ADD44RoundRect,0.100000X-0.145390X-0.075907X0.110660X-0.121055X0.145390X0.075907X-0.110660X0.121055X0*%
%ADD45C,2.800000*%
%ADD46O,2.000000X1.810000*%
%ADD47RoundRect,0.140000X0.140000X0.170000X-0.140000X0.170000X-0.140000X-0.170000X0.140000X-0.170000X0*%
%ADD48RoundRect,0.150000X0.150000X-0.512500X0.150000X0.512500X-0.150000X0.512500X-0.150000X-0.512500X0*%
%ADD49FreePoly5,120.000000*%
%ADD50FreePoly6,120.000000*%
%ADD51C,1.950000*%
%ADD52C,1.650000*%
%ADD53C,2.400000*%
%ADD54C,2.475000*%
%ADD55O,0.851600X0.851600*%
%ADD56RoundRect,0.225000X0.375000X-0.225000X0.375000X0.225000X-0.375000X0.225000X-0.375000X-0.225000X0*%
%ADD57RoundRect,0.050800X0.500000X0.625000X-0.500000X0.625000X-0.500000X-0.625000X0.500000X-0.625000X0*%
%ADD58RoundRect,0.250000X0.312500X0.625000X-0.312500X0.625000X-0.312500X-0.625000X0.312500X-0.625000X0*%
%ADD59RotRect,0.400000X1.600000X199.000000*%
%ADD60RoundRect,0.140000X0.170000X-0.140000X0.170000X0.140000X-0.170000X0.140000X-0.170000X-0.140000X0*%
%ADD61RoundRect,0.225000X0.225000X0.375000X-0.225000X0.375000X-0.225000X-0.375000X0.225000X-0.375000X0*%
%ADD62RoundRect,0.102000X-0.990000X-2.100000X0.990000X-2.100000X0.990000X2.100000X-0.990000X2.100000X0*%
%ADD63RoundRect,0.150000X-0.200000X0.150000X-0.200000X-0.150000X0.200000X-0.150000X0.200000X0.150000X0*%
%ADD64C,0.550000*%
%ADD65RoundRect,0.050800X0.200000X-1.000000X0.200000X1.000000X-0.200000X1.000000X-0.200000X-1.000000X0*%
%ADD66RoundRect,0.050800X0.800000X0.500000X-0.800000X0.500000X-0.800000X-0.500000X0.800000X-0.500000X0*%
%ADD67RoundRect,0.050800X1.000000X0.700000X-1.000000X0.700000X-1.000000X-0.700000X1.000000X-0.700000X0*%
%ADD68FreePoly5,315.000000*%
%ADD69FreePoly6,315.000000*%
%ADD70FreePoly5,0.000000*%
%ADD71FreePoly6,0.000000*%
%ADD72C,2.000000*%
%ADD73C,2.374900*%
%ADD74C,0.990600*%
G04 APERTURE END LIST*
D10*
X227210000Y-118540000D02*
X227660000Y-118070000D01*
X78170000Y-117950000D02*
X77780000Y-117400000D01*
X181095000Y-120990000D02*
X182055000Y-121070000D01*
X221115000Y-85760000D02*
X221026889Y-84255000D01*
X148665000Y-113090000D02*
X148105000Y-113130000D01*
X215650000Y-71925000D02*
X215130000Y-71885000D01*
X114145000Y-125750000D02*
X113315000Y-126670000D01*
X228250000Y-114590000D02*
X227500000Y-108900000D01*
X221280000Y-85195000D02*
X218450000Y-74685000D01*
X84840000Y-86330000D02*
X84510000Y-85200000D01*
X129185000Y-116740000D02*
X129255000Y-116150000D01*
X118775000Y-122470000D02*
X117575000Y-123100000D01*
X228290000Y-116910000D02*
X228400000Y-116220000D01*
X187065000Y-122470000D02*
X188265000Y-123100000D01*
X128525000Y-120970000D02*
X125545000Y-120970000D01*
X220070000Y-82690000D02*
X219030000Y-78835000D01*
X192525000Y-126670000D02*
X193505000Y-127970000D01*
X87340000Y-74690000D02*
X88540000Y-72610000D01*
X213440000Y-62525000D02*
X212920000Y-61955000D01*
X220950000Y-86325000D02*
X221280000Y-85195000D01*
X209790000Y-59315000D02*
X208620000Y-58615000D01*
X78330000Y-108780000D02*
X78490000Y-107840000D01*
X111505000Y-129340000D02*
X111155000Y-130010000D01*
X160660000Y-115720000D02*
X161050000Y-116100000D01*
X123785000Y-121070000D02*
X122515000Y-121260000D01*
X228400000Y-116220000D02*
X228350000Y-115470000D01*
X214630000Y-71655000D02*
X214250000Y-71285000D01*
X165245000Y-115670000D02*
X165845000Y-115290000D01*
X122515000Y-121260000D02*
X121465000Y-121500000D01*
X189545000Y-123910000D02*
X190625000Y-124760000D01*
X227500000Y-108900000D02*
X227340000Y-107960000D01*
X85720000Y-82695000D02*
X86760000Y-78840000D01*
X177315000Y-120970000D02*
X167585000Y-120800000D01*
X88950000Y-72200000D02*
X89470000Y-71970000D01*
X77430000Y-116100000D02*
X77480000Y-115350000D01*
X90140000Y-71930000D02*
X90660000Y-71890000D01*
X185635000Y-121890000D02*
X187065000Y-122470000D01*
X129035000Y-120860000D02*
X128525000Y-120970000D01*
X158630000Y-113100000D02*
X159140000Y-113350000D01*
X167435000Y-120450000D02*
X167585000Y-120800000D01*
X116295000Y-123910000D02*
X115215000Y-124760000D01*
X167005000Y-115550000D02*
X167365000Y-116090000D01*
X226760000Y-105590000D02*
X223150000Y-91410000D01*
X129615000Y-115610000D02*
X129255000Y-116150000D01*
X92000000Y-63190000D02*
X92350000Y-62530000D01*
X227340000Y-107960000D02*
X227140000Y-107070000D01*
X145685000Y-116130000D02*
X145145000Y-116250000D01*
X166455000Y-115270000D02*
X167005000Y-115550000D01*
X129185000Y-120510000D02*
X129035000Y-120860000D01*
X183325000Y-121260000D02*
X184375000Y-121500000D01*
X91810000Y-70220000D02*
X91810000Y-64330000D01*
X80690000Y-120450000D02*
X78620000Y-118420000D01*
X130775000Y-115350000D02*
X130165000Y-115330000D01*
X115215000Y-124760000D02*
X114145000Y-125750000D01*
X215130000Y-71885000D02*
X214630000Y-71655000D01*
X214250000Y-71285000D02*
X214030000Y-70785000D01*
X91760000Y-70790000D02*
X91810000Y-70220000D01*
X184375000Y-121500000D02*
X185635000Y-121890000D01*
X223150000Y-91410000D02*
X221600000Y-90590000D01*
X164115000Y-116190000D02*
X161590000Y-116220000D01*
X131375000Y-115730000D02*
X130775000Y-115350000D01*
X146075000Y-115750000D02*
X145685000Y-116130000D01*
X225140000Y-120570000D02*
X227210000Y-118540000D01*
X78620000Y-118420000D02*
X78170000Y-117950000D01*
X213790000Y-63185000D02*
X213440000Y-62525000D01*
X112335000Y-127970000D02*
X111505000Y-129340000D01*
X167435000Y-120450000D02*
X167435000Y-116680000D01*
X228050000Y-117520000D02*
X228290000Y-116910000D01*
X77480000Y-115350000D02*
X77580000Y-114470000D01*
X148105000Y-113130000D02*
X147595000Y-113380000D01*
X77580000Y-114470000D02*
X78330000Y-108780000D01*
X77780000Y-117400000D02*
X77540000Y-116790000D01*
X77540000Y-116790000D02*
X77430000Y-116100000D01*
X78490000Y-107840000D02*
X78690000Y-106950000D01*
X91850000Y-63760000D02*
X92000000Y-63190000D01*
X194335000Y-129340000D02*
X194685000Y-130010000D01*
X117575000Y-123100000D02*
X116295000Y-123910000D01*
X97170000Y-58620000D02*
X100700000Y-57330000D01*
X79070000Y-105470000D02*
X82680000Y-91290000D01*
X165845000Y-115290000D02*
X166455000Y-115270000D01*
X159140000Y-113350000D02*
X159530000Y-113780000D01*
X213980000Y-70215000D02*
X213980000Y-64325000D01*
X90660000Y-71890000D02*
X91160000Y-71660000D01*
X180295000Y-120970000D02*
X181095000Y-120990000D01*
X109650000Y-57455000D02*
X112470000Y-57475000D01*
X147595000Y-113380000D02*
X147205000Y-113810000D01*
X84510000Y-85200000D02*
X87340000Y-74690000D01*
X147205000Y-113810000D02*
X146075000Y-115750000D01*
X124745000Y-120990000D02*
X123785000Y-121070000D01*
X125545000Y-120970000D02*
X124745000Y-120990000D01*
X121465000Y-121500000D02*
X120205000Y-121890000D01*
X129185000Y-120510000D02*
X129185000Y-116740000D01*
X132505000Y-116250000D02*
X131875000Y-116150000D01*
X113315000Y-126670000D02*
X112335000Y-127970000D01*
X218450000Y-74685000D02*
X217250000Y-72605000D01*
X164745000Y-116090000D02*
X165245000Y-115670000D01*
X196100000Y-57435000D02*
X193280000Y-57455000D01*
X131875000Y-116150000D02*
X131375000Y-115730000D01*
X91540000Y-71290000D02*
X91760000Y-70790000D01*
X217250000Y-72605000D02*
X216840000Y-72195000D01*
X216840000Y-72195000D02*
X216320000Y-71965000D01*
X161050000Y-116100000D02*
X161590000Y-116220000D01*
X96000000Y-59320000D02*
X97170000Y-58620000D01*
X120205000Y-121890000D02*
X118775000Y-122470000D01*
X82680000Y-91290000D02*
X84230000Y-90470000D01*
X227140000Y-107070000D02*
X226760000Y-105590000D01*
X167435000Y-116680000D02*
X167365000Y-116090000D01*
X78690000Y-106950000D02*
X79070000Y-105470000D01*
X92350000Y-62530000D02*
X92870000Y-61960000D01*
X182055000Y-121070000D02*
X183325000Y-121260000D01*
X91810000Y-64330000D02*
X91850000Y-63760000D01*
X84675000Y-85765000D02*
X84763111Y-84260000D01*
X193505000Y-127970000D02*
X194335000Y-129340000D01*
X173070000Y-57800000D02*
X193210000Y-57810000D01*
X190625000Y-124760000D02*
X191695000Y-125750000D01*
X145145000Y-116250000D02*
X132505000Y-116250000D01*
X227660000Y-118070000D02*
X228050000Y-117520000D01*
X208620000Y-58615000D02*
X205090000Y-57325000D01*
X191695000Y-125750000D02*
X192525000Y-126670000D01*
X212920000Y-61955000D02*
X209790000Y-59315000D01*
X132680000Y-57820000D02*
X112540000Y-57830000D01*
X91160000Y-71660000D02*
X91540000Y-71290000D01*
X89470000Y-71970000D02*
X90140000Y-71930000D01*
X213980000Y-64325000D02*
X213940000Y-63755000D01*
X130165000Y-115330000D02*
X129615000Y-115610000D01*
X159530000Y-113780000D02*
X160660000Y-115720000D01*
X164115000Y-116190000D02*
X164745000Y-116090000D01*
X188265000Y-123100000D02*
X189545000Y-123910000D01*
X216320000Y-71965000D02*
X215650000Y-71925000D01*
X228350000Y-115470000D02*
X228250000Y-114590000D01*
X158630000Y-113100000D02*
X148665000Y-113090000D01*
X214030000Y-70785000D02*
X213980000Y-70215000D01*
X177315000Y-120970000D02*
X180295000Y-120970000D01*
X92870000Y-61960000D02*
X96000000Y-59320000D01*
X213940000Y-63755000D02*
X213790000Y-63185000D01*
X88540000Y-72610000D02*
X88950000Y-72200000D01*
D11*
X135835685Y-78215940D02*
X137737397Y-78182746D01*
X136741276Y-79330505D02*
X138376510Y-78412826D01*
X137210761Y-75664154D02*
X138227366Y-77145238D01*
X137256655Y-80745828D02*
X138262828Y-79176927D01*
X137737397Y-78182746D02*
X135835685Y-78215940D01*
X138227366Y-77145238D02*
X137210761Y-75664154D01*
X138262828Y-79176927D02*
X137256655Y-80745828D01*
D12*
X138837888Y-75737366D02*
X138880000Y-78150000D01*
X138860777Y-77650360D02*
X138837888Y-75737366D01*
D11*
X138880000Y-78150000D02*
X136660500Y-77063571D01*
X138880000Y-78150000D02*
X136741276Y-79330505D01*
X138880000Y-78150000D02*
X138928763Y-80943574D01*
D12*
X138880000Y-78150000D02*
X141020940Y-77096476D01*
X139315378Y-77904263D02*
X141020940Y-77096476D01*
D11*
X139337585Y-78351445D02*
X141058619Y-79255146D01*
X139370191Y-77125289D02*
X140296673Y-75574783D01*
X139532634Y-79154762D02*
X140420472Y-80742110D01*
X140296673Y-75574783D02*
X139370191Y-77125289D01*
X140420472Y-80742110D02*
X139532634Y-79154762D01*
D12*
X141020940Y-77096476D02*
X139315378Y-77904263D01*
D11*
X141058619Y-79255146D02*
X138880000Y-78150000D01*
X141834550Y-78115631D02*
X140023126Y-78147249D01*
X137256655Y-80745828D02*
G75*
G02*
X140420472Y-80742110I1578913J2550849D01*
G01*
X177985299Y-102182799D02*
X179797000Y-102182800D01*
X178781000Y-101057001D02*
X180940000Y-102200000D01*
D12*
X178781000Y-103216000D02*
X180500401Y-102438100D01*
D11*
X179445000Y-99581400D02*
X180305000Y-101183999D01*
X179478601Y-104750100D02*
X180432000Y-103216000D01*
X180305000Y-101183999D02*
X179445000Y-99581400D01*
X180432000Y-103216000D02*
X179478601Y-104750100D01*
X180486001Y-101990599D02*
X178781000Y-101057001D01*
D12*
X180500401Y-102438100D02*
X178781000Y-103216000D01*
X180939999Y-104613000D02*
X180940000Y-102200000D01*
X180940000Y-102200000D02*
X178781000Y-103216000D01*
D11*
X180940000Y-102200000D02*
X180940000Y-99406000D01*
X180940000Y-102200000D02*
X183098999Y-101057001D01*
X180940000Y-102200000D02*
X183140200Y-103324999D01*
D12*
X180950499Y-102699901D02*
X180939999Y-104613000D01*
D11*
X181574999Y-101184001D02*
X182608400Y-99632901D01*
X181575000Y-103216001D02*
X182565600Y-104714601D01*
X182083000Y-102187200D02*
X183984998Y-102187201D01*
X182565600Y-104714601D02*
X181575000Y-103216001D01*
X182608400Y-99632901D02*
X181574999Y-101184001D01*
X183098999Y-101057001D02*
X181448001Y-101945999D01*
X183984998Y-102187201D02*
X182083000Y-102187200D01*
X182608400Y-99632901D02*
G75*
G02*
X179445000Y-99581400I-1623193J-2522902D01*
G01*
X160281400Y-103675000D02*
X161884000Y-102815000D01*
X160332900Y-100511600D02*
X161884000Y-101545000D01*
X161757000Y-100021000D02*
X162646000Y-101672000D01*
X161757000Y-104339000D02*
X162900000Y-102180000D01*
X161884000Y-101545000D02*
X160332900Y-100511600D01*
X161884000Y-102815000D02*
X160281400Y-103675000D01*
X162690600Y-102634000D02*
X161757000Y-104339000D01*
X162882800Y-105134700D02*
X162882800Y-103323000D01*
X162887200Y-99135000D02*
X162887200Y-101037000D01*
X162887200Y-101037000D02*
X162887200Y-99135000D01*
X162900000Y-102180000D02*
X160106000Y-102180000D01*
X162900000Y-102180000D02*
X161757000Y-100021000D01*
D12*
X162900000Y-102180000D02*
X163916000Y-104339000D01*
D11*
X162900000Y-102180000D02*
X164025000Y-99979800D01*
D12*
X163138100Y-102619600D02*
X163916000Y-104339000D01*
X163399900Y-102169500D02*
X165313000Y-102180000D01*
D11*
X163916000Y-101545000D02*
X165414600Y-100554400D01*
X163916000Y-102688000D02*
X165450100Y-103641400D01*
D12*
X163916000Y-104339000D02*
X163138100Y-102619600D01*
X165313000Y-102180000D02*
X162900000Y-102180000D01*
D11*
X165414600Y-100554400D02*
X163916000Y-101545000D01*
X165450100Y-103641400D02*
X163916000Y-102688000D01*
X160332900Y-100511600D02*
G75*
G02*
X160281400Y-103675000I2522903J-1623192D01*
G01*
X168930848Y-111259440D02*
X170736118Y-111318059D01*
D12*
X169780281Y-112456499D02*
X171870000Y-111250000D01*
X169910619Y-109888252D02*
X171443998Y-110988346D01*
D11*
X170407543Y-108682555D02*
X171313396Y-110251533D01*
X170505093Y-113915111D02*
X171307619Y-112307926D01*
X170736118Y-111318059D02*
X168930848Y-111259440D01*
X171307619Y-112307926D02*
X170505093Y-113915111D01*
D12*
X171442323Y-111509044D02*
X169780281Y-112456499D01*
X171443998Y-110988346D02*
X169910619Y-109888252D01*
D11*
X171780368Y-108808752D02*
X171870000Y-111250000D01*
X171824346Y-110752125D02*
X171780368Y-108808752D01*
D12*
X171870000Y-111250000D02*
X169910619Y-109888252D01*
D11*
X171870000Y-111250000D02*
X171995821Y-113717929D01*
X171870000Y-111250000D02*
X173939368Y-112548249D01*
X171870000Y-111250000D02*
X174289675Y-109853000D01*
X172432381Y-110192074D02*
X173390274Y-108645991D01*
X172452585Y-112233467D02*
X173403587Y-113880647D01*
X173067382Y-111291926D02*
X174927374Y-111411325D01*
X173390274Y-108645991D02*
X172432381Y-110192074D01*
X173403587Y-113880647D02*
X172452585Y-112233467D01*
X173939368Y-112548249D02*
X172343970Y-111562941D01*
X174927374Y-111411325D02*
X173067382Y-111291926D01*
X174927374Y-111411325D02*
G75*
G02*
X173390274Y-108645992I-2996493J144273D01*
G01*
D13*
X148761113Y-79343408D02*
X150161613Y-78213608D01*
X149018613Y-73768608D02*
X150161613Y-74657608D01*
D11*
X150328613Y-76435608D02*
X147875613Y-76435608D01*
X151633713Y-74239608D02*
X150796613Y-72625608D01*
X151686613Y-78659508D02*
X150796613Y-80118608D01*
D13*
X152819913Y-71435608D02*
X152819913Y-73133608D01*
X152820013Y-81435608D02*
X152820013Y-79610608D01*
D11*
X153912613Y-74182808D02*
X154733613Y-72625608D01*
X154053913Y-78614708D02*
X154860613Y-80118608D01*
X155328613Y-76435608D02*
X157019613Y-76435608D01*
D13*
X156765613Y-73895608D02*
X155622613Y-74657608D01*
X156971013Y-79235608D02*
X155622613Y-78213608D01*
D14*
X147999413Y-75140008D02*
G75*
G02*
X147980413Y-77658208I4829199J-1295608D01*
G01*
X147999413Y-75140008D02*
G75*
G02*
X147980413Y-77658208I4829199J-1295608D01*
G01*
D13*
X150331813Y-76306308D02*
G75*
G02*
X150328513Y-76435608I2496838J-128417D01*
G01*
X151633713Y-74239508D02*
G75*
G02*
X150328513Y-76435608I1194920J-2196080D01*
G01*
D11*
X168915049Y-93805477D02*
X170742567Y-93439408D01*
X169575133Y-92451580D02*
X171371185Y-92990395D01*
X169747809Y-91025911D02*
X171092726Y-92370828D01*
X170742567Y-93439408D02*
X168915049Y-93805477D01*
X171092726Y-92370828D02*
X169747809Y-91025911D01*
X171115495Y-96078754D02*
X171640592Y-94337433D01*
X171640592Y-94337433D02*
X171115495Y-96078754D01*
X171910000Y-93170000D02*
X169575133Y-92451580D01*
X171910000Y-93170000D02*
X169934344Y-95145656D01*
X171910000Y-93170000D02*
X171149719Y-90818729D01*
D12*
X171910000Y-93170000D02*
X174155064Y-93978223D01*
D11*
X172082958Y-93639095D02*
X172628420Y-95504867D01*
X172179408Y-92002567D02*
X172538618Y-90242437D01*
D12*
X172256058Y-92809093D02*
X173616249Y-91463751D01*
X172389206Y-93312482D02*
X174155064Y-93978223D01*
D11*
X172538618Y-90242437D02*
X172179408Y-92002567D01*
X172628420Y-95504867D02*
X171910000Y-93170000D01*
X172987631Y-92810790D02*
X174746559Y-92400173D01*
D12*
X173616249Y-91463751D02*
X171910000Y-93170000D01*
D11*
X173987126Y-95271451D02*
X172706061Y-93990385D01*
D12*
X174155064Y-93978223D02*
X172389206Y-93312482D01*
D11*
X174746559Y-92400173D02*
X172987631Y-92810790D01*
X168915049Y-93805477D02*
G75*
G02*
X171115495Y-96078755I2931732J636192D01*
G01*
X163875000Y-78322799D02*
X165777000Y-78322800D01*
X164761000Y-79452999D02*
X166411999Y-78564000D01*
X165251600Y-80877100D02*
X166285000Y-79325999D01*
X165294400Y-75795400D02*
X166285000Y-77294000D01*
X165777000Y-78322800D02*
X163875000Y-78322799D01*
X166285000Y-77294000D02*
X165294400Y-75795400D01*
X166285000Y-79325999D02*
X165251600Y-80877100D01*
D12*
X166909500Y-77810100D02*
X166920001Y-75897000D01*
D11*
X166920000Y-78310000D02*
X164719800Y-77185000D01*
X166920000Y-78310000D02*
X164761000Y-79452999D01*
X166920000Y-78310000D02*
X166920000Y-81104000D01*
D12*
X166920000Y-78310000D02*
X169079000Y-77294000D01*
X166920001Y-75897000D02*
X166920000Y-78310000D01*
X167359600Y-78071900D02*
X169079000Y-77294000D01*
D11*
X167373999Y-78519400D02*
X169079000Y-79453000D01*
X167428000Y-77294000D02*
X168381400Y-75759900D01*
X167555000Y-79326000D02*
X168415000Y-80928599D01*
X168381400Y-75759900D02*
X167428000Y-77294000D01*
X168415000Y-80928599D02*
X167555000Y-79326000D01*
D12*
X169079000Y-77294000D02*
X167359600Y-78071900D01*
D11*
X169079000Y-79453000D02*
X166920000Y-78310000D01*
X169874700Y-78327201D02*
X168063000Y-78327200D01*
X165251600Y-80877100D02*
G75*
G02*
X168415000Y-80928599I1623191J2522903D01*
G01*
D15*
X205950000Y-112850000D03*
X205310000Y-112850000D03*
D16*
X192813000Y-74590000D03*
D17*
X192813000Y-80247000D03*
D18*
X198470000Y-80247000D03*
D19*
X198470000Y-74590000D03*
D20*
X195641500Y-77418500D03*
D21*
X138948711Y-82086401D03*
D22*
X143705265Y-78065775D03*
D23*
X93500000Y-97920000D03*
X94140000Y-97920000D03*
D15*
X199390000Y-113780000D03*
X198750000Y-113780000D03*
D24*
X96280000Y-110870000D03*
X96280000Y-110230000D03*
D15*
X88310000Y-104010000D03*
X87670000Y-104010000D03*
D23*
X208360000Y-118860000D03*
X209000000Y-118860000D03*
D25*
X88502500Y-115230000D03*
X88502500Y-117130000D03*
X90777500Y-116180000D03*
D23*
X81100000Y-115800000D03*
X81740000Y-115800000D03*
D26*
X99470850Y-114600688D03*
X98216728Y-116707148D03*
X98525332Y-114275119D03*
X97271209Y-116381580D03*
X97579813Y-113949551D03*
X96325690Y-116056012D03*
X96634295Y-113623983D03*
X95380172Y-115730444D03*
X95688776Y-113298415D03*
X94434653Y-115404875D03*
X94743257Y-112972847D03*
X93489135Y-115079307D03*
D27*
X92050000Y-95540000D03*
X91400000Y-95540000D03*
X90750000Y-95540000D03*
X90750000Y-97440000D03*
X91400000Y-97440000D03*
X92050000Y-97440000D03*
D15*
X94210000Y-117860000D03*
X93570000Y-117860000D03*
D28*
X89362500Y-122302500D03*
X87462500Y-122302500D03*
X88412500Y-124577500D03*
D29*
X84110000Y-121990000D03*
D24*
X97700000Y-101540000D03*
X97700000Y-100900000D03*
D30*
X109350000Y-120290000D03*
X109350000Y-120930000D03*
D25*
X102312500Y-108300000D03*
X102312500Y-109250000D03*
X102312500Y-110200000D03*
X104587500Y-110200000D03*
X104587500Y-108300000D03*
D31*
X105420000Y-105320000D03*
X105420000Y-106280000D03*
D32*
X92260000Y-106765000D03*
X92260000Y-103815000D03*
D33*
X83830000Y-119010000D03*
X85230000Y-119010000D03*
D23*
X210360000Y-117800000D03*
X211000000Y-117800000D03*
D34*
X107600200Y-59510000D03*
X103050000Y-59510000D03*
D35*
X108525000Y-57834900D03*
X102125200Y-57834900D03*
D36*
X88780000Y-105382500D03*
X88280000Y-105382500D03*
X87780000Y-105382500D03*
X87280000Y-105382500D03*
X86780000Y-105382500D03*
X86780000Y-108257500D03*
X87280000Y-108257500D03*
X87780000Y-108257500D03*
X88280000Y-108257500D03*
X88780000Y-108257500D03*
D37*
X87780000Y-106820000D03*
D38*
X180940000Y-98262999D03*
D39*
X176114001Y-102200000D03*
D30*
X86480000Y-119270000D03*
X86480000Y-119910000D03*
D34*
X202755200Y-59465100D03*
X198205000Y-59465100D03*
D35*
X203680000Y-57790000D03*
X197280200Y-57790000D03*
D40*
X84875567Y-107984966D03*
X83004433Y-107655034D03*
D41*
X158963000Y-102180000D03*
D42*
X162900000Y-107006000D03*
D43*
X91955000Y-102650000D03*
X90305000Y-102650000D03*
D30*
X85780000Y-97040000D03*
X85780000Y-97680000D03*
D24*
X79340000Y-116200000D03*
X79340000Y-115560000D03*
D44*
X84234863Y-106554433D03*
X84865137Y-106665567D03*
D45*
X87480000Y-101010000D03*
D15*
X86490000Y-104010000D03*
X85850000Y-104010000D03*
D25*
X152352500Y-61132500D03*
X152352500Y-62082500D03*
X152352500Y-63032500D03*
X154627500Y-63032500D03*
X154627500Y-62082500D03*
X154627500Y-61132500D03*
D15*
X86630000Y-96120000D03*
X85990000Y-96120000D03*
D46*
X170753548Y-64415000D03*
X162903548Y-64395000D03*
D47*
X103010000Y-106900000D03*
X102050000Y-106900000D03*
D23*
X206340000Y-118890000D03*
X206980000Y-118890000D03*
D48*
X87760000Y-120717500D03*
X89660000Y-120717500D03*
X88710000Y-118442500D03*
D30*
X87630000Y-95340000D03*
X87630000Y-95980000D03*
D49*
X175279543Y-109281500D03*
D50*
X169456998Y-107070562D03*
D51*
X137652495Y-96759992D03*
D52*
X125672500Y-100010000D03*
X125672493Y-102510001D03*
X125672508Y-105010000D03*
D51*
X137652500Y-92259998D03*
D52*
X131902491Y-111240007D03*
X134402494Y-111240001D03*
X136902498Y-111240004D03*
D51*
X131152497Y-96759999D03*
X131152497Y-92260006D03*
D53*
X140727496Y-97510004D03*
X140727491Y-107509998D03*
X128077509Y-97510003D03*
X128077498Y-107510003D03*
D54*
X138702510Y-102510002D03*
X130102505Y-102510003D03*
D25*
X197172500Y-115907500D03*
X197172500Y-117807500D03*
X199447500Y-116857500D03*
D23*
X198750000Y-114620000D03*
X199390000Y-114620000D03*
D55*
X146605613Y-76435608D03*
X152828613Y-69958608D03*
D24*
X103130000Y-119260000D03*
X103130000Y-118620000D03*
X100840000Y-109160000D03*
X100840000Y-108520000D03*
D56*
X201090000Y-119060000D03*
X201090000Y-115760000D03*
D57*
X151809900Y-76399000D03*
X154010000Y-76399000D03*
D58*
X97452500Y-103060000D03*
X94527500Y-103060000D03*
D30*
X104410000Y-105800000D03*
X104410000Y-106440000D03*
D59*
X211379487Y-112830068D03*
X211688092Y-115262096D03*
X210433968Y-113155636D03*
X210742571Y-115587665D03*
X209488450Y-113481204D03*
X209797054Y-115913233D03*
X208542931Y-113806772D03*
X208851535Y-116238801D03*
X207597411Y-114132341D03*
X207906017Y-116564369D03*
X206651894Y-114457909D03*
X206960498Y-116889937D03*
D60*
X90530000Y-104880000D03*
X90530000Y-103920000D03*
D15*
X201580000Y-120670000D03*
X200940000Y-120670000D03*
D61*
X84027500Y-109930000D03*
X80727500Y-109930000D03*
D16*
X107091500Y-74877800D03*
D17*
X107091500Y-80534800D03*
D18*
X112748500Y-80534800D03*
D19*
X112748500Y-74877800D03*
D20*
X109920000Y-77706300D03*
D62*
X86205000Y-111650000D03*
X89355000Y-111650000D03*
D63*
X80150000Y-114190000D03*
X80150000Y-112790000D03*
D30*
X86820000Y-97030000D03*
X86820000Y-97670000D03*
D27*
X83092500Y-112350000D03*
X82442500Y-112350000D03*
X81792500Y-112350000D03*
X81792500Y-114250000D03*
X82442500Y-114250000D03*
X83092500Y-114250000D03*
D45*
X218830000Y-101080000D03*
D25*
X94422500Y-99260000D03*
X94422500Y-101160000D03*
X96697500Y-100210000D03*
D15*
X94090000Y-117010000D03*
X93450000Y-117010000D03*
D64*
X154834100Y-57814600D03*
X150834100Y-57814600D03*
D65*
X154134300Y-58569000D03*
X153484000Y-58569000D03*
X152833800Y-58569000D03*
X152183600Y-58569000D03*
X151533300Y-58569000D03*
D66*
X156033700Y-58018300D03*
D67*
X156033700Y-55664200D03*
X149633900Y-55664200D03*
D66*
X149633900Y-58018300D03*
D68*
X169126121Y-95953879D03*
D69*
X175322497Y-96582497D03*
D23*
X79730000Y-111580000D03*
X80370000Y-111580000D03*
D24*
X102130000Y-119270000D03*
X102130000Y-118630000D03*
D70*
X166920000Y-82247000D03*
D71*
X171745999Y-78310001D03*
D30*
X97720000Y-99180000D03*
X97720000Y-99820000D03*
D25*
X89972500Y-99330000D03*
X89972500Y-101230000D03*
X92247500Y-100280000D03*
D30*
X87620000Y-97030000D03*
X87620000Y-97670000D03*
D15*
X83610000Y-115800000D03*
X82970000Y-115800000D03*
D31*
X108230000Y-120400000D03*
X108230000Y-121360000D03*
D29*
X221860000Y-121764600D03*
D28*
X87122500Y-115052500D03*
X85222500Y-115052500D03*
X86172500Y-117327500D03*
D45*
X152820936Y-108175000D03*
D24*
X90880000Y-120600000D03*
X90880000Y-119960000D03*
D23*
X93930000Y-110760000D03*
X94570000Y-110760000D03*
D61*
X106230000Y-120980000D03*
X102930000Y-120980000D03*
D47*
X209460000Y-111240000D03*
X208500000Y-111240000D03*
D28*
X98672500Y-118892500D03*
X96772500Y-118892500D03*
X97722500Y-121167500D03*
D24*
X89500000Y-97900000D03*
X89500000Y-97260000D03*
D72*
X206050015Y-124609992D03*
X212858884Y-123622773D03*
X93072735Y-123872217D03*
X99889955Y-124800016D03*
D73*
X180765000Y-90100000D03*
D74*
X180765000Y-87560000D03*
D73*
X180765000Y-85020000D03*
X177590000Y-90100000D03*
X177590000Y-85020000D03*
D74*
X175685000Y-88576000D03*
X175685000Y-86544000D03*
X180610000Y-111495000D03*
D73*
X180610001Y-114034998D03*
X180610002Y-108955001D03*
X183784999Y-108954999D03*
X183784999Y-114035001D03*
D74*
X185690000Y-112510997D03*
X185690002Y-110479001D03*
M02*
