M48
; DRILL file {KiCad 9.0.3-9.0.3-0~ubuntu22.04.1} date 2025-07-19T11:31:25-0600
; FORMAT={-:-/ absolute / metric / decimal}
; #@! TF.CreationDate,2025-07-19T11:31:25-06:00
; #@! TF.GenerationSoftware,Kicad,Pcbnew,9.0.3-9.0.3-0~ubuntu22.04.1
; #@! TF.FileFunction,Plated,1,2,PTH
FMAT,2
METRIC
; #@! TA.AperFunction,Plated,PTH,ViaDrill
T1C0.300
; #@! TA.AperFunction,Plated,PTH,ComponentDrill
T2C1.000
; #@! TA.AperFunction,Plated,PTH,ComponentDrill
T3C1.100
; #@! TA.AperFunction,Plated,PTH,ComponentDrill
T4C1.200
; #@! TA.AperFunction,Plated,PTH,ComponentDrill
T5C1.300
; #@! TA.AperFunction,Plated,PTH,ComponentDrill
T6C1.600
; #@! TA.AperFunction,Plated,PTH,ComponentDrill
T7C1.650
; #@! TA.AperFunction,Plated,PTH,ComponentDrill
T8C2.200
; #@! TA.AperFunction,Plated,PTH,ComponentDrill
T9C2.500
%
G90
G05
T1
X78.89Y-111.36
X79.37Y-106.66
X80.15Y-115.65
X80.78Y-100.89
X80.92Y-106.23
X80.92Y-106.91
X81.9Y-113.23
X82.22Y-95.28
X82.612Y-113.171
X82.75Y-106.35
X83.7Y-106.12
X84.241Y-103.279
X84.42Y-98.63
X84.47Y-104.052
X85.08Y-104.57
X85.16Y-116.35
X85.78Y-84.56
X85.78Y-98.69
X85.9Y-108.18
X85.92Y-108.98
X86.007Y-95.207
X86.07Y-105.6
X86.537Y-118.456
X86.64Y-122.13
X86.73Y-98.55
X87.28Y-118.13
X87.628Y-109.3
X87.891Y-118.678
X88.58Y-99.09
X88.6Y-97.7
X89.52Y-119.69
X89.54Y-104.51
X89.61Y-107.89
X89.63Y-95.793
X89.85Y-72.87
X90.19Y-98.31
X90.23Y-122.32
X90.79Y-106.79
X90.88Y-85.9
X91.01Y-106.01
X91.15Y-99.95
X91.23Y-96.47
X91.9Y-119.65
X91.95Y-113.05
X92.08Y-94.38
X92.2Y-79.86
X92.475Y-92.133
X92.87Y-120.5
X92.87Y-121.32
X92.91Y-96.05
X92.949Y-84.5
X92.953Y-112.273
X93.05Y-63.24
X93.2Y-90.2
X93.222Y-81.917
X93.661Y-101.923
X93.83Y-74.38
X94.11Y-68.79
X94.149Y-84.51
X94.385Y-104.715
X94.46Y-95.992
X94.48Y-111.65
X94.61Y-88.82
X94.935Y-105.265
X95.18Y-76.33
X95.275Y-75.055
X95.34Y-117.35
X95.383Y-93.733
X95.43Y-110.74
X95.65Y-89.02
X95.81Y-95.74
X95.81Y-98.1
X96.43Y-120.27
X96.45Y-111.77
X96.8Y-117.72
X96.865Y-78.275
X96.91Y-92.79
X97.05Y-59.79
X97.26Y-109.68
X97.9Y-85.475
X98.05Y-112.71
X98.72Y-79.34
X99.08Y-75.42
X100.12Y-109.44
X100.2Y-104.52
X100.22Y-77.18
X100.23Y-96.44
X100.66Y-75.94
X100.8Y-88.89
X100.8Y-114.92
X100.82Y-110.11
X100.96Y-107.51
X101.11Y-64.74
X101.713Y-105.908
X101.98Y-77.68
X102.14Y-117.78
X102.64Y-60.82
X103.22Y-131.2
X103.37Y-84.02
X103.54Y-128.06
X103.61Y-105.1
X103.83Y-84.96
X104.05Y-117.7
X104.84Y-125.56
X105.29Y-114.44
X105.43Y-104.51
X105.46Y-107.37
X105.57Y-125.57
X105.65Y-81.77
X106.34Y-108.25
X106.36Y-110.53
X106.41Y-125.57
X106.42Y-82.61
X106.6Y-111.75
X106.61Y-113.02
X107.14Y-116.07
X107.3Y-111.16
X107.3Y-113.57
X107.32Y-112.39
X107.6Y-118.8
X108.07Y-119.27
X108.11Y-116.064
X108.11Y-116.98
X108.22Y-122.21
X108.3Y-88.82
X108.4Y-114.74
X108.66Y-123.37
X108.715Y-79.045
X108.98Y-59.73
X109.24Y-91.72
X109.29Y-110.57
X109.35Y-121.9
X109.5Y-89.4
X109.61Y-114.19
X110.26Y-117.94
X110.55Y-114.19
X110.71Y-120.69
X110.75Y-123.37
X111.04Y-127.08
X111.15Y-114.74
X111.33Y-111.15
X111.38Y-112.35
X111.38Y-113.58
X111.83Y-116.96
X111.9Y-58.51
X111.95Y-111.74
X111.98Y-112.98
X112.66Y-119.17
X112.78Y-113.85
X113.16Y-98.37
X113.45Y-83.85
X113.56Y-120.96
X113.57Y-119.18
X113.69Y-110.9
X114.27Y-115.847
X114.5Y-67.34
X114.62Y-114.94
X115.13Y-85.64
X115.32Y-115.86
X116.12Y-112.09
X117.06Y-121.78
X117.33Y-91.7
X117.97Y-59.08
X118.23Y-112.07
X119.26Y-84.69
X120.37Y-67.22
X120.5Y-91.57
X120.55Y-110.225
X121.62Y-90.65
X122.03Y-75.42
X122.96Y-80.9
X123.03Y-76.67
X123.1Y-94.44
X123.28Y-75.41
X123.31Y-72.61
X124.23Y-77.09
X124.28Y-110.12
X124.36Y-75.9
X124.7Y-115.69
X124.814Y-76.675
X125.21Y-59.03
X125.48Y-71.0
X125.79Y-77.92
X126.69Y-76.09
X126.84Y-79.11
X126.962Y-113.392
X127.3Y-90.71
X127.4Y-67.42
X127.63Y-102.52
X127.74Y-84.17
X127.93Y-116.63
X127.94Y-119.76
X128.57Y-101.25
X128.67Y-84.14
X128.7Y-74.82
X129.32Y-92.4
X130.1Y-82.13
X130.22Y-74.82
X130.3Y-83.4
X130.681Y-65.95
X130.7Y-68.32
X130.82Y-78.53
X132.44Y-67.0
X132.55Y-59.19
X132.65Y-82.02
X133.73Y-107.43
X134.28Y-115.3
X134.5Y-108.31
X134.75Y-78.92
X134.9Y-106.564
X134.93Y-103.24
X135.09Y-76.07
X135.46Y-108.37
X136.29Y-103.25
X136.32Y-107.07
X136.5Y-100.44
X137.95Y-56.675
X138.3Y-108.62
X139.05Y-83.009
X140.76Y-64.98
X140.87Y-81.405
X140.98Y-90.61
X141.12Y-94.72
X141.55Y-64.98
X142.93Y-108.62
X142.94Y-62.69
X142.96Y-110.59
X143.18Y-66.83
X143.35Y-73.78
X143.91Y-56.52
X144.34Y-76.64
X144.352Y-75.038
X144.554Y-88.936
X144.64Y-59.58
X144.97Y-95.22
X145.04Y-98.96
X145.09Y-102.97
X145.66Y-99.69
X146.0Y-102.98
X146.18Y-78.48
X146.86Y-62.67
X146.87Y-55.14
X146.89Y-77.29
X147.642Y-87.703
X148.04Y-98.11
X148.13Y-94.0
X148.36Y-66.6
X148.814Y-97.906
X149.18Y-91.56
X149.47Y-62.902
X149.49Y-81.35
X149.59Y-98.1
X149.66Y-95.302
X149.99Y-92.47
X150.18Y-71.27
X150.27Y-62.91
X150.65Y-97.1
X150.92Y-61.91
X151.42Y-99.62
X151.58Y-83.47
X151.58Y-105.15
X151.67Y-69.49
X151.93Y-75.39
X152.0Y-86.32
X152.88Y-64.71
X153.251Y-82.17
X153.27Y-65.74
X153.38Y-88.84
X153.66Y-100.12
X153.7Y-64.01
X153.83Y-75.274
X154.045Y-94.431
X154.067Y-92.314
X154.52Y-82.09
X154.784Y-91.959
X154.842Y-98.791
X154.88Y-90.94
X155.06Y-63.94
X155.518Y-98.36
X155.778Y-96.321
X155.82Y-104.46
X155.97Y-97.7
X155.99Y-71.28
X156.1Y-93.9
X156.247Y-95.455
X156.264Y-96.956
X156.352Y-94.661
X157.41Y-96.53
X157.51Y-84.49
X157.525Y-79.95
X157.64Y-61.33
X157.68Y-63.52
X157.73Y-60.4
X157.8Y-105.46
X157.84Y-107.1
X158.37Y-95.23
X158.48Y-104.62
X158.9Y-55.13
X159.13Y-74.97
X159.23Y-106.87
X159.396Y-102.704
X159.55Y-98.91
X159.64Y-95.256
X159.686Y-90.77
X159.74Y-79.89
X159.95Y-86.42
X160.13Y-84.4
X160.24Y-82.74
X160.52Y-96.52
X160.78Y-59.61
X161.2Y-94.284
X161.29Y-96.63
X161.48Y-65.76
X161.58Y-63.4
X161.59Y-106.12
X161.81Y-74.61
X161.91Y-56.52
X162.15Y-97.06
X162.5Y-91.57
X162.55Y-85.98
X162.56Y-93.32
X163.59Y-108.9
X163.6Y-111.7
X163.64Y-107.21
X163.9Y-83.27
X164.21Y-63.41
X164.25Y-65.62
X164.53Y-89.56
X164.83Y-59.52
X165.42Y-86.82
X165.47Y-88.0
X165.57Y-93.28
X166.08Y-86.0
X166.17Y-104.3
X166.22Y-91.0
X166.26Y-67.21
X166.34Y-93.27
X166.38Y-88.11
X166.42Y-95.97
X166.51Y-103.13
X166.58Y-63.28
X166.88Y-99.03
X167.0Y-64.8
X167.06Y-101.04
X167.093Y-85.021
X167.38Y-103.14
X167.506Y-81.776
X167.893Y-85.023
X167.96Y-92.35
X168.15Y-88.86
X168.19Y-86.43
X168.195Y-96.618
X168.31Y-110.21
X168.38Y-107.03
X168.48Y-65.1
X168.53Y-67.93
X168.6Y-101.93
X168.68Y-88.11
X168.8Y-59.69
X168.89Y-82.74
X169.22Y-97.88
X169.44Y-101.21
X169.53Y-81.52
X170.21Y-69.7
X170.67Y-66.73
X171.08Y-76.9
X171.16Y-84.79
X171.2Y-72.26
X171.22Y-104.06
X172.4Y-69.04
X172.4Y-74.74
X172.49Y-101.23
X172.77Y-81.52
X173.12Y-80.3
X173.13Y-75.57
X173.15Y-78.63
X173.21Y-76.9
X173.37Y-73.5
X173.42Y-71.29
X173.95Y-117.02
X174.02Y-81.02
X174.44Y-58.83
X174.46Y-70.29
X174.47Y-87.35
X174.67Y-108.45
X174.86Y-81.06
X175.39Y-104.35
X175.42Y-70.82
X175.55Y-71.8
X175.57Y-83.641
X175.62Y-76.067
X175.66Y-80.26
X176.18Y-81.1
X176.4Y-101.09
X176.653Y-74.23
X176.71Y-95.18
X177.01Y-116.01
X177.02Y-69.64
X177.35Y-81.55
X177.41Y-72.776
X177.748Y-76.825
X177.771Y-75.626
X177.79Y-79.155
X177.793Y-78.164
X178.05Y-111.52
X178.23Y-98.21
X178.85Y-88.95
X178.985Y-75.629
X179.023Y-76.844
X179.042Y-78.125
X179.07Y-79.152
X180.219Y-75.601
X180.293Y-76.86
X180.311Y-79.13
X180.326Y-78.084
X180.58Y-58.95
X181.18Y-95.18
X181.38Y-70.38
X181.456Y-76.857
X181.497Y-75.566
X181.499Y-78.084
X181.499Y-79.12
X182.52Y-80.27
X182.59Y-97.02
X182.72Y-74.36
X182.78Y-71.62
X183.1Y-73.16
X183.62Y-89.88
X184.14Y-81.07
X184.97Y-91.68
X185.13Y-79.28
X185.14Y-81.49
X185.95Y-75.13
X187.12Y-111.52
X187.36Y-86.53
X187.8Y-58.98
X189.29Y-91.58
X189.37Y-83.84
X189.73Y-88.75
X190.29Y-115.54
X190.894Y-86.354
X192.31Y-118.88
X192.54Y-117.25
X192.7Y-98.23
X193.14Y-118.88
X193.25Y-117.255
X194.51Y-58.93
X194.61Y-114.65
X194.71Y-111.53
X194.75Y-122.2
X196.12Y-89.2
X196.26Y-112.15
X196.27Y-90.78
X196.59Y-109.42
X196.66Y-59.52
X196.7Y-85.52
X196.83Y-76.2
X197.04Y-120.81
X197.08Y-119.34
X197.29Y-123.21
X197.86Y-120.81
X198.1Y-111.52
X198.19Y-60.54
X198.24Y-119.33
X198.54Y-118.35
X198.66Y-112.84
X198.96Y-85.56
X198.99Y-83.32
X199.1Y-124.93
X199.94Y-124.93
X200.71Y-85.89
X200.75Y-124.93
X200.94Y-121.91
X201.91Y-85.56
X201.94Y-79.45
X202.06Y-83.33
X202.28Y-109.81
X202.29Y-92.0
X202.32Y-87.28
X202.33Y-112.25
X202.47Y-100.37
X202.66Y-120.81
X202.79Y-110.58
X203.36Y-83.27
X203.46Y-84.06
X204.23Y-59.56
X204.23Y-84.48
X204.466Y-130.972
X205.08Y-118.53
X205.13Y-85.56
X205.352Y-111.99
X205.51Y-115.87
X205.56Y-79.5
X205.84Y-110.57
X205.89Y-109.76
X205.93Y-100.3
X205.99Y-92.0
X206.01Y-117.09
X206.06Y-75.83
X206.52Y-111.46
X207.744Y-117.954
X208.12Y-112.49
X208.4Y-68.83
X208.536Y-118.061
X208.7Y-59.64
X209.01Y-112.05
X209.57Y-75.71
X210.22Y-119.08
X211.38Y-116.9
X211.65Y-68.51
X211.97Y-117.7
X212.65Y-63.16
X212.76Y-118.84
X212.78Y-116.62
X214.29Y-73.67
X215.59Y-118.44
X215.91Y-72.85
X215.96Y-130.47
X223.27Y-125.71
X223.49Y-95.23
X224.88Y-100.88
X226.99Y-116.3
T3
X125.672Y-102.51
X125.672Y-100.01
X125.673Y-105.01
X131.902Y-111.24
X134.402Y-111.24
X136.902Y-111.24
T4
X93.073Y-123.872
X99.89Y-124.8
X206.05Y-124.61
X212.859Y-123.623
T5
X131.152Y-92.26
X131.152Y-96.76
X137.652Y-96.76
X137.653Y-92.26
T6
X128.077Y-107.51
X128.078Y-97.51
X140.727Y-107.51
X140.727Y-97.51
T7
X130.103Y-102.51
X138.703Y-102.51
T8
X87.48Y-101.01
X152.821Y-108.175
X218.83Y-101.08
T9
X84.11Y-121.99
X221.86Y-121.765
T2
X162.65Y-64.38G85X163.15Y-64.38
G05
X170.5Y-64.4G85X171.0Y-64.4
G05
M30
