G04 #@! TF.GenerationSoftware,KiCad,Pcbnew,9.0.3-9.0.3-0~ubuntu22.04.1*
G04 #@! TF.CreationDate,2025-08-06T12:37:18-06:00*
G04 #@! TF.ProjectId,Steam_Controller,53746561-6d5f-4436-9f6e-74726f6c6c65,rev?*
G04 #@! TF.SameCoordinates,Original*
G04 #@! TF.FileFunction,Soldermask,Bot*
G04 #@! TF.FilePolarity,Negative*
%FSLAX46Y46*%
G04 Gerber Fmt 4.6, Leading zero omitted, Abs format (unit mm)*
G04 Created by KiCad (PCBNEW 9.0.3-9.0.3-0~ubuntu22.04.1) date 2025-08-06 12:37:18*
%MOMM*%
%LPD*%
G01*
G04 APERTURE LIST*
G04 Aperture macros list*
%AMRoundRect*
0 Rectangle with rounded corners*
0 $1 Rounding radius*
0 $2 $3 $4 $5 $6 $7 $8 $9 X,Y pos of 4 corners*
0 Add a 4 corners polygon primitive as box body*
4,1,4,$2,$3,$4,$5,$6,$7,$8,$9,$2,$3,0*
0 Add four circle primitives for the rounded corners*
1,1,$1+$1,$2,$3*
1,1,$1+$1,$4,$5*
1,1,$1+$1,$6,$7*
1,1,$1+$1,$8,$9*
0 Add four rect primitives between the rounded corners*
20,1,$1+$1,$2,$3,$4,$5,0*
20,1,$1+$1,$4,$5,$6,$7,0*
20,1,$1+$1,$6,$7,$8,$9,0*
20,1,$1+$1,$8,$9,$2,$3,0*%
%AMRotRect*
0 Rectangle, with rotation*
0 The origin of the aperture is its center*
0 $1 length*
0 $2 width*
0 $3 Rotation angle, in degrees counterclockwise*
0 Add horizontal line*
21,1,$1,$2,0,0,$3*%
%AMFreePoly0*
4,1,15,0.135721,0.288521,0.150600,0.252600,0.150600,-0.252400,0.135721,-0.288321,0.100105,-0.303199,0.000205,-0.303799,-0.035805,-0.289136,-0.036039,-0.288903,-0.136039,-0.188803,-0.150900,-0.152900,-0.150900,0.252600,-0.136021,0.288521,-0.100100,0.303400,0.099800,0.303400,0.135721,0.288521,0.135721,0.288521,$1*%
%AMFreePoly1*
4,1,15,0.135921,0.288421,0.150800,0.252500,0.150800,-0.153000,0.135921,-0.188921,0.035921,-0.288921,0.000000,-0.303800,-0.000254,-0.303799,-0.100254,-0.303299,-0.136100,-0.288241,-0.150800,-0.252500,-0.150800,0.252500,-0.135921,0.288421,-0.100000,0.303300,0.100000,0.303300,0.135921,0.288421,0.135921,0.288421,$1*%
%AMFreePoly2*
4,1,15,0.288421,0.136021,0.303300,0.100100,0.303300,-0.099900,0.288421,-0.135821,0.252500,-0.150700,-0.252500,-0.150700,-0.288421,-0.135821,-0.303299,-0.100154,-0.303799,-0.000154,-0.289100,0.035841,-0.288921,0.036021,-0.188921,0.136021,-0.153000,0.150900,0.252500,0.150900,0.288421,0.136021,0.288421,0.136021,$1*%
%AMFreePoly3*
4,1,15,0.288421,0.136021,0.303300,0.100100,0.303300,-0.099900,0.288421,-0.135821,0.252500,-0.150700,-0.153100,-0.150700,-0.189021,-0.135821,-0.289021,-0.035821,-0.303900,0.000100,-0.303899,0.000405,-0.303299,0.100405,-0.288205,0.136236,-0.252500,0.150900,0.252500,0.150900,0.288421,0.136021,0.288421,0.136021,$1*%
%AMFreePoly4*
4,1,15,0.035741,0.289200,0.035921,0.289021,0.135921,0.189021,0.150800,0.153100,0.150800,-0.252400,0.135921,-0.288321,0.100000,-0.303200,-0.100000,-0.303200,-0.135921,-0.288321,-0.150800,-0.252400,-0.150800,0.252600,-0.135921,0.288521,-0.100254,0.303399,-0.000254,0.303899,0.035741,0.289200,0.035741,0.289200,$1*%
%AMFreePoly5*
4,1,15,0.000254,0.303799,0.100254,0.303299,0.136100,0.288241,0.150800,0.252500,0.150800,-0.252500,0.135921,-0.288421,0.100000,-0.303300,-0.100000,-0.303300,-0.135921,-0.288421,-0.150800,-0.252500,-0.150800,0.153000,-0.135921,0.188921,-0.035921,0.288921,0.000000,0.303800,0.000254,0.303799,0.000254,0.303799,$1*%
%AMFreePoly6*
4,1,15,0.288421,0.135921,0.303299,0.100254,0.303799,0.000254,0.289100,-0.035741,0.288921,-0.035921,0.188921,-0.135921,0.153000,-0.150800,-0.252500,-0.150800,-0.288421,-0.135921,-0.303300,-0.100000,-0.303300,0.100000,-0.288421,0.135921,-0.252500,0.150800,0.252500,0.150800,0.288421,0.135921,0.288421,0.135921,$1*%
%AMFreePoly7*
4,1,15,0.188903,0.135939,0.288903,0.036039,0.303800,0.000125,0.303799,-0.000154,0.303299,-0.100154,0.288241,-0.136000,0.252500,-0.150700,-0.252500,-0.150700,-0.288421,-0.135821,-0.303300,-0.099900,-0.303300,0.100000,-0.288421,0.135921,-0.252500,0.150800,0.153000,0.150800,0.188903,0.135939,0.188903,0.135939,$1*%
%AMFreePoly8*
4,1,105,0.153860,1.291708,0.159958,1.290968,0.308358,1.263768,0.314303,1.262303,0.458503,1.217403,0.464282,1.215210,0.601782,1.153210,0.607155,1.150389,0.736355,1.072389,0.741439,1.068881,0.860339,0.975681,0.864921,0.971621,0.971621,0.864921,0.975681,0.860339,1.068881,0.741439,1.072389,0.736355,1.150389,0.607155,1.153210,0.601782,1.215210,0.464282,1.217403,0.458503,
1.262303,0.314303,1.263768,0.308358,1.290968,0.159958,1.291708,0.153860,1.300808,0.003060,1.300808,-0.003062,1.291708,-0.153762,1.290967,-0.159864,1.263767,-0.308164,1.262306,-0.314093,1.217406,-0.458393,1.215216,-0.464169,1.153216,-0.601769,1.150380,-0.607170,1.072380,-0.736270,1.068868,-0.741356,0.975668,-0.860156,0.971621,-0.864721,0.864921,-0.971421,0.860339,-0.975481,
0.741439,-1.068681,0.736355,-1.072189,0.607155,-1.150189,0.601782,-1.153010,0.464282,-1.215010,0.458533,-1.217194,0.314333,-1.262194,0.308326,-1.263674,0.159926,-1.290774,0.153893,-1.291506,0.003093,-1.300706,-0.003095,-1.300706,-0.153795,-1.291506,-0.159832,-1.290772,-0.308132,-1.263672,-0.314124,-1.262197,-0.458424,-1.217197,-0.464169,-1.215016,-0.601769,-1.153016,-0.607170,-1.150180,
-0.736270,-1.072180,-0.741356,-1.068668,-0.860156,-0.975468,-0.864721,-0.971421,-0.971421,-0.864721,-0.975468,-0.860156,-1.068668,-0.741356,-1.072180,-0.736270,-1.150180,-0.607170,-1.153016,-0.601769,-1.215016,-0.464169,-1.217197,-0.458424,-1.262197,-0.314124,-1.263672,-0.308132,-1.290772,-0.159832,-1.291506,-0.153795,-1.300706,-0.003095,-1.300706,0.003093,-1.291506,0.153893,-1.290774,0.159926,
-1.263674,0.308326,-1.262194,0.314333,-1.217194,0.458533,-1.215010,0.464282,-1.153010,0.601782,-1.150189,0.607155,-1.072189,0.736355,-1.068681,0.741439,-0.975481,0.860339,-0.971421,0.864921,-0.864721,0.971621,-0.860156,0.975668,-0.741356,1.068868,-0.736270,1.072380,-0.607170,1.150380,-0.601769,1.153216,-0.464169,1.215216,-0.458393,1.217406,-0.314093,1.262306,-0.308164,1.263767,
-0.159864,1.290967,-0.153762,1.291708,-0.003062,1.300808,0.003060,1.300808,0.153860,1.291708,0.153860,1.291708,$1*%
%AMFreePoly9*
4,1,105,0.153893,1.291506,0.159926,1.290774,0.308326,1.263674,0.314333,1.262194,0.458533,1.217194,0.464282,1.215010,0.601782,1.153010,0.607155,1.150189,0.736355,1.072189,0.741439,1.068681,0.860339,0.975481,0.864921,0.971421,0.971621,0.864721,0.975668,0.860156,1.068868,0.741356,1.072380,0.736270,1.150380,0.607170,1.153216,0.601769,1.215216,0.464169,1.217406,0.458393,
1.262306,0.314093,1.263767,0.308164,1.290967,0.159864,1.291708,0.153762,1.300808,0.003062,1.300808,-0.003060,1.291708,-0.153860,1.290968,-0.159958,1.263768,-0.308358,1.262303,-0.314303,1.217403,-0.458503,1.215210,-0.464282,1.153210,-0.601782,1.150389,-0.607155,1.072389,-0.736355,1.068881,-0.741439,0.975681,-0.860339,0.971621,-0.864921,0.864921,-0.971621,0.860339,-0.975681,
0.741439,-1.068881,0.736355,-1.072389,0.607155,-1.150389,0.601782,-1.153210,0.464282,-1.215210,0.458503,-1.217403,0.314303,-1.262303,0.308358,-1.263768,0.159958,-1.290968,0.153860,-1.291708,0.003060,-1.300808,-0.003062,-1.300808,-0.153762,-1.291708,-0.159864,-1.290967,-0.308164,-1.263767,-0.314093,-1.262306,-0.458393,-1.217406,-0.464169,-1.215216,-0.601769,-1.153216,-0.607170,-1.150380,
-0.736270,-1.072380,-0.741356,-1.068868,-0.860156,-0.975668,-0.864721,-0.971621,-0.971421,-0.864921,-0.975481,-0.860339,-1.068681,-0.741439,-1.072189,-0.736355,-1.150189,-0.607155,-1.153010,-0.601782,-1.215010,-0.464282,-1.217194,-0.458533,-1.262194,-0.314333,-1.263674,-0.308326,-1.290774,-0.159926,-1.291506,-0.153893,-1.300706,-0.003093,-1.300706,0.003095,-1.291506,0.153795,-1.290772,0.159832,
-1.263672,0.308132,-1.262197,0.314124,-1.217197,0.458424,-1.215016,0.464169,-1.153016,0.601769,-1.150180,0.607170,-1.072180,0.736270,-1.068668,0.741356,-0.975468,0.860156,-0.971421,0.864721,-0.864721,0.971421,-0.860156,0.975468,-0.741356,1.068668,-0.736270,1.072180,-0.607170,1.150180,-0.601769,1.153016,-0.464169,1.215016,-0.458424,1.217197,-0.314124,1.262197,-0.308132,1.263672,
-0.159832,1.290772,-0.153795,1.291506,-0.003095,1.300706,0.003093,1.300706,0.153893,1.291506,0.153893,1.291506,$1*%
%AMFreePoly10*
4,1,105,0.153795,1.291506,0.159832,1.290772,0.308132,1.263672,0.314124,1.262197,0.458424,1.217197,0.464169,1.215016,0.601769,1.153016,0.607170,1.150180,0.736270,1.072180,0.741356,1.068668,0.860156,0.975468,0.864721,0.971421,0.971421,0.864721,0.975468,0.860156,1.068668,0.741356,1.072180,0.736270,1.150180,0.607170,1.153016,0.601769,1.215016,0.464169,1.217197,0.458424,
1.262197,0.314124,1.263672,0.308132,1.290772,0.159832,1.291506,0.153795,1.300706,0.003095,1.300706,-0.003093,1.291506,-0.153893,1.290774,-0.159926,1.263674,-0.308326,1.262194,-0.314333,1.217194,-0.458533,1.215010,-0.464282,1.153010,-0.601782,1.150189,-0.607155,1.072189,-0.736355,1.068681,-0.741439,0.975481,-0.860339,0.971421,-0.864921,0.864721,-0.971621,0.860156,-0.975668,
0.741356,-1.068868,0.736270,-1.072380,0.607170,-1.150380,0.601769,-1.153216,0.464169,-1.215216,0.458393,-1.217406,0.314093,-1.262306,0.308164,-1.263767,0.159864,-1.290967,0.153762,-1.291708,0.003062,-1.300808,-0.003060,-1.300808,-0.153860,-1.291708,-0.159958,-1.290968,-0.308358,-1.263768,-0.314303,-1.262303,-0.458503,-1.217403,-0.464282,-1.215210,-0.601782,-1.153210,-0.607155,-1.150389,
-0.736355,-1.072389,-0.741439,-1.068881,-0.860339,-0.975681,-0.864921,-0.971621,-0.971621,-0.864921,-0.975681,-0.860339,-1.068881,-0.741439,-1.072389,-0.736355,-1.150389,-0.607155,-1.153210,-0.601782,-1.215210,-0.464282,-1.217403,-0.458503,-1.262303,-0.314303,-1.263768,-0.308358,-1.290968,-0.159958,-1.291708,-0.153860,-1.300808,-0.003060,-1.300808,0.003062,-1.291708,0.153762,-1.290967,0.159864,
-1.263767,0.308164,-1.262306,0.314093,-1.217406,0.458393,-1.215216,0.464169,-1.153216,0.601769,-1.150380,0.607170,-1.072380,0.736270,-1.068868,0.741356,-0.975668,0.860156,-0.971621,0.864721,-0.864921,0.971421,-0.860339,0.975481,-0.741439,1.068681,-0.736355,1.072189,-0.607155,1.150189,-0.601782,1.153010,-0.464282,1.215010,-0.458533,1.217194,-0.314333,1.262194,-0.308326,1.263674,
-0.159926,1.290774,-0.153893,1.291506,-0.003093,1.300706,0.003095,1.300706,0.153795,1.291506,0.153795,1.291506,$1*%
%AMFreePoly11*
4,1,105,0.153762,1.291708,0.159864,1.290967,0.308164,1.263767,0.314093,1.262306,0.458393,1.217406,0.464169,1.215216,0.601769,1.153216,0.607170,1.150380,0.736270,1.072380,0.741356,1.068868,0.860156,0.975668,0.864721,0.971621,0.971421,0.864921,0.975481,0.860339,1.068681,0.741439,1.072189,0.736355,1.150189,0.607155,1.153010,0.601782,1.215010,0.464282,1.217194,0.458533,
1.262194,0.314333,1.263674,0.308326,1.290774,0.159926,1.291506,0.153893,1.300706,0.003093,1.300706,-0.003095,1.291506,-0.153795,1.290772,-0.159832,1.263672,-0.308132,1.262197,-0.314124,1.217197,-0.458424,1.215016,-0.464169,1.153016,-0.601769,1.150180,-0.607170,1.072180,-0.736270,1.068668,-0.741356,0.975468,-0.860156,0.971421,-0.864721,0.864721,-0.971421,0.860156,-0.975468,
0.741356,-1.068668,0.736270,-1.072180,0.607170,-1.150180,0.601769,-1.153016,0.464169,-1.215016,0.458424,-1.217197,0.314124,-1.262197,0.308132,-1.263672,0.159832,-1.290772,0.153795,-1.291506,0.003095,-1.300706,-0.003093,-1.300706,-0.153893,-1.291506,-0.159926,-1.290774,-0.308326,-1.263674,-0.314333,-1.262194,-0.458533,-1.217194,-0.464282,-1.215010,-0.601782,-1.153010,-0.607155,-1.150189,
-0.736355,-1.072189,-0.741439,-1.068681,-0.860339,-0.975481,-0.864921,-0.971421,-0.971621,-0.864721,-0.975668,-0.860156,-1.068868,-0.741356,-1.072380,-0.736270,-1.150380,-0.607170,-1.153216,-0.601769,-1.215216,-0.464169,-1.217406,-0.458393,-1.262306,-0.314093,-1.263767,-0.308164,-1.290967,-0.159864,-1.291708,-0.153762,-1.300808,-0.003062,-1.300808,0.003060,-1.291708,0.153860,-1.290968,0.159958,
-1.263768,0.308358,-1.262303,0.314303,-1.217403,0.458503,-1.215210,0.464282,-1.153210,0.601782,-1.150389,0.607155,-1.072389,0.736355,-1.068881,0.741439,-0.975681,0.860339,-0.971621,0.864921,-0.864921,0.971621,-0.860339,0.975681,-0.741439,1.068881,-0.736355,1.072389,-0.607155,1.150389,-0.601782,1.153210,-0.464282,1.215210,-0.458503,1.217403,-0.314303,1.262303,-0.308358,1.263768,
-0.159958,1.290968,-0.153860,1.291708,-0.003060,1.300808,0.003062,1.300808,0.153762,1.291708,0.153762,1.291708,$1*%
%AMFreePoly12*
4,1,105,0.153664,1.291508,0.159747,1.290770,0.308347,1.263570,0.314322,1.262097,0.458322,1.217197,0.464000,1.215046,0.601700,1.153246,0.607189,1.150368,0.736489,1.072168,0.741547,1.068675,0.860147,0.975675,0.864721,0.971621,0.971621,0.864721,0.975675,0.860147,1.068675,0.741547,1.072168,0.736489,1.150368,0.607189,1.153246,0.601700,1.215046,0.464000,1.217197,0.458322,
1.262097,0.314322,1.263570,0.308347,1.290770,0.159747,1.291508,0.153664,1.300608,0.003064,1.300608,-0.003064,1.291508,-0.153664,1.290770,-0.159747,1.263570,-0.308347,1.262097,-0.314322,1.217197,-0.458322,1.215046,-0.464000,1.153246,-0.601700,1.150368,-0.607189,1.072168,-0.736489,1.068675,-0.741547,0.975675,-0.860147,0.971621,-0.864721,0.864721,-0.971621,0.860147,-0.975675,
0.741547,-1.068675,0.736489,-1.072168,0.607189,-1.150368,0.601700,-1.153246,0.464000,-1.215046,0.458322,-1.217197,0.314322,-1.262097,0.308347,-1.263570,0.159747,-1.290770,0.153664,-1.291508,0.003064,-1.300608,-0.003064,-1.300608,-0.153664,-1.291508,-0.159747,-1.290770,-0.308347,-1.263570,-0.314322,-1.262097,-0.458322,-1.217197,-0.464000,-1.215046,-0.601700,-1.153246,-0.607189,-1.150368,
-0.736489,-1.072168,-0.741547,-1.068675,-0.860147,-0.975675,-0.864721,-0.971621,-0.971621,-0.864721,-0.975675,-0.860147,-1.068675,-0.741547,-1.072168,-0.736489,-1.150368,-0.607189,-1.153246,-0.601700,-1.215046,-0.464000,-1.217197,-0.458322,-1.262097,-0.314322,-1.263570,-0.308347,-1.290770,-0.159747,-1.291508,-0.153664,-1.300608,-0.003064,-1.300608,0.003064,-1.291508,0.153664,-1.290770,0.159747,
-1.263570,0.308347,-1.262097,0.314322,-1.217197,0.458322,-1.215046,0.464000,-1.153246,0.601700,-1.150368,0.607189,-1.072168,0.736489,-1.068675,0.741547,-0.975675,0.860147,-0.971621,0.864721,-0.864721,0.971621,-0.860147,0.975675,-0.741547,1.068675,-0.736489,1.072168,-0.607189,1.150368,-0.601700,1.153246,-0.464000,1.215046,-0.458322,1.217197,-0.314322,1.262097,-0.308347,1.263570,
-0.159747,1.290770,-0.153664,1.291508,-0.003064,1.300608,0.003064,1.300608,0.153664,1.291508,0.153664,1.291508,$1*%
G04 Aperture macros list end*
%ADD10C,1.000000*%
%ADD11C,0.100000*%
%ADD12C,1.300000*%
%ADD13C,3.000000*%
%ADD14C,2.800000*%
%ADD15O,2.000000X1.810000*%
%ADD16C,1.950000*%
%ADD17C,1.650000*%
%ADD18C,2.400000*%
%ADD19C,2.475000*%
%ADD20C,0.550000*%
%ADD21RoundRect,0.100000X0.100000X-0.130000X0.100000X0.130000X-0.100000X0.130000X-0.100000X-0.130000X0*%
%ADD22RoundRect,0.100000X-0.130000X-0.100000X0.130000X-0.100000X0.130000X0.100000X-0.130000X0.100000X0*%
%ADD23RoundRect,0.100000X0.163522X-0.012672X-0.029696X0.161301X-0.163522X0.012672X0.029696X-0.161301X0*%
%ADD24RoundRect,0.175000X0.175000X-0.325000X0.175000X0.325000X-0.175000X0.325000X-0.175000X-0.325000X0*%
%ADD25RoundRect,0.100000X0.130000X0.100000X-0.130000X0.100000X-0.130000X-0.100000X0.130000X-0.100000X0*%
%ADD26RoundRect,0.100000X-0.100000X0.130000X-0.100000X-0.130000X0.100000X-0.130000X0.100000X0.130000X0*%
%ADD27R,1.000000X1.100000*%
%ADD28RotRect,2.997200X1.168400X83.000000*%
%ADD29RoundRect,0.150000X0.512500X0.150000X-0.512500X0.150000X-0.512500X-0.150000X0.512500X-0.150000X0*%
%ADD30FreePoly0,270.000000*%
%ADD31RoundRect,0.050800X-0.252500X0.100000X-0.252500X-0.100000X0.252500X-0.100000X0.252500X0.100000X0*%
%ADD32FreePoly1,270.000000*%
%ADD33FreePoly2,270.000000*%
%ADD34RoundRect,0.050800X-0.100000X0.252500X-0.100000X-0.252500X0.100000X-0.252500X0.100000X0.252500X0*%
%ADD35FreePoly3,270.000000*%
%ADD36FreePoly4,270.000000*%
%ADD37FreePoly5,270.000000*%
%ADD38FreePoly6,270.000000*%
%ADD39FreePoly7,270.000000*%
%ADD40RoundRect,0.050800X-0.850000X0.850000X-0.850000X-0.850000X0.850000X-0.850000X0.850000X0.850000X0*%
%ADD41FreePoly8,180.000000*%
%ADD42FreePoly9,180.000000*%
%ADD43FreePoly10,180.000000*%
%ADD44FreePoly11,180.000000*%
%ADD45FreePoly12,180.000000*%
%ADD46C,2.000000*%
%ADD47RotRect,2.997200X1.168400X97.000000*%
%ADD48RoundRect,0.250000X-0.313674X-0.435584X0.181460X-0.505171X0.313674X0.435584X-0.181460X0.505171X0*%
%ADD49RoundRect,0.147500X0.172500X-0.147500X0.172500X0.147500X-0.172500X0.147500X-0.172500X-0.147500X0*%
%ADD50RoundRect,0.100000X-0.021213X-0.162635X0.162635X0.021213X0.021213X0.162635X-0.162635X-0.021213X0*%
%ADD51O,1.101600X0.301600*%
%ADD52O,0.301600X1.101600*%
%ADD53RoundRect,0.050800X2.300000X2.300000X-2.300000X2.300000X-2.300000X-2.300000X2.300000X-2.300000X0*%
%ADD54RoundRect,0.150000X-0.150000X0.512500X-0.150000X-0.512500X0.150000X-0.512500X0.150000X0.512500X0*%
%ADD55RoundRect,0.102000X-0.525000X-0.650000X0.525000X-0.650000X0.525000X0.650000X-0.525000X0.650000X0*%
%ADD56C,2.374900*%
%ADD57C,0.990600*%
%ADD58C,0.787400*%
%ADD59R,1.200000X1.000000*%
%ADD60O,2.101600X0.401600*%
%ADD61O,0.401600X2.101600*%
G04 APERTURE END LIST*
D10*
X85720000Y-82715000D02*
X86760000Y-78860000D01*
X158625000Y-113100000D02*
X159135000Y-113350000D01*
X228400000Y-116200000D02*
X228350000Y-115450000D01*
X113310000Y-126670000D02*
X112330000Y-127970000D01*
X215130000Y-71890000D02*
X214630000Y-71660000D01*
X129180000Y-120510000D02*
X129030000Y-120860000D01*
X190620000Y-124760000D02*
X191690000Y-125750000D01*
X166450000Y-115270000D02*
X167000000Y-115550000D01*
X112330000Y-127970000D02*
X111500000Y-129340000D01*
X184370000Y-121500000D02*
X185630000Y-121890000D01*
X148100000Y-113130000D02*
X147590000Y-113380000D01*
X108960000Y-107670000D02*
X109420000Y-112460000D01*
X158625000Y-113100000D02*
X148660000Y-113090000D01*
X217250000Y-72610000D02*
X216840000Y-72200000D01*
X120200000Y-121890000D02*
X118770000Y-122470000D01*
X129030000Y-120860000D02*
X128520000Y-120970000D01*
X221115000Y-85765000D02*
X221026889Y-84260000D01*
X188260000Y-123100000D02*
X189540000Y-123910000D01*
X214030000Y-70790000D02*
X213980000Y-70220000D01*
X131370000Y-115730000D02*
X130770000Y-115350000D01*
X78610000Y-118440000D02*
X78160000Y-117970000D01*
X167430000Y-116680000D02*
X167360000Y-116090000D01*
X209790000Y-59320000D02*
X208620000Y-58620000D01*
X216840000Y-72200000D02*
X216320000Y-71970000D01*
X130770000Y-115350000D02*
X130160000Y-115330000D01*
X227140000Y-107050000D02*
X226760000Y-105570000D01*
X145680000Y-116130000D02*
X145140000Y-116250000D01*
X129180000Y-120510000D02*
X129180000Y-116740000D01*
X196100000Y-57445000D02*
X193280000Y-57465000D01*
X84675000Y-85785000D02*
X84763111Y-84280000D01*
X90140000Y-71950000D02*
X90660000Y-71910000D01*
X91810000Y-70240000D02*
X91810000Y-64350000D01*
X164740000Y-116090000D02*
X165240000Y-115670000D01*
X213940000Y-63760000D02*
X213790000Y-63190000D01*
X92000000Y-63210000D02*
X92350000Y-62550000D01*
X116290000Y-123910000D02*
X115210000Y-124760000D01*
X195770000Y-116060000D02*
X195190000Y-119370000D01*
X227340000Y-107940000D02*
X227140000Y-107050000D01*
X122510000Y-121260000D02*
X121460000Y-121500000D01*
X78480000Y-107860000D02*
X78680000Y-106970000D01*
X225140000Y-120550000D02*
X227210000Y-118520000D01*
X82670000Y-91310000D02*
X84220000Y-90490000D01*
X194330000Y-129340000D02*
X194680000Y-130010000D01*
X78160000Y-117970000D02*
X77770000Y-117420000D01*
X212920000Y-61960000D02*
X209790000Y-59320000D01*
X96000000Y-59340000D02*
X97170000Y-58640000D01*
X228050000Y-117500000D02*
X228290000Y-116890000D01*
X183320000Y-121260000D02*
X184370000Y-121500000D01*
X167430000Y-120450000D02*
X167430000Y-116680000D01*
X78320000Y-108800000D02*
X78480000Y-107860000D01*
X216320000Y-71970000D02*
X215650000Y-71930000D01*
X214250000Y-71290000D02*
X214030000Y-70790000D01*
X79060000Y-105490000D02*
X82670000Y-91310000D01*
X192520000Y-126670000D02*
X193500000Y-127970000D01*
X223150000Y-91390000D02*
X221600000Y-90570000D01*
X88950000Y-72220000D02*
X89470000Y-71990000D01*
X128520000Y-120970000D02*
X125540000Y-120970000D01*
X213980000Y-70220000D02*
X213980000Y-64330000D01*
X215650000Y-71930000D02*
X215130000Y-71890000D01*
X227660000Y-118050000D02*
X228050000Y-117500000D01*
X196230000Y-112270000D02*
X195770000Y-116060000D01*
X121460000Y-121500000D02*
X120200000Y-121890000D01*
X84840000Y-86350000D02*
X84510000Y-85220000D01*
D11*
X192720000Y-83360000D02*
X192670000Y-85470000D01*
X191110000Y-86970000D01*
X190520000Y-86970000D01*
X188710000Y-85800000D01*
X188510000Y-85210000D01*
X188790000Y-83340000D01*
X192720000Y-83360000D01*
G36*
X192720000Y-83360000D02*
G01*
X192670000Y-85470000D01*
X191110000Y-86970000D01*
X190520000Y-86970000D01*
X188710000Y-85800000D01*
X188510000Y-85210000D01*
X188790000Y-83340000D01*
X192720000Y-83360000D01*
G37*
D10*
X111120000Y-123360000D02*
X108560000Y-123350000D01*
X165840000Y-115290000D02*
X166450000Y-115270000D01*
X213790000Y-63190000D02*
X213440000Y-62530000D01*
X111500000Y-129340000D02*
X111150000Y-130010000D01*
X77770000Y-117420000D02*
X77530000Y-116810000D01*
X159135000Y-113350000D02*
X159525000Y-113780000D01*
X159525000Y-113780000D02*
X160655000Y-115720000D01*
X146070000Y-115750000D02*
X145680000Y-116130000D01*
X78680000Y-106970000D02*
X79060000Y-105490000D01*
X91540000Y-71310000D02*
X91760000Y-70810000D01*
X92870000Y-61980000D02*
X96000000Y-59340000D01*
X193500000Y-127970000D02*
X194330000Y-129340000D01*
X213440000Y-62530000D02*
X212920000Y-61960000D01*
X161045000Y-116100000D02*
X161585000Y-116220000D01*
X165240000Y-115670000D02*
X165840000Y-115290000D01*
X130160000Y-115330000D02*
X129610000Y-115610000D01*
X97170000Y-58640000D02*
X100700000Y-57350000D01*
X220070000Y-82695000D02*
X219030000Y-78840000D01*
X84510000Y-85220000D02*
X87340000Y-74710000D01*
X227500000Y-108880000D02*
X227340000Y-107940000D01*
X109640000Y-57450000D02*
X112460000Y-57470000D01*
X220950000Y-86330000D02*
X221280000Y-85200000D01*
X147590000Y-113380000D02*
X147200000Y-113810000D01*
X181090000Y-120990000D02*
X182050000Y-121070000D01*
X164110000Y-116190000D02*
X161585000Y-116220000D01*
X118770000Y-122470000D02*
X117570000Y-123100000D01*
X91760000Y-70810000D02*
X91810000Y-70240000D01*
X91160000Y-71680000D02*
X91540000Y-71310000D01*
X191690000Y-125750000D02*
X192520000Y-126670000D01*
X131870000Y-116150000D02*
X131370000Y-115730000D01*
X227210000Y-118520000D02*
X227660000Y-118050000D01*
X110387500Y-118810000D02*
X111120000Y-123360000D01*
X218450000Y-74690000D02*
X217250000Y-72610000D01*
X226760000Y-105570000D02*
X223150000Y-91390000D01*
X185630000Y-121890000D02*
X187060000Y-122470000D01*
X88540000Y-72630000D02*
X88950000Y-72220000D01*
X77530000Y-116810000D02*
X77420000Y-116120000D01*
X123780000Y-121070000D02*
X122510000Y-121260000D01*
X177310000Y-120970000D02*
X180290000Y-120970000D01*
X114140000Y-125750000D02*
X113310000Y-126670000D01*
X214630000Y-71660000D02*
X214250000Y-71290000D01*
X148660000Y-113090000D02*
X148100000Y-113130000D01*
X124740000Y-120990000D02*
X123780000Y-121070000D01*
X187060000Y-122470000D02*
X188260000Y-123100000D01*
X167430000Y-120450000D02*
X167580000Y-120800000D01*
X213980000Y-64330000D02*
X213940000Y-63760000D01*
X80680000Y-120470000D02*
X78610000Y-118440000D01*
X117570000Y-123100000D02*
X116290000Y-123910000D01*
X196095000Y-89170000D02*
X196400000Y-92470000D01*
X109482500Y-89350000D02*
X109150000Y-92650000D01*
X132670000Y-57815000D02*
X112530000Y-57825000D01*
X228250000Y-114570000D02*
X227500000Y-108880000D01*
X195190000Y-119370000D02*
X194540000Y-123110000D01*
X228290000Y-116890000D02*
X228400000Y-116200000D01*
X89470000Y-71990000D02*
X90140000Y-71950000D01*
X194540000Y-123110000D02*
X197240000Y-123190000D01*
X77420000Y-116120000D02*
X77470000Y-115370000D01*
X208620000Y-58620000D02*
X205090000Y-57330000D01*
X90660000Y-71910000D02*
X91160000Y-71680000D01*
X167000000Y-115550000D02*
X167360000Y-116090000D01*
X109600000Y-114140000D02*
X110387500Y-118810000D01*
X182050000Y-121070000D02*
X183320000Y-121260000D01*
X221280000Y-85200000D02*
X218450000Y-74690000D01*
X132500000Y-116250000D02*
X131870000Y-116150000D01*
X77470000Y-115370000D02*
X77570000Y-114490000D01*
X87340000Y-74710000D02*
X88540000Y-72630000D01*
X160655000Y-115720000D02*
X161045000Y-116100000D01*
X115210000Y-124760000D02*
X114140000Y-125750000D01*
X189540000Y-123910000D02*
X190620000Y-124760000D01*
X129180000Y-116740000D02*
X129250000Y-116150000D01*
X164110000Y-116190000D02*
X164740000Y-116090000D01*
X173070000Y-57810000D02*
X193210000Y-57820000D01*
X91850000Y-63780000D02*
X92000000Y-63210000D01*
X91810000Y-64350000D02*
X91850000Y-63780000D01*
X196787500Y-107330000D02*
X196230000Y-112270000D01*
X125540000Y-120970000D02*
X124740000Y-120990000D01*
X147200000Y-113810000D02*
X146070000Y-115750000D01*
X145140000Y-116250000D02*
X132500000Y-116250000D01*
X129610000Y-115610000D02*
X129250000Y-116150000D01*
X109420000Y-112460000D02*
X109600000Y-114140000D01*
X180290000Y-120970000D02*
X181090000Y-120990000D01*
X177310000Y-120970000D02*
X167580000Y-120800000D01*
X92350000Y-62550000D02*
X92870000Y-61980000D01*
X77570000Y-114490000D02*
X78320000Y-108800000D01*
X228350000Y-115450000D02*
X228250000Y-114570000D01*
D12*
X176970000Y-98200000D03*
X149910000Y-76480000D03*
X123210000Y-113520000D03*
X128290000Y-79170000D03*
X96000000Y-84510000D03*
D13*
X84110000Y-121990000D03*
D12*
X174660000Y-98110000D03*
X169090000Y-92350000D03*
X82680000Y-125880000D03*
X121940000Y-92930000D03*
X169520000Y-90350000D03*
X152330000Y-103350000D03*
X150520000Y-103750000D03*
X149900000Y-78580000D03*
X204520000Y-76300000D03*
D14*
X87480000Y-101010000D03*
D12*
X98600000Y-78010000D03*
X151680000Y-66090000D03*
X179670000Y-98200000D03*
X113400000Y-114950000D03*
D15*
X170753548Y-64415000D03*
X162903548Y-64395000D03*
D12*
X160270000Y-105710000D03*
X203180905Y-65500615D03*
X98560000Y-80970000D03*
X160300000Y-102350000D03*
D16*
X137652495Y-96759992D03*
D17*
X125672500Y-100010000D03*
X125672493Y-102510001D03*
X125672508Y-105010000D03*
D16*
X137652500Y-92259998D03*
D17*
X131902491Y-111240007D03*
X134402494Y-111240001D03*
X136902498Y-111240004D03*
D16*
X131152497Y-96759999D03*
X131152497Y-92260006D03*
D18*
X140727496Y-97510004D03*
X140727491Y-107509998D03*
X128077509Y-97510003D03*
X128077498Y-107510003D03*
D19*
X138702510Y-102510002D03*
X130102505Y-102510003D03*
D12*
X101120000Y-84120000D03*
X88000000Y-96690000D03*
X102770000Y-64740000D03*
X102390000Y-114940000D03*
X167650000Y-80890000D03*
X123430000Y-91280000D03*
X154010000Y-103290000D03*
X113410000Y-116840000D03*
X121510000Y-114870000D03*
X121560000Y-112520000D03*
X210291944Y-73818295D03*
X174660000Y-100560000D03*
X172100000Y-91360000D03*
X173320000Y-93340000D03*
X129620000Y-80780000D03*
X191560000Y-114620000D03*
D14*
X218830000Y-101080000D03*
D12*
X215560000Y-116050000D03*
X171100000Y-80820000D03*
D20*
X154834100Y-57814600D03*
X150834100Y-57814600D03*
D12*
X174720000Y-102720000D03*
X150210000Y-65000000D03*
X191610000Y-111590000D03*
X165580000Y-79270000D03*
X142330000Y-81030000D03*
X201740000Y-76360000D03*
X171090000Y-82750000D03*
D13*
X221860000Y-121764600D03*
D14*
X152820936Y-108175000D03*
D12*
X131810000Y-80740000D03*
X94090000Y-76420000D03*
X167680000Y-77440000D03*
X145820000Y-76710000D03*
X155108274Y-65845608D03*
D21*
X148120000Y-97230000D03*
X148120000Y-96590000D03*
D22*
X125950000Y-82350000D03*
X126590000Y-82350000D03*
D23*
X166437806Y-65914122D03*
X165962194Y-65485878D03*
D24*
X212640000Y-72250000D03*
X210740000Y-72250000D03*
X211690000Y-69850000D03*
D25*
X168270000Y-97780000D03*
X167630000Y-97780000D03*
D26*
X174900000Y-79610000D03*
X174900000Y-80250000D03*
D27*
X206720000Y-68650000D03*
X206720000Y-73650000D03*
X200720000Y-68650000D03*
X200720000Y-73650000D03*
D22*
X128070000Y-76990000D03*
X128710000Y-76990000D03*
D21*
X161140000Y-84260000D03*
X161140000Y-83620000D03*
D26*
X146300000Y-96180000D03*
X146300000Y-96820000D03*
D25*
X124770000Y-77700000D03*
X124130000Y-77700000D03*
D26*
X162890000Y-83620000D03*
X162890000Y-84260000D03*
D25*
X177080000Y-71240000D03*
X176440000Y-71240000D03*
D22*
X128060000Y-76090000D03*
X128700000Y-76090000D03*
D28*
X82285565Y-116336622D03*
X82994435Y-110563378D03*
D21*
X175020000Y-77300000D03*
X175020000Y-76660000D03*
D22*
X125970000Y-83270000D03*
X126610000Y-83270000D03*
D26*
X146200000Y-79480000D03*
X146200000Y-80120000D03*
D29*
X164457500Y-80320000D03*
X164457500Y-82220000D03*
X162182500Y-81270000D03*
D25*
X158290000Y-85300000D03*
X157650000Y-85300000D03*
D26*
X126650000Y-77060000D03*
X126650000Y-77700000D03*
D30*
X127517500Y-72570300D03*
D31*
X127517500Y-72970100D03*
X127517500Y-73370100D03*
X127517500Y-73769900D03*
X127517500Y-74169900D03*
D32*
X127517500Y-74570000D03*
D33*
X127090000Y-74997500D03*
D34*
X126689900Y-74997500D03*
X126289900Y-74997500D03*
X125890100Y-74997500D03*
X125490100Y-74997500D03*
D35*
X125090000Y-74997500D03*
D36*
X124662500Y-74570000D03*
D31*
X124662500Y-74169900D03*
X124662500Y-73769900D03*
X124662500Y-73370100D03*
X124662500Y-72970100D03*
D37*
X124662500Y-72570000D03*
D38*
X125090000Y-72142500D03*
D34*
X125490100Y-72142500D03*
X125890100Y-72142500D03*
X126289900Y-72142500D03*
X126689900Y-72142500D03*
D39*
X127090000Y-72142500D03*
D40*
X126090000Y-73570000D03*
D41*
X195538500Y-97531500D03*
D42*
X195538500Y-103188500D03*
D43*
X189881500Y-103188500D03*
D44*
X189881500Y-97531500D03*
D45*
X192710000Y-100360000D03*
D21*
X145420000Y-96800000D03*
X145420000Y-96160000D03*
D46*
X206050015Y-124609992D03*
X212858884Y-123622773D03*
D21*
X157690000Y-62960000D03*
X157690000Y-62320000D03*
D47*
X223614427Y-116156623D03*
X222905573Y-110383377D03*
D26*
X159330000Y-83660000D03*
X159330000Y-84300000D03*
D21*
X123330000Y-74430000D03*
X123330000Y-73790000D03*
D25*
X167050000Y-94100000D03*
X166410000Y-94100000D03*
X94570000Y-73670000D03*
X93930000Y-73670000D03*
D24*
X95130000Y-72330000D03*
X93230000Y-72330000D03*
X94180000Y-69930000D03*
D25*
X166310000Y-98670000D03*
X165670000Y-98670000D03*
D22*
X125920000Y-81480000D03*
X126560000Y-81480000D03*
D21*
X165460000Y-89580000D03*
X165460000Y-88940000D03*
X148990000Y-97190000D03*
X148990000Y-96550000D03*
D46*
X93072735Y-123872217D03*
X99889955Y-124800016D03*
D48*
X83009245Y-107657786D03*
X84890755Y-107922214D03*
D21*
X149890000Y-97310000D03*
X149890000Y-96670000D03*
D49*
X156730000Y-62765000D03*
X156730000Y-61795000D03*
D26*
X184210000Y-79590000D03*
X184210000Y-80230000D03*
D22*
X145440000Y-89020000D03*
X146080000Y-89020000D03*
D50*
X165523726Y-64556274D03*
X165976274Y-64103726D03*
D21*
X144370000Y-80120000D03*
X144370000Y-79480000D03*
D26*
X176300000Y-72480000D03*
X176300000Y-73120000D03*
D51*
X182725000Y-75201200D03*
X182725000Y-75601600D03*
X182725000Y-76001300D03*
X182725000Y-76401700D03*
X182725000Y-76801200D03*
X182725000Y-77201800D03*
X182725000Y-77601300D03*
X182725000Y-78001300D03*
X182725000Y-78401100D03*
X182725000Y-78801200D03*
X182725000Y-79201200D03*
X182725000Y-79601300D03*
D52*
X181887500Y-80436200D03*
X181487700Y-80436200D03*
X181087700Y-80436200D03*
X180687600Y-80436200D03*
X180287600Y-80436200D03*
X179887500Y-80436200D03*
X179488000Y-80436200D03*
X179087700Y-80436200D03*
X178687900Y-80436200D03*
X178287600Y-80436200D03*
X177887800Y-80436200D03*
X177487700Y-80436200D03*
D51*
X176652800Y-79601300D03*
X176652800Y-79201200D03*
X176652800Y-78801200D03*
X176652800Y-78401100D03*
X176652800Y-78001300D03*
X176652800Y-77601300D03*
X176652800Y-77201200D03*
X176652800Y-76801200D03*
X176652800Y-76401100D03*
X176652800Y-76001300D03*
X176652800Y-75601600D03*
X176652800Y-75201200D03*
D52*
X177487700Y-74363800D03*
X177887800Y-74363800D03*
X178287600Y-74363800D03*
X178687900Y-74363800D03*
X179087700Y-74363800D03*
X179488000Y-74363800D03*
X179887500Y-74363800D03*
X180287600Y-74363800D03*
X180687600Y-74363800D03*
X181087700Y-74363800D03*
X181487700Y-74363800D03*
X181887500Y-74363800D03*
D53*
X179686100Y-77399900D03*
D26*
X174510000Y-71320000D03*
X174510000Y-71960000D03*
X162030000Y-83620000D03*
X162030000Y-84260000D03*
D25*
X167520000Y-96640000D03*
X166880000Y-96640000D03*
D22*
X212680000Y-73750000D03*
X213320000Y-73750000D03*
D26*
X175020000Y-74890000D03*
X175020000Y-75530000D03*
D25*
X182240000Y-73180000D03*
X181600000Y-73180000D03*
D41*
X116008500Y-97561500D03*
D42*
X116008500Y-103218500D03*
D43*
X110351500Y-103218500D03*
D44*
X110351500Y-97561500D03*
D45*
X113180000Y-100390000D03*
D22*
X125960000Y-84220000D03*
X126600000Y-84220000D03*
D26*
X149190000Y-92460000D03*
X149190000Y-93100000D03*
D54*
X122260000Y-82012500D03*
X124160000Y-82012500D03*
X123210000Y-84287500D03*
D22*
X184310000Y-75220000D03*
X184950000Y-75220000D03*
D21*
X157760000Y-104100000D03*
X157760000Y-103460000D03*
D26*
X174010000Y-79610000D03*
X174010000Y-80250000D03*
D21*
X174230000Y-78370000D03*
X174230000Y-77730000D03*
D26*
X147080000Y-79530000D03*
X147080000Y-80170000D03*
D22*
X159380000Y-85290000D03*
X160020000Y-85290000D03*
D21*
X148170000Y-80170000D03*
X148170000Y-79530000D03*
D55*
X145784995Y-92599999D03*
X145785004Y-90300002D03*
X147535005Y-90300001D03*
X147534996Y-92599998D03*
D21*
X148390000Y-88100000D03*
X148390000Y-87460000D03*
D56*
X180765000Y-90100000D03*
D57*
X180765000Y-87560000D03*
D56*
X180765000Y-85020000D03*
X177590000Y-90100000D03*
X177590000Y-85020000D03*
D57*
X175685000Y-88576000D03*
X175685000Y-86544000D03*
D58*
X179495000Y-88195000D03*
X179495000Y-86925000D03*
X178225000Y-88195000D03*
X178225000Y-86925000D03*
X176955000Y-88195000D03*
X176955000Y-86925000D03*
D25*
X147210000Y-93970000D03*
X146570000Y-93970000D03*
D21*
X181930000Y-72030000D03*
X181930000Y-71390000D03*
D27*
X105130000Y-68700000D03*
X105130000Y-73700000D03*
X99130000Y-68700000D03*
X99130000Y-73700000D03*
D59*
X178530000Y-71009998D03*
X180229999Y-71010004D03*
X180230000Y-72310002D03*
X178530001Y-72309996D03*
D25*
X174010000Y-74800000D03*
X173370000Y-74800000D03*
D57*
X180610000Y-111495000D03*
D56*
X180610001Y-114034998D03*
X180610002Y-108955001D03*
X183784999Y-108954999D03*
X183784999Y-114035001D03*
D57*
X185690000Y-112510997D03*
X185690002Y-110479001D03*
D58*
X181880002Y-110860000D03*
X181880001Y-112129998D03*
X183150000Y-110860000D03*
X183150000Y-112130000D03*
X184419999Y-110860002D03*
X184419998Y-112130000D03*
D22*
X167250000Y-93240000D03*
X167890000Y-93240000D03*
D60*
X152570200Y-98250100D03*
X152570200Y-97749900D03*
X152570200Y-97250100D03*
X152570200Y-96749900D03*
X152570200Y-96250100D03*
X152570200Y-95749900D03*
X152570200Y-95250100D03*
X152570200Y-94749900D03*
X152570200Y-94250100D03*
X152570200Y-93749900D03*
X152570200Y-93250100D03*
X152570200Y-92749900D03*
X152570200Y-92250100D03*
X152570200Y-91749900D03*
X152570200Y-91250100D03*
X152570200Y-90749900D03*
D61*
X154569900Y-88750200D03*
X155070100Y-88750200D03*
X155569900Y-88750200D03*
X156070100Y-88750200D03*
X156569900Y-88750200D03*
X157070100Y-88750200D03*
X157569900Y-88750200D03*
X158070100Y-88750200D03*
X158569900Y-88750200D03*
X159070100Y-88750200D03*
X159569900Y-88750200D03*
X160070100Y-88750200D03*
X160569900Y-88750200D03*
X161070100Y-88750200D03*
X161569900Y-88750200D03*
X162070100Y-88750200D03*
D60*
X164069800Y-90749900D03*
X164069800Y-91250100D03*
X164069800Y-91749900D03*
X164069800Y-92250100D03*
X164069800Y-92749900D03*
X164069800Y-93250100D03*
X164069800Y-93749900D03*
X164069800Y-94250100D03*
X164069800Y-94749900D03*
X164069800Y-95250100D03*
X164069800Y-95749900D03*
X164069800Y-96250100D03*
X164069800Y-96749900D03*
X164069800Y-97250100D03*
X164069800Y-97749900D03*
X164069800Y-98250100D03*
D61*
X162070100Y-100249800D03*
X161569900Y-100249800D03*
X161070100Y-100249800D03*
X160569900Y-100249800D03*
X160070100Y-100249800D03*
X159569900Y-100249800D03*
X159070100Y-100249800D03*
X158569900Y-100249800D03*
X158070100Y-100249800D03*
X157569900Y-100249800D03*
X157070100Y-100249800D03*
X156569900Y-100249800D03*
X156070100Y-100249800D03*
X155569900Y-100249800D03*
X155070100Y-100249800D03*
X154569900Y-100249800D03*
D26*
X184130000Y-85850000D03*
X184130000Y-86490000D03*
D21*
X174520000Y-73730000D03*
X174520000Y-73090000D03*
X158310000Y-84290000D03*
X158310000Y-83650000D03*
M02*
