G04 #@! TF.GenerationSoftware,KiCad,Pcbnew,9.0.3-9.0.3-0~ubuntu22.04.1*
G04 #@! TF.CreationDate,2025-08-06T12:37:18-06:00*
G04 #@! TF.ProjectId,Steam_Controller,53746561-6d5f-4436-9f6e-74726f6c6c65,rev?*
G04 #@! TF.SameCoordinates,Original*
G04 #@! TF.FileFunction,Paste,Bot*
G04 #@! TF.FilePolarity,Positive*
%FSLAX46Y46*%
G04 Gerber Fmt 4.6, Leading zero omitted, Abs format (unit mm)*
G04 Created by KiCad (PCBNEW 9.0.3-9.0.3-0~ubuntu22.04.1) date 2025-08-06 12:37:18*
%MOMM*%
%LPD*%
G01*
G04 APERTURE LIST*
G04 Aperture macros list*
%AMRoundRect*
0 Rectangle with rounded corners*
0 $1 Rounding radius*
0 $2 $3 $4 $5 $6 $7 $8 $9 X,Y pos of 4 corners*
0 Add a 4 corners polygon primitive as box body*
4,1,4,$2,$3,$4,$5,$6,$7,$8,$9,$2,$3,0*
0 Add four circle primitives for the rounded corners*
1,1,$1+$1,$2,$3*
1,1,$1+$1,$4,$5*
1,1,$1+$1,$6,$7*
1,1,$1+$1,$8,$9*
0 Add four rect primitives between the rounded corners*
20,1,$1+$1,$2,$3,$4,$5,0*
20,1,$1+$1,$4,$5,$6,$7,0*
20,1,$1+$1,$6,$7,$8,$9,0*
20,1,$1+$1,$8,$9,$2,$3,0*%
%AMRotRect*
0 Rectangle, with rotation*
0 The origin of the aperture is its center*
0 $1 length*
0 $2 width*
0 $3 Rotation angle, in degrees counterclockwise*
0 Add horizontal line*
21,1,$1,$2,0,0,$3*%
%AMFreePoly0*
4,1,2,0.000000,0.000000,0.000000,0.000000,0.000000,0.000000,$1*%
%AMFreePoly1*
4,1,53,0.150800,1.241000,0.299200,1.213800,0.443400,1.168900,0.580900,1.106900,0.710100,1.028900,0.829000,0.935700,0.935700,0.829000,1.028900,0.710100,1.106900,0.580900,1.168900,0.443400,1.213800,0.299200,1.241000,0.150800,1.250100,0.000000,1.241000,-0.150700,1.213800,-0.299000,1.168900,-0.443300,1.106900,-0.580900,1.028900,-0.710000,0.935700,-0.828800,0.829000,-0.935500,
0.710100,-1.028700,0.580900,-1.106700,0.443400,-1.168700,0.299200,-1.213700,0.150800,-1.240800,0.000000,-1.250000,-0.150700,-1.240800,-0.299000,-1.213700,-0.443300,-1.168700,-0.580900,-1.106700,-0.710000,-1.028700,-0.828800,-0.935500,-0.935500,-0.828800,-1.028700,-0.710000,-1.106700,-0.580900,-1.168700,-0.443300,-1.213700,-0.299000,-1.240800,-0.150700,-1.250000,0.000000,-1.240800,0.150800,
-1.213700,0.299200,-1.168700,0.443400,-1.106700,0.580900,-1.028700,0.710100,-0.935500,0.829000,-0.828800,0.935700,-0.710000,1.028900,-0.580900,1.106900,-0.443300,1.168900,-0.299000,1.213800,-0.150700,1.241000,0.000000,1.250100,0.150800,1.241000,0.150800,1.241000,$1*%
%AMFreePoly2*
4,1,53,0.150800,1.240800,0.299200,1.213700,0.443400,1.168700,0.580900,1.106700,0.710100,1.028700,0.829000,0.935500,0.935700,0.828800,1.028900,0.710000,1.106900,0.580900,1.168900,0.443300,1.213800,0.299000,1.241000,0.150700,1.250100,0.000000,1.241000,-0.150800,1.213800,-0.299200,1.168900,-0.443400,1.106900,-0.580900,1.028900,-0.710100,0.935700,-0.829000,0.829000,-0.935700,
0.710100,-1.028900,0.580900,-1.106900,0.443400,-1.168900,0.299200,-1.213800,0.150800,-1.241000,0.000000,-1.250100,-0.150700,-1.241000,-0.299000,-1.213800,-0.443300,-1.168900,-0.580900,-1.106900,-0.710000,-1.028900,-0.828800,-0.935700,-0.935500,-0.829000,-1.028700,-0.710100,-1.106700,-0.580900,-1.168700,-0.443400,-1.213700,-0.299200,-1.240800,-0.150800,-1.250000,0.000000,-1.240800,0.150700,
-1.213700,0.299000,-1.168700,0.443300,-1.106700,0.580900,-1.028700,0.710000,-0.935500,0.828800,-0.828800,0.935500,-0.710000,1.028700,-0.580900,1.106700,-0.443300,1.168700,-0.299000,1.213700,-0.150700,1.240800,0.000000,1.250000,0.150800,1.240800,0.150800,1.240800,$1*%
%AMFreePoly3*
4,1,53,0.150700,1.240800,0.299000,1.213700,0.443300,1.168700,0.580900,1.106700,0.710000,1.028700,0.828800,0.935500,0.935500,0.828800,1.028700,0.710000,1.106700,0.580900,1.168700,0.443300,1.213700,0.299000,1.240800,0.150700,1.250000,0.000000,1.240800,-0.150800,1.213700,-0.299200,1.168700,-0.443400,1.106700,-0.580900,1.028700,-0.710100,0.935500,-0.829000,0.828800,-0.935700,
0.710000,-1.028900,0.580900,-1.106900,0.443300,-1.168900,0.299000,-1.213800,0.150700,-1.241000,0.000000,-1.250100,-0.150800,-1.241000,-0.299200,-1.213800,-0.443400,-1.168900,-0.580900,-1.106900,-0.710100,-1.028900,-0.829000,-0.935700,-0.935700,-0.829000,-1.028900,-0.710100,-1.106900,-0.580900,-1.168900,-0.443400,-1.213800,-0.299200,-1.241000,-0.150800,-1.250100,0.000000,-1.241000,0.150700,
-1.213800,0.299000,-1.168900,0.443300,-1.106900,0.580900,-1.028900,0.710000,-0.935700,0.828800,-0.829000,0.935500,-0.710100,1.028700,-0.580900,1.106700,-0.443400,1.168700,-0.299200,1.213700,-0.150800,1.240800,0.000000,1.250000,0.150700,1.240800,0.150700,1.240800,$1*%
%AMFreePoly4*
4,1,53,0.150700,1.241000,0.299000,1.213800,0.443300,1.168900,0.580900,1.106900,0.710000,1.028900,0.828800,0.935700,0.935500,0.829000,1.028700,0.710100,1.106700,0.580900,1.168700,0.443400,1.213700,0.299200,1.240800,0.150800,1.250000,0.000000,1.240800,-0.150700,1.213700,-0.299000,1.168700,-0.443300,1.106700,-0.580900,1.028700,-0.710000,0.935500,-0.828800,0.828800,-0.935500,
0.710000,-1.028700,0.580900,-1.106700,0.443300,-1.168700,0.299000,-1.213700,0.150700,-1.240800,0.000000,-1.250000,-0.150800,-1.240800,-0.299200,-1.213700,-0.443400,-1.168700,-0.580900,-1.106700,-0.710100,-1.028700,-0.829000,-0.935500,-0.935700,-0.828800,-1.028900,-0.710000,-1.106900,-0.580900,-1.168900,-0.443300,-1.213800,-0.299000,-1.241000,-0.150700,-1.250100,0.000000,-1.241000,0.150800,
-1.213800,0.299200,-1.168900,0.443400,-1.106900,0.580900,-1.028900,0.710100,-0.935700,0.829000,-0.829000,0.935700,-0.710100,1.028900,-0.580900,1.106900,-0.443400,1.168900,-0.299200,1.213800,-0.150800,1.241000,0.000000,1.250100,0.150700,1.241000,0.150700,1.241000,$1*%
%AMFreePoly5*
4,1,53,0.150600,1.240800,0.299200,1.213600,0.443200,1.168700,0.580900,1.106900,0.710200,1.028700,0.828800,0.935700,0.935700,0.828800,1.028700,0.710200,1.106900,0.580900,1.168700,0.443200,1.213600,0.299200,1.240800,0.150600,1.249900,0.000000,1.240800,-0.150600,1.213600,-0.299200,1.168700,-0.443200,1.106900,-0.580900,1.028700,-0.710200,0.935700,-0.828800,0.828800,-0.935700,
0.710200,-1.028700,0.580900,-1.106900,0.443200,-1.168700,0.299200,-1.213600,0.150600,-1.240800,0.000000,-1.249900,-0.150600,-1.240800,-0.299200,-1.213600,-0.443200,-1.168700,-0.580900,-1.106900,-0.710200,-1.028700,-0.828800,-0.935700,-0.935700,-0.828800,-1.028700,-0.710200,-1.106900,-0.580900,-1.168700,-0.443200,-1.213600,-0.299200,-1.240800,-0.150600,-1.249900,0.000000,-1.240800,0.150600,
-1.213600,0.299200,-1.168700,0.443200,-1.106900,0.580900,-1.028700,0.710200,-0.935700,0.828800,-0.828800,0.935700,-0.710200,1.028700,-0.580900,1.106900,-0.443200,1.168700,-0.299200,1.213600,-0.150600,1.240800,0.000000,1.249900,0.150600,1.240800,0.150600,1.240800,$1*%
G04 Aperture macros list end*
%ADD10RoundRect,0.079500X0.100500X-0.079500X0.100500X0.079500X-0.100500X0.079500X-0.100500X-0.079500X0*%
%ADD11RoundRect,0.079500X-0.079500X-0.100500X0.079500X-0.100500X0.079500X0.100500X-0.079500X0.100500X0*%
%ADD12RoundRect,0.079500X0.126328X0.021490X0.008168X0.127882X-0.126328X-0.021490X-0.008168X-0.127882X0*%
%ADD13RoundRect,0.175000X0.175000X-0.325000X0.175000X0.325000X-0.175000X0.325000X-0.175000X-0.325000X0*%
%ADD14RoundRect,0.079500X0.079500X0.100500X-0.079500X0.100500X-0.079500X-0.100500X0.079500X-0.100500X0*%
%ADD15RoundRect,0.079500X-0.100500X0.079500X-0.100500X-0.079500X0.100500X-0.079500X0.100500X0.079500X0*%
%ADD16R,1.000000X1.100000*%
%ADD17RotRect,2.997200X1.168400X83.000000*%
%ADD18RoundRect,0.150000X0.512500X0.150000X-0.512500X0.150000X-0.512500X-0.150000X0.512500X-0.150000X0*%
%ADD19FreePoly0,270.000000*%
%ADD20FreePoly1,180.000000*%
%ADD21FreePoly2,180.000000*%
%ADD22FreePoly3,180.000000*%
%ADD23FreePoly4,180.000000*%
%ADD24FreePoly5,180.000000*%
%ADD25RotRect,2.997200X1.168400X97.000000*%
%ADD26RoundRect,0.250000X-0.313674X-0.435584X0.181460X-0.505171X0.313674X0.435584X-0.181460X0.505171X0*%
%ADD27RoundRect,0.147500X0.172500X-0.147500X0.172500X0.147500X-0.172500X0.147500X-0.172500X-0.147500X0*%
%ADD28RoundRect,0.079500X0.014849X-0.127279X0.127279X-0.014849X-0.014849X0.127279X-0.127279X0.014849X0*%
%ADD29RoundRect,0.150000X-0.150000X0.512500X-0.150000X-0.512500X0.150000X-0.512500X0.150000X0.512500X0*%
%ADD30R,1.050000X1.300000*%
%ADD31R,1.200000X1.000000*%
%ADD32O,2.000000X0.300000*%
%ADD33O,0.300000X2.000000*%
G04 APERTURE END LIST*
D10*
X148120000Y-97255000D03*
X148120000Y-96565000D03*
D11*
X125925000Y-82350000D03*
X126615000Y-82350000D03*
D12*
X166456385Y-65930850D03*
X165943615Y-65469150D03*
D13*
X212640000Y-72250000D03*
X210740000Y-72250000D03*
X211690000Y-69850000D03*
D14*
X168295000Y-97780000D03*
X167605000Y-97780000D03*
D15*
X174900000Y-79585000D03*
X174900000Y-80275000D03*
D16*
X206720000Y-68650000D03*
X206720000Y-73650000D03*
X200720000Y-68650000D03*
X200720000Y-73650000D03*
D11*
X128045000Y-76990000D03*
X128735000Y-76990000D03*
D10*
X161140000Y-84285000D03*
X161140000Y-83595000D03*
D15*
X146300000Y-96155000D03*
X146300000Y-96845000D03*
D14*
X124795000Y-77700000D03*
X124105000Y-77700000D03*
D15*
X162890000Y-83595000D03*
X162890000Y-84285000D03*
D14*
X177105000Y-71240000D03*
X176415000Y-71240000D03*
D11*
X128035000Y-76090000D03*
X128725000Y-76090000D03*
D17*
X82285565Y-116336622D03*
X82994435Y-110563378D03*
D10*
X175020000Y-77325000D03*
X175020000Y-76635000D03*
D11*
X125945000Y-83270000D03*
X126635000Y-83270000D03*
D15*
X146200000Y-79455000D03*
X146200000Y-80145000D03*
D18*
X164457500Y-80320000D03*
X164457500Y-82220000D03*
X162182500Y-81270000D03*
D14*
X158315000Y-85300000D03*
X157625000Y-85300000D03*
D15*
X126650000Y-77035000D03*
X126650000Y-77725000D03*
D19*
X127517500Y-72570300D03*
X127517500Y-74570000D03*
X127090000Y-74997500D03*
X125090000Y-74997500D03*
X124662500Y-74570000D03*
X124662500Y-72570000D03*
X125090000Y-72142500D03*
X127090000Y-72142500D03*
D20*
X195538500Y-97531500D03*
D21*
X195538500Y-103188500D03*
D22*
X189881500Y-103188500D03*
D23*
X189881500Y-97531500D03*
D24*
X192710000Y-100360000D03*
D10*
X145420000Y-96825000D03*
X145420000Y-96135000D03*
X157690000Y-62985000D03*
X157690000Y-62295000D03*
D25*
X223614427Y-116156623D03*
X222905573Y-110383377D03*
D15*
X159330000Y-83635000D03*
X159330000Y-84325000D03*
D10*
X123330000Y-74455000D03*
X123330000Y-73765000D03*
D14*
X167075000Y-94100000D03*
X166385000Y-94100000D03*
X94595000Y-73670000D03*
X93905000Y-73670000D03*
D13*
X95130000Y-72330000D03*
X93230000Y-72330000D03*
X94180000Y-69930000D03*
D14*
X166335000Y-98670000D03*
X165645000Y-98670000D03*
D11*
X125895000Y-81480000D03*
X126585000Y-81480000D03*
D10*
X165460000Y-89605000D03*
X165460000Y-88915000D03*
X148990000Y-97215000D03*
X148990000Y-96525000D03*
D26*
X83009245Y-107657786D03*
X84890755Y-107922214D03*
D10*
X149890000Y-97335000D03*
X149890000Y-96645000D03*
D27*
X156730000Y-62765000D03*
X156730000Y-61795000D03*
D15*
X184210000Y-79565000D03*
X184210000Y-80255000D03*
D11*
X145415000Y-89020000D03*
X146105000Y-89020000D03*
D28*
X165506048Y-64573952D03*
X165993952Y-64086048D03*
D10*
X144370000Y-80145000D03*
X144370000Y-79455000D03*
D15*
X176300000Y-72455000D03*
X176300000Y-73145000D03*
X174510000Y-71295000D03*
X174510000Y-71985000D03*
X162030000Y-83595000D03*
X162030000Y-84285000D03*
D14*
X167545000Y-96640000D03*
X166855000Y-96640000D03*
D11*
X212655000Y-73750000D03*
X213345000Y-73750000D03*
D15*
X175020000Y-74865000D03*
X175020000Y-75555000D03*
D14*
X182265000Y-73180000D03*
X181575000Y-73180000D03*
D20*
X116008500Y-97561500D03*
D21*
X116008500Y-103218500D03*
D22*
X110351500Y-103218500D03*
D23*
X110351500Y-97561500D03*
D24*
X113180000Y-100390000D03*
D11*
X125935000Y-84220000D03*
X126625000Y-84220000D03*
D15*
X149190000Y-92435000D03*
X149190000Y-93125000D03*
D29*
X122260000Y-82012500D03*
X124160000Y-82012500D03*
X123210000Y-84287500D03*
D11*
X184285000Y-75220000D03*
X184975000Y-75220000D03*
D10*
X157760000Y-104125000D03*
X157760000Y-103435000D03*
D15*
X174010000Y-79585000D03*
X174010000Y-80275000D03*
D10*
X174230000Y-78395000D03*
X174230000Y-77705000D03*
D15*
X147080000Y-79505000D03*
X147080000Y-80195000D03*
D11*
X159355000Y-85290000D03*
X160045000Y-85290000D03*
D10*
X148170000Y-80195000D03*
X148170000Y-79505000D03*
D30*
X145784995Y-92599999D03*
X145785004Y-90300002D03*
X147535005Y-90300001D03*
X147534996Y-92599998D03*
D10*
X148390000Y-88125000D03*
X148390000Y-87435000D03*
D14*
X147235000Y-93970000D03*
X146545000Y-93970000D03*
D10*
X181930000Y-72055000D03*
X181930000Y-71365000D03*
D16*
X105130000Y-68700000D03*
X105130000Y-73700000D03*
X99130000Y-68700000D03*
X99130000Y-73700000D03*
D31*
X178530000Y-71009998D03*
X180229999Y-71010004D03*
X180230000Y-72310002D03*
X178530001Y-72309996D03*
D14*
X174035000Y-74800000D03*
X173345000Y-74800000D03*
D11*
X167225000Y-93240000D03*
X167915000Y-93240000D03*
D32*
X152570200Y-98250100D03*
X152570200Y-97749900D03*
X152570200Y-97250100D03*
X152570200Y-96749900D03*
X152570200Y-96250100D03*
X152570200Y-95749900D03*
X152570200Y-95250100D03*
X152570200Y-94749900D03*
X152570200Y-94250100D03*
X152570200Y-93749900D03*
X152570200Y-93250100D03*
X152570200Y-92749900D03*
X152570200Y-92250100D03*
X152570200Y-91749900D03*
X152570200Y-91250100D03*
X152570200Y-90749900D03*
D33*
X154569900Y-88750200D03*
X155070100Y-88750200D03*
X155569900Y-88750200D03*
X156070100Y-88750200D03*
X156569900Y-88750200D03*
X157070100Y-88750200D03*
X157569900Y-88750200D03*
X158070100Y-88750200D03*
X158569900Y-88750200D03*
X159070100Y-88750200D03*
X159569900Y-88750200D03*
X160070100Y-88750200D03*
X160569900Y-88750200D03*
X161070100Y-88750200D03*
X161569900Y-88750200D03*
X162070100Y-88750200D03*
D32*
X164069800Y-90749900D03*
X164069800Y-91250100D03*
X164069800Y-91749900D03*
X164069800Y-92250100D03*
X164069800Y-92749900D03*
X164069800Y-93250100D03*
X164069800Y-93749900D03*
X164069800Y-94250100D03*
X164069800Y-94749900D03*
X164069800Y-95250100D03*
X164069800Y-95749900D03*
X164069800Y-96250100D03*
X164069800Y-96749900D03*
X164069800Y-97250100D03*
X164069800Y-97749900D03*
X164069800Y-98250100D03*
D33*
X162070100Y-100249800D03*
X161569900Y-100249800D03*
X161070100Y-100249800D03*
X160569900Y-100249800D03*
X160070100Y-100249800D03*
X159569900Y-100249800D03*
X159070100Y-100249800D03*
X158569900Y-100249800D03*
X158070100Y-100249800D03*
X157569900Y-100249800D03*
X157070100Y-100249800D03*
X156569900Y-100249800D03*
X156070100Y-100249800D03*
X155569900Y-100249800D03*
X155070100Y-100249800D03*
X154569900Y-100249800D03*
D15*
X184130000Y-85825000D03*
X184130000Y-86515000D03*
D10*
X174520000Y-73755000D03*
X174520000Y-73065000D03*
X158310000Y-84315000D03*
X158310000Y-83625000D03*
M02*
