G04 #@! TF.GenerationSoftware,KiCad,Pcbnew,8.0.9-8.0.9-0~ubuntu22.04.1*
G04 #@! TF.CreationDate,2025-06-17T20:00:39-06:00*
G04 #@! TF.ProjectId,dongle,646f6e67-6c65-42e6-9b69-6361645f7063,rev?*
G04 #@! TF.SameCoordinates,Original*
G04 #@! TF.FileFunction,Copper,L1,Top*
G04 #@! TF.FilePolarity,Positive*
%FSLAX46Y46*%
G04 Gerber Fmt 4.6, Leading zero omitted, Abs format (unit mm)*
G04 Created by KiCad (PCBNEW 8.0.9-8.0.9-0~ubuntu22.04.1) date 2025-06-17 20:00:39*
%MOMM*%
%LPD*%
G01*
G04 APERTURE LIST*
G04 Aperture macros list*
%AMRoundRect*
0 Rectangle with rounded corners*
0 $1 Rounding radius*
0 $2 $3 $4 $5 $6 $7 $8 $9 X,Y pos of 4 corners*
0 Add a 4 corners polygon primitive as box body*
4,1,4,$2,$3,$4,$5,$6,$7,$8,$9,$2,$3,0*
0 Add four circle primitives for the rounded corners*
1,1,$1+$1,$2,$3*
1,1,$1+$1,$4,$5*
1,1,$1+$1,$6,$7*
1,1,$1+$1,$8,$9*
0 Add four rect primitives between the rounded corners*
20,1,$1+$1,$2,$3,$4,$5,0*
20,1,$1+$1,$4,$5,$6,$7,0*
20,1,$1+$1,$6,$7,$8,$9,0*
20,1,$1+$1,$8,$9,$2,$3,0*%
%AMFreePoly0*
4,1,229,0.026192,0.903996,0.026383,0.903985,0.052383,0.901985,0.052573,0.901967,0.078573,0.898967,0.078944,0.898910,0.104944,0.893910,0.105167,0.893862,0.130167,0.887862,0.130300,0.887828,0.156300,0.880828,0.156756,0.880682,0.180756,0.871682,0.180923,0.871615,0.204923,0.861615,0.205083,0.861545,0.229083,0.850545,0.229460,0.850353,0.252460,0.837353,0.252684,0.837218,
0.296684,0.809218,0.297030,0.808977,0.318030,0.792977,0.318238,0.792810,0.338238,0.775810,0.338439,0.775630,0.357439,0.757630,0.357630,0.757439,0.375630,0.738439,0.375810,0.738238,0.392810,0.718238,0.392977,0.718030,0.408977,0.697030,0.409218,0.696684,0.437218,0.652684,0.437353,0.652460,0.450353,0.629460,0.450545,0.629083,0.461545,0.605083,0.461615,0.604923,
0.471615,0.580923,0.471682,0.580756,0.480682,0.556756,0.480828,0.556300,0.487828,0.530300,0.487862,0.530167,0.493862,0.505167,0.493910,0.504944,0.498910,0.478944,0.498967,0.478573,0.501967,0.452573,0.501985,0.452383,0.503985,0.426383,0.503996,0.426192,0.504996,0.400192,0.505000,0.400000,0.505000,-0.400000,0.504996,-0.400192,0.503996,-0.426192,0.503985,-0.426383,
0.501985,-0.452383,0.501967,-0.452573,0.498967,-0.478573,0.498910,-0.478944,0.493910,-0.504944,0.493862,-0.505167,0.487862,-0.530167,0.487828,-0.530300,0.480828,-0.556300,0.480682,-0.556756,0.471682,-0.580756,0.471615,-0.580923,0.461615,-0.604923,0.461545,-0.605083,0.450545,-0.629083,0.450353,-0.629460,0.437353,-0.652460,0.437218,-0.652684,0.409218,-0.696684,0.408977,-0.697030,
0.392977,-0.718030,0.392810,-0.718238,0.375810,-0.738238,0.375630,-0.738439,0.357630,-0.757439,0.357439,-0.757630,0.338439,-0.775630,0.338238,-0.775810,0.318238,-0.792810,0.318030,-0.792977,0.297030,-0.808977,0.296684,-0.809218,0.252684,-0.837218,0.252460,-0.837353,0.229460,-0.850353,0.229083,-0.850545,0.205083,-0.861545,0.204923,-0.861615,0.180923,-0.871615,0.180756,-0.871682,
0.156756,-0.880682,0.156300,-0.880828,0.130300,-0.887828,0.130167,-0.887862,0.105167,-0.893862,0.104944,-0.893910,0.078944,-0.898910,0.078573,-0.898967,0.052573,-0.901967,0.052383,-0.901985,0.026383,-0.903985,0.026192,-0.903996,0.000192,-0.904996,-0.000192,-0.904996,-0.026192,-0.903996,-0.026383,-0.903985,-0.052383,-0.901985,-0.052573,-0.901967,-0.078573,-0.898967,-0.078944,-0.898910,
-0.104944,-0.893910,-0.105167,-0.893862,-0.130167,-0.887862,-0.130300,-0.887828,-0.156300,-0.880828,-0.156756,-0.880682,-0.180756,-0.871682,-0.180923,-0.871615,-0.204923,-0.861615,-0.205083,-0.861545,-0.229083,-0.850545,-0.229460,-0.850353,-0.252460,-0.837353,-0.252684,-0.837218,-0.296684,-0.809218,-0.297030,-0.808977,-0.318030,-0.792977,-0.318238,-0.792810,-0.338238,-0.775810,-0.338439,-0.775630,
-0.357439,-0.757630,-0.357630,-0.757439,-0.375630,-0.738439,-0.375810,-0.738238,-0.392810,-0.718238,-0.392977,-0.718030,-0.408977,-0.697030,-0.409218,-0.696684,-0.437218,-0.652684,-0.437353,-0.652460,-0.450353,-0.629460,-0.450545,-0.629083,-0.461545,-0.605083,-0.461615,-0.604923,-0.471615,-0.580923,-0.471682,-0.580756,-0.480682,-0.556756,-0.480828,-0.556300,-0.487828,-0.530300,-0.487862,-0.530167,
-0.493862,-0.505167,-0.493910,-0.504944,-0.498910,-0.478944,-0.498967,-0.478573,-0.501967,-0.452573,-0.501985,-0.452383,-0.503985,-0.426383,-0.503996,-0.426192,-0.504996,-0.400192,-0.505000,-0.400000,-0.505000,0.400000,-0.504996,0.400192,-0.503996,0.426192,-0.503985,0.426383,-0.501985,0.452383,-0.501967,0.452573,-0.498967,0.478573,-0.498910,0.478944,-0.493910,0.504944,-0.493862,0.505167,
-0.487862,0.530167,-0.487828,0.530300,-0.480828,0.556300,-0.480682,0.556756,-0.471682,0.580756,-0.471615,0.580923,-0.461615,0.604923,-0.461545,0.605083,-0.450545,0.629083,-0.450353,0.629460,-0.437353,0.652460,-0.437218,0.652684,-0.409218,0.696684,-0.408977,0.697030,-0.392977,0.718030,-0.392810,0.718238,-0.375810,0.738238,-0.375630,0.738439,-0.357630,0.757439,-0.357439,0.757630,
-0.338439,0.775630,-0.338238,0.775810,-0.318238,0.792810,-0.318030,0.792977,-0.297030,0.808977,-0.296684,0.809218,-0.252684,0.837218,-0.252460,0.837353,-0.229460,0.850353,-0.229083,0.850545,-0.205083,0.861545,-0.204923,0.861615,-0.180923,0.871615,-0.180756,0.871682,-0.156756,0.880682,-0.156300,0.880828,-0.130300,0.887828,-0.130167,0.887862,-0.105167,0.893862,-0.104944,0.893910,
-0.078944,0.898910,-0.078573,0.898967,-0.052573,0.901967,-0.052383,0.901985,-0.026383,0.903985,-0.026192,0.903996,-0.000192,0.904996,0.000192,0.904996,0.026192,0.903996,0.026192,0.903996,$1*%
G04 Aperture macros list end*
G04 #@! TA.AperFunction,EtchedComponent*
%ADD10C,0.200000*%
G04 #@! TD*
G04 #@! TA.AperFunction,SMDPad,CuDef*
%ADD11RoundRect,0.147500X-0.147500X-0.172500X0.147500X-0.172500X0.147500X0.172500X-0.147500X0.172500X0*%
G04 #@! TD*
G04 #@! TA.AperFunction,SMDPad,CuDef*
%ADD12RoundRect,0.100000X0.100000X-0.130000X0.100000X0.130000X-0.100000X0.130000X-0.100000X-0.130000X0*%
G04 #@! TD*
G04 #@! TA.AperFunction,SMDPad,CuDef*
%ADD13R,0.850000X0.300000*%
G04 #@! TD*
G04 #@! TA.AperFunction,SMDPad,CuDef*
%ADD14R,0.300000X0.850000*%
G04 #@! TD*
G04 #@! TA.AperFunction,SMDPad,CuDef*
%ADD15RoundRect,0.100000X-0.100000X0.130000X-0.100000X-0.130000X0.100000X-0.130000X0.100000X0.130000X0*%
G04 #@! TD*
G04 #@! TA.AperFunction,SMDPad,CuDef*
%ADD16RoundRect,0.100000X0.130000X0.100000X-0.130000X0.100000X-0.130000X-0.100000X0.130000X-0.100000X0*%
G04 #@! TD*
G04 #@! TA.AperFunction,SMDPad,CuDef*
%ADD17RoundRect,0.140000X-0.170000X0.140000X-0.170000X-0.140000X0.170000X-0.140000X0.170000X0.140000X0*%
G04 #@! TD*
G04 #@! TA.AperFunction,SMDPad,CuDef*
%ADD18RoundRect,0.147500X-0.172500X0.147500X-0.172500X-0.147500X0.172500X-0.147500X0.172500X0.147500X0*%
G04 #@! TD*
G04 #@! TA.AperFunction,SMDPad,CuDef*
%ADD19R,1.200000X1.000000*%
G04 #@! TD*
G04 #@! TA.AperFunction,SMDPad,CuDef*
%ADD20RoundRect,0.140000X0.140000X0.170000X-0.140000X0.170000X-0.140000X-0.170000X0.140000X-0.170000X0*%
G04 #@! TD*
G04 #@! TA.AperFunction,SMDPad,CuDef*
%ADD21RoundRect,0.050000X-0.050000X0.050000X-0.050000X-0.050000X0.050000X-0.050000X0.050000X0.050000X0*%
G04 #@! TD*
G04 #@! TA.AperFunction,ComponentPad*
%ADD22FreePoly0,90.000000*%
G04 #@! TD*
G04 #@! TA.AperFunction,ViaPad*
%ADD23C,0.400000*%
G04 #@! TD*
G04 #@! TA.AperFunction,Conductor*
%ADD24C,0.150000*%
G04 #@! TD*
G04 #@! TA.AperFunction,Conductor*
%ADD25C,0.120000*%
G04 #@! TD*
G04 #@! TA.AperFunction,Conductor*
%ADD26C,0.200000*%
G04 #@! TD*
G04 #@! TA.AperFunction,Conductor*
%ADD27C,0.100000*%
G04 #@! TD*
G04 APERTURE END LIST*
D10*
X153080002Y-89600002D02*
X156930002Y-89600002D01*
X154030002Y-91900002D02*
X154030002Y-94100002D01*
X154030002Y-94100002D02*
X156930002Y-94100002D01*
X154030002Y-95900002D02*
X154030002Y-97900002D01*
X154030002Y-97900002D02*
X156930002Y-97900002D01*
X156930002Y-89600002D02*
X156930002Y-91900002D01*
X156930002Y-91900002D02*
X154030002Y-91900002D01*
X156930002Y-94100002D02*
X156930002Y-95900002D01*
X156930002Y-95900002D02*
X154030002Y-95900002D01*
X156930002Y-97900002D02*
X156930002Y-99800002D01*
X156930002Y-99800002D02*
X155630002Y-99800002D01*
D11*
X152065000Y-89800000D03*
X153035000Y-89800000D03*
D12*
X141050002Y-92820000D03*
X141049998Y-92180000D03*
D13*
X144550000Y-94475000D03*
X144550000Y-94975000D03*
X144550000Y-95475000D03*
X144550000Y-95975000D03*
X144550000Y-96475000D03*
X144550000Y-96975000D03*
X144550000Y-97475000D03*
X144550000Y-97975000D03*
D14*
X145250000Y-98675000D03*
X145750000Y-98675000D03*
X146250000Y-98675000D03*
X146750000Y-98675000D03*
X147250000Y-98675000D03*
X147750000Y-98675000D03*
X148250000Y-98675000D03*
X148750000Y-98675000D03*
D13*
X149450000Y-97975000D03*
X149450000Y-97475000D03*
X149450000Y-96975000D03*
X149450000Y-96475000D03*
X149450000Y-95975000D03*
X149450000Y-95475000D03*
X149450000Y-94975000D03*
X149450000Y-94475000D03*
D14*
X148750000Y-93775000D03*
X148250000Y-93775000D03*
X147750000Y-93775000D03*
X147250000Y-93775000D03*
X146750000Y-93775000D03*
X146250000Y-93775000D03*
X145750000Y-93775000D03*
X145250000Y-93775000D03*
D15*
X143325002Y-92255000D03*
X143324998Y-92895000D03*
D16*
X144400000Y-99550000D03*
X143760004Y-99550006D03*
D17*
X150700000Y-91625000D03*
X150700000Y-92584998D03*
D16*
X144399998Y-100375004D03*
X143760002Y-100375010D03*
D18*
X150750000Y-95540000D03*
X150750000Y-96510000D03*
D15*
X143200002Y-94805000D03*
X143199998Y-95445000D03*
D19*
X146050000Y-91599998D03*
X147750000Y-91599998D03*
X147750000Y-90299998D03*
X146050000Y-90299998D03*
D18*
X150725000Y-97515000D03*
X150725000Y-98485000D03*
D12*
X143375001Y-97070002D03*
X143374999Y-96429998D03*
D20*
X153030000Y-90825000D03*
X152070000Y-90825000D03*
D21*
X153080002Y-89600002D03*
D18*
X150700000Y-93565000D03*
X150700000Y-94535000D03*
D22*
X142600000Y-98500000D03*
X142600000Y-91100000D03*
D23*
X151300000Y-92100000D03*
X145175000Y-99650000D03*
X148800000Y-89475000D03*
X151325000Y-98025000D03*
X146725000Y-92775000D03*
X149450000Y-100175000D03*
X144100000Y-89475000D03*
X141250000Y-99200000D03*
X146925000Y-94525000D03*
X151125000Y-89800000D03*
X148950000Y-91875000D03*
X151350000Y-96025000D03*
X141175000Y-90750000D03*
X142750000Y-99650000D03*
X151325000Y-94050000D03*
X148125000Y-100175000D03*
X150075000Y-89800000D03*
X146200000Y-94600000D03*
X148475000Y-96975000D03*
X145625000Y-100425000D03*
X147750000Y-94600000D03*
X149600000Y-93875000D03*
X150075000Y-99175000D03*
X145825000Y-97550000D03*
X143650000Y-94400000D03*
X146225000Y-97000000D03*
X141650000Y-95050000D03*
X143600000Y-97750000D03*
X145450000Y-96000000D03*
X141650000Y-94400000D03*
X144825000Y-92425000D03*
X147250000Y-97025000D03*
X143325000Y-95925000D03*
X147225000Y-89475000D03*
X147675000Y-92550000D03*
X149425000Y-93100000D03*
X144325000Y-91250000D03*
X145775000Y-94975000D03*
X148350000Y-92550000D03*
X145990000Y-92409998D03*
X143400000Y-93925000D03*
X141650000Y-92800000D03*
X141675000Y-95550000D03*
D24*
X148250000Y-94550000D02*
X148250000Y-93775000D01*
D25*
X146250000Y-93775000D02*
X146250000Y-93274904D01*
D26*
X149450000Y-97975000D02*
X149450000Y-97475000D01*
D24*
X149450000Y-94975000D02*
X148675000Y-94975000D01*
D26*
X152065000Y-89800000D02*
X151150000Y-89800000D01*
D25*
X146250000Y-93274904D02*
X146674952Y-92849952D01*
D24*
X148675000Y-94975000D02*
X148250000Y-94550000D01*
D26*
X143495000Y-95445000D02*
X143199998Y-95445000D01*
X144025000Y-95975000D02*
X143495000Y-95445000D01*
X144700000Y-95975000D02*
X144025000Y-95975000D01*
X144700000Y-95475000D02*
X146475000Y-95475000D01*
X144400000Y-99550000D02*
X144400000Y-99525000D01*
X144400000Y-99550000D02*
X144400000Y-100375002D01*
X144750000Y-94525000D02*
X145400000Y-94525000D01*
X146475000Y-95475000D02*
X146775000Y-95175000D01*
X149450000Y-93975000D02*
X149575000Y-93850000D01*
X146775000Y-95175000D02*
X146200000Y-94600000D01*
X144700000Y-94475000D02*
X144750000Y-94525000D01*
X144400000Y-99525000D02*
X145250000Y-98675000D01*
X149450000Y-96975000D02*
X148475000Y-96975000D01*
X149450000Y-94475000D02*
X149450000Y-93975000D01*
X146100000Y-94525000D02*
X146175000Y-94600000D01*
X144399998Y-100375004D02*
X145575004Y-100375004D01*
X147750000Y-93775000D02*
X147750000Y-94600000D01*
X145350000Y-94575000D02*
X145400000Y-94525000D01*
X144400000Y-100375002D02*
X144399998Y-100375004D01*
X145575004Y-100375004D02*
X145625000Y-100425000D01*
X145400000Y-94525000D02*
X146100000Y-94525000D01*
D25*
X150135000Y-96565000D02*
X150045000Y-96475000D01*
D26*
X150750000Y-98485000D02*
X150740000Y-98485000D01*
D25*
X150135000Y-97895000D02*
X150135000Y-96565000D01*
X150045000Y-96475000D02*
X149450000Y-96475000D01*
D26*
X150740000Y-98485000D02*
X150075000Y-99150000D01*
D25*
X150725000Y-98485000D02*
X150135000Y-97895000D01*
D26*
X150725000Y-96535000D02*
X150750000Y-96510000D01*
X150725000Y-97515000D02*
X150725000Y-96535000D01*
X150750000Y-96510000D02*
X150215000Y-95975000D01*
X150215000Y-95975000D02*
X149450000Y-95975000D01*
X150750000Y-94585000D02*
X150700000Y-94535000D01*
X150750000Y-95540000D02*
X150750000Y-94585000D01*
X150685000Y-95475000D02*
X150750000Y-95540000D01*
X149450000Y-95475000D02*
X150685000Y-95475000D01*
X143420001Y-96475000D02*
X143374999Y-96429998D01*
X144550000Y-96475000D02*
X143420001Y-96475000D01*
X144550000Y-97975000D02*
X144550000Y-98325000D01*
X144700000Y-97975000D02*
X144254998Y-97975000D01*
X143760004Y-99114996D02*
X143760004Y-99550006D01*
X144550000Y-98325000D02*
X143760004Y-99114996D01*
X145825000Y-97550000D02*
X145750000Y-97475000D01*
X145750000Y-97475000D02*
X144550000Y-97475000D01*
X150700000Y-93565000D02*
X150700000Y-92584998D01*
X151400000Y-90925000D02*
X151970000Y-90925000D01*
X150700000Y-91625000D02*
X151400000Y-90925000D01*
X151970000Y-90925000D02*
X152070000Y-90825000D01*
D24*
X143245000Y-94805000D02*
X143650000Y-94400000D01*
X143200002Y-94805000D02*
X143245000Y-94805000D01*
D26*
X143375001Y-97500001D02*
X143600000Y-97725000D01*
X143375001Y-97070002D02*
X143375001Y-97500001D01*
D27*
X146900000Y-89775000D02*
X147225000Y-89450000D01*
X145750000Y-93775000D02*
X145750000Y-93200000D01*
X146900000Y-92250000D02*
X146900000Y-89775000D01*
X146700000Y-92450000D02*
X146900000Y-92250000D01*
X146500000Y-92450000D02*
X146700000Y-92450000D01*
X147225000Y-89450000D02*
X147750000Y-89975000D01*
X147750000Y-89975000D02*
X147750000Y-90299998D01*
X145750000Y-93200000D02*
X146500000Y-92450000D01*
D25*
X147272452Y-92705000D02*
X147675000Y-92705000D01*
X146750000Y-93227452D02*
X147272452Y-92705000D01*
X147675000Y-92705000D02*
X147675000Y-92500000D01*
X146750000Y-93775000D02*
X146750000Y-93227452D01*
D26*
X148750000Y-93775000D02*
X149450000Y-93075000D01*
X144550000Y-94975000D02*
X145775000Y-94975000D01*
D25*
X147405000Y-93025000D02*
X148000000Y-93025000D01*
X147250000Y-93180000D02*
X147405000Y-93025000D01*
X148350000Y-92675000D02*
X148350000Y-92525000D01*
X147250000Y-93775000D02*
X147250000Y-93180000D01*
X148000000Y-93025000D02*
X148350000Y-92675000D01*
D27*
X145250000Y-93775000D02*
X145250000Y-93275000D01*
X145250000Y-93275000D02*
X146050000Y-92475000D01*
X146050000Y-92475000D02*
X146050000Y-91599998D01*
D26*
X143400000Y-92970002D02*
X143324998Y-92895000D01*
X143400000Y-93925000D02*
X143400000Y-92970002D01*
D24*
X141630000Y-92820000D02*
X141650000Y-92800000D01*
X141050002Y-92820000D02*
X141630000Y-92820000D01*
G04 #@! TA.AperFunction,Conductor*
G36*
X151401325Y-88824676D02*
G01*
X151468312Y-88844536D01*
X151513929Y-88897460D01*
X151525000Y-88948676D01*
X151525000Y-90500500D01*
X151505315Y-90567539D01*
X151452511Y-90613294D01*
X151401000Y-90624500D01*
X151360438Y-90624500D01*
X151322224Y-90634739D01*
X151284009Y-90644979D01*
X151284004Y-90644982D01*
X151215495Y-90684535D01*
X151215487Y-90684541D01*
X150791846Y-91108181D01*
X150730523Y-91141666D01*
X150704166Y-91144500D01*
X150490105Y-91144500D01*
X150474386Y-91146569D01*
X150440513Y-91151028D01*
X150440511Y-91151029D01*
X150440509Y-91151029D01*
X150331683Y-91201776D01*
X150246776Y-91286683D01*
X150196027Y-91395514D01*
X150189500Y-91445097D01*
X150189500Y-91804894D01*
X150189501Y-91804900D01*
X150196028Y-91854487D01*
X150196029Y-91854489D01*
X150196029Y-91854490D01*
X150246776Y-91963316D01*
X150300778Y-92017318D01*
X150334263Y-92078641D01*
X150329279Y-92148333D01*
X150300778Y-92192680D01*
X150246776Y-92246681D01*
X150196027Y-92355512D01*
X150189500Y-92405095D01*
X150189500Y-92764892D01*
X150189501Y-92764898D01*
X150196028Y-92814485D01*
X150196029Y-92814487D01*
X150196029Y-92814488D01*
X150246776Y-92923314D01*
X150300476Y-92977014D01*
X150333961Y-93038337D01*
X150328977Y-93108029D01*
X150300476Y-93152376D01*
X150240365Y-93212486D01*
X150189355Y-93316828D01*
X150186539Y-93336156D01*
X150179500Y-93384472D01*
X150179500Y-93384477D01*
X150179500Y-93613659D01*
X150159815Y-93680698D01*
X150107011Y-93726453D01*
X150037853Y-93736397D01*
X149974297Y-93707372D01*
X149945016Y-93669955D01*
X149939374Y-93658882D01*
X149928050Y-93636658D01*
X149928047Y-93636655D01*
X149928045Y-93636652D01*
X149838347Y-93546954D01*
X149838344Y-93546952D01*
X149838342Y-93546950D01*
X149794838Y-93524783D01*
X149744044Y-93476810D01*
X149727249Y-93408989D01*
X149749787Y-93342854D01*
X149750818Y-93341413D01*
X149753043Y-93338348D01*
X149753050Y-93338342D01*
X149810646Y-93225304D01*
X149810646Y-93225302D01*
X149810647Y-93225301D01*
X149810647Y-93225300D01*
X149830492Y-93100003D01*
X149830492Y-93099996D01*
X149810647Y-92974699D01*
X149810647Y-92974698D01*
X149809194Y-92971847D01*
X149753050Y-92861658D01*
X149753046Y-92861654D01*
X149753045Y-92861652D01*
X149663347Y-92771954D01*
X149663344Y-92771952D01*
X149663342Y-92771950D01*
X149550304Y-92714354D01*
X149550303Y-92714353D01*
X149550300Y-92714352D01*
X149425003Y-92694508D01*
X149424997Y-92694508D01*
X149299699Y-92714352D01*
X149299698Y-92714352D01*
X149224337Y-92752751D01*
X149186658Y-92771950D01*
X149186657Y-92771951D01*
X149186652Y-92771954D01*
X149096954Y-92861652D01*
X149096951Y-92861657D01*
X149096950Y-92861658D01*
X149065535Y-92923314D01*
X149039353Y-92974698D01*
X149033611Y-93010948D01*
X149003680Y-93074082D01*
X148944368Y-93111012D01*
X148874505Y-93110012D01*
X148816273Y-93071401D01*
X148811871Y-93065858D01*
X148757188Y-92992811D01*
X148707566Y-92955664D01*
X148665695Y-92899730D01*
X148660711Y-92830038D01*
X148675149Y-92797816D01*
X148673619Y-92797037D01*
X148678048Y-92788343D01*
X148678050Y-92788342D01*
X148735646Y-92675304D01*
X148735646Y-92675302D01*
X148735647Y-92675301D01*
X148735647Y-92675300D01*
X148755492Y-92550003D01*
X148755492Y-92549996D01*
X148743122Y-92471894D01*
X148752077Y-92402601D01*
X148766329Y-92378185D01*
X148793351Y-92342088D01*
X148843597Y-92207374D01*
X148843598Y-92207370D01*
X148849999Y-92147842D01*
X148850000Y-92147825D01*
X148850000Y-91849998D01*
X147874000Y-91849998D01*
X147806961Y-91830313D01*
X147761206Y-91777509D01*
X147750000Y-91725998D01*
X147750000Y-91473998D01*
X147769685Y-91406959D01*
X147822489Y-91361204D01*
X147874000Y-91349998D01*
X148850000Y-91349998D01*
X148850000Y-91052170D01*
X148849999Y-91052153D01*
X148843598Y-90992625D01*
X148843596Y-90992618D01*
X148793354Y-90857911D01*
X148793350Y-90857904D01*
X148707190Y-90742810D01*
X148600188Y-90662707D01*
X148558318Y-90606773D01*
X148550500Y-90563441D01*
X148550500Y-89780247D01*
X148550499Y-89780245D01*
X148538868Y-89721768D01*
X148538867Y-89721767D01*
X148494552Y-89655445D01*
X148428230Y-89611130D01*
X148428229Y-89611129D01*
X148369752Y-89599498D01*
X148369748Y-89599498D01*
X147780121Y-89599498D01*
X147713082Y-89579813D01*
X147692440Y-89563179D01*
X147663918Y-89534657D01*
X147630433Y-89473334D01*
X147629126Y-89466373D01*
X147610647Y-89349699D01*
X147610647Y-89349698D01*
X147610646Y-89349696D01*
X147553050Y-89236658D01*
X147553046Y-89236654D01*
X147553045Y-89236652D01*
X147463347Y-89146954D01*
X147463344Y-89146952D01*
X147463342Y-89146950D01*
X147350304Y-89089354D01*
X147350303Y-89089353D01*
X147350300Y-89089352D01*
X147225003Y-89069508D01*
X147224997Y-89069508D01*
X147099699Y-89089352D01*
X147099698Y-89089352D01*
X147024337Y-89127751D01*
X146986658Y-89146950D01*
X146986657Y-89146951D01*
X146986652Y-89146954D01*
X146896950Y-89236656D01*
X146894447Y-89241569D01*
X146846470Y-89292362D01*
X146778648Y-89309154D01*
X146763477Y-89307055D01*
X146697844Y-89299998D01*
X146300000Y-89299998D01*
X146300000Y-90175998D01*
X146280315Y-90243037D01*
X146227511Y-90288792D01*
X146176000Y-90299998D01*
X146050000Y-90299998D01*
X146050000Y-90425998D01*
X146030315Y-90493037D01*
X145977511Y-90538792D01*
X145926000Y-90549998D01*
X144950000Y-90549998D01*
X144950000Y-90847842D01*
X144956401Y-90907370D01*
X144956403Y-90907377D01*
X145006645Y-91042084D01*
X145006649Y-91042091D01*
X145092809Y-91157185D01*
X145092812Y-91157188D01*
X145199811Y-91237288D01*
X145241682Y-91293221D01*
X145249500Y-91336554D01*
X145249500Y-91989453D01*
X145229815Y-92056492D01*
X145177011Y-92102247D01*
X145107853Y-92112191D01*
X145069205Y-92099938D01*
X145063343Y-92096951D01*
X145063342Y-92096950D01*
X144950304Y-92039354D01*
X144950303Y-92039353D01*
X144950300Y-92039352D01*
X144825003Y-92019508D01*
X144824997Y-92019508D01*
X144699699Y-92039352D01*
X144699698Y-92039352D01*
X144633087Y-92073293D01*
X144586658Y-92096950D01*
X144586657Y-92096951D01*
X144586652Y-92096954D01*
X144496954Y-92186652D01*
X144496951Y-92186657D01*
X144496950Y-92186658D01*
X144486397Y-92207370D01*
X144439352Y-92299698D01*
X144439352Y-92299699D01*
X144419508Y-92424996D01*
X144419508Y-92425003D01*
X144439352Y-92550300D01*
X144439352Y-92550301D01*
X144445139Y-92561658D01*
X144496950Y-92663342D01*
X144496952Y-92663344D01*
X144496954Y-92663347D01*
X144586652Y-92753045D01*
X144586654Y-92753046D01*
X144586658Y-92753050D01*
X144699696Y-92810646D01*
X144699697Y-92810646D01*
X144699699Y-92810647D01*
X144824997Y-92830492D01*
X144825000Y-92830492D01*
X144825003Y-92830492D01*
X144950300Y-92810647D01*
X144950301Y-92810647D01*
X144950302Y-92810646D01*
X144950304Y-92810646D01*
X145063342Y-92753050D01*
X145153050Y-92663342D01*
X145210646Y-92550304D01*
X145210646Y-92550302D01*
X145210647Y-92550301D01*
X145210647Y-92550300D01*
X145230492Y-92425003D01*
X145230492Y-92415241D01*
X145233523Y-92415241D01*
X145240411Y-92361871D01*
X145285398Y-92308411D01*
X145352146Y-92287760D01*
X145378126Y-92290129D01*
X145415010Y-92297466D01*
X145430251Y-92300498D01*
X145430252Y-92300498D01*
X145461259Y-92300498D01*
X145528298Y-92320183D01*
X145574053Y-92372987D01*
X145583733Y-92405102D01*
X145584508Y-92409996D01*
X145584508Y-92409998D01*
X145586884Y-92425000D01*
X145598720Y-92499734D01*
X145589764Y-92569027D01*
X145563927Y-92606811D01*
X145090661Y-93080076D01*
X145090662Y-93080077D01*
X145037636Y-93133103D01*
X145030851Y-93143258D01*
X145027238Y-93140844D01*
X144998121Y-93176913D01*
X144996379Y-93178098D01*
X144955447Y-93205447D01*
X144911132Y-93271769D01*
X144911131Y-93271770D01*
X144899500Y-93330247D01*
X144899500Y-94000500D01*
X144879815Y-94067539D01*
X144827011Y-94113294D01*
X144775500Y-94124500D01*
X144105249Y-94124500D01*
X144034791Y-94138515D01*
X144033986Y-94134471D01*
X143987178Y-94139493D01*
X143924706Y-94108203D01*
X143921542Y-94105149D01*
X143888343Y-94071950D01*
X143870414Y-94062815D01*
X143819617Y-94014841D01*
X143802822Y-93947020D01*
X143804234Y-93932938D01*
X143805492Y-93925000D01*
X143805492Y-93924997D01*
X143805492Y-93924996D01*
X143785647Y-93799699D01*
X143785647Y-93799698D01*
X143778772Y-93786206D01*
X143728050Y-93686658D01*
X143728047Y-93686655D01*
X143728046Y-93686653D01*
X143724179Y-93681329D01*
X143700702Y-93615522D01*
X143700500Y-93608448D01*
X143700500Y-93171161D01*
X143711065Y-93121075D01*
X143722583Y-93094991D01*
X143725498Y-93069865D01*
X143725497Y-92971853D01*
X143745181Y-92904817D01*
X143774011Y-92873479D01*
X143852925Y-92812926D01*
X143949102Y-92687586D01*
X144009556Y-92541634D01*
X144009557Y-92541630D01*
X144020963Y-92455000D01*
X142629043Y-92455000D01*
X142629041Y-92455001D01*
X142640444Y-92541627D01*
X142640446Y-92541633D01*
X142700901Y-92687585D01*
X142797078Y-92812926D01*
X142875984Y-92873472D01*
X142917187Y-92929900D01*
X142924498Y-92971847D01*
X142924498Y-93069856D01*
X142924500Y-93069881D01*
X142927412Y-93094988D01*
X142927413Y-93094991D01*
X142972791Y-93197764D01*
X143060358Y-93285331D01*
X143057919Y-93287769D01*
X143089751Y-93326749D01*
X143099500Y-93374945D01*
X143099500Y-93608448D01*
X143079815Y-93675487D01*
X143075821Y-93681329D01*
X143071953Y-93686653D01*
X143014352Y-93799698D01*
X143014352Y-93799699D01*
X142994508Y-93924996D01*
X142994508Y-93925003D01*
X143014352Y-94050300D01*
X143014352Y-94050301D01*
X143025383Y-94071950D01*
X143071950Y-94163342D01*
X143071952Y-94163344D01*
X143071954Y-94163347D01*
X143080069Y-94171462D01*
X143113554Y-94232785D01*
X143108570Y-94302477D01*
X143066698Y-94358410D01*
X143038002Y-94372421D01*
X143038544Y-94373647D01*
X142927237Y-94422793D01*
X142847796Y-94502234D01*
X142802417Y-94605006D01*
X142802417Y-94605008D01*
X142799502Y-94630131D01*
X142799502Y-94979856D01*
X142799504Y-94979882D01*
X142802415Y-95004986D01*
X142802416Y-95004990D01*
X142802417Y-95004991D01*
X142830112Y-95067715D01*
X142833289Y-95074909D01*
X142842360Y-95144188D01*
X142833289Y-95175081D01*
X142802413Y-95245009D01*
X142799498Y-95270131D01*
X142799498Y-95619856D01*
X142799500Y-95619882D01*
X142802411Y-95644987D01*
X142802413Y-95644991D01*
X142847791Y-95747764D01*
X142889259Y-95789232D01*
X142922744Y-95850555D01*
X142924052Y-95896309D01*
X142920475Y-95918898D01*
X142919508Y-95925002D01*
X142919508Y-95925003D01*
X142939352Y-96050300D01*
X142939352Y-96050301D01*
X142975508Y-96121260D01*
X142988404Y-96189930D01*
X142978461Y-96227633D01*
X142977415Y-96230000D01*
X142977414Y-96230006D01*
X142974499Y-96255129D01*
X142974499Y-96604854D01*
X142974501Y-96604880D01*
X142977412Y-96629984D01*
X142977413Y-96629988D01*
X142977414Y-96629989D01*
X143004144Y-96690528D01*
X143008290Y-96699916D01*
X143017361Y-96769195D01*
X143008290Y-96800087D01*
X142992122Y-96836706D01*
X142977416Y-96870011D01*
X142974501Y-96895133D01*
X142974501Y-97244858D01*
X142974503Y-97244884D01*
X142977414Y-97269988D01*
X142977415Y-97269992D01*
X142977416Y-97269993D01*
X142995485Y-97310916D01*
X143004556Y-97380192D01*
X142974732Y-97443377D01*
X142915483Y-97480408D01*
X142882050Y-97485000D01*
X142850000Y-97485000D01*
X142850000Y-98250000D01*
X142350000Y-98250000D01*
X142350000Y-97485000D01*
X142200012Y-97485000D01*
X142190800Y-97485083D01*
X142190368Y-97485091D01*
X142180216Y-97485378D01*
X142154263Y-97486377D01*
X142144665Y-97486837D01*
X142144223Y-97486862D01*
X142134541Y-97487513D01*
X142108462Y-97489518D01*
X142098196Y-97490415D01*
X142097778Y-97490455D01*
X142089017Y-97491388D01*
X142062956Y-97494395D01*
X142044156Y-97496924D01*
X142043405Y-97497040D01*
X142024747Y-97500265D01*
X141998790Y-97505258D01*
X141987804Y-97507495D01*
X141987465Y-97507568D01*
X141975797Y-97510224D01*
X141950817Y-97516218D01*
X141943644Y-97517996D01*
X141943210Y-97518107D01*
X141937193Y-97519686D01*
X141911118Y-97526706D01*
X141887760Y-97533603D01*
X141886870Y-97533889D01*
X141864168Y-97541791D01*
X141840161Y-97550795D01*
X141832349Y-97553798D01*
X141831952Y-97553954D01*
X141822926Y-97557613D01*
X141798991Y-97567586D01*
X141791246Y-97570889D01*
X141790863Y-97571055D01*
X141782431Y-97574826D01*
X141758440Y-97585822D01*
X141739176Y-97595150D01*
X141738425Y-97595533D01*
X141719574Y-97605668D01*
X141696578Y-97618666D01*
X141685150Y-97625325D01*
X141684632Y-97625635D01*
X141673487Y-97632526D01*
X141629518Y-97660507D01*
X141611328Y-97672644D01*
X141610605Y-97673148D01*
X141593897Y-97685346D01*
X141572879Y-97701359D01*
X141562211Y-97709716D01*
X141561775Y-97710067D01*
X141551472Y-97718593D01*
X141531443Y-97735617D01*
X141521712Y-97744106D01*
X141521268Y-97744503D01*
X141510843Y-97754105D01*
X141491806Y-97772139D01*
X141482001Y-97781683D01*
X141481683Y-97782001D01*
X141472139Y-97791806D01*
X141454105Y-97810843D01*
X141444503Y-97821268D01*
X141444106Y-97821712D01*
X141435617Y-97831443D01*
X141418593Y-97851472D01*
X141410067Y-97861775D01*
X141409716Y-97862211D01*
X141401359Y-97872879D01*
X141385346Y-97893897D01*
X141373148Y-97910605D01*
X141372644Y-97911328D01*
X141360507Y-97929518D01*
X141332526Y-97973487D01*
X141325635Y-97984632D01*
X141325325Y-97985150D01*
X141318666Y-97996578D01*
X141305668Y-98019574D01*
X141295533Y-98038425D01*
X141295150Y-98039176D01*
X141285822Y-98058440D01*
X141274826Y-98082431D01*
X141271055Y-98090863D01*
X141270889Y-98091246D01*
X141267586Y-98098991D01*
X141257613Y-98122926D01*
X141253954Y-98131952D01*
X141253798Y-98132349D01*
X141250795Y-98140161D01*
X141241791Y-98164168D01*
X141233889Y-98186870D01*
X141233603Y-98187760D01*
X141226706Y-98211118D01*
X141219686Y-98237193D01*
X141218093Y-98243264D01*
X141217990Y-98243668D01*
X141216421Y-98249999D01*
X141216422Y-98250000D01*
X142150272Y-98250000D01*
X142058386Y-98288060D01*
X141988060Y-98358386D01*
X141950000Y-98450272D01*
X141950000Y-98549728D01*
X141988060Y-98641614D01*
X142058386Y-98711940D01*
X142150272Y-98750000D01*
X141216422Y-98750000D01*
X141217981Y-98756294D01*
X141218093Y-98756735D01*
X141219686Y-98762806D01*
X141226706Y-98788881D01*
X141233603Y-98812239D01*
X141233889Y-98813129D01*
X141241791Y-98835831D01*
X141250795Y-98859838D01*
X141253798Y-98867650D01*
X141253954Y-98868047D01*
X141257613Y-98877073D01*
X141267586Y-98901008D01*
X141270889Y-98908753D01*
X141271055Y-98909136D01*
X141274826Y-98917568D01*
X141285822Y-98941559D01*
X141295150Y-98960823D01*
X141295533Y-98961574D01*
X141305668Y-98980425D01*
X141318666Y-99003421D01*
X141325325Y-99014849D01*
X141325635Y-99015367D01*
X141332526Y-99026512D01*
X141360507Y-99070481D01*
X141372644Y-99088671D01*
X141373148Y-99089394D01*
X141385346Y-99106102D01*
X141401359Y-99127120D01*
X141409716Y-99137788D01*
X141410067Y-99138224D01*
X141418593Y-99148527D01*
X141435617Y-99168556D01*
X141444106Y-99178287D01*
X141444503Y-99178731D01*
X141454105Y-99189156D01*
X141472139Y-99208193D01*
X141481683Y-99217998D01*
X141482001Y-99218316D01*
X141491806Y-99227860D01*
X141510843Y-99245894D01*
X141521268Y-99255496D01*
X141521712Y-99255893D01*
X141531443Y-99264382D01*
X141551472Y-99281406D01*
X141561775Y-99289932D01*
X141562211Y-99290283D01*
X141572879Y-99298640D01*
X141593897Y-99314653D01*
X141610605Y-99326851D01*
X141611328Y-99327355D01*
X141629518Y-99339492D01*
X141673487Y-99367473D01*
X141684632Y-99374364D01*
X141685150Y-99374674D01*
X141696578Y-99381333D01*
X141719574Y-99394331D01*
X141738425Y-99404466D01*
X141739176Y-99404849D01*
X141758440Y-99414177D01*
X141782431Y-99425173D01*
X141790863Y-99428944D01*
X141791246Y-99429110D01*
X141798991Y-99432413D01*
X141822926Y-99442386D01*
X141831952Y-99446045D01*
X141832349Y-99446201D01*
X141840161Y-99449204D01*
X141864168Y-99458208D01*
X141886870Y-99466110D01*
X141887760Y-99466396D01*
X141911118Y-99473293D01*
X141937193Y-99480313D01*
X141943210Y-99481892D01*
X141943644Y-99482003D01*
X141950817Y-99483781D01*
X141975797Y-99489775D01*
X141987465Y-99492431D01*
X141987804Y-99492504D01*
X141998790Y-99494741D01*
X142024747Y-99499734D01*
X142043405Y-99502959D01*
X142044156Y-99503075D01*
X142062956Y-99505604D01*
X142089017Y-99508611D01*
X142097778Y-99509544D01*
X142098196Y-99509584D01*
X142108462Y-99510481D01*
X142134541Y-99512486D01*
X142144223Y-99513137D01*
X142144665Y-99513162D01*
X142154263Y-99513622D01*
X142180216Y-99514621D01*
X142190368Y-99514908D01*
X142190800Y-99514916D01*
X142200012Y-99515000D01*
X142350000Y-99515000D01*
X142350000Y-98750000D01*
X142850000Y-98750000D01*
X142850000Y-99515000D01*
X142999988Y-99515000D01*
X143009199Y-99514916D01*
X143009631Y-99514908D01*
X143019783Y-99514621D01*
X143045736Y-99513622D01*
X143055334Y-99513162D01*
X143055776Y-99513137D01*
X143065458Y-99512486D01*
X143091537Y-99510481D01*
X143101803Y-99509584D01*
X143102221Y-99509544D01*
X143110982Y-99508611D01*
X143137043Y-99505604D01*
X143155843Y-99503075D01*
X143156594Y-99502959D01*
X143175252Y-99499734D01*
X143182079Y-99498421D01*
X143251630Y-99505086D01*
X143306536Y-99548296D01*
X143329366Y-99614331D01*
X143329504Y-99620188D01*
X143329504Y-99688156D01*
X143309819Y-99755195D01*
X143280991Y-99786531D01*
X143202079Y-99847082D01*
X143105901Y-99972423D01*
X143045446Y-100118378D01*
X143037989Y-100175010D01*
X143636002Y-100175010D01*
X143703041Y-100194695D01*
X143748796Y-100247499D01*
X143760002Y-100299010D01*
X143760002Y-100451010D01*
X143740317Y-100518049D01*
X143687513Y-100563804D01*
X143636002Y-100575010D01*
X143037992Y-100575010D01*
X143037990Y-100575011D01*
X143045863Y-100634817D01*
X143035096Y-100703852D01*
X142988716Y-100756107D01*
X142922924Y-100775000D01*
X142099000Y-100775000D01*
X142031961Y-100755315D01*
X141986206Y-100702511D01*
X141975000Y-100651000D01*
X141975000Y-99850000D01*
X140573692Y-99850000D01*
X140506653Y-99830315D01*
X140460898Y-99777511D01*
X140449692Y-99726309D01*
X140444668Y-97711748D01*
X140436409Y-94399996D01*
X141244508Y-94399996D01*
X141244508Y-94400003D01*
X141264352Y-94525300D01*
X141264352Y-94525301D01*
X141282805Y-94561517D01*
X141321950Y-94638342D01*
X141321953Y-94638345D01*
X141327689Y-94646241D01*
X141326334Y-94647224D01*
X141354411Y-94698642D01*
X141349427Y-94768334D01*
X141326987Y-94803249D01*
X141327689Y-94803759D01*
X141321951Y-94811657D01*
X141321950Y-94811658D01*
X141315152Y-94825000D01*
X141264352Y-94924698D01*
X141264352Y-94924699D01*
X141244508Y-95049996D01*
X141244508Y-95050003D01*
X141264352Y-95175300D01*
X141264352Y-95175301D01*
X141311706Y-95268237D01*
X141324602Y-95336906D01*
X141311707Y-95380825D01*
X141289353Y-95424698D01*
X141289352Y-95424699D01*
X141269508Y-95549997D01*
X141269508Y-95550003D01*
X141289352Y-95675300D01*
X141289352Y-95675301D01*
X141307805Y-95711517D01*
X141346950Y-95788342D01*
X141346952Y-95788344D01*
X141346954Y-95788347D01*
X141436652Y-95878045D01*
X141436654Y-95878046D01*
X141436658Y-95878050D01*
X141549696Y-95935646D01*
X141549697Y-95935646D01*
X141549699Y-95935647D01*
X141674997Y-95955492D01*
X141675000Y-95955492D01*
X141675003Y-95955492D01*
X141800300Y-95935647D01*
X141800301Y-95935647D01*
X141800302Y-95935646D01*
X141800304Y-95935646D01*
X141913342Y-95878050D01*
X142003050Y-95788342D01*
X142060646Y-95675304D01*
X142060646Y-95675302D01*
X142060647Y-95675301D01*
X142060647Y-95675300D01*
X142080492Y-95550003D01*
X142080492Y-95549996D01*
X142060647Y-95424699D01*
X142060647Y-95424698D01*
X142060646Y-95424696D01*
X142013292Y-95331760D01*
X142000397Y-95263093D01*
X142013294Y-95219171D01*
X142035646Y-95175304D01*
X142035646Y-95175302D01*
X142035647Y-95175300D01*
X142055492Y-95050003D01*
X142055492Y-95049996D01*
X142035647Y-94924699D01*
X142035647Y-94924698D01*
X142022038Y-94897989D01*
X141978050Y-94811658D01*
X141978045Y-94811653D01*
X141972311Y-94803759D01*
X141973665Y-94802774D01*
X141945590Y-94751368D01*
X141950569Y-94681676D01*
X141973013Y-94646751D01*
X141972311Y-94646241D01*
X141978042Y-94638349D01*
X141978050Y-94638342D01*
X142035646Y-94525304D01*
X142035646Y-94525302D01*
X142035647Y-94525301D01*
X142035647Y-94525300D01*
X142055492Y-94400003D01*
X142055492Y-94399996D01*
X142035647Y-94274699D01*
X142035647Y-94274698D01*
X142026025Y-94255814D01*
X141978050Y-94161658D01*
X141978046Y-94161654D01*
X141978045Y-94161652D01*
X141888347Y-94071954D01*
X141888344Y-94071952D01*
X141888342Y-94071950D01*
X141775304Y-94014354D01*
X141775303Y-94014353D01*
X141775300Y-94014352D01*
X141650003Y-93994508D01*
X141649997Y-93994508D01*
X141524699Y-94014352D01*
X141524698Y-94014352D01*
X141454737Y-94050000D01*
X141411658Y-94071950D01*
X141411657Y-94071951D01*
X141411652Y-94071954D01*
X141321954Y-94161652D01*
X141321951Y-94161657D01*
X141321950Y-94161658D01*
X141316955Y-94171462D01*
X141264352Y-94274698D01*
X141264352Y-94274699D01*
X141244508Y-94399996D01*
X140436409Y-94399996D01*
X140433196Y-93111630D01*
X140452713Y-93044546D01*
X140505402Y-92998659D01*
X140574536Y-92988544D01*
X140638164Y-93017410D01*
X140670629Y-93061238D01*
X140687744Y-93100000D01*
X140697796Y-93122765D01*
X140777237Y-93202206D01*
X140880011Y-93247585D01*
X140905137Y-93250500D01*
X141194866Y-93250499D01*
X141194881Y-93250497D01*
X141194884Y-93250497D01*
X141219989Y-93247586D01*
X141219990Y-93247585D01*
X141219993Y-93247585D01*
X141322767Y-93202206D01*
X141338192Y-93186780D01*
X141399512Y-93153295D01*
X141469204Y-93158278D01*
X141482164Y-93163975D01*
X141507557Y-93176913D01*
X141524696Y-93185646D01*
X141524699Y-93185647D01*
X141649997Y-93205492D01*
X141650000Y-93205492D01*
X141650003Y-93205492D01*
X141775300Y-93185647D01*
X141775301Y-93185647D01*
X141775302Y-93185646D01*
X141775304Y-93185646D01*
X141888342Y-93128050D01*
X141978050Y-93038342D01*
X142035646Y-92925304D01*
X142035646Y-92925302D01*
X142035647Y-92925301D01*
X142035647Y-92925300D01*
X142055492Y-92800003D01*
X142055492Y-92799996D01*
X142035647Y-92674699D01*
X142035647Y-92674698D01*
X142029861Y-92663342D01*
X141978050Y-92561658D01*
X141978046Y-92561654D01*
X141978045Y-92561652D01*
X141888347Y-92471954D01*
X141888344Y-92471952D01*
X141888342Y-92471950D01*
X141797942Y-92425888D01*
X141761011Y-92397164D01*
X141745959Y-92380000D01*
X141173998Y-92380000D01*
X141106959Y-92360315D01*
X141061204Y-92307511D01*
X141049998Y-92256000D01*
X141049998Y-92180000D01*
X140973998Y-92180000D01*
X140906959Y-92160315D01*
X140861204Y-92107511D01*
X140849998Y-92056000D01*
X140849998Y-91457987D01*
X140793366Y-91465444D01*
X140647410Y-91525900D01*
X140628515Y-91540398D01*
X140563345Y-91565589D01*
X140494900Y-91551548D01*
X140444912Y-91502733D01*
X140429033Y-91442332D01*
X140427556Y-90849999D01*
X141216421Y-90849999D01*
X141216422Y-90850000D01*
X142150272Y-90850000D01*
X142058386Y-90888060D01*
X141988060Y-90958386D01*
X141950000Y-91050272D01*
X141950000Y-91149728D01*
X141988060Y-91241614D01*
X142058386Y-91311940D01*
X142150272Y-91350000D01*
X141249998Y-91350000D01*
X141249998Y-91980000D01*
X141756499Y-91980000D01*
X141823538Y-91999685D01*
X141857572Y-92032164D01*
X141879998Y-92063717D01*
X141886852Y-92066103D01*
X141887787Y-92066404D01*
X141911118Y-92073293D01*
X141937193Y-92080313D01*
X141943210Y-92081892D01*
X141943644Y-92082003D01*
X141950817Y-92083781D01*
X141975797Y-92089775D01*
X141987465Y-92092431D01*
X141987804Y-92092504D01*
X141998790Y-92094741D01*
X142024747Y-92099734D01*
X142043405Y-92102959D01*
X142044156Y-92103075D01*
X142062956Y-92105604D01*
X142089017Y-92108611D01*
X142097778Y-92109544D01*
X142098196Y-92109584D01*
X142108462Y-92110481D01*
X142134541Y-92112486D01*
X142144223Y-92113137D01*
X142144665Y-92113162D01*
X142154263Y-92113622D01*
X142180216Y-92114621D01*
X142190368Y-92114908D01*
X142190800Y-92114916D01*
X142200012Y-92115000D01*
X142350000Y-92115000D01*
X142350000Y-91350000D01*
X142850000Y-91350000D01*
X142850000Y-92055000D01*
X144020961Y-92055000D01*
X144020962Y-92054998D01*
X144009559Y-91968372D01*
X144009557Y-91968366D01*
X143949102Y-91822412D01*
X143949100Y-91822410D01*
X143888712Y-91743710D01*
X143863518Y-91678541D01*
X143877557Y-91610096D01*
X143879957Y-91605783D01*
X143881332Y-91603422D01*
X143884354Y-91598075D01*
X143934469Y-91549389D01*
X144002949Y-91535527D01*
X144068054Y-91560888D01*
X144079996Y-91571389D01*
X144086652Y-91578045D01*
X144086654Y-91578046D01*
X144086658Y-91578050D01*
X144199696Y-91635646D01*
X144199697Y-91635646D01*
X144199699Y-91635647D01*
X144324997Y-91655492D01*
X144325000Y-91655492D01*
X144325003Y-91655492D01*
X144450300Y-91635647D01*
X144450301Y-91635647D01*
X144450302Y-91635646D01*
X144450304Y-91635646D01*
X144563342Y-91578050D01*
X144653050Y-91488342D01*
X144710646Y-91375304D01*
X144710646Y-91375302D01*
X144710647Y-91375301D01*
X144710647Y-91375300D01*
X144730492Y-91250003D01*
X144730492Y-91249996D01*
X144710647Y-91124699D01*
X144710647Y-91124698D01*
X144702231Y-91108181D01*
X144653050Y-91011658D01*
X144653046Y-91011654D01*
X144653045Y-91011652D01*
X144563347Y-90921954D01*
X144563344Y-90921952D01*
X144563342Y-90921950D01*
X144450304Y-90864354D01*
X144450303Y-90864353D01*
X144450300Y-90864352D01*
X144325003Y-90844508D01*
X144324997Y-90844508D01*
X144199699Y-90864352D01*
X144199698Y-90864352D01*
X144149479Y-90889941D01*
X144080809Y-90902837D01*
X144016069Y-90876560D01*
X143975812Y-90819454D01*
X143973442Y-90811671D01*
X143973294Y-90811123D01*
X143966396Y-90787760D01*
X143966110Y-90786870D01*
X143958208Y-90764168D01*
X143949204Y-90740161D01*
X143946201Y-90732349D01*
X143946045Y-90731952D01*
X143942386Y-90722926D01*
X143932413Y-90698991D01*
X143929110Y-90691246D01*
X143928944Y-90690863D01*
X143925173Y-90682431D01*
X143914177Y-90658440D01*
X143904849Y-90639176D01*
X143904466Y-90638425D01*
X143894331Y-90619574D01*
X143881333Y-90596578D01*
X143874674Y-90585150D01*
X143874364Y-90584632D01*
X143867473Y-90573487D01*
X143839492Y-90529518D01*
X143827355Y-90511328D01*
X143826851Y-90510605D01*
X143814653Y-90493897D01*
X143798640Y-90472879D01*
X143790283Y-90462211D01*
X143789932Y-90461775D01*
X143781406Y-90451472D01*
X143764382Y-90431443D01*
X143755893Y-90421712D01*
X143755496Y-90421268D01*
X143745894Y-90410843D01*
X143727860Y-90391806D01*
X143718316Y-90382001D01*
X143717998Y-90381683D01*
X143708193Y-90372139D01*
X143689156Y-90354105D01*
X143678731Y-90344503D01*
X143678287Y-90344106D01*
X143668556Y-90335617D01*
X143648527Y-90318593D01*
X143638224Y-90310067D01*
X143637788Y-90309716D01*
X143627120Y-90301359D01*
X143606102Y-90285346D01*
X143589394Y-90273148D01*
X143588671Y-90272644D01*
X143570481Y-90260507D01*
X143526512Y-90232526D01*
X143515367Y-90225635D01*
X143514849Y-90225325D01*
X143503421Y-90218666D01*
X143480425Y-90205668D01*
X143461574Y-90195533D01*
X143460823Y-90195150D01*
X143441559Y-90185822D01*
X143417568Y-90174826D01*
X143409136Y-90171055D01*
X143408753Y-90170889D01*
X143401008Y-90167586D01*
X143377073Y-90157613D01*
X143368047Y-90153954D01*
X143367650Y-90153798D01*
X143359838Y-90150795D01*
X143335831Y-90141791D01*
X143313129Y-90133889D01*
X143312239Y-90133603D01*
X143288881Y-90126706D01*
X143262806Y-90119686D01*
X143256789Y-90118107D01*
X143256355Y-90117996D01*
X143249182Y-90116218D01*
X143224202Y-90110224D01*
X143212534Y-90107568D01*
X143212195Y-90107495D01*
X143201209Y-90105258D01*
X143175252Y-90100265D01*
X143156594Y-90097040D01*
X143155843Y-90096924D01*
X143137043Y-90094395D01*
X143110982Y-90091388D01*
X143102221Y-90090455D01*
X143101803Y-90090415D01*
X143091537Y-90089518D01*
X143065458Y-90087513D01*
X143055776Y-90086862D01*
X143055334Y-90086837D01*
X143045736Y-90086377D01*
X143019783Y-90085378D01*
X143009631Y-90085091D01*
X143009199Y-90085083D01*
X142999988Y-90085000D01*
X142850000Y-90085000D01*
X142850000Y-90850000D01*
X142350000Y-90850000D01*
X142350000Y-90085000D01*
X142200012Y-90085000D01*
X142190800Y-90085083D01*
X142190368Y-90085091D01*
X142180216Y-90085378D01*
X142154263Y-90086377D01*
X142144665Y-90086837D01*
X142144223Y-90086862D01*
X142134541Y-90087513D01*
X142108462Y-90089518D01*
X142098196Y-90090415D01*
X142097778Y-90090455D01*
X142089017Y-90091388D01*
X142062956Y-90094395D01*
X142044156Y-90096924D01*
X142043405Y-90097040D01*
X142024747Y-90100265D01*
X141998790Y-90105258D01*
X141987804Y-90107495D01*
X141987465Y-90107568D01*
X141975797Y-90110224D01*
X141950817Y-90116218D01*
X141943644Y-90117996D01*
X141943210Y-90118107D01*
X141937193Y-90119686D01*
X141911118Y-90126706D01*
X141887760Y-90133603D01*
X141886870Y-90133889D01*
X141864168Y-90141791D01*
X141840161Y-90150795D01*
X141832349Y-90153798D01*
X141831952Y-90153954D01*
X141822926Y-90157613D01*
X141798991Y-90167586D01*
X141791246Y-90170889D01*
X141790863Y-90171055D01*
X141782431Y-90174826D01*
X141758440Y-90185822D01*
X141739176Y-90195150D01*
X141738425Y-90195533D01*
X141719574Y-90205668D01*
X141696578Y-90218666D01*
X141685150Y-90225325D01*
X141684632Y-90225635D01*
X141673487Y-90232526D01*
X141629518Y-90260507D01*
X141611328Y-90272644D01*
X141610605Y-90273148D01*
X141593897Y-90285346D01*
X141572879Y-90301359D01*
X141562211Y-90309716D01*
X141561775Y-90310067D01*
X141551472Y-90318593D01*
X141531443Y-90335617D01*
X141521712Y-90344106D01*
X141521268Y-90344503D01*
X141510843Y-90354105D01*
X141491806Y-90372139D01*
X141482001Y-90381683D01*
X141481683Y-90382001D01*
X141472139Y-90391806D01*
X141454105Y-90410843D01*
X141444503Y-90421268D01*
X141444106Y-90421712D01*
X141435617Y-90431443D01*
X141418593Y-90451472D01*
X141410067Y-90461775D01*
X141409716Y-90462211D01*
X141401359Y-90472879D01*
X141385346Y-90493897D01*
X141373148Y-90510605D01*
X141372644Y-90511328D01*
X141360507Y-90529518D01*
X141332526Y-90573487D01*
X141325635Y-90584632D01*
X141325325Y-90585150D01*
X141318666Y-90596578D01*
X141305668Y-90619574D01*
X141295533Y-90638425D01*
X141295150Y-90639176D01*
X141285822Y-90658440D01*
X141274826Y-90682431D01*
X141271055Y-90690863D01*
X141270889Y-90691246D01*
X141267586Y-90698991D01*
X141257613Y-90722926D01*
X141253954Y-90731952D01*
X141253798Y-90732349D01*
X141250795Y-90740161D01*
X141241791Y-90764168D01*
X141233889Y-90786870D01*
X141233603Y-90787760D01*
X141226706Y-90811118D01*
X141219686Y-90837193D01*
X141218093Y-90843264D01*
X141217990Y-90843668D01*
X141216421Y-90849999D01*
X140427556Y-90849999D01*
X140425310Y-89949309D01*
X140444828Y-89882221D01*
X140497518Y-89836334D01*
X140549310Y-89825000D01*
X141975000Y-89825000D01*
X141975000Y-89752153D01*
X144950000Y-89752153D01*
X144950000Y-90049998D01*
X145800000Y-90049998D01*
X145800000Y-89299998D01*
X145402155Y-89299998D01*
X145342627Y-89306399D01*
X145342620Y-89306401D01*
X145207913Y-89356643D01*
X145207906Y-89356647D01*
X145092812Y-89442807D01*
X145092809Y-89442810D01*
X145006649Y-89557904D01*
X145006645Y-89557911D01*
X144956403Y-89692618D01*
X144956401Y-89692625D01*
X144950000Y-89752153D01*
X141975000Y-89752153D01*
X141975000Y-88924325D01*
X141994685Y-88857286D01*
X142047489Y-88811531D01*
X142099322Y-88800325D01*
X151401325Y-88824676D01*
G37*
G04 #@! TD.AperFunction*
G04 #@! TA.AperFunction,Conductor*
G36*
X148342539Y-93794685D02*
G01*
X148388294Y-93847489D01*
X148399500Y-93899000D01*
X148399500Y-94220747D01*
X148400000Y-94230915D01*
X148400000Y-94568192D01*
X148391189Y-94598196D01*
X148398977Y-94615914D01*
X148400000Y-94631807D01*
X148400000Y-94700000D01*
X148401000Y-94700000D01*
X148468039Y-94719685D01*
X148513794Y-94772489D01*
X148525000Y-94824000D01*
X148525000Y-94825000D01*
X148994084Y-94825000D01*
X149004262Y-94825500D01*
X149326000Y-94825500D01*
X149393039Y-94845185D01*
X149438794Y-94897989D01*
X149450000Y-94949500D01*
X149450000Y-95000500D01*
X149430315Y-95067539D01*
X149377511Y-95113294D01*
X149326000Y-95124500D01*
X149004262Y-95124500D01*
X148994084Y-95125000D01*
X148525000Y-95125000D01*
X148525000Y-95172844D01*
X148531401Y-95232372D01*
X148531403Y-95232379D01*
X148581645Y-95367086D01*
X148581649Y-95367093D01*
X148667809Y-95482187D01*
X148667812Y-95482190D01*
X148775950Y-95563143D01*
X148817821Y-95619077D01*
X148822428Y-95638950D01*
X148823312Y-95638775D01*
X148835651Y-95700810D01*
X148835651Y-95749190D01*
X148824500Y-95805252D01*
X148824500Y-96144747D01*
X148835651Y-96200810D01*
X148835651Y-96249190D01*
X148824500Y-96305252D01*
X148824500Y-96501238D01*
X148804815Y-96568277D01*
X148752011Y-96614032D01*
X148682853Y-96623976D01*
X148644205Y-96611723D01*
X148600300Y-96589352D01*
X148475003Y-96569508D01*
X148474997Y-96569508D01*
X148349699Y-96589352D01*
X148349698Y-96589352D01*
X148281747Y-96623976D01*
X148236658Y-96646950D01*
X148236657Y-96646951D01*
X148236652Y-96646954D01*
X148146954Y-96736652D01*
X148146951Y-96736657D01*
X148146950Y-96736658D01*
X148130190Y-96769552D01*
X148089352Y-96849698D01*
X148089352Y-96849699D01*
X148069508Y-96974996D01*
X148069508Y-96975003D01*
X148089352Y-97100300D01*
X148089352Y-97100301D01*
X148101937Y-97125000D01*
X148146950Y-97213342D01*
X148146952Y-97213344D01*
X148146954Y-97213347D01*
X148236652Y-97303045D01*
X148236654Y-97303046D01*
X148236658Y-97303050D01*
X148349696Y-97360646D01*
X148349697Y-97360646D01*
X148349699Y-97360647D01*
X148477156Y-97380834D01*
X148487410Y-97378527D01*
X148600300Y-97360647D01*
X148600301Y-97360647D01*
X148600302Y-97360646D01*
X148600304Y-97360646D01*
X148643738Y-97338514D01*
X148700033Y-97325000D01*
X148994084Y-97325000D01*
X149004262Y-97325500D01*
X149005252Y-97325500D01*
X149326000Y-97325500D01*
X149393039Y-97345185D01*
X149438794Y-97397989D01*
X149450000Y-97449500D01*
X149450000Y-97501000D01*
X149430315Y-97568039D01*
X149377511Y-97613794D01*
X149326000Y-97625000D01*
X148525000Y-97625000D01*
X148525000Y-97672835D01*
X148529183Y-97711748D01*
X148529183Y-97738252D01*
X148525000Y-97777164D01*
X148525000Y-97825000D01*
X148542332Y-97842332D01*
X148575817Y-97903655D01*
X148570833Y-97973347D01*
X148528961Y-98029280D01*
X148463497Y-98053697D01*
X148430460Y-98051630D01*
X148419752Y-98049500D01*
X148419748Y-98049500D01*
X148080252Y-98049500D01*
X148024190Y-98060651D01*
X147975810Y-98060651D01*
X147919748Y-98049500D01*
X147580252Y-98049500D01*
X147524190Y-98060651D01*
X147475810Y-98060651D01*
X147413775Y-98048312D01*
X147414307Y-98045632D01*
X147360426Y-98023848D01*
X147338143Y-98000950D01*
X147257190Y-97892812D01*
X147257187Y-97892809D01*
X147142093Y-97806649D01*
X147142086Y-97806645D01*
X147007379Y-97756403D01*
X147007372Y-97756401D01*
X146947844Y-97750000D01*
X146900000Y-97750000D01*
X146900000Y-98219084D01*
X146899500Y-98229262D01*
X146899500Y-99120747D01*
X146900000Y-99130915D01*
X146900000Y-99600000D01*
X146947828Y-99600000D01*
X146947844Y-99599999D01*
X147007372Y-99593598D01*
X147007379Y-99593596D01*
X147142086Y-99543354D01*
X147142093Y-99543350D01*
X147257186Y-99457190D01*
X147338142Y-99349049D01*
X147394076Y-99307178D01*
X147413952Y-99302589D01*
X147413773Y-99301689D01*
X147475808Y-99289349D01*
X147524192Y-99289349D01*
X147580249Y-99300500D01*
X147580252Y-99300500D01*
X147919750Y-99300500D01*
X147975808Y-99289349D01*
X148024192Y-99289349D01*
X148080249Y-99300500D01*
X148080252Y-99300500D01*
X148419750Y-99300500D01*
X148475808Y-99289349D01*
X148524192Y-99289349D01*
X148580249Y-99300500D01*
X148580252Y-99300500D01*
X148919750Y-99300500D01*
X148919751Y-99300499D01*
X148945423Y-99295393D01*
X148978229Y-99288868D01*
X148978229Y-99288867D01*
X148978231Y-99288867D01*
X149044552Y-99244552D01*
X149088867Y-99178231D01*
X149088867Y-99178229D01*
X149088868Y-99178229D01*
X149100499Y-99119752D01*
X149100500Y-99119750D01*
X149100500Y-98749000D01*
X149120185Y-98681961D01*
X149172989Y-98636206D01*
X149224500Y-98625000D01*
X149300000Y-98625000D01*
X149300000Y-98125000D01*
X149111428Y-98125000D01*
X149044389Y-98105315D01*
X149042536Y-98104101D01*
X148968076Y-98054347D01*
X148969679Y-98051946D01*
X148929688Y-98019718D01*
X148907625Y-97953423D01*
X148924906Y-97885724D01*
X148976044Y-97838115D01*
X149031546Y-97825000D01*
X149326000Y-97825000D01*
X149393039Y-97844685D01*
X149438794Y-97897489D01*
X149450000Y-97949000D01*
X149450000Y-97975000D01*
X149476000Y-97975000D01*
X149543039Y-97994685D01*
X149588794Y-98047489D01*
X149600000Y-98099000D01*
X149600000Y-98625000D01*
X149760513Y-98625000D01*
X149827552Y-98644685D01*
X149873307Y-98697489D01*
X149883251Y-98766647D01*
X149854226Y-98830203D01*
X149843529Y-98840020D01*
X149843558Y-98840049D01*
X149746954Y-98936652D01*
X149746951Y-98936657D01*
X149689352Y-99049698D01*
X149689352Y-99049699D01*
X149669508Y-99174996D01*
X149669508Y-99175003D01*
X149689352Y-99300300D01*
X149689352Y-99300301D01*
X149702880Y-99326851D01*
X149746950Y-99413342D01*
X149746952Y-99413344D01*
X149746954Y-99413347D01*
X149836652Y-99503045D01*
X149836654Y-99503046D01*
X149836658Y-99503050D01*
X149949696Y-99560646D01*
X149949697Y-99560646D01*
X149949699Y-99560647D01*
X150074997Y-99580492D01*
X150075000Y-99580492D01*
X150075003Y-99580492D01*
X150200300Y-99560647D01*
X150200301Y-99560647D01*
X150200302Y-99560646D01*
X150200304Y-99560646D01*
X150313342Y-99503050D01*
X150403050Y-99413342D01*
X150460646Y-99300304D01*
X150460646Y-99300302D01*
X150460647Y-99300301D01*
X150460647Y-99300300D01*
X150475229Y-99208233D01*
X150505158Y-99145098D01*
X150510001Y-99139968D01*
X150633153Y-99016817D01*
X150694475Y-98983334D01*
X150720833Y-98980500D01*
X150751000Y-98980500D01*
X150818039Y-99000185D01*
X150863794Y-99052989D01*
X150875000Y-99104500D01*
X150875000Y-100651000D01*
X150855315Y-100718039D01*
X150802511Y-100763794D01*
X150751000Y-100775000D01*
X146098507Y-100775000D01*
X146031468Y-100755315D01*
X145985713Y-100702511D01*
X145975769Y-100633353D01*
X145988022Y-100594705D01*
X145998057Y-100575011D01*
X146010646Y-100550304D01*
X146010646Y-100550302D01*
X146010647Y-100550301D01*
X146010647Y-100550300D01*
X146030492Y-100425003D01*
X146030492Y-100424996D01*
X146010647Y-100299699D01*
X146010647Y-100299698D01*
X146010296Y-100299010D01*
X145953050Y-100186658D01*
X145953046Y-100186654D01*
X145953045Y-100186652D01*
X145863347Y-100096954D01*
X145863344Y-100096952D01*
X145863342Y-100096950D01*
X145750304Y-100039354D01*
X145750303Y-100039353D01*
X145750300Y-100039352D01*
X145625003Y-100019508D01*
X145624997Y-100019508D01*
X145499699Y-100039352D01*
X145499698Y-100039352D01*
X145467465Y-100055776D01*
X145457234Y-100060989D01*
X145400941Y-100074504D01*
X144829830Y-100074504D01*
X144762791Y-100054819D01*
X144717036Y-100002015D01*
X144707092Y-99932857D01*
X144736117Y-99869301D01*
X144742148Y-99862824D01*
X144782205Y-99822766D01*
X144782206Y-99822765D01*
X144827585Y-99719991D01*
X144830500Y-99694865D01*
X144830499Y-99570832D01*
X144850183Y-99503793D01*
X144866809Y-99483160D01*
X145013153Y-99336816D01*
X145074474Y-99303334D01*
X145100832Y-99300500D01*
X145419750Y-99300500D01*
X145475808Y-99289349D01*
X145524192Y-99289349D01*
X145580249Y-99300500D01*
X145580252Y-99300500D01*
X145919750Y-99300500D01*
X145975808Y-99289349D01*
X146024192Y-99289349D01*
X146086227Y-99301689D01*
X146085686Y-99304405D01*
X146139416Y-99326027D01*
X146161856Y-99349048D01*
X146242812Y-99457190D01*
X146357906Y-99543350D01*
X146357913Y-99543354D01*
X146492620Y-99593596D01*
X146492627Y-99593598D01*
X146552155Y-99599999D01*
X146552172Y-99600000D01*
X146600000Y-99600000D01*
X146600000Y-99130915D01*
X146600500Y-99120747D01*
X146600500Y-98229262D01*
X146600000Y-98219084D01*
X146600000Y-97750000D01*
X146552155Y-97750000D01*
X146492627Y-97756401D01*
X146492616Y-97756403D01*
X146378328Y-97799030D01*
X146308636Y-97804014D01*
X146247314Y-97770528D01*
X146213829Y-97709205D01*
X146212523Y-97663450D01*
X146212990Y-97660507D01*
X146229866Y-97553954D01*
X146230492Y-97550001D01*
X146230492Y-97549998D01*
X146227428Y-97530653D01*
X146236382Y-97461360D01*
X146281379Y-97407908D01*
X146330504Y-97388781D01*
X146350304Y-97385646D01*
X146463342Y-97328050D01*
X146553050Y-97238342D01*
X146610646Y-97125304D01*
X146613046Y-97110146D01*
X146642975Y-97047013D01*
X146697214Y-97013238D01*
X146775408Y-97013238D01*
X146830381Y-97049686D01*
X146857993Y-97110146D01*
X146864352Y-97150301D01*
X146879713Y-97180448D01*
X146921950Y-97263342D01*
X146921952Y-97263344D01*
X146921954Y-97263347D01*
X147011652Y-97353045D01*
X147011654Y-97353046D01*
X147011658Y-97353050D01*
X147124696Y-97410646D01*
X147124697Y-97410646D01*
X147124699Y-97410647D01*
X147249997Y-97430492D01*
X147250000Y-97430492D01*
X147250003Y-97430492D01*
X147375300Y-97410647D01*
X147375301Y-97410647D01*
X147375302Y-97410646D01*
X147375304Y-97410646D01*
X147488342Y-97353050D01*
X147578050Y-97263342D01*
X147635646Y-97150304D01*
X147635646Y-97150302D01*
X147635647Y-97150301D01*
X147635647Y-97150300D01*
X147655492Y-97025003D01*
X147655492Y-97024996D01*
X147635647Y-96899699D01*
X147635647Y-96899698D01*
X147635646Y-96899696D01*
X147578050Y-96786658D01*
X147578046Y-96786654D01*
X147578045Y-96786652D01*
X147488347Y-96696954D01*
X147488344Y-96696952D01*
X147488342Y-96696950D01*
X147375304Y-96639354D01*
X147375303Y-96639353D01*
X147375300Y-96639352D01*
X147250003Y-96619508D01*
X147249997Y-96619508D01*
X147124699Y-96639352D01*
X147124698Y-96639352D01*
X147060723Y-96671950D01*
X147011658Y-96696950D01*
X147011657Y-96696951D01*
X147011652Y-96696954D01*
X146921954Y-96786652D01*
X146921951Y-96786657D01*
X146921950Y-96786658D01*
X146889829Y-96849699D01*
X146864353Y-96899698D01*
X146861952Y-96914856D01*
X146832021Y-96977990D01*
X146775408Y-97013238D01*
X146697214Y-97013238D01*
X146699588Y-97011760D01*
X146644614Y-96975309D01*
X146617006Y-96914853D01*
X146610646Y-96874696D01*
X146553050Y-96761658D01*
X146553046Y-96761654D01*
X146553045Y-96761652D01*
X146463347Y-96671954D01*
X146463344Y-96671952D01*
X146463342Y-96671950D01*
X146350304Y-96614354D01*
X146350303Y-96614353D01*
X146350300Y-96614352D01*
X146225003Y-96594508D01*
X146224997Y-96594508D01*
X146099699Y-96614352D01*
X146099698Y-96614352D01*
X146035723Y-96646950D01*
X145986658Y-96671950D01*
X145986657Y-96671951D01*
X145986652Y-96671954D01*
X145896954Y-96761652D01*
X145896951Y-96761657D01*
X145896950Y-96761658D01*
X145893110Y-96769195D01*
X145839352Y-96874698D01*
X145839352Y-96874699D01*
X145819508Y-96999996D01*
X145819508Y-97000000D01*
X145822572Y-97019349D01*
X145813615Y-97088643D01*
X145768618Y-97142093D01*
X145719498Y-97161217D01*
X145699696Y-97164353D01*
X145690412Y-97167370D01*
X145689637Y-97164986D01*
X145650013Y-97174500D01*
X145575862Y-97174500D01*
X145508823Y-97154815D01*
X145488181Y-97138181D01*
X145475000Y-97125000D01*
X145005916Y-97125000D01*
X144995738Y-97124500D01*
X144994748Y-97124500D01*
X144674000Y-97124500D01*
X144606961Y-97104815D01*
X144561206Y-97052011D01*
X144550000Y-97000500D01*
X144550000Y-96949500D01*
X144569685Y-96882461D01*
X144622489Y-96836706D01*
X144674000Y-96825500D01*
X144995738Y-96825500D01*
X145005916Y-96825000D01*
X145475000Y-96825000D01*
X145475000Y-96777172D01*
X145474999Y-96777155D01*
X145468598Y-96717627D01*
X145468596Y-96717620D01*
X145418354Y-96582913D01*
X145416007Y-96578615D01*
X145401153Y-96510343D01*
X145425567Y-96444878D01*
X145481499Y-96403004D01*
X145505430Y-96396712D01*
X145575304Y-96385646D01*
X145688342Y-96328050D01*
X145778050Y-96238342D01*
X145835646Y-96125304D01*
X145835646Y-96125302D01*
X145835647Y-96125301D01*
X145835647Y-96125300D01*
X145855492Y-96000003D01*
X145855492Y-95999997D01*
X145842647Y-95918898D01*
X145851602Y-95849604D01*
X145896598Y-95796153D01*
X145963349Y-95775513D01*
X145965120Y-95775500D01*
X146514560Y-95775500D01*
X146514562Y-95775500D01*
X146590989Y-95755021D01*
X146659511Y-95715460D01*
X146715460Y-95659511D01*
X147015460Y-95359511D01*
X147055021Y-95290988D01*
X147075500Y-95214562D01*
X147075500Y-95135438D01*
X147055021Y-95059012D01*
X147015460Y-94990489D01*
X146959511Y-94934540D01*
X146757355Y-94732384D01*
X146723870Y-94671061D01*
X146728854Y-94601369D01*
X146752423Y-94564700D01*
X146751874Y-94564289D01*
X146838142Y-94449049D01*
X146894076Y-94407178D01*
X146913952Y-94402589D01*
X146913773Y-94401689D01*
X146975808Y-94389349D01*
X147024192Y-94389349D01*
X147080249Y-94400500D01*
X147080252Y-94400500D01*
X147230920Y-94400500D01*
X147297959Y-94420185D01*
X147343714Y-94472989D01*
X147353658Y-94542147D01*
X147353393Y-94543897D01*
X147344508Y-94599996D01*
X147344508Y-94600003D01*
X147364352Y-94725300D01*
X147364352Y-94725301D01*
X147364354Y-94725304D01*
X147421950Y-94838342D01*
X147421952Y-94838344D01*
X147421954Y-94838347D01*
X147511652Y-94928045D01*
X147511654Y-94928046D01*
X147511658Y-94928050D01*
X147624696Y-94985646D01*
X147624697Y-94985646D01*
X147624699Y-94985647D01*
X147749997Y-95005492D01*
X147750000Y-95005492D01*
X147750003Y-95005492D01*
X147875300Y-94985647D01*
X147875301Y-94985647D01*
X147875302Y-94985646D01*
X147875304Y-94985646D01*
X147988342Y-94928050D01*
X148078050Y-94838342D01*
X148135646Y-94725304D01*
X148135646Y-94725302D01*
X148135647Y-94725301D01*
X148135647Y-94725300D01*
X148153527Y-94612410D01*
X148157543Y-94603937D01*
X148157023Y-94603127D01*
X148153527Y-94587590D01*
X148135647Y-94474698D01*
X148135646Y-94474695D01*
X148113515Y-94431260D01*
X148100000Y-94374966D01*
X148100000Y-94230915D01*
X148100500Y-94220747D01*
X148100500Y-93899000D01*
X148120185Y-93831961D01*
X148172989Y-93786206D01*
X148224500Y-93775000D01*
X148275500Y-93775000D01*
X148342539Y-93794685D01*
G37*
G04 #@! TD.AperFunction*
G04 #@! TA.AperFunction,Conductor*
G36*
X151444334Y-91408151D02*
G01*
X151500268Y-91450022D01*
X151524684Y-91515487D01*
X151525000Y-91524332D01*
X151525000Y-98482923D01*
X151505315Y-98549962D01*
X151468859Y-98586707D01*
X151437359Y-98607303D01*
X151370476Y-98627515D01*
X151303284Y-98608359D01*
X151257115Y-98555917D01*
X151245500Y-98503519D01*
X151245500Y-98304477D01*
X151245500Y-98304472D01*
X151235645Y-98236830D01*
X151184636Y-98132489D01*
X151184634Y-98132487D01*
X151184634Y-98132486D01*
X151139829Y-98087681D01*
X151106344Y-98026358D01*
X151111328Y-97956666D01*
X151139829Y-97912319D01*
X151184634Y-97867513D01*
X151184636Y-97867511D01*
X151235645Y-97763170D01*
X151245500Y-97695528D01*
X151245500Y-97334472D01*
X151235645Y-97266830D01*
X151184636Y-97162489D01*
X151184634Y-97162487D01*
X151184634Y-97162486D01*
X151134829Y-97112681D01*
X151101344Y-97051358D01*
X151106328Y-96981666D01*
X151134829Y-96937319D01*
X151209634Y-96862513D01*
X151209636Y-96862511D01*
X151260645Y-96758170D01*
X151270500Y-96690528D01*
X151270500Y-96329472D01*
X151260645Y-96261830D01*
X151209636Y-96157489D01*
X151209634Y-96157487D01*
X151209634Y-96157486D01*
X151164829Y-96112681D01*
X151131344Y-96051358D01*
X151136328Y-95981666D01*
X151164829Y-95937319D01*
X151209634Y-95892513D01*
X151209636Y-95892511D01*
X151260645Y-95788170D01*
X151270500Y-95720528D01*
X151270500Y-95359472D01*
X151260645Y-95291830D01*
X151209636Y-95187489D01*
X151209634Y-95187487D01*
X151209634Y-95187486D01*
X151122328Y-95100180D01*
X151088843Y-95038857D01*
X151093827Y-94969165D01*
X151122328Y-94924818D01*
X151159636Y-94887511D01*
X151210645Y-94783170D01*
X151220500Y-94715528D01*
X151220500Y-94354472D01*
X151210645Y-94286830D01*
X151159636Y-94182489D01*
X151159634Y-94182487D01*
X151159634Y-94182486D01*
X151114829Y-94137681D01*
X151081344Y-94076358D01*
X151086328Y-94006666D01*
X151114829Y-93962319D01*
X151159634Y-93917513D01*
X151159636Y-93917511D01*
X151210645Y-93813170D01*
X151220500Y-93745528D01*
X151220500Y-93384472D01*
X151210645Y-93316830D01*
X151159636Y-93212489D01*
X151159634Y-93212487D01*
X151159634Y-93212486D01*
X151099524Y-93152376D01*
X151066039Y-93091053D01*
X151071023Y-93021361D01*
X151099524Y-92977014D01*
X151120874Y-92955664D01*
X151153224Y-92923314D01*
X151203972Y-92814485D01*
X151210500Y-92764899D01*
X151210499Y-92405098D01*
X151203972Y-92355511D01*
X151153224Y-92246682D01*
X151099222Y-92192680D01*
X151065737Y-92131357D01*
X151070721Y-92061665D01*
X151099222Y-92017318D01*
X151116855Y-91999685D01*
X151153224Y-91963316D01*
X151203972Y-91854487D01*
X151210500Y-91804901D01*
X151210499Y-91590832D01*
X151230183Y-91523793D01*
X151246809Y-91503160D01*
X151313321Y-91436648D01*
X151374643Y-91403166D01*
X151444334Y-91408151D01*
G37*
G04 #@! TD.AperFunction*
M02*
