M48
; DRILL file {KiCad 8.0.9-8.0.9-0~ubuntu22.04.1} date 2025-06-17T20:00:49-0600
; FORMAT={-:-/ absolute / metric / decimal}
; #@! TF.CreationDate,2025-06-17T20:00:49-06:00
; #@! TF.GenerationSoftware,Kicad,Pcbnew,8.0.9-8.0.9-0~ubuntu22.04.1
; #@! TF.FileFunction,Plated,1,4,PTH
FMAT,2
METRIC
; #@! TA.AperFunction,Plated,PTH,ViaDrill
T1C0.300
; #@! TA.AperFunction,Plated,PTH,ComponentDrill
T2C0.500
%
G90
G05
T1
X141.175Y-90.75
X141.25Y-99.2
X141.65Y-92.8
X141.65Y-94.4
X141.65Y-95.05
X141.675Y-95.55
X142.75Y-99.65
X143.325Y-95.925
X143.4Y-93.925
X143.6Y-97.75
X143.65Y-94.4
X144.1Y-89.475
X144.325Y-91.25
X144.825Y-92.425
X145.175Y-99.65
X145.45Y-96.0
X145.625Y-100.425
X145.775Y-94.975
X145.825Y-97.55
X145.99Y-92.41
X146.2Y-94.6
X146.225Y-97.0
X146.725Y-92.775
X146.925Y-94.525
X147.225Y-89.475
X147.25Y-97.025
X147.675Y-92.55
X147.75Y-94.6
X148.125Y-100.175
X148.35Y-92.55
X148.475Y-96.975
X148.8Y-89.475
X148.95Y-91.875
X149.425Y-93.1
X149.45Y-100.175
X149.6Y-93.875
X150.075Y-89.8
X150.075Y-99.175
X151.125Y-89.8
X151.3Y-92.1
X151.325Y-94.05
X151.325Y-98.025
X151.35Y-96.025
T2
X142.2Y-91.1G85X143.0Y-91.1
G05
X142.2Y-98.5G85X143.0Y-98.5
G05
M30
