G04 #@! TF.GenerationSoftware,KiCad,Pcbnew,8.0.9-8.0.9-0~ubuntu22.04.1*
G04 #@! TF.CreationDate,2025-06-17T20:00:39-06:00*
G04 #@! TF.ProjectId,dongle,646f6e67-6c65-42e6-9b69-6361645f7063,rev?*
G04 #@! TF.SameCoordinates,Original*
G04 #@! TF.FileFunction,Paste,Bot*
G04 #@! TF.FilePolarity,Positive*
%FSLAX46Y46*%
G04 Gerber Fmt 4.6, Leading zero omitted, Abs format (unit mm)*
G04 Created by KiCad (PCBNEW 8.0.9-8.0.9-0~ubuntu22.04.1) date 2025-06-17 20:00:39*
%MOMM*%
%LPD*%
G01*
G04 APERTURE LIST*
G04 Aperture macros list*
%AMRoundRect*
0 Rectangle with rounded corners*
0 $1 Rounding radius*
0 $2 $3 $4 $5 $6 $7 $8 $9 X,Y pos of 4 corners*
0 Add a 4 corners polygon primitive as box body*
4,1,4,$2,$3,$4,$5,$6,$7,$8,$9,$2,$3,0*
0 Add four circle primitives for the rounded corners*
1,1,$1+$1,$2,$3*
1,1,$1+$1,$4,$5*
1,1,$1+$1,$6,$7*
1,1,$1+$1,$8,$9*
0 Add four rect primitives between the rounded corners*
20,1,$1+$1,$2,$3,$4,$5,0*
20,1,$1+$1,$4,$5,$6,$7,0*
20,1,$1+$1,$6,$7,$8,$9,0*
20,1,$1+$1,$8,$9,$2,$3,0*%
G04 Aperture macros list end*
%ADD10R,0.800000X0.300000*%
%ADD11RoundRect,0.079500X-0.079500X-0.100500X0.079500X-0.100500X0.079500X0.100500X-0.079500X0.100500X0*%
%ADD12RoundRect,0.079500X0.100500X-0.079500X0.100500X0.079500X-0.100500X0.079500X-0.100500X-0.079500X0*%
%ADD13RoundRect,0.140000X-0.140000X-0.170000X0.140000X-0.170000X0.140000X0.170000X-0.140000X0.170000X0*%
%ADD14RoundRect,0.079500X0.079500X0.100500X-0.079500X0.100500X-0.079500X-0.100500X0.079500X-0.100500X0*%
%ADD15RoundRect,0.140000X0.170000X-0.140000X0.170000X0.140000X-0.170000X0.140000X-0.170000X-0.140000X0*%
%ADD16RoundRect,0.073750X-0.221250X0.531250X-0.221250X-0.531250X0.221250X-0.531250X0.221250X0.531250X0*%
G04 APERTURE END LIST*
D10*
X142400000Y-91925000D03*
X142400000Y-92425000D03*
X142400000Y-92925000D03*
X142400000Y-93425000D03*
X142400000Y-93925000D03*
X142400000Y-94425000D03*
X142400000Y-94925000D03*
X142400000Y-95425000D03*
X142400000Y-95925000D03*
X142400000Y-96425000D03*
X142400000Y-96925000D03*
X142400000Y-97425000D03*
X140900000Y-97675000D03*
X140900000Y-97175000D03*
X140900000Y-96675000D03*
X140900000Y-96175000D03*
X140900000Y-95675000D03*
X140900000Y-95175000D03*
X140900000Y-94675000D03*
X140900000Y-94175000D03*
X140900000Y-93675000D03*
X140900000Y-93175000D03*
X140900000Y-92675000D03*
X140900000Y-92175000D03*
D11*
X146230000Y-93400007D03*
X146920000Y-93399993D03*
X147580000Y-94125007D03*
X148270000Y-94124993D03*
D12*
X150299997Y-92044999D03*
X150300003Y-91355001D03*
X147649997Y-92044999D03*
X147650003Y-91355001D03*
D13*
X145245001Y-89774999D03*
X146204999Y-89775001D03*
D12*
X148349997Y-92044999D03*
X148350003Y-91355001D03*
D14*
X146695000Y-90900000D03*
X146005000Y-90900000D03*
D15*
X150725000Y-98329999D03*
X150725000Y-97370001D03*
D12*
X149599997Y-92044999D03*
X149600003Y-91355001D03*
D14*
X146645000Y-99625000D03*
X145955000Y-99625000D03*
D12*
X147649999Y-90624999D03*
X147650005Y-89935001D03*
D16*
X146624999Y-95605004D03*
X147575004Y-95605001D03*
X148525000Y-95604996D03*
X148525001Y-98114996D03*
X147574996Y-98114999D03*
X146625000Y-98115004D03*
D11*
X146010002Y-91600010D03*
X146700002Y-91599996D03*
D15*
X149800001Y-98329999D03*
X149799999Y-97370001D03*
M02*
