G04 #@! TF.GenerationSoftware,KiCad,Pcbnew,8.0.9-8.0.9-0~ubuntu22.04.1*
G04 #@! TF.CreationDate,2025-06-17T20:00:39-06:00*
G04 #@! TF.ProjectId,dongle,646f6e67-6c65-42e6-9b69-6361645f7063,rev?*
G04 #@! TF.SameCoordinates,Original*
G04 #@! TF.FileFunction,Copper,L4,Bot*
G04 #@! TF.FilePolarity,Positive*
%FSLAX46Y46*%
G04 Gerber Fmt 4.6, Leading zero omitted, Abs format (unit mm)*
G04 Created by KiCad (PCBNEW 8.0.9-8.0.9-0~ubuntu22.04.1) date 2025-06-17 20:00:39*
%MOMM*%
%LPD*%
G01*
G04 APERTURE LIST*
G04 Aperture macros list*
%AMRoundRect*
0 Rectangle with rounded corners*
0 $1 Rounding radius*
0 $2 $3 $4 $5 $6 $7 $8 $9 X,Y pos of 4 corners*
0 Add a 4 corners polygon primitive as box body*
4,1,4,$2,$3,$4,$5,$6,$7,$8,$9,$2,$3,0*
0 Add four circle primitives for the rounded corners*
1,1,$1+$1,$2,$3*
1,1,$1+$1,$4,$5*
1,1,$1+$1,$6,$7*
1,1,$1+$1,$8,$9*
0 Add four rect primitives between the rounded corners*
20,1,$1+$1,$2,$3,$4,$5,0*
20,1,$1+$1,$4,$5,$6,$7,0*
20,1,$1+$1,$6,$7,$8,$9,0*
20,1,$1+$1,$8,$9,$2,$3,0*%
%AMFreePoly0*
4,1,229,0.026192,0.903996,0.026383,0.903985,0.052383,0.901985,0.052573,0.901967,0.078573,0.898967,0.078944,0.898910,0.104944,0.893910,0.105167,0.893862,0.130167,0.887862,0.130300,0.887828,0.156300,0.880828,0.156756,0.880682,0.180756,0.871682,0.180923,0.871615,0.204923,0.861615,0.205083,0.861545,0.229083,0.850545,0.229460,0.850353,0.252460,0.837353,0.252684,0.837218,
0.296684,0.809218,0.297030,0.808977,0.318030,0.792977,0.318238,0.792810,0.338238,0.775810,0.338439,0.775630,0.357439,0.757630,0.357630,0.757439,0.375630,0.738439,0.375810,0.738238,0.392810,0.718238,0.392977,0.718030,0.408977,0.697030,0.409218,0.696684,0.437218,0.652684,0.437353,0.652460,0.450353,0.629460,0.450545,0.629083,0.461545,0.605083,0.461615,0.604923,
0.471615,0.580923,0.471682,0.580756,0.480682,0.556756,0.480828,0.556300,0.487828,0.530300,0.487862,0.530167,0.493862,0.505167,0.493910,0.504944,0.498910,0.478944,0.498967,0.478573,0.501967,0.452573,0.501985,0.452383,0.503985,0.426383,0.503996,0.426192,0.504996,0.400192,0.505000,0.400000,0.505000,-0.400000,0.504996,-0.400192,0.503996,-0.426192,0.503985,-0.426383,
0.501985,-0.452383,0.501967,-0.452573,0.498967,-0.478573,0.498910,-0.478944,0.493910,-0.504944,0.493862,-0.505167,0.487862,-0.530167,0.487828,-0.530300,0.480828,-0.556300,0.480682,-0.556756,0.471682,-0.580756,0.471615,-0.580923,0.461615,-0.604923,0.461545,-0.605083,0.450545,-0.629083,0.450353,-0.629460,0.437353,-0.652460,0.437218,-0.652684,0.409218,-0.696684,0.408977,-0.697030,
0.392977,-0.718030,0.392810,-0.718238,0.375810,-0.738238,0.375630,-0.738439,0.357630,-0.757439,0.357439,-0.757630,0.338439,-0.775630,0.338238,-0.775810,0.318238,-0.792810,0.318030,-0.792977,0.297030,-0.808977,0.296684,-0.809218,0.252684,-0.837218,0.252460,-0.837353,0.229460,-0.850353,0.229083,-0.850545,0.205083,-0.861545,0.204923,-0.861615,0.180923,-0.871615,0.180756,-0.871682,
0.156756,-0.880682,0.156300,-0.880828,0.130300,-0.887828,0.130167,-0.887862,0.105167,-0.893862,0.104944,-0.893910,0.078944,-0.898910,0.078573,-0.898967,0.052573,-0.901967,0.052383,-0.901985,0.026383,-0.903985,0.026192,-0.903996,0.000192,-0.904996,-0.000192,-0.904996,-0.026192,-0.903996,-0.026383,-0.903985,-0.052383,-0.901985,-0.052573,-0.901967,-0.078573,-0.898967,-0.078944,-0.898910,
-0.104944,-0.893910,-0.105167,-0.893862,-0.130167,-0.887862,-0.130300,-0.887828,-0.156300,-0.880828,-0.156756,-0.880682,-0.180756,-0.871682,-0.180923,-0.871615,-0.204923,-0.861615,-0.205083,-0.861545,-0.229083,-0.850545,-0.229460,-0.850353,-0.252460,-0.837353,-0.252684,-0.837218,-0.296684,-0.809218,-0.297030,-0.808977,-0.318030,-0.792977,-0.318238,-0.792810,-0.338238,-0.775810,-0.338439,-0.775630,
-0.357439,-0.757630,-0.357630,-0.757439,-0.375630,-0.738439,-0.375810,-0.738238,-0.392810,-0.718238,-0.392977,-0.718030,-0.408977,-0.697030,-0.409218,-0.696684,-0.437218,-0.652684,-0.437353,-0.652460,-0.450353,-0.629460,-0.450545,-0.629083,-0.461545,-0.605083,-0.461615,-0.604923,-0.471615,-0.580923,-0.471682,-0.580756,-0.480682,-0.556756,-0.480828,-0.556300,-0.487828,-0.530300,-0.487862,-0.530167,
-0.493862,-0.505167,-0.493910,-0.504944,-0.498910,-0.478944,-0.498967,-0.478573,-0.501967,-0.452573,-0.501985,-0.452383,-0.503985,-0.426383,-0.503996,-0.426192,-0.504996,-0.400192,-0.505000,-0.400000,-0.505000,0.400000,-0.504996,0.400192,-0.503996,0.426192,-0.503985,0.426383,-0.501985,0.452383,-0.501967,0.452573,-0.498967,0.478573,-0.498910,0.478944,-0.493910,0.504944,-0.493862,0.505167,
-0.487862,0.530167,-0.487828,0.530300,-0.480828,0.556300,-0.480682,0.556756,-0.471682,0.580756,-0.471615,0.580923,-0.461615,0.604923,-0.461545,0.605083,-0.450545,0.629083,-0.450353,0.629460,-0.437353,0.652460,-0.437218,0.652684,-0.409218,0.696684,-0.408977,0.697030,-0.392977,0.718030,-0.392810,0.718238,-0.375810,0.738238,-0.375630,0.738439,-0.357630,0.757439,-0.357439,0.757630,
-0.338439,0.775630,-0.338238,0.775810,-0.318238,0.792810,-0.318030,0.792977,-0.297030,0.808977,-0.296684,0.809218,-0.252684,0.837218,-0.252460,0.837353,-0.229460,0.850353,-0.229083,0.850545,-0.205083,0.861545,-0.204923,0.861615,-0.180923,0.871615,-0.180756,0.871682,-0.156756,0.880682,-0.156300,0.880828,-0.130300,0.887828,-0.130167,0.887862,-0.105167,0.893862,-0.104944,0.893910,
-0.078944,0.898910,-0.078573,0.898967,-0.052573,0.901967,-0.052383,0.901985,-0.026383,0.903985,-0.026192,0.903996,-0.000192,0.904996,0.000192,0.904996,0.026192,0.903996,0.026192,0.903996,$1*%
G04 Aperture macros list end*
G04 #@! TA.AperFunction,SMDPad,CuDef*
%ADD10R,0.800000X0.300000*%
G04 #@! TD*
G04 #@! TA.AperFunction,ComponentPad*
%ADD11FreePoly0,90.000000*%
G04 #@! TD*
G04 #@! TA.AperFunction,SMDPad,CuDef*
%ADD12RoundRect,0.100000X-0.130000X-0.100000X0.130000X-0.100000X0.130000X0.100000X-0.130000X0.100000X0*%
G04 #@! TD*
G04 #@! TA.AperFunction,SMDPad,CuDef*
%ADD13RoundRect,0.100000X0.100000X-0.130000X0.100000X0.130000X-0.100000X0.130000X-0.100000X-0.130000X0*%
G04 #@! TD*
G04 #@! TA.AperFunction,SMDPad,CuDef*
%ADD14RoundRect,0.140000X-0.140000X-0.170000X0.140000X-0.170000X0.140000X0.170000X-0.140000X0.170000X0*%
G04 #@! TD*
G04 #@! TA.AperFunction,SMDPad,CuDef*
%ADD15RoundRect,0.100000X0.130000X0.100000X-0.130000X0.100000X-0.130000X-0.100000X0.130000X-0.100000X0*%
G04 #@! TD*
G04 #@! TA.AperFunction,SMDPad,CuDef*
%ADD16RoundRect,0.140000X0.170000X-0.140000X0.170000X0.140000X-0.170000X0.140000X-0.170000X-0.140000X0*%
G04 #@! TD*
G04 #@! TA.AperFunction,SMDPad,CuDef*
%ADD17RoundRect,0.073750X-0.221250X0.531250X-0.221250X-0.531250X0.221250X-0.531250X0.221250X0.531250X0*%
G04 #@! TD*
G04 #@! TA.AperFunction,ViaPad*
%ADD18C,0.400000*%
G04 #@! TD*
G04 #@! TA.AperFunction,Conductor*
%ADD19C,0.200000*%
G04 #@! TD*
G04 #@! TA.AperFunction,Conductor*
%ADD20C,0.120000*%
G04 #@! TD*
G04 #@! TA.AperFunction,Conductor*
%ADD21C,0.150000*%
G04 #@! TD*
G04 APERTURE END LIST*
D10*
X142400000Y-91925000D03*
X142400000Y-92425000D03*
X142400000Y-92925000D03*
X142400000Y-93425000D03*
X142400000Y-93925000D03*
X142400000Y-94425000D03*
X142400000Y-94925000D03*
X142400000Y-95425000D03*
X142400000Y-95925000D03*
X142400000Y-96425000D03*
X142400000Y-96925000D03*
X142400000Y-97425000D03*
X140900000Y-97675000D03*
X140900000Y-97175000D03*
X140900000Y-96675000D03*
X140900000Y-96175000D03*
X140900000Y-95675000D03*
X140900000Y-95175000D03*
X140900000Y-94675000D03*
X140900000Y-94175000D03*
X140900000Y-93675000D03*
X140900000Y-93175000D03*
X140900000Y-92675000D03*
X140900000Y-92175000D03*
D11*
X142600000Y-98500000D03*
X142600000Y-91100000D03*
D12*
X146255002Y-93400003D03*
X146894998Y-93399997D03*
X147605002Y-94125003D03*
X148244998Y-94124997D03*
D13*
X150299998Y-92020000D03*
X150300002Y-91380000D03*
X147649998Y-92020000D03*
X147650002Y-91380000D03*
D14*
X145245001Y-89774999D03*
X146204999Y-89775001D03*
D13*
X148349998Y-92020000D03*
X148350002Y-91380000D03*
D15*
X146670000Y-90900000D03*
X146030000Y-90900000D03*
D16*
X150725000Y-98329999D03*
X150725000Y-97370001D03*
D13*
X149599997Y-92020000D03*
X149600003Y-91380000D03*
D15*
X146620000Y-99625000D03*
X145980000Y-99625000D03*
D13*
X147650000Y-90600000D03*
X147650004Y-89960000D03*
D17*
X146624999Y-95605004D03*
X147575004Y-95605001D03*
X148525000Y-95604996D03*
X148525001Y-98114996D03*
X147574996Y-98114999D03*
X146625000Y-98115004D03*
D12*
X146035004Y-91600006D03*
X146675000Y-91600000D03*
D16*
X149800001Y-98329999D03*
X149799999Y-97370001D03*
D18*
X151300000Y-92100000D03*
X145175000Y-99650000D03*
X148800000Y-89475000D03*
X151325000Y-98025000D03*
X146725000Y-92775000D03*
X149450000Y-100175000D03*
X144100000Y-89475000D03*
X141250000Y-99200000D03*
X146925000Y-94525000D03*
X151125000Y-89800000D03*
X148950000Y-91875000D03*
X151350000Y-96025000D03*
X141175000Y-90750000D03*
X142750000Y-99650000D03*
X151325000Y-94050000D03*
X148125000Y-100175000D03*
X150075000Y-89800000D03*
X146200000Y-94600000D03*
X148475000Y-96975000D03*
X145625000Y-100425000D03*
X147750000Y-94600000D03*
X149600000Y-93875000D03*
X150075000Y-99175000D03*
X145825000Y-97550000D03*
X143650000Y-94400000D03*
X146225000Y-97000000D03*
X141650000Y-95050000D03*
X143600000Y-97750000D03*
X145450000Y-96000000D03*
X141650000Y-94400000D03*
X144825000Y-92425000D03*
X147250000Y-97025000D03*
X143325000Y-95925000D03*
X147225000Y-89475000D03*
X147675000Y-92550000D03*
X149425000Y-93100000D03*
X144325000Y-91250000D03*
X145775000Y-94975000D03*
X148350000Y-92550000D03*
X145990000Y-92409998D03*
X143400000Y-93925000D03*
X141650000Y-92800000D03*
X141675000Y-95550000D03*
D19*
X142400000Y-98300000D02*
X142600000Y-98500000D01*
D20*
X146725000Y-92775000D02*
X146894998Y-92944998D01*
D19*
X147650002Y-90600002D02*
X147650000Y-90600000D01*
X147650002Y-91380000D02*
X147650002Y-90600002D01*
D20*
X146894998Y-92944998D02*
X146894998Y-93399997D01*
D19*
X140900000Y-92175000D02*
X141150000Y-91925000D01*
X146904999Y-91600000D02*
X147124999Y-91380000D01*
X142400000Y-91300000D02*
X142600000Y-91100000D01*
X146675000Y-91600000D02*
X146904999Y-91600000D01*
X148350002Y-91380000D02*
X147650002Y-91380000D01*
X150300002Y-91380000D02*
X149600003Y-91380000D01*
X149600003Y-91380000D02*
X148350002Y-91380000D01*
X146925000Y-94525000D02*
X147575004Y-95175004D01*
X142400000Y-91925000D02*
X142400000Y-91300000D01*
X140900000Y-97675000D02*
X141775000Y-97675000D01*
X142400000Y-97425000D02*
X142400000Y-98300000D01*
X147124999Y-91380000D02*
X147650002Y-91380000D01*
X141775000Y-97675000D02*
X142600000Y-98500000D01*
X147575004Y-95175004D02*
X147575004Y-95605001D01*
X141150000Y-91925000D02*
X142400000Y-91925000D01*
X147750000Y-94600000D02*
X147605002Y-94455002D01*
X150299998Y-93175002D02*
X150299998Y-92020000D01*
X149600000Y-93875000D02*
X150299998Y-93175002D01*
X147605002Y-94455002D02*
X147605002Y-94125003D01*
X150725000Y-98506109D02*
X150725000Y-98329999D01*
X150149173Y-99175000D02*
X150536859Y-98787314D01*
X150075000Y-99175000D02*
X150149173Y-99175000D01*
X150725000Y-98329999D02*
X149800001Y-98329999D01*
X150536859Y-98787314D02*
X150582837Y-98715771D01*
X150708253Y-98520620D02*
X150725000Y-98506109D01*
X150582837Y-98715771D02*
X150708253Y-98520620D01*
X145980000Y-97638579D02*
X145870710Y-97529289D01*
X145980000Y-99625000D02*
X145980000Y-97638579D01*
X146625000Y-97500000D02*
X146625000Y-97400000D01*
X142400000Y-94425000D02*
X143625000Y-94425000D01*
D21*
X141494975Y-95175000D02*
X141672488Y-94997487D01*
D19*
X146625000Y-98115004D02*
X146625000Y-97500000D01*
X146625000Y-97400000D02*
X146275000Y-97050000D01*
D21*
X140900000Y-95175000D02*
X141494975Y-95175000D01*
D19*
X143625000Y-94425000D02*
X143650000Y-94400000D01*
X148525000Y-96209996D02*
X148525000Y-95604996D01*
X145763502Y-96038502D02*
X145488502Y-96038502D01*
D21*
X141650000Y-94400000D02*
X141500000Y-94550000D01*
D19*
X145488502Y-96038502D02*
X145450000Y-96000000D01*
X143050000Y-94925000D02*
X144125000Y-96000000D01*
X145763502Y-96038502D02*
X146235004Y-96510004D01*
X148224992Y-96510004D02*
X148525000Y-96209996D01*
X142400000Y-94925000D02*
X143050000Y-94925000D01*
X144125000Y-96000000D02*
X145450000Y-96000000D01*
D21*
X140900000Y-94675000D02*
X141500000Y-94675000D01*
D19*
X146235004Y-96510004D02*
X148224992Y-96510004D01*
D21*
X141500000Y-94550000D02*
X141500000Y-94675000D01*
D19*
X147574996Y-97349996D02*
X147250000Y-97025000D01*
X141750000Y-93425000D02*
X142400000Y-93425000D01*
X143917893Y-92425000D02*
X144825000Y-92425000D01*
X143325000Y-95925000D02*
X142400000Y-95925000D01*
X141750000Y-95925000D02*
X142400000Y-95925000D01*
X142917893Y-93425000D02*
X143917893Y-92425000D01*
X146035004Y-91600006D02*
X146035004Y-90905004D01*
X140900000Y-93675000D02*
X141500000Y-93675000D01*
X141500000Y-96175000D02*
X141750000Y-95925000D01*
X141500000Y-93675000D02*
X141750000Y-93425000D01*
X146035004Y-91600006D02*
X144936494Y-91600006D01*
X142400000Y-93425000D02*
X142917893Y-93425000D01*
X146035004Y-90905004D02*
X146030000Y-90900000D01*
X144936494Y-91600006D02*
X144825000Y-91711500D01*
X147574996Y-98114999D02*
X147574996Y-97349996D01*
X144825000Y-91711500D02*
X144825000Y-92400000D01*
X140900000Y-96175000D02*
X141500000Y-96175000D01*
X147225000Y-89534996D02*
X147650004Y-89960000D01*
X147225000Y-89475000D02*
X147225000Y-89534996D01*
D20*
X147675000Y-92550000D02*
X147675000Y-92045002D01*
X147675000Y-92045002D02*
X147649998Y-92020000D01*
D19*
X149425000Y-92194997D02*
X149599997Y-92020000D01*
X149425000Y-93100000D02*
X149425000Y-92194997D01*
X145580000Y-90400000D02*
X145175000Y-90400000D01*
X145175000Y-90400000D02*
X144325000Y-91250000D01*
X146670000Y-90240002D02*
X146204999Y-89775001D01*
X146670000Y-90900000D02*
X146670000Y-90240002D01*
X145580000Y-90400000D02*
X146204999Y-89775001D01*
D20*
X148350000Y-92020002D02*
X148349998Y-92020000D01*
X148350000Y-92550000D02*
X148350000Y-92020002D01*
D21*
X146350000Y-92769998D02*
X146350000Y-93305005D01*
X145990000Y-92409998D02*
X146350000Y-92769998D01*
D19*
X146000002Y-92420000D02*
X145990000Y-92409998D01*
D21*
X146350000Y-93305005D02*
X146255002Y-93400003D01*
D19*
X142400000Y-93925000D02*
X143375000Y-93925000D01*
D21*
X141675000Y-95550000D02*
X141594670Y-95550000D01*
X141594670Y-95550000D02*
X141469670Y-95675000D01*
X141469670Y-95675000D02*
X140900000Y-95675000D01*
G04 #@! TA.AperFunction,Conductor*
G36*
X143842952Y-96142940D02*
G01*
X143844216Y-96144187D01*
X143940489Y-96240460D01*
X144009012Y-96280022D01*
X144085438Y-96300500D01*
X145133448Y-96300500D01*
X145200487Y-96320185D01*
X145206329Y-96324179D01*
X145211653Y-96328046D01*
X145211655Y-96328047D01*
X145211658Y-96328050D01*
X145324696Y-96385646D01*
X145324697Y-96385646D01*
X145324699Y-96385647D01*
X145449997Y-96405492D01*
X145450000Y-96405492D01*
X145450003Y-96405492D01*
X145575300Y-96385647D01*
X145575302Y-96385646D01*
X145575304Y-96385646D01*
X145575305Y-96385645D01*
X145584583Y-96382631D01*
X145585679Y-96386006D01*
X145636764Y-96376390D01*
X145701516Y-96402638D01*
X145712124Y-96412095D01*
X145891637Y-96591608D01*
X145925122Y-96652931D01*
X145920138Y-96722623D01*
X145900945Y-96752498D01*
X145902686Y-96753763D01*
X145896952Y-96761655D01*
X145896950Y-96761657D01*
X145896950Y-96761658D01*
X145878255Y-96798347D01*
X145839352Y-96874698D01*
X145839352Y-96874699D01*
X145819508Y-96999996D01*
X145819508Y-97000000D01*
X145822572Y-97019349D01*
X145813615Y-97088643D01*
X145768618Y-97142093D01*
X145719497Y-97161217D01*
X145699698Y-97164352D01*
X145624337Y-97202751D01*
X145586658Y-97221950D01*
X145586657Y-97221951D01*
X145586652Y-97221954D01*
X145496954Y-97311652D01*
X145496951Y-97311657D01*
X145496950Y-97311658D01*
X145489940Y-97325416D01*
X145439352Y-97424698D01*
X145439352Y-97424699D01*
X145419508Y-97549996D01*
X145419508Y-97550003D01*
X145439352Y-97675300D01*
X145439352Y-97675301D01*
X145439354Y-97675304D01*
X145496950Y-97788342D01*
X145496952Y-97788344D01*
X145496954Y-97788347D01*
X145586652Y-97878045D01*
X145586655Y-97878047D01*
X145586658Y-97878050D01*
X145611794Y-97890857D01*
X145662590Y-97938831D01*
X145679500Y-98001342D01*
X145679500Y-99219166D01*
X145659815Y-99286205D01*
X145643182Y-99306846D01*
X145597794Y-99352234D01*
X145552415Y-99455006D01*
X145552415Y-99455008D01*
X145549500Y-99480131D01*
X145549500Y-99769856D01*
X145549502Y-99769882D01*
X145552413Y-99794986D01*
X145552414Y-99794990D01*
X145552415Y-99794991D01*
X145584748Y-99868219D01*
X145593819Y-99937495D01*
X145563995Y-100000680D01*
X145508636Y-100035279D01*
X145508980Y-100036337D01*
X145499698Y-100039352D01*
X145437748Y-100070918D01*
X145386658Y-100096950D01*
X145386657Y-100096951D01*
X145386652Y-100096954D01*
X145296954Y-100186652D01*
X145296951Y-100186657D01*
X145239352Y-100299698D01*
X145239352Y-100299699D01*
X145219508Y-100424996D01*
X145219508Y-100425003D01*
X145239352Y-100550300D01*
X145239352Y-100550301D01*
X145261978Y-100594705D01*
X145274874Y-100663374D01*
X145248598Y-100728114D01*
X145191492Y-100768372D01*
X145151493Y-100775000D01*
X142099000Y-100775000D01*
X142031961Y-100755315D01*
X141986206Y-100702511D01*
X141975000Y-100651000D01*
X141975000Y-99850000D01*
X140573692Y-99850000D01*
X140506653Y-99830315D01*
X140460898Y-99777511D01*
X140449692Y-99726309D01*
X140446507Y-98449309D01*
X140466025Y-98382221D01*
X140518714Y-98336334D01*
X140570507Y-98325000D01*
X140750000Y-98325000D01*
X140750000Y-97799000D01*
X140769685Y-97731961D01*
X140822489Y-97686206D01*
X140874000Y-97675000D01*
X140926000Y-97675000D01*
X140993039Y-97694685D01*
X141038794Y-97747489D01*
X141050000Y-97799000D01*
X141050000Y-98325000D01*
X141065000Y-98325000D01*
X141101319Y-98288681D01*
X141103390Y-98290752D01*
X141137489Y-98261206D01*
X141189000Y-98250000D01*
X142150272Y-98250000D01*
X142058386Y-98288060D01*
X141988060Y-98358386D01*
X141950000Y-98450272D01*
X141950000Y-98549728D01*
X141988060Y-98641614D01*
X142058386Y-98711940D01*
X142150272Y-98750000D01*
X141216422Y-98750000D01*
X141217981Y-98756294D01*
X141218093Y-98756735D01*
X141219686Y-98762806D01*
X141226706Y-98788881D01*
X141233603Y-98812239D01*
X141233889Y-98813129D01*
X141241791Y-98835831D01*
X141250795Y-98859838D01*
X141253798Y-98867650D01*
X141253954Y-98868047D01*
X141257613Y-98877073D01*
X141267586Y-98901008D01*
X141270889Y-98908753D01*
X141271055Y-98909136D01*
X141274826Y-98917568D01*
X141285822Y-98941559D01*
X141295150Y-98960823D01*
X141295533Y-98961574D01*
X141305668Y-98980425D01*
X141318666Y-99003421D01*
X141325325Y-99014849D01*
X141325635Y-99015367D01*
X141332526Y-99026512D01*
X141360507Y-99070481D01*
X141372644Y-99088671D01*
X141373148Y-99089394D01*
X141385346Y-99106102D01*
X141401359Y-99127120D01*
X141409716Y-99137788D01*
X141410067Y-99138224D01*
X141418593Y-99148527D01*
X141435617Y-99168556D01*
X141444106Y-99178287D01*
X141444503Y-99178731D01*
X141454105Y-99189156D01*
X141472139Y-99208193D01*
X141481683Y-99217998D01*
X141482001Y-99218316D01*
X141491806Y-99227860D01*
X141510843Y-99245894D01*
X141521268Y-99255496D01*
X141521712Y-99255893D01*
X141531443Y-99264382D01*
X141551472Y-99281406D01*
X141561775Y-99289932D01*
X141562211Y-99290283D01*
X141572879Y-99298640D01*
X141593897Y-99314653D01*
X141610605Y-99326851D01*
X141611328Y-99327355D01*
X141629518Y-99339492D01*
X141673487Y-99367473D01*
X141684632Y-99374364D01*
X141685150Y-99374674D01*
X141696578Y-99381333D01*
X141719574Y-99394331D01*
X141738425Y-99404466D01*
X141739176Y-99404849D01*
X141758440Y-99414177D01*
X141782431Y-99425173D01*
X141790863Y-99428944D01*
X141791246Y-99429110D01*
X141798991Y-99432413D01*
X141822926Y-99442386D01*
X141831952Y-99446045D01*
X141832349Y-99446201D01*
X141840161Y-99449204D01*
X141864168Y-99458208D01*
X141886870Y-99466110D01*
X141887760Y-99466396D01*
X141911118Y-99473293D01*
X141937193Y-99480313D01*
X141943210Y-99481892D01*
X141943644Y-99482003D01*
X141950817Y-99483781D01*
X141975797Y-99489775D01*
X141987465Y-99492431D01*
X141987804Y-99492504D01*
X141998790Y-99494741D01*
X142024747Y-99499734D01*
X142043405Y-99502959D01*
X142044156Y-99503075D01*
X142062956Y-99505604D01*
X142089017Y-99508611D01*
X142097778Y-99509544D01*
X142098196Y-99509584D01*
X142108462Y-99510481D01*
X142134541Y-99512486D01*
X142144223Y-99513137D01*
X142144665Y-99513162D01*
X142154263Y-99513622D01*
X142180216Y-99514621D01*
X142190368Y-99514908D01*
X142190800Y-99514916D01*
X142200012Y-99515000D01*
X142350000Y-99515000D01*
X142350000Y-98750000D01*
X142850000Y-98750000D01*
X142850000Y-99515000D01*
X142999988Y-99515000D01*
X143009199Y-99514916D01*
X143009631Y-99514908D01*
X143019783Y-99514621D01*
X143045736Y-99513622D01*
X143055334Y-99513162D01*
X143055776Y-99513137D01*
X143065458Y-99512486D01*
X143091537Y-99510481D01*
X143101803Y-99509584D01*
X143102221Y-99509544D01*
X143110982Y-99508611D01*
X143137043Y-99505604D01*
X143155843Y-99503075D01*
X143156594Y-99502959D01*
X143175252Y-99499734D01*
X143201209Y-99494741D01*
X143212195Y-99492504D01*
X143212534Y-99492431D01*
X143224202Y-99489775D01*
X143249182Y-99483781D01*
X143256355Y-99482003D01*
X143256789Y-99481892D01*
X143262806Y-99480313D01*
X143288881Y-99473293D01*
X143312239Y-99466396D01*
X143313129Y-99466110D01*
X143335831Y-99458208D01*
X143359838Y-99449204D01*
X143367650Y-99446201D01*
X143368047Y-99446045D01*
X143377073Y-99442386D01*
X143401008Y-99432413D01*
X143408753Y-99429110D01*
X143409136Y-99428944D01*
X143417568Y-99425173D01*
X143441559Y-99414177D01*
X143460823Y-99404849D01*
X143461574Y-99404466D01*
X143480425Y-99394331D01*
X143503421Y-99381333D01*
X143514849Y-99374674D01*
X143515367Y-99374364D01*
X143526512Y-99367473D01*
X143570481Y-99339492D01*
X143588671Y-99327355D01*
X143589394Y-99326851D01*
X143606102Y-99314653D01*
X143627120Y-99298640D01*
X143637788Y-99290283D01*
X143638224Y-99289932D01*
X143648527Y-99281406D01*
X143668556Y-99264382D01*
X143678287Y-99255893D01*
X143678731Y-99255496D01*
X143689156Y-99245894D01*
X143708193Y-99227860D01*
X143717998Y-99218316D01*
X143718316Y-99217998D01*
X143727860Y-99208193D01*
X143745894Y-99189156D01*
X143755496Y-99178731D01*
X143755893Y-99178287D01*
X143764382Y-99168556D01*
X143781406Y-99148527D01*
X143789932Y-99138224D01*
X143790283Y-99137788D01*
X143798640Y-99127120D01*
X143814653Y-99106102D01*
X143826851Y-99089394D01*
X143827355Y-99088671D01*
X143839492Y-99070481D01*
X143867473Y-99026512D01*
X143874364Y-99015367D01*
X143874674Y-99014849D01*
X143881333Y-99003421D01*
X143894331Y-98980425D01*
X143904466Y-98961574D01*
X143904849Y-98960823D01*
X143914177Y-98941559D01*
X143925173Y-98917568D01*
X143928944Y-98909136D01*
X143929110Y-98908753D01*
X143932413Y-98901008D01*
X143942386Y-98877073D01*
X143946045Y-98868047D01*
X143946201Y-98867650D01*
X143949204Y-98859838D01*
X143958208Y-98835831D01*
X143966110Y-98813129D01*
X143966396Y-98812239D01*
X143973293Y-98788881D01*
X143980313Y-98762806D01*
X143981906Y-98756735D01*
X143982019Y-98756294D01*
X143983578Y-98750000D01*
X143049728Y-98750000D01*
X143141614Y-98711940D01*
X143211940Y-98641614D01*
X143250000Y-98549728D01*
X143250000Y-98450272D01*
X143211940Y-98358386D01*
X143141614Y-98288060D01*
X143049728Y-98250000D01*
X143983578Y-98250000D01*
X143983578Y-98249999D01*
X143982009Y-98243668D01*
X143981906Y-98243264D01*
X143980313Y-98237193D01*
X143973293Y-98211118D01*
X143966396Y-98187760D01*
X143966110Y-98186870D01*
X143958208Y-98164168D01*
X143949204Y-98140161D01*
X143946201Y-98132349D01*
X143946045Y-98131952D01*
X143942386Y-98122926D01*
X143932413Y-98098991D01*
X143929110Y-98091246D01*
X143928953Y-98090885D01*
X143928319Y-98089467D01*
X143918901Y-98020235D01*
X143931015Y-97982522D01*
X143985646Y-97875304D01*
X143985647Y-97875300D01*
X144005492Y-97750003D01*
X144005492Y-97749996D01*
X143985647Y-97624699D01*
X143985647Y-97624698D01*
X143951017Y-97556734D01*
X143928050Y-97511658D01*
X143928046Y-97511654D01*
X143928045Y-97511652D01*
X143838347Y-97421954D01*
X143838344Y-97421952D01*
X143838342Y-97421950D01*
X143725304Y-97364354D01*
X143725303Y-97364353D01*
X143725300Y-97364352D01*
X143600003Y-97344508D01*
X143599997Y-97344508D01*
X143474699Y-97364352D01*
X143465417Y-97367369D01*
X143464476Y-97364473D01*
X143411610Y-97374395D01*
X143346873Y-97348111D01*
X143306623Y-97290999D01*
X143300000Y-97251016D01*
X143300000Y-97227172D01*
X143299999Y-97227155D01*
X143293598Y-97167627D01*
X143293596Y-97167620D01*
X143243354Y-97032913D01*
X143243350Y-97032906D01*
X143157190Y-96917812D01*
X143049048Y-96836856D01*
X143007178Y-96780922D01*
X143002587Y-96761048D01*
X143001689Y-96761227D01*
X142989349Y-96699192D01*
X142989349Y-96650808D01*
X143000500Y-96594750D01*
X143000500Y-96411500D01*
X143020185Y-96344461D01*
X143072989Y-96298706D01*
X143142147Y-96288762D01*
X143180792Y-96301014D01*
X143199696Y-96310646D01*
X143199697Y-96310646D01*
X143199699Y-96310647D01*
X143324997Y-96330492D01*
X143325000Y-96330492D01*
X143325003Y-96330492D01*
X143450300Y-96310647D01*
X143450301Y-96310647D01*
X143450302Y-96310646D01*
X143450304Y-96310646D01*
X143563342Y-96253050D01*
X143653050Y-96163342D01*
X143653051Y-96163339D01*
X143656214Y-96158987D01*
X143711542Y-96116319D01*
X143781155Y-96110337D01*
X143842952Y-96142940D01*
G37*
G04 #@! TD.AperFunction*
G04 #@! TA.AperFunction,Conductor*
G36*
X149225704Y-98011250D02*
G01*
X149232182Y-98017282D01*
X149234615Y-98019715D01*
X149240784Y-98024500D01*
X149239266Y-98026456D01*
X149278631Y-98068612D01*
X149291138Y-98137353D01*
X149290769Y-98140458D01*
X149289501Y-98150094D01*
X149289501Y-98509893D01*
X149289502Y-98509899D01*
X149296029Y-98559486D01*
X149346777Y-98668315D01*
X149431685Y-98753223D01*
X149540514Y-98803971D01*
X149590100Y-98810499D01*
X149608879Y-98810498D01*
X149675916Y-98830180D01*
X149721673Y-98882982D01*
X149731620Y-98952140D01*
X149719366Y-98990792D01*
X149689354Y-99049695D01*
X149689352Y-99049699D01*
X149669508Y-99174996D01*
X149669508Y-99175003D01*
X149689352Y-99300300D01*
X149689352Y-99300301D01*
X149689354Y-99300304D01*
X149746950Y-99413342D01*
X149746952Y-99413344D01*
X149746954Y-99413347D01*
X149836652Y-99503045D01*
X149836654Y-99503046D01*
X149836658Y-99503050D01*
X149949696Y-99560646D01*
X149949697Y-99560646D01*
X149949699Y-99560647D01*
X150074997Y-99580492D01*
X150075000Y-99580492D01*
X150075003Y-99580492D01*
X150200300Y-99560647D01*
X150200301Y-99560647D01*
X150200302Y-99560646D01*
X150200304Y-99560646D01*
X150313342Y-99503050D01*
X150403050Y-99413342D01*
X150460646Y-99300304D01*
X150460646Y-99300300D01*
X150463995Y-99293729D01*
X150486796Y-99262346D01*
X150663319Y-99085824D01*
X150724642Y-99052339D01*
X150794334Y-99057323D01*
X150850267Y-99099195D01*
X150874684Y-99164659D01*
X150875000Y-99173505D01*
X150875000Y-100651000D01*
X150855315Y-100718039D01*
X150802511Y-100763794D01*
X150751000Y-100775000D01*
X146098507Y-100775000D01*
X146031468Y-100755315D01*
X145985713Y-100702511D01*
X145975769Y-100633353D01*
X145988022Y-100594705D01*
X146010646Y-100550304D01*
X146010646Y-100550302D01*
X146010647Y-100550301D01*
X146010647Y-100550300D01*
X146030492Y-100425003D01*
X146030492Y-100424998D01*
X146024296Y-100385879D01*
X146033250Y-100316586D01*
X146078246Y-100263134D01*
X146144998Y-100242494D01*
X146194221Y-100251920D01*
X146333365Y-100309554D01*
X146333369Y-100309555D01*
X146420000Y-100320961D01*
X146420000Y-100320959D01*
X146820000Y-100320959D01*
X146820001Y-100320960D01*
X146906627Y-100309557D01*
X146906633Y-100309555D01*
X147052585Y-100249100D01*
X147177924Y-100152924D01*
X147274100Y-100027586D01*
X147334555Y-99881631D01*
X147342012Y-99825000D01*
X146820000Y-99825000D01*
X146820000Y-100320959D01*
X146420000Y-100320959D01*
X146420000Y-99749000D01*
X146439685Y-99681961D01*
X146492489Y-99636206D01*
X146544000Y-99625000D01*
X146620000Y-99625000D01*
X146620000Y-99549000D01*
X146639685Y-99481961D01*
X146692489Y-99436206D01*
X146744000Y-99425000D01*
X147342010Y-99425000D01*
X147342011Y-99424998D01*
X147334557Y-99368372D01*
X147334555Y-99368366D01*
X147274100Y-99222412D01*
X147274098Y-99222409D01*
X147191787Y-99115141D01*
X147166592Y-99049972D01*
X147180630Y-98981527D01*
X147229444Y-98931537D01*
X147297535Y-98915873D01*
X147314353Y-98918037D01*
X147326729Y-98920498D01*
X147326732Y-98920499D01*
X147326734Y-98920499D01*
X147823260Y-98920499D01*
X147823261Y-98920498D01*
X147903253Y-98904587D01*
X147981110Y-98852563D01*
X148047787Y-98831686D01*
X148115168Y-98850170D01*
X148118871Y-98852550D01*
X148164415Y-98882982D01*
X148196744Y-98904584D01*
X148196748Y-98904585D01*
X148276734Y-98920495D01*
X148276737Y-98920496D01*
X148276739Y-98920496D01*
X148773265Y-98920496D01*
X148773266Y-98920495D01*
X148853258Y-98904584D01*
X148943974Y-98843969D01*
X149004589Y-98753253D01*
X149020501Y-98673258D01*
X149020501Y-98104963D01*
X149040186Y-98037924D01*
X149092990Y-97992169D01*
X149162148Y-97982225D01*
X149225704Y-98011250D01*
G37*
G04 #@! TD.AperFunction*
G04 #@! TA.AperFunction,Conductor*
G36*
X151444334Y-97968279D02*
G01*
X151500267Y-98010151D01*
X151524684Y-98075615D01*
X151525000Y-98084461D01*
X151525000Y-98482923D01*
X151505315Y-98549962D01*
X151468858Y-98586708D01*
X151427357Y-98613843D01*
X151360475Y-98634054D01*
X151293283Y-98614898D01*
X151247114Y-98562456D01*
X151235499Y-98510058D01*
X151235499Y-98509907D01*
X151235500Y-98509900D01*
X151235499Y-98150099D01*
X151234231Y-98140469D01*
X151244993Y-98071436D01*
X151285349Y-98025962D01*
X151284215Y-98024500D01*
X151290383Y-98019715D01*
X151313319Y-97996780D01*
X151374642Y-97963295D01*
X151444334Y-97968279D01*
G37*
G04 #@! TD.AperFunction*
G04 #@! TA.AperFunction,Conductor*
G36*
X151401325Y-88824676D02*
G01*
X151468312Y-88844536D01*
X151513929Y-88897460D01*
X151525000Y-88948676D01*
X151525000Y-96655541D01*
X151505315Y-96722580D01*
X151452511Y-96768335D01*
X151383353Y-96778279D01*
X151319797Y-96749254D01*
X151313319Y-96743222D01*
X151290383Y-96720286D01*
X151290374Y-96720279D01*
X151151195Y-96637969D01*
X151151190Y-96637967D01*
X150995918Y-96592856D01*
X150995912Y-96592855D01*
X150975000Y-96591210D01*
X150975000Y-97246001D01*
X150955315Y-97313040D01*
X150902511Y-97358795D01*
X150851000Y-97370001D01*
X150599000Y-97370001D01*
X150531961Y-97350316D01*
X150486206Y-97297512D01*
X150475000Y-97246001D01*
X150475000Y-96591211D01*
X150474999Y-96591210D01*
X150454087Y-96592855D01*
X150297093Y-96638466D01*
X150227905Y-96638466D01*
X150070911Y-96592855D01*
X150049999Y-96591210D01*
X150049999Y-97246001D01*
X150030314Y-97313040D01*
X149977510Y-97358795D01*
X149925999Y-97370001D01*
X149673999Y-97370001D01*
X149606960Y-97350316D01*
X149561205Y-97297512D01*
X149549999Y-97246001D01*
X149549999Y-96591211D01*
X149549998Y-96591210D01*
X149529086Y-96592855D01*
X149529080Y-96592856D01*
X149373808Y-96637967D01*
X149373803Y-96637969D01*
X149234624Y-96720279D01*
X149234615Y-96720286D01*
X149120284Y-96834617D01*
X149120280Y-96834623D01*
X149088934Y-96887626D01*
X149037864Y-96935309D01*
X148969122Y-96947812D01*
X148904533Y-96921166D01*
X148864603Y-96863830D01*
X148862667Y-96855916D01*
X148860647Y-96849698D01*
X148858125Y-96844748D01*
X148803050Y-96736658D01*
X148803046Y-96736654D01*
X148803045Y-96736652D01*
X148706442Y-96640049D01*
X148707689Y-96638801D01*
X148672110Y-96592669D01*
X148666125Y-96523056D01*
X148698725Y-96461258D01*
X148699854Y-96460112D01*
X148716967Y-96442999D01*
X148778283Y-96409517D01*
X148780328Y-96409090D01*
X148853257Y-96394584D01*
X148943973Y-96333969D01*
X149004588Y-96243253D01*
X149020500Y-96163258D01*
X149020500Y-95046734D01*
X149020500Y-95046731D01*
X149020499Y-95046729D01*
X149004589Y-94966743D01*
X149004588Y-94966742D01*
X149004588Y-94966739D01*
X148950745Y-94886158D01*
X148943972Y-94876021D01*
X148847642Y-94811656D01*
X148802836Y-94758044D01*
X148794129Y-94688719D01*
X148818157Y-94633067D01*
X148899096Y-94527586D01*
X148899097Y-94527584D01*
X148959553Y-94381628D01*
X148967010Y-94324997D01*
X148368998Y-94324997D01*
X148301959Y-94305312D01*
X148256204Y-94252508D01*
X148244998Y-94200997D01*
X148244998Y-94124997D01*
X148168998Y-94124997D01*
X148101959Y-94105312D01*
X148056204Y-94052508D01*
X148044998Y-94000997D01*
X148044998Y-93924997D01*
X148444998Y-93924997D01*
X148967008Y-93924997D01*
X148982547Y-93907278D01*
X148981721Y-93906730D01*
X148962023Y-93874326D01*
X148899098Y-93722410D01*
X148802922Y-93597072D01*
X148677584Y-93500896D01*
X148531629Y-93440441D01*
X148444998Y-93429035D01*
X148444998Y-93924997D01*
X148044998Y-93924997D01*
X148044998Y-93429035D01*
X147958367Y-93440441D01*
X147958363Y-93440442D01*
X147812411Y-93500896D01*
X147734513Y-93560670D01*
X147714647Y-93582263D01*
X147650744Y-93599997D01*
X147094998Y-93599997D01*
X147094998Y-94095956D01*
X147132261Y-94128636D01*
X147169685Y-94187638D01*
X147174502Y-94221862D01*
X147174502Y-94269859D01*
X147174504Y-94269884D01*
X147177415Y-94294990D01*
X147177417Y-94294994D01*
X147212303Y-94374004D01*
X147221374Y-94443280D01*
X147191550Y-94506465D01*
X147146321Y-94538649D01*
X147064405Y-94572580D01*
X146944551Y-94664548D01*
X146878221Y-94750991D01*
X146821793Y-94792193D01*
X146779845Y-94799504D01*
X146719079Y-94799504D01*
X146652040Y-94779819D01*
X146606285Y-94727015D01*
X146596341Y-94657857D01*
X146596606Y-94656106D01*
X146605492Y-94600002D01*
X146605492Y-94599996D01*
X146585647Y-94474699D01*
X146585647Y-94474698D01*
X146571416Y-94446769D01*
X146528050Y-94361658D01*
X146528046Y-94361654D01*
X146528045Y-94361652D01*
X146439013Y-94272620D01*
X146405528Y-94211297D01*
X146406640Y-94195746D01*
X146372581Y-94213821D01*
X146328270Y-94214823D01*
X146200003Y-94194508D01*
X146199997Y-94194508D01*
X146074699Y-94214352D01*
X146074698Y-94214352D01*
X145999815Y-94252508D01*
X145961658Y-94271950D01*
X145961657Y-94271951D01*
X145961652Y-94271954D01*
X145871954Y-94361652D01*
X145871951Y-94361657D01*
X145871950Y-94361658D01*
X145843152Y-94418177D01*
X145814353Y-94474697D01*
X145814056Y-94476575D01*
X145813061Y-94478671D01*
X145811337Y-94483980D01*
X145810650Y-94483757D01*
X145784124Y-94539708D01*
X145724812Y-94576638D01*
X145710982Y-94579646D01*
X145649698Y-94589352D01*
X145574337Y-94627751D01*
X145536658Y-94646950D01*
X145536657Y-94646951D01*
X145536652Y-94646954D01*
X145446954Y-94736652D01*
X145446951Y-94736657D01*
X145389352Y-94849698D01*
X145389352Y-94849699D01*
X145369508Y-94974996D01*
X145369508Y-94975003D01*
X145389352Y-95100300D01*
X145389352Y-95100301D01*
X145389354Y-95100304D01*
X145446950Y-95213342D01*
X145446952Y-95213344D01*
X145446954Y-95213347D01*
X145536652Y-95303045D01*
X145536654Y-95303046D01*
X145536658Y-95303050D01*
X145649696Y-95360646D01*
X145649697Y-95360646D01*
X145649699Y-95360647D01*
X145774997Y-95380492D01*
X145775000Y-95380492D01*
X145775003Y-95380492D01*
X145900300Y-95360647D01*
X145900302Y-95360646D01*
X145900304Y-95360646D01*
X145949204Y-95335729D01*
X146017872Y-95322833D01*
X146082613Y-95349108D01*
X146122870Y-95406214D01*
X146129499Y-95446214D01*
X146129499Y-95688048D01*
X146109814Y-95755087D01*
X146057010Y-95800842D01*
X145987852Y-95810786D01*
X145943503Y-95795437D01*
X145922928Y-95783559D01*
X145922926Y-95783558D01*
X145922924Y-95783557D01*
X145901207Y-95771019D01*
X145879492Y-95758481D01*
X145803061Y-95738001D01*
X145795005Y-95736941D01*
X145795270Y-95734923D01*
X145738717Y-95718317D01*
X145718074Y-95701682D01*
X145688346Y-95671953D01*
X145688344Y-95671952D01*
X145688342Y-95671950D01*
X145575304Y-95614354D01*
X145575303Y-95614353D01*
X145575300Y-95614352D01*
X145450003Y-95594508D01*
X145449997Y-95594508D01*
X145324699Y-95614352D01*
X145324698Y-95614352D01*
X145247330Y-95653773D01*
X145211658Y-95671950D01*
X145211657Y-95671950D01*
X145211653Y-95671953D01*
X145206329Y-95675821D01*
X145140522Y-95699298D01*
X145133448Y-95699500D01*
X144300833Y-95699500D01*
X144233794Y-95679815D01*
X144213152Y-95663181D01*
X143567144Y-95017173D01*
X143533659Y-94955850D01*
X143538643Y-94886158D01*
X143580515Y-94830225D01*
X143640494Y-94807853D01*
X143640362Y-94807019D01*
X143644481Y-94806366D01*
X143645979Y-94805808D01*
X143648599Y-94805714D01*
X143775300Y-94785647D01*
X143775301Y-94785647D01*
X143775302Y-94785646D01*
X143775304Y-94785646D01*
X143888342Y-94728050D01*
X143978050Y-94638342D01*
X144035646Y-94525304D01*
X144035646Y-94525302D01*
X144035647Y-94525301D01*
X144035647Y-94525300D01*
X144055492Y-94400003D01*
X144055492Y-94399996D01*
X144035647Y-94274699D01*
X144035647Y-94274698D01*
X144033181Y-94269859D01*
X143978050Y-94161658D01*
X143978046Y-94161654D01*
X143978045Y-94161652D01*
X143888343Y-94071950D01*
X143870414Y-94062815D01*
X143819617Y-94014841D01*
X143802822Y-93947020D01*
X143804234Y-93932938D01*
X143805492Y-93925000D01*
X143805492Y-93924997D01*
X143805492Y-93924996D01*
X143785647Y-93799699D01*
X143785647Y-93799698D01*
X143771940Y-93772797D01*
X143728050Y-93686658D01*
X143728046Y-93686654D01*
X143728045Y-93686652D01*
X143638347Y-93596954D01*
X143638344Y-93596952D01*
X143638342Y-93596950D01*
X143540212Y-93546950D01*
X143525301Y-93539352D01*
X143509455Y-93536843D01*
X143446320Y-93506913D01*
X143409390Y-93447601D01*
X143410388Y-93377739D01*
X143441171Y-93326692D01*
X144006045Y-92761819D01*
X144067368Y-92728334D01*
X144093726Y-92725500D01*
X144508448Y-92725500D01*
X144575487Y-92745185D01*
X144581329Y-92749179D01*
X144586653Y-92753046D01*
X144586655Y-92753047D01*
X144586658Y-92753050D01*
X144699696Y-92810646D01*
X144699697Y-92810646D01*
X144699699Y-92810647D01*
X144824997Y-92830492D01*
X144825000Y-92830492D01*
X144825003Y-92830492D01*
X144950300Y-92810647D01*
X144950301Y-92810647D01*
X144950302Y-92810646D01*
X144950304Y-92810646D01*
X145063342Y-92753050D01*
X145153050Y-92663342D01*
X145210646Y-92550304D01*
X145210646Y-92550302D01*
X145210647Y-92550301D01*
X145210647Y-92550300D01*
X145230492Y-92425003D01*
X145230492Y-92424996D01*
X145210647Y-92299699D01*
X145210647Y-92299698D01*
X145204849Y-92288319D01*
X145153050Y-92186658D01*
X145153047Y-92186655D01*
X145153046Y-92186653D01*
X145149179Y-92181329D01*
X145125702Y-92115522D01*
X145125500Y-92108448D01*
X145125500Y-92024506D01*
X145145185Y-91957467D01*
X145197989Y-91911712D01*
X145249500Y-91900506D01*
X145629171Y-91900506D01*
X145696210Y-91920191D01*
X145716852Y-91936825D01*
X145719135Y-91939108D01*
X145752620Y-92000431D01*
X145747636Y-92070123D01*
X145719135Y-92114470D01*
X145661954Y-92171650D01*
X145661951Y-92171655D01*
X145661950Y-92171656D01*
X145650123Y-92194868D01*
X145604352Y-92284696D01*
X145604352Y-92284697D01*
X145584508Y-92409994D01*
X145584508Y-92410001D01*
X145604352Y-92535298D01*
X145604352Y-92535299D01*
X145611996Y-92550300D01*
X145661950Y-92648340D01*
X145661952Y-92648342D01*
X145661954Y-92648345D01*
X145751652Y-92738043D01*
X145751654Y-92738044D01*
X145751658Y-92738048D01*
X145864696Y-92795644D01*
X145933619Y-92806560D01*
X145996752Y-92836488D01*
X146033684Y-92895799D01*
X146032687Y-92965662D01*
X145994077Y-93023895D01*
X145964310Y-93042466D01*
X145952236Y-93047797D01*
X145872796Y-93127237D01*
X145827417Y-93230009D01*
X145827417Y-93230011D01*
X145824502Y-93255134D01*
X145824502Y-93544859D01*
X145824504Y-93544885D01*
X145827415Y-93569990D01*
X145827417Y-93569994D01*
X145872795Y-93672767D01*
X145872796Y-93672768D01*
X145952237Y-93752209D01*
X146055011Y-93797588D01*
X146080137Y-93800503D01*
X146178151Y-93800502D01*
X146245188Y-93820186D01*
X146276525Y-93849015D01*
X146337072Y-93927921D01*
X146337073Y-93927922D01*
X146423154Y-93993975D01*
X146464356Y-94050403D01*
X146466151Y-94080537D01*
X146517848Y-94061255D01*
X146574147Y-94070378D01*
X146608367Y-94084552D01*
X146694998Y-94095958D01*
X146694998Y-92704036D01*
X146685406Y-92695624D01*
X146650005Y-92690103D01*
X146597750Y-92643721D01*
X146588297Y-92625384D01*
X146583557Y-92613940D01*
X146506058Y-92536441D01*
X146457042Y-92487425D01*
X146423557Y-92426102D01*
X146428541Y-92356410D01*
X146462965Y-92306515D01*
X146475000Y-92295960D01*
X146475000Y-91724000D01*
X146494685Y-91656961D01*
X146547489Y-91611206D01*
X146599000Y-91600000D01*
X146751000Y-91600000D01*
X146818039Y-91619685D01*
X146863794Y-91672489D01*
X146875000Y-91724000D01*
X146875000Y-92295959D01*
X146875001Y-92295960D01*
X146961627Y-92284557D01*
X146961633Y-92284555D01*
X147115098Y-92220989D01*
X147115934Y-92223008D01*
X147172692Y-92209234D01*
X147238721Y-92232080D01*
X147280237Y-92283007D01*
X147294191Y-92314609D01*
X147303263Y-92383887D01*
X147291244Y-92420986D01*
X147289353Y-92424697D01*
X147289352Y-92424698D01*
X147269508Y-92549996D01*
X147269508Y-92549997D01*
X147269508Y-92550000D01*
X147272164Y-92566768D01*
X147263208Y-92636062D01*
X147218211Y-92689513D01*
X147151459Y-92710152D01*
X147133505Y-92709104D01*
X147094998Y-92704034D01*
X147094998Y-93199997D01*
X147617008Y-93199997D01*
X147617009Y-93199995D01*
X147609555Y-93143369D01*
X147609554Y-93143366D01*
X147600748Y-93122106D01*
X147593279Y-93052637D01*
X147624554Y-92990157D01*
X147684643Y-92954505D01*
X147695893Y-92952182D01*
X147800304Y-92935646D01*
X147913342Y-92878050D01*
X147924818Y-92866573D01*
X147986139Y-92833089D01*
X148055830Y-92838071D01*
X148100181Y-92866573D01*
X148111658Y-92878050D01*
X148224696Y-92935646D01*
X148224697Y-92935646D01*
X148224699Y-92935647D01*
X148349997Y-92955492D01*
X148350000Y-92955492D01*
X148350003Y-92955492D01*
X148475300Y-92935647D01*
X148475301Y-92935647D01*
X148475302Y-92935646D01*
X148475304Y-92935646D01*
X148588342Y-92878050D01*
X148678050Y-92788342D01*
X148735646Y-92675304D01*
X148735646Y-92675302D01*
X148735647Y-92675301D01*
X148735647Y-92675300D01*
X148755492Y-92550003D01*
X148755492Y-92549996D01*
X148735647Y-92424700D01*
X148735646Y-92424698D01*
X148735646Y-92424696D01*
X148720361Y-92394698D01*
X148707466Y-92326031D01*
X148717413Y-92288319D01*
X148719013Y-92284697D01*
X148747583Y-92219991D01*
X148750498Y-92194865D01*
X148750497Y-92096853D01*
X148770181Y-92029817D01*
X148799011Y-91998479D01*
X148877928Y-91937923D01*
X148883674Y-91932178D01*
X148885002Y-91933506D01*
X148933041Y-91898421D01*
X149002786Y-91894258D01*
X149063710Y-91928463D01*
X149070822Y-91936669D01*
X149072076Y-91937923D01*
X149098169Y-91957945D01*
X149139372Y-92014373D01*
X149143527Y-92084119D01*
X149142458Y-92088414D01*
X149124500Y-92155434D01*
X149124500Y-92783448D01*
X149104815Y-92850487D01*
X149100821Y-92856329D01*
X149096953Y-92861653D01*
X149096950Y-92861657D01*
X149096950Y-92861658D01*
X149088598Y-92878050D01*
X149039352Y-92974698D01*
X149039352Y-92974699D01*
X149019508Y-93099996D01*
X149019508Y-93100003D01*
X149039352Y-93225300D01*
X149039352Y-93225301D01*
X149051697Y-93249529D01*
X149096950Y-93338342D01*
X149096952Y-93338344D01*
X149096954Y-93338347D01*
X149186652Y-93428045D01*
X149186656Y-93428048D01*
X149186658Y-93428050D01*
X149230161Y-93450216D01*
X149280955Y-93498188D01*
X149297750Y-93566009D01*
X149275213Y-93632144D01*
X149274188Y-93633576D01*
X149271954Y-93636651D01*
X149214352Y-93749698D01*
X149199057Y-93846272D01*
X149175876Y-93895171D01*
X149179497Y-93897529D01*
X149207776Y-93958776D01*
X149214352Y-94000300D01*
X149214352Y-94000301D01*
X149214354Y-94000304D01*
X149271950Y-94113342D01*
X149271952Y-94113344D01*
X149271954Y-94113347D01*
X149361652Y-94203045D01*
X149361654Y-94203046D01*
X149361658Y-94203050D01*
X149474696Y-94260646D01*
X149474697Y-94260646D01*
X149474699Y-94260647D01*
X149599997Y-94280492D01*
X149600000Y-94280492D01*
X149600003Y-94280492D01*
X149725300Y-94260647D01*
X149725301Y-94260647D01*
X149725302Y-94260646D01*
X149725304Y-94260646D01*
X149838342Y-94203050D01*
X149928050Y-94113342D01*
X149985646Y-94000304D01*
X149995523Y-93937936D01*
X150025450Y-93874804D01*
X150030297Y-93869673D01*
X150540458Y-93359513D01*
X150580020Y-93290990D01*
X150600498Y-93214564D01*
X150600498Y-93135440D01*
X150600498Y-92425833D01*
X150620183Y-92358794D01*
X150636817Y-92338152D01*
X150639953Y-92335016D01*
X150652204Y-92322765D01*
X150697583Y-92219991D01*
X150700498Y-92194865D01*
X150700497Y-92096853D01*
X150720181Y-92029817D01*
X150749011Y-91998479D01*
X150827925Y-91937926D01*
X150924102Y-91812586D01*
X150984556Y-91666634D01*
X150984557Y-91666630D01*
X150995963Y-91580000D01*
X150424002Y-91580000D01*
X150356963Y-91560315D01*
X150311208Y-91507511D01*
X150300002Y-91456000D01*
X150300002Y-91380000D01*
X150224002Y-91380000D01*
X150156963Y-91360315D01*
X150111208Y-91307511D01*
X150100002Y-91256000D01*
X150100002Y-91180000D01*
X150500002Y-91180000D01*
X150995961Y-91180000D01*
X150995962Y-91179998D01*
X150984559Y-91093372D01*
X150984557Y-91093366D01*
X150924102Y-90947414D01*
X150827926Y-90822075D01*
X150702588Y-90725899D01*
X150556633Y-90665444D01*
X150500002Y-90657987D01*
X150500002Y-91180000D01*
X150100002Y-91180000D01*
X150100002Y-90657988D01*
X150043367Y-90665444D01*
X150043365Y-90665445D01*
X149997451Y-90684462D01*
X149927982Y-90691929D01*
X149902552Y-90684462D01*
X149856636Y-90665444D01*
X149856637Y-90665444D01*
X149800003Y-90657988D01*
X149800003Y-91256000D01*
X149780318Y-91323039D01*
X149727514Y-91368794D01*
X149676003Y-91380000D01*
X149600003Y-91380000D01*
X149600003Y-91456000D01*
X149580318Y-91523039D01*
X149527514Y-91568794D01*
X149476003Y-91580000D01*
X147644002Y-91580000D01*
X147576963Y-91560315D01*
X147531208Y-91507511D01*
X147521114Y-91461112D01*
X147486319Y-91426317D01*
X147452834Y-91364994D01*
X147450000Y-91338636D01*
X147450000Y-91180000D01*
X147850000Y-91180000D01*
X148150002Y-91180000D01*
X148150002Y-90800000D01*
X147850000Y-90800000D01*
X147850000Y-91180000D01*
X147450000Y-91180000D01*
X147450000Y-90724000D01*
X147469384Y-90657987D01*
X148550002Y-90657987D01*
X148550002Y-91180000D01*
X149400003Y-91180000D01*
X149400003Y-90657987D01*
X149343371Y-90665444D01*
X149197416Y-90725899D01*
X149072073Y-90822079D01*
X149066331Y-90827822D01*
X149065005Y-90826496D01*
X149016936Y-90861588D01*
X148947190Y-90865735D01*
X148886273Y-90831515D01*
X148879179Y-90823327D01*
X148877931Y-90822079D01*
X148752588Y-90725899D01*
X148606633Y-90665444D01*
X148550002Y-90657987D01*
X147469384Y-90657987D01*
X147469685Y-90656961D01*
X147522489Y-90611206D01*
X147574000Y-90600000D01*
X147650000Y-90600000D01*
X147650000Y-90524000D01*
X147669685Y-90456961D01*
X147722489Y-90411206D01*
X147774000Y-90400000D01*
X148345959Y-90400000D01*
X148345960Y-90399998D01*
X148334557Y-90313372D01*
X148334555Y-90313366D01*
X148274100Y-90167414D01*
X148177922Y-90042073D01*
X148099016Y-89981525D01*
X148057813Y-89925097D01*
X148050503Y-89883150D01*
X148050503Y-89785143D01*
X148050503Y-89785136D01*
X148050501Y-89785117D01*
X148047590Y-89760012D01*
X148047589Y-89760010D01*
X148047589Y-89760009D01*
X148002210Y-89657235D01*
X147922769Y-89577794D01*
X147847782Y-89544684D01*
X147819996Y-89532415D01*
X147794872Y-89529500D01*
X147794869Y-89529500D01*
X147745030Y-89529500D01*
X147677991Y-89509815D01*
X147632236Y-89457011D01*
X147622557Y-89424897D01*
X147610647Y-89349699D01*
X147610647Y-89349698D01*
X147596420Y-89321777D01*
X147553050Y-89236658D01*
X147553046Y-89236654D01*
X147553045Y-89236652D01*
X147463347Y-89146954D01*
X147463344Y-89146952D01*
X147463342Y-89146950D01*
X147350304Y-89089354D01*
X147350303Y-89089353D01*
X147350300Y-89089352D01*
X147225003Y-89069508D01*
X147224997Y-89069508D01*
X147099699Y-89089352D01*
X147099698Y-89089352D01*
X147024337Y-89127751D01*
X146986658Y-89146950D01*
X146986657Y-89146951D01*
X146986652Y-89146954D01*
X146896954Y-89236652D01*
X146896951Y-89236657D01*
X146839352Y-89349698D01*
X146836337Y-89358980D01*
X146832702Y-89357798D01*
X146810828Y-89403931D01*
X146751513Y-89440858D01*
X146681651Y-89439854D01*
X146630610Y-89409072D01*
X146543315Y-89321777D01*
X146434486Y-89271029D01*
X146434484Y-89271028D01*
X146434485Y-89271028D01*
X146384901Y-89264501D01*
X146025101Y-89264501D01*
X146015456Y-89265771D01*
X145946422Y-89254999D01*
X145900965Y-89214646D01*
X145899500Y-89215784D01*
X145894715Y-89209615D01*
X145780384Y-89095284D01*
X145780375Y-89095277D01*
X145687950Y-89040617D01*
X145640266Y-88989547D01*
X145627763Y-88920806D01*
X145654409Y-88856217D01*
X145711744Y-88816287D01*
X145751390Y-88809885D01*
X151401325Y-88824676D01*
G37*
G04 #@! TD.AperFunction*
G04 #@! TA.AperFunction,Conductor*
G36*
X144743718Y-88807247D02*
G01*
X144810702Y-88827107D01*
X144856319Y-88880031D01*
X144866081Y-88949215D01*
X144836890Y-89012695D01*
X144806512Y-89037978D01*
X144709628Y-89095275D01*
X144709617Y-89095284D01*
X144595286Y-89209615D01*
X144595279Y-89209624D01*
X144512969Y-89348803D01*
X144512967Y-89348808D01*
X144467856Y-89504080D01*
X144467855Y-89504086D01*
X144466210Y-89524998D01*
X144466211Y-89524999D01*
X145121001Y-89524999D01*
X145188040Y-89544684D01*
X145233795Y-89597488D01*
X145245001Y-89648999D01*
X145245001Y-89900999D01*
X145225316Y-89968038D01*
X145172512Y-90013793D01*
X145121001Y-90024999D01*
X144466211Y-90024999D01*
X144467855Y-90045909D01*
X144512969Y-90201194D01*
X144595279Y-90340373D01*
X144595286Y-90340382D01*
X144614784Y-90359880D01*
X144648269Y-90421203D01*
X144643285Y-90490895D01*
X144614784Y-90535242D01*
X144330344Y-90819683D01*
X144269021Y-90853168D01*
X144262062Y-90854475D01*
X144199698Y-90864352D01*
X144149479Y-90889941D01*
X144080809Y-90902837D01*
X144016069Y-90876560D01*
X143975812Y-90819454D01*
X143973442Y-90811671D01*
X143973294Y-90811123D01*
X143966396Y-90787760D01*
X143966110Y-90786870D01*
X143958208Y-90764168D01*
X143949197Y-90740141D01*
X143946201Y-90732349D01*
X143946045Y-90731952D01*
X143942386Y-90722926D01*
X143932413Y-90698991D01*
X143929110Y-90691246D01*
X143928944Y-90690863D01*
X143925173Y-90682431D01*
X143914177Y-90658440D01*
X143904849Y-90639176D01*
X143904466Y-90638425D01*
X143894331Y-90619574D01*
X143881333Y-90596578D01*
X143874674Y-90585150D01*
X143874364Y-90584632D01*
X143867473Y-90573487D01*
X143839492Y-90529518D01*
X143827355Y-90511328D01*
X143826851Y-90510605D01*
X143814653Y-90493897D01*
X143798640Y-90472879D01*
X143790283Y-90462211D01*
X143789932Y-90461775D01*
X143781406Y-90451472D01*
X143764382Y-90431443D01*
X143755893Y-90421712D01*
X143755496Y-90421268D01*
X143745894Y-90410843D01*
X143727860Y-90391806D01*
X143718316Y-90382001D01*
X143717998Y-90381683D01*
X143708193Y-90372139D01*
X143689156Y-90354105D01*
X143678731Y-90344503D01*
X143678287Y-90344106D01*
X143668556Y-90335617D01*
X143648527Y-90318593D01*
X143638224Y-90310067D01*
X143637788Y-90309716D01*
X143627120Y-90301359D01*
X143606102Y-90285346D01*
X143589394Y-90273148D01*
X143588671Y-90272644D01*
X143570481Y-90260507D01*
X143526512Y-90232526D01*
X143515367Y-90225635D01*
X143514849Y-90225325D01*
X143503421Y-90218666D01*
X143480425Y-90205668D01*
X143461574Y-90195533D01*
X143460823Y-90195150D01*
X143441559Y-90185822D01*
X143417568Y-90174826D01*
X143409136Y-90171055D01*
X143408753Y-90170889D01*
X143401008Y-90167586D01*
X143377073Y-90157613D01*
X143368047Y-90153954D01*
X143367650Y-90153798D01*
X143359838Y-90150795D01*
X143335831Y-90141791D01*
X143313129Y-90133889D01*
X143312239Y-90133603D01*
X143288881Y-90126706D01*
X143262806Y-90119686D01*
X143256789Y-90118107D01*
X143256355Y-90117996D01*
X143249182Y-90116218D01*
X143224202Y-90110224D01*
X143212534Y-90107568D01*
X143212195Y-90107495D01*
X143201209Y-90105258D01*
X143175252Y-90100265D01*
X143156594Y-90097040D01*
X143155843Y-90096924D01*
X143137043Y-90094395D01*
X143110982Y-90091388D01*
X143102221Y-90090455D01*
X143101803Y-90090415D01*
X143091537Y-90089518D01*
X143065458Y-90087513D01*
X143055776Y-90086862D01*
X143055334Y-90086837D01*
X143045736Y-90086377D01*
X143019783Y-90085378D01*
X143009631Y-90085091D01*
X143009199Y-90085083D01*
X142999988Y-90085000D01*
X142850000Y-90085000D01*
X142850000Y-90850000D01*
X142350000Y-90850000D01*
X142350000Y-90085000D01*
X142200012Y-90085000D01*
X142190800Y-90085083D01*
X142190368Y-90085091D01*
X142180216Y-90085378D01*
X142154263Y-90086377D01*
X142144665Y-90086837D01*
X142144223Y-90086862D01*
X142134541Y-90087513D01*
X142108462Y-90089518D01*
X142098196Y-90090415D01*
X142097778Y-90090455D01*
X142089017Y-90091388D01*
X142062956Y-90094395D01*
X142044156Y-90096924D01*
X142043405Y-90097040D01*
X142024747Y-90100265D01*
X141998790Y-90105258D01*
X141987804Y-90107495D01*
X141987465Y-90107568D01*
X141975797Y-90110224D01*
X141950817Y-90116218D01*
X141943644Y-90117996D01*
X141943210Y-90118107D01*
X141937193Y-90119686D01*
X141911118Y-90126706D01*
X141887760Y-90133603D01*
X141886870Y-90133889D01*
X141864168Y-90141791D01*
X141840161Y-90150795D01*
X141832349Y-90153798D01*
X141831952Y-90153954D01*
X141822926Y-90157613D01*
X141798991Y-90167586D01*
X141791246Y-90170889D01*
X141790863Y-90171055D01*
X141782431Y-90174826D01*
X141758440Y-90185822D01*
X141739176Y-90195150D01*
X141738425Y-90195533D01*
X141719574Y-90205668D01*
X141696578Y-90218666D01*
X141685150Y-90225325D01*
X141684632Y-90225635D01*
X141673487Y-90232526D01*
X141629518Y-90260507D01*
X141611328Y-90272644D01*
X141610605Y-90273148D01*
X141593897Y-90285346D01*
X141572879Y-90301359D01*
X141562211Y-90309716D01*
X141561775Y-90310067D01*
X141551472Y-90318593D01*
X141531443Y-90335617D01*
X141521712Y-90344106D01*
X141521268Y-90344503D01*
X141510843Y-90354105D01*
X141491806Y-90372139D01*
X141482001Y-90381683D01*
X141481683Y-90382001D01*
X141472139Y-90391806D01*
X141454105Y-90410843D01*
X141444503Y-90421268D01*
X141444106Y-90421712D01*
X141435617Y-90431443D01*
X141418593Y-90451472D01*
X141410067Y-90461775D01*
X141409716Y-90462211D01*
X141401359Y-90472879D01*
X141385346Y-90493897D01*
X141373148Y-90510605D01*
X141372644Y-90511328D01*
X141360507Y-90529518D01*
X141332526Y-90573487D01*
X141325635Y-90584632D01*
X141325325Y-90585150D01*
X141318666Y-90596578D01*
X141305668Y-90619574D01*
X141295533Y-90638425D01*
X141295150Y-90639176D01*
X141285822Y-90658440D01*
X141274826Y-90682431D01*
X141271055Y-90690863D01*
X141270889Y-90691246D01*
X141267586Y-90698991D01*
X141257613Y-90722926D01*
X141253954Y-90731952D01*
X141253798Y-90732349D01*
X141250803Y-90740141D01*
X141241791Y-90764168D01*
X141233889Y-90786870D01*
X141233603Y-90787760D01*
X141226706Y-90811118D01*
X141219686Y-90837193D01*
X141218093Y-90843264D01*
X141217990Y-90843668D01*
X141216421Y-90849999D01*
X141216422Y-90850000D01*
X142150272Y-90850000D01*
X142058386Y-90888060D01*
X141988060Y-90958386D01*
X141950000Y-91050272D01*
X141950000Y-91149728D01*
X141988060Y-91241614D01*
X142058386Y-91311940D01*
X142150272Y-91350000D01*
X141216422Y-91350000D01*
X141217981Y-91356294D01*
X141218093Y-91356735D01*
X141219687Y-91362806D01*
X141221291Y-91368765D01*
X141219710Y-91438617D01*
X141180616Y-91496526D01*
X141116420Y-91524106D01*
X141101554Y-91525000D01*
X141050000Y-91525000D01*
X141050000Y-92051000D01*
X141030315Y-92118039D01*
X140977511Y-92163794D01*
X140926000Y-92175000D01*
X140874000Y-92175000D01*
X140806961Y-92155315D01*
X140761206Y-92102511D01*
X140750000Y-92051000D01*
X140750000Y-91525000D01*
X140552930Y-91525000D01*
X140485891Y-91505315D01*
X140440136Y-91452511D01*
X140428930Y-91401313D01*
X140425310Y-89949309D01*
X140444828Y-89882221D01*
X140497517Y-89836334D01*
X140549310Y-89825000D01*
X141975000Y-89825000D01*
X141975000Y-88924325D01*
X141994685Y-88857286D01*
X142047489Y-88811531D01*
X142099322Y-88800325D01*
X144743718Y-88807247D01*
G37*
G04 #@! TD.AperFunction*
M02*
