G04 #@! TF.GenerationSoftware,KiCad,Pcbnew,8.0.9-8.0.9-0~ubuntu22.04.1*
G04 #@! TF.CreationDate,2025-06-17T20:00:39-06:00*
G04 #@! TF.ProjectId,dongle,646f6e67-6c65-42e6-9b69-6361645f7063,rev?*
G04 #@! TF.SameCoordinates,Original*
G04 #@! TF.FileFunction,Soldermask,Top*
G04 #@! TF.FilePolarity,Negative*
%FSLAX46Y46*%
G04 Gerber Fmt 4.6, Leading zero omitted, Abs format (unit mm)*
G04 Created by KiCad (PCBNEW 8.0.9-8.0.9-0~ubuntu22.04.1) date 2025-06-17 20:00:39*
%MOMM*%
%LPD*%
G01*
G04 APERTURE LIST*
G04 Aperture macros list*
%AMRoundRect*
0 Rectangle with rounded corners*
0 $1 Rounding radius*
0 $2 $3 $4 $5 $6 $7 $8 $9 X,Y pos of 4 corners*
0 Add a 4 corners polygon primitive as box body*
4,1,4,$2,$3,$4,$5,$6,$7,$8,$9,$2,$3,0*
0 Add four circle primitives for the rounded corners*
1,1,$1+$1,$2,$3*
1,1,$1+$1,$4,$5*
1,1,$1+$1,$6,$7*
1,1,$1+$1,$8,$9*
0 Add four rect primitives between the rounded corners*
20,1,$1+$1,$2,$3,$4,$5,0*
20,1,$1+$1,$4,$5,$6,$7,0*
20,1,$1+$1,$6,$7,$8,$9,0*
20,1,$1+$1,$8,$9,$2,$3,0*%
G04 Aperture macros list end*
%ADD10C,0.010000*%
%ADD11RoundRect,0.147500X-0.147500X-0.172500X0.147500X-0.172500X0.147500X0.172500X-0.147500X0.172500X0*%
%ADD12RoundRect,0.100000X0.100000X-0.130000X0.100000X0.130000X-0.100000X0.130000X-0.100000X-0.130000X0*%
%ADD13R,0.850000X0.300000*%
%ADD14R,0.300000X0.850000*%
%ADD15RoundRect,0.100000X-0.100000X0.130000X-0.100000X-0.130000X0.100000X-0.130000X0.100000X0.130000X0*%
%ADD16RoundRect,0.100000X0.130000X0.100000X-0.130000X0.100000X-0.130000X-0.100000X0.130000X-0.100000X0*%
%ADD17RoundRect,0.140000X-0.170000X0.140000X-0.170000X-0.140000X0.170000X-0.140000X0.170000X0.140000X0*%
%ADD18RoundRect,0.147500X-0.172500X0.147500X-0.172500X-0.147500X0.172500X-0.147500X0.172500X0.147500X0*%
%ADD19R,1.200000X1.000000*%
%ADD20RoundRect,0.140000X0.140000X0.170000X-0.140000X0.170000X-0.140000X-0.170000X0.140000X-0.170000X0*%
%ADD21RoundRect,0.050000X-0.050000X0.050000X-0.050000X-0.050000X0.050000X-0.050000X0.050000X0.050000X0*%
G04 APERTURE END LIST*
D10*
X143031000Y-90501000D02*
X143063000Y-90503000D01*
X143094000Y-90507000D01*
X143125000Y-90513000D01*
X143155000Y-90520000D01*
X143185000Y-90529000D01*
X143215000Y-90540000D01*
X143244000Y-90552000D01*
X143272000Y-90565000D01*
X143300000Y-90580000D01*
X143327000Y-90597000D01*
X143353000Y-90615000D01*
X143378000Y-90634000D01*
X143401000Y-90654000D01*
X143424000Y-90676000D01*
X143446000Y-90699000D01*
X143466000Y-90722000D01*
X143485000Y-90747000D01*
X143503000Y-90773000D01*
X143520000Y-90800000D01*
X143535000Y-90828000D01*
X143548000Y-90856000D01*
X143560000Y-90885000D01*
X143571000Y-90915000D01*
X143580000Y-90945000D01*
X143587000Y-90975000D01*
X143593000Y-91006000D01*
X143597000Y-91037000D01*
X143599000Y-91069000D01*
X143600000Y-91100000D01*
X143599000Y-91131000D01*
X143597000Y-91163000D01*
X143593000Y-91194000D01*
X143587000Y-91225000D01*
X143580000Y-91255000D01*
X143571000Y-91285000D01*
X143560000Y-91315000D01*
X143548000Y-91344000D01*
X143535000Y-91372000D01*
X143520000Y-91400000D01*
X143503000Y-91427000D01*
X143485000Y-91453000D01*
X143466000Y-91478000D01*
X143446000Y-91501000D01*
X143424000Y-91524000D01*
X143401000Y-91546000D01*
X143378000Y-91566000D01*
X143353000Y-91585000D01*
X143327000Y-91603000D01*
X143300000Y-91620000D01*
X143272000Y-91635000D01*
X143244000Y-91648000D01*
X143215000Y-91660000D01*
X143185000Y-91671000D01*
X143155000Y-91680000D01*
X143125000Y-91687000D01*
X143094000Y-91693000D01*
X143063000Y-91697000D01*
X143031000Y-91699000D01*
X143000000Y-91700000D01*
X142200000Y-91700000D01*
X142169000Y-91699000D01*
X142137000Y-91697000D01*
X142106000Y-91693000D01*
X142075000Y-91687000D01*
X142045000Y-91680000D01*
X142015000Y-91671000D01*
X141985000Y-91660000D01*
X141956000Y-91648000D01*
X141928000Y-91635000D01*
X141900000Y-91620000D01*
X141873000Y-91603000D01*
X141847000Y-91585000D01*
X141822000Y-91566000D01*
X141799000Y-91546000D01*
X141776000Y-91524000D01*
X141754000Y-91501000D01*
X141734000Y-91478000D01*
X141715000Y-91453000D01*
X141697000Y-91427000D01*
X141680000Y-91400000D01*
X141665000Y-91372000D01*
X141652000Y-91344000D01*
X141640000Y-91315000D01*
X141629000Y-91285000D01*
X141620000Y-91255000D01*
X141613000Y-91225000D01*
X141607000Y-91194000D01*
X141603000Y-91163000D01*
X141601000Y-91131000D01*
X141600000Y-91100000D01*
X141601000Y-91069000D01*
X141603000Y-91037000D01*
X141607000Y-91006000D01*
X141613000Y-90975000D01*
X141620000Y-90945000D01*
X141629000Y-90915000D01*
X141640000Y-90885000D01*
X141652000Y-90856000D01*
X141665000Y-90828000D01*
X141680000Y-90800000D01*
X141697000Y-90773000D01*
X141715000Y-90747000D01*
X141734000Y-90722000D01*
X141754000Y-90699000D01*
X141776000Y-90676000D01*
X141799000Y-90654000D01*
X141822000Y-90634000D01*
X141847000Y-90615000D01*
X141873000Y-90597000D01*
X141900000Y-90580000D01*
X141928000Y-90565000D01*
X141956000Y-90552000D01*
X141985000Y-90540000D01*
X142015000Y-90529000D01*
X142045000Y-90520000D01*
X142075000Y-90513000D01*
X142106000Y-90507000D01*
X142137000Y-90503000D01*
X142169000Y-90501000D01*
X142200000Y-90500000D01*
X143000000Y-90500000D01*
X143031000Y-90501000D01*
G36*
X143031000Y-90501000D02*
G01*
X143063000Y-90503000D01*
X143094000Y-90507000D01*
X143125000Y-90513000D01*
X143155000Y-90520000D01*
X143185000Y-90529000D01*
X143215000Y-90540000D01*
X143244000Y-90552000D01*
X143272000Y-90565000D01*
X143300000Y-90580000D01*
X143327000Y-90597000D01*
X143353000Y-90615000D01*
X143378000Y-90634000D01*
X143401000Y-90654000D01*
X143424000Y-90676000D01*
X143446000Y-90699000D01*
X143466000Y-90722000D01*
X143485000Y-90747000D01*
X143503000Y-90773000D01*
X143520000Y-90800000D01*
X143535000Y-90828000D01*
X143548000Y-90856000D01*
X143560000Y-90885000D01*
X143571000Y-90915000D01*
X143580000Y-90945000D01*
X143587000Y-90975000D01*
X143593000Y-91006000D01*
X143597000Y-91037000D01*
X143599000Y-91069000D01*
X143600000Y-91100000D01*
X143599000Y-91131000D01*
X143597000Y-91163000D01*
X143593000Y-91194000D01*
X143587000Y-91225000D01*
X143580000Y-91255000D01*
X143571000Y-91285000D01*
X143560000Y-91315000D01*
X143548000Y-91344000D01*
X143535000Y-91372000D01*
X143520000Y-91400000D01*
X143503000Y-91427000D01*
X143485000Y-91453000D01*
X143466000Y-91478000D01*
X143446000Y-91501000D01*
X143424000Y-91524000D01*
X143401000Y-91546000D01*
X143378000Y-91566000D01*
X143353000Y-91585000D01*
X143327000Y-91603000D01*
X143300000Y-91620000D01*
X143272000Y-91635000D01*
X143244000Y-91648000D01*
X143215000Y-91660000D01*
X143185000Y-91671000D01*
X143155000Y-91680000D01*
X143125000Y-91687000D01*
X143094000Y-91693000D01*
X143063000Y-91697000D01*
X143031000Y-91699000D01*
X143000000Y-91700000D01*
X142200000Y-91700000D01*
X142169000Y-91699000D01*
X142137000Y-91697000D01*
X142106000Y-91693000D01*
X142075000Y-91687000D01*
X142045000Y-91680000D01*
X142015000Y-91671000D01*
X141985000Y-91660000D01*
X141956000Y-91648000D01*
X141928000Y-91635000D01*
X141900000Y-91620000D01*
X141873000Y-91603000D01*
X141847000Y-91585000D01*
X141822000Y-91566000D01*
X141799000Y-91546000D01*
X141776000Y-91524000D01*
X141754000Y-91501000D01*
X141734000Y-91478000D01*
X141715000Y-91453000D01*
X141697000Y-91427000D01*
X141680000Y-91400000D01*
X141665000Y-91372000D01*
X141652000Y-91344000D01*
X141640000Y-91315000D01*
X141629000Y-91285000D01*
X141620000Y-91255000D01*
X141613000Y-91225000D01*
X141607000Y-91194000D01*
X141603000Y-91163000D01*
X141601000Y-91131000D01*
X141600000Y-91100000D01*
X141601000Y-91069000D01*
X141603000Y-91037000D01*
X141607000Y-91006000D01*
X141613000Y-90975000D01*
X141620000Y-90945000D01*
X141629000Y-90915000D01*
X141640000Y-90885000D01*
X141652000Y-90856000D01*
X141665000Y-90828000D01*
X141680000Y-90800000D01*
X141697000Y-90773000D01*
X141715000Y-90747000D01*
X141734000Y-90722000D01*
X141754000Y-90699000D01*
X141776000Y-90676000D01*
X141799000Y-90654000D01*
X141822000Y-90634000D01*
X141847000Y-90615000D01*
X141873000Y-90597000D01*
X141900000Y-90580000D01*
X141928000Y-90565000D01*
X141956000Y-90552000D01*
X141985000Y-90540000D01*
X142015000Y-90529000D01*
X142045000Y-90520000D01*
X142075000Y-90513000D01*
X142106000Y-90507000D01*
X142137000Y-90503000D01*
X142169000Y-90501000D01*
X142200000Y-90500000D01*
X143000000Y-90500000D01*
X143031000Y-90501000D01*
G37*
X143031000Y-97901000D02*
X143063000Y-97903000D01*
X143094000Y-97907000D01*
X143125000Y-97913000D01*
X143155000Y-97920000D01*
X143185000Y-97929000D01*
X143215000Y-97940000D01*
X143244000Y-97952000D01*
X143272000Y-97965000D01*
X143300000Y-97980000D01*
X143327000Y-97997000D01*
X143353000Y-98015000D01*
X143378000Y-98034000D01*
X143401000Y-98054000D01*
X143424000Y-98076000D01*
X143446000Y-98099000D01*
X143466000Y-98122000D01*
X143485000Y-98147000D01*
X143503000Y-98173000D01*
X143520000Y-98200000D01*
X143535000Y-98228000D01*
X143548000Y-98256000D01*
X143560000Y-98285000D01*
X143571000Y-98315000D01*
X143580000Y-98345000D01*
X143587000Y-98375000D01*
X143593000Y-98406000D01*
X143597000Y-98437000D01*
X143599000Y-98469000D01*
X143600000Y-98500000D01*
X143599000Y-98531000D01*
X143597000Y-98563000D01*
X143593000Y-98594000D01*
X143587000Y-98625000D01*
X143580000Y-98655000D01*
X143571000Y-98685000D01*
X143560000Y-98715000D01*
X143548000Y-98744000D01*
X143535000Y-98772000D01*
X143520000Y-98800000D01*
X143503000Y-98827000D01*
X143485000Y-98853000D01*
X143466000Y-98878000D01*
X143446000Y-98901000D01*
X143424000Y-98924000D01*
X143401000Y-98946000D01*
X143378000Y-98966000D01*
X143353000Y-98985000D01*
X143327000Y-99003000D01*
X143300000Y-99020000D01*
X143272000Y-99035000D01*
X143244000Y-99048000D01*
X143215000Y-99060000D01*
X143185000Y-99071000D01*
X143155000Y-99080000D01*
X143125000Y-99087000D01*
X143094000Y-99093000D01*
X143063000Y-99097000D01*
X143031000Y-99099000D01*
X143000000Y-99100000D01*
X142200000Y-99100000D01*
X142169000Y-99099000D01*
X142137000Y-99097000D01*
X142106000Y-99093000D01*
X142075000Y-99087000D01*
X142045000Y-99080000D01*
X142015000Y-99071000D01*
X141985000Y-99060000D01*
X141956000Y-99048000D01*
X141928000Y-99035000D01*
X141900000Y-99020000D01*
X141873000Y-99003000D01*
X141847000Y-98985000D01*
X141822000Y-98966000D01*
X141799000Y-98946000D01*
X141776000Y-98924000D01*
X141754000Y-98901000D01*
X141734000Y-98878000D01*
X141715000Y-98853000D01*
X141697000Y-98827000D01*
X141680000Y-98800000D01*
X141665000Y-98772000D01*
X141652000Y-98744000D01*
X141640000Y-98715000D01*
X141629000Y-98685000D01*
X141620000Y-98655000D01*
X141613000Y-98625000D01*
X141607000Y-98594000D01*
X141603000Y-98563000D01*
X141601000Y-98531000D01*
X141600000Y-98500000D01*
X141601000Y-98469000D01*
X141603000Y-98437000D01*
X141607000Y-98406000D01*
X141613000Y-98375000D01*
X141620000Y-98345000D01*
X141629000Y-98315000D01*
X141640000Y-98285000D01*
X141652000Y-98256000D01*
X141665000Y-98228000D01*
X141680000Y-98200000D01*
X141697000Y-98173000D01*
X141715000Y-98147000D01*
X141734000Y-98122000D01*
X141754000Y-98099000D01*
X141776000Y-98076000D01*
X141799000Y-98054000D01*
X141822000Y-98034000D01*
X141847000Y-98015000D01*
X141873000Y-97997000D01*
X141900000Y-97980000D01*
X141928000Y-97965000D01*
X141956000Y-97952000D01*
X141985000Y-97940000D01*
X142015000Y-97929000D01*
X142045000Y-97920000D01*
X142075000Y-97913000D01*
X142106000Y-97907000D01*
X142137000Y-97903000D01*
X142169000Y-97901000D01*
X142200000Y-97900000D01*
X143000000Y-97900000D01*
X143031000Y-97901000D01*
G36*
X143031000Y-97901000D02*
G01*
X143063000Y-97903000D01*
X143094000Y-97907000D01*
X143125000Y-97913000D01*
X143155000Y-97920000D01*
X143185000Y-97929000D01*
X143215000Y-97940000D01*
X143244000Y-97952000D01*
X143272000Y-97965000D01*
X143300000Y-97980000D01*
X143327000Y-97997000D01*
X143353000Y-98015000D01*
X143378000Y-98034000D01*
X143401000Y-98054000D01*
X143424000Y-98076000D01*
X143446000Y-98099000D01*
X143466000Y-98122000D01*
X143485000Y-98147000D01*
X143503000Y-98173000D01*
X143520000Y-98200000D01*
X143535000Y-98228000D01*
X143548000Y-98256000D01*
X143560000Y-98285000D01*
X143571000Y-98315000D01*
X143580000Y-98345000D01*
X143587000Y-98375000D01*
X143593000Y-98406000D01*
X143597000Y-98437000D01*
X143599000Y-98469000D01*
X143600000Y-98500000D01*
X143599000Y-98531000D01*
X143597000Y-98563000D01*
X143593000Y-98594000D01*
X143587000Y-98625000D01*
X143580000Y-98655000D01*
X143571000Y-98685000D01*
X143560000Y-98715000D01*
X143548000Y-98744000D01*
X143535000Y-98772000D01*
X143520000Y-98800000D01*
X143503000Y-98827000D01*
X143485000Y-98853000D01*
X143466000Y-98878000D01*
X143446000Y-98901000D01*
X143424000Y-98924000D01*
X143401000Y-98946000D01*
X143378000Y-98966000D01*
X143353000Y-98985000D01*
X143327000Y-99003000D01*
X143300000Y-99020000D01*
X143272000Y-99035000D01*
X143244000Y-99048000D01*
X143215000Y-99060000D01*
X143185000Y-99071000D01*
X143155000Y-99080000D01*
X143125000Y-99087000D01*
X143094000Y-99093000D01*
X143063000Y-99097000D01*
X143031000Y-99099000D01*
X143000000Y-99100000D01*
X142200000Y-99100000D01*
X142169000Y-99099000D01*
X142137000Y-99097000D01*
X142106000Y-99093000D01*
X142075000Y-99087000D01*
X142045000Y-99080000D01*
X142015000Y-99071000D01*
X141985000Y-99060000D01*
X141956000Y-99048000D01*
X141928000Y-99035000D01*
X141900000Y-99020000D01*
X141873000Y-99003000D01*
X141847000Y-98985000D01*
X141822000Y-98966000D01*
X141799000Y-98946000D01*
X141776000Y-98924000D01*
X141754000Y-98901000D01*
X141734000Y-98878000D01*
X141715000Y-98853000D01*
X141697000Y-98827000D01*
X141680000Y-98800000D01*
X141665000Y-98772000D01*
X141652000Y-98744000D01*
X141640000Y-98715000D01*
X141629000Y-98685000D01*
X141620000Y-98655000D01*
X141613000Y-98625000D01*
X141607000Y-98594000D01*
X141603000Y-98563000D01*
X141601000Y-98531000D01*
X141600000Y-98500000D01*
X141601000Y-98469000D01*
X141603000Y-98437000D01*
X141607000Y-98406000D01*
X141613000Y-98375000D01*
X141620000Y-98345000D01*
X141629000Y-98315000D01*
X141640000Y-98285000D01*
X141652000Y-98256000D01*
X141665000Y-98228000D01*
X141680000Y-98200000D01*
X141697000Y-98173000D01*
X141715000Y-98147000D01*
X141734000Y-98122000D01*
X141754000Y-98099000D01*
X141776000Y-98076000D01*
X141799000Y-98054000D01*
X141822000Y-98034000D01*
X141847000Y-98015000D01*
X141873000Y-97997000D01*
X141900000Y-97980000D01*
X141928000Y-97965000D01*
X141956000Y-97952000D01*
X141985000Y-97940000D01*
X142015000Y-97929000D01*
X142045000Y-97920000D01*
X142075000Y-97913000D01*
X142106000Y-97907000D01*
X142137000Y-97903000D01*
X142169000Y-97901000D01*
X142200000Y-97900000D01*
X143000000Y-97900000D01*
X143031000Y-97901000D01*
G37*
D11*
X152065000Y-89800000D03*
X153035000Y-89800000D03*
D12*
X141050002Y-92820000D03*
X141049998Y-92180000D03*
D13*
X144550000Y-94475000D03*
X144550000Y-94975000D03*
X144550000Y-95475000D03*
X144550000Y-95975000D03*
X144550000Y-96475000D03*
X144550000Y-96975000D03*
X144550000Y-97475000D03*
X144550000Y-97975000D03*
D14*
X145250000Y-98675000D03*
X145750000Y-98675000D03*
X146250000Y-98675000D03*
X146750000Y-98675000D03*
X147250000Y-98675000D03*
X147750000Y-98675000D03*
X148250000Y-98675000D03*
X148750000Y-98675000D03*
D13*
X149450000Y-97975000D03*
X149450000Y-97475000D03*
X149450000Y-96975000D03*
X149450000Y-96475000D03*
X149450000Y-95975000D03*
X149450000Y-95475000D03*
X149450000Y-94975000D03*
X149450000Y-94475000D03*
D14*
X148750000Y-93775000D03*
X148250000Y-93775000D03*
X147750000Y-93775000D03*
X147250000Y-93775000D03*
X146750000Y-93775000D03*
X146250000Y-93775000D03*
X145750000Y-93775000D03*
X145250000Y-93775000D03*
D15*
X143325002Y-92255000D03*
X143324998Y-92895000D03*
D16*
X144400000Y-99550000D03*
X143760004Y-99550006D03*
D17*
X150700000Y-91625000D03*
X150700000Y-92584998D03*
D16*
X144399998Y-100375004D03*
X143760002Y-100375010D03*
D18*
X150750000Y-95540000D03*
X150750000Y-96510000D03*
D15*
X143200002Y-94805000D03*
X143199998Y-95445000D03*
D19*
X146050000Y-91599998D03*
X147750000Y-91599998D03*
X147750000Y-90299998D03*
X146050000Y-90299998D03*
D18*
X150725000Y-97515000D03*
X150725000Y-98485000D03*
D12*
X143375001Y-97070002D03*
X143374999Y-96429998D03*
D20*
X153030000Y-90825000D03*
X152070000Y-90825000D03*
D21*
X153080002Y-89600002D03*
D18*
X150700000Y-93565000D03*
X150700000Y-94535000D03*
M02*
