G04 #@! TF.GenerationSoftware,KiCad,Pcbnew,8.0.9-8.0.9-0~ubuntu22.04.1*
G04 #@! TF.CreationDate,2025-06-17T20:00:39-06:00*
G04 #@! TF.ProjectId,dongle,646f6e67-6c65-42e6-9b69-6361645f7063,rev?*
G04 #@! TF.SameCoordinates,Original*
G04 #@! TF.FileFunction,Legend,Top*
G04 #@! TF.FilePolarity,Positive*
%FSLAX46Y46*%
G04 Gerber Fmt 4.6, Leading zero omitted, Abs format (unit mm)*
G04 Created by KiCad (PCBNEW 8.0.9-8.0.9-0~ubuntu22.04.1) date 2025-06-17 20:00:39*
%MOMM*%
%LPD*%
G01*
G04 APERTURE LIST*
G04 Aperture macros list*
%AMRoundRect*
0 Rectangle with rounded corners*
0 $1 Rounding radius*
0 $2 $3 $4 $5 $6 $7 $8 $9 X,Y pos of 4 corners*
0 Add a 4 corners polygon primitive as box body*
4,1,4,$2,$3,$4,$5,$6,$7,$8,$9,$2,$3,0*
0 Add four circle primitives for the rounded corners*
1,1,$1+$1,$2,$3*
1,1,$1+$1,$4,$5*
1,1,$1+$1,$6,$7*
1,1,$1+$1,$8,$9*
0 Add four rect primitives between the rounded corners*
20,1,$1+$1,$2,$3,$4,$5,0*
20,1,$1+$1,$4,$5,$6,$7,0*
20,1,$1+$1,$6,$7,$8,$9,0*
20,1,$1+$1,$8,$9,$2,$3,0*%
G04 Aperture macros list end*
%ADD10C,0.125000*%
%ADD11C,0.150000*%
%ADD12C,0.250000*%
%ADD13C,0.120000*%
%ADD14C,0.100000*%
%ADD15C,0.010000*%
%ADD16RoundRect,0.147500X-0.147500X-0.172500X0.147500X-0.172500X0.147500X0.172500X-0.147500X0.172500X0*%
%ADD17RoundRect,0.100000X0.100000X-0.130000X0.100000X0.130000X-0.100000X0.130000X-0.100000X-0.130000X0*%
%ADD18R,0.850000X0.300000*%
%ADD19R,0.300000X0.850000*%
%ADD20RoundRect,0.100000X-0.100000X0.130000X-0.100000X-0.130000X0.100000X-0.130000X0.100000X0.130000X0*%
%ADD21RoundRect,0.100000X0.130000X0.100000X-0.130000X0.100000X-0.130000X-0.100000X0.130000X-0.100000X0*%
%ADD22RoundRect,0.140000X-0.170000X0.140000X-0.170000X-0.140000X0.170000X-0.140000X0.170000X0.140000X0*%
%ADD23RoundRect,0.147500X-0.172500X0.147500X-0.172500X-0.147500X0.172500X-0.147500X0.172500X0.147500X0*%
%ADD24R,1.200000X1.000000*%
%ADD25RoundRect,0.140000X0.140000X0.170000X-0.140000X0.170000X-0.140000X-0.170000X0.140000X-0.170000X0*%
%ADD26RoundRect,0.050000X-0.050000X0.050000X-0.050000X-0.050000X0.050000X-0.050000X0.050000X0.050000X0*%
G04 APERTURE END LIST*
D10*
X141851283Y-94282309D02*
X141851283Y-93782309D01*
X141851283Y-93782309D02*
X141970331Y-93782309D01*
X141970331Y-93782309D02*
X142041759Y-93806119D01*
X142041759Y-93806119D02*
X142089378Y-93853738D01*
X142089378Y-93853738D02*
X142113188Y-93901357D01*
X142113188Y-93901357D02*
X142136997Y-93996595D01*
X142136997Y-93996595D02*
X142136997Y-94068023D01*
X142136997Y-94068023D02*
X142113188Y-94163261D01*
X142113188Y-94163261D02*
X142089378Y-94210880D01*
X142089378Y-94210880D02*
X142041759Y-94258500D01*
X142041759Y-94258500D02*
X141970331Y-94282309D01*
X141970331Y-94282309D02*
X141851283Y-94282309D01*
X142351283Y-94091833D02*
X142732236Y-94091833D01*
X142541759Y-94282309D02*
X142541759Y-93901357D01*
X140876283Y-97732309D02*
X140876283Y-97232309D01*
X140876283Y-97232309D02*
X140995331Y-97232309D01*
X140995331Y-97232309D02*
X141066759Y-97256119D01*
X141066759Y-97256119D02*
X141114378Y-97303738D01*
X141114378Y-97303738D02*
X141138188Y-97351357D01*
X141138188Y-97351357D02*
X141161997Y-97446595D01*
X141161997Y-97446595D02*
X141161997Y-97518023D01*
X141161997Y-97518023D02*
X141138188Y-97613261D01*
X141138188Y-97613261D02*
X141114378Y-97660880D01*
X141114378Y-97660880D02*
X141066759Y-97708500D01*
X141066759Y-97708500D02*
X140995331Y-97732309D01*
X140995331Y-97732309D02*
X140876283Y-97732309D01*
X141376283Y-97541833D02*
X141757236Y-97541833D01*
X153039378Y-99882309D02*
X152801283Y-99882309D01*
X152801283Y-99882309D02*
X152801283Y-99382309D01*
X153206045Y-99882309D02*
X153206045Y-99382309D01*
X153206045Y-99382309D02*
X153325093Y-99382309D01*
X153325093Y-99382309D02*
X153396521Y-99406119D01*
X153396521Y-99406119D02*
X153444140Y-99453738D01*
X153444140Y-99453738D02*
X153467950Y-99501357D01*
X153467950Y-99501357D02*
X153491759Y-99596595D01*
X153491759Y-99596595D02*
X153491759Y-99668023D01*
X153491759Y-99668023D02*
X153467950Y-99763261D01*
X153467950Y-99763261D02*
X153444140Y-99810880D01*
X153444140Y-99810880D02*
X153396521Y-99858500D01*
X153396521Y-99858500D02*
X153325093Y-99882309D01*
X153325093Y-99882309D02*
X153206045Y-99882309D01*
X153706045Y-99691833D02*
X154086998Y-99691833D01*
X154610807Y-99882309D02*
X154444141Y-99644214D01*
X154325093Y-99882309D02*
X154325093Y-99382309D01*
X154325093Y-99382309D02*
X154515569Y-99382309D01*
X154515569Y-99382309D02*
X154563188Y-99406119D01*
X154563188Y-99406119D02*
X154586998Y-99429928D01*
X154586998Y-99429928D02*
X154610807Y-99477547D01*
X154610807Y-99477547D02*
X154610807Y-99548976D01*
X154610807Y-99548976D02*
X154586998Y-99596595D01*
X154586998Y-99596595D02*
X154563188Y-99620404D01*
X154563188Y-99620404D02*
X154515569Y-99644214D01*
X154515569Y-99644214D02*
X154325093Y-99644214D01*
X154753665Y-99382309D02*
X154920331Y-99882309D01*
X154920331Y-99882309D02*
X155086998Y-99382309D01*
X155515569Y-99882309D02*
X155229855Y-99882309D01*
X155372712Y-99882309D02*
X155372712Y-99382309D01*
X155372712Y-99382309D02*
X155325093Y-99453738D01*
X155325093Y-99453738D02*
X155277474Y-99501357D01*
X155277474Y-99501357D02*
X155229855Y-99525166D01*
X155729854Y-99834690D02*
X155753664Y-99858500D01*
X155753664Y-99858500D02*
X155729854Y-99882309D01*
X155729854Y-99882309D02*
X155706045Y-99858500D01*
X155706045Y-99858500D02*
X155729854Y-99834690D01*
X155729854Y-99834690D02*
X155729854Y-99882309D01*
X156063187Y-99382309D02*
X156110806Y-99382309D01*
X156110806Y-99382309D02*
X156158425Y-99406119D01*
X156158425Y-99406119D02*
X156182235Y-99429928D01*
X156182235Y-99429928D02*
X156206044Y-99477547D01*
X156206044Y-99477547D02*
X156229854Y-99572785D01*
X156229854Y-99572785D02*
X156229854Y-99691833D01*
X156229854Y-99691833D02*
X156206044Y-99787071D01*
X156206044Y-99787071D02*
X156182235Y-99834690D01*
X156182235Y-99834690D02*
X156158425Y-99858500D01*
X156158425Y-99858500D02*
X156110806Y-99882309D01*
X156110806Y-99882309D02*
X156063187Y-99882309D01*
X156063187Y-99882309D02*
X156015568Y-99858500D01*
X156015568Y-99858500D02*
X155991759Y-99834690D01*
X155991759Y-99834690D02*
X155967949Y-99787071D01*
X155967949Y-99787071D02*
X155944140Y-99691833D01*
X155944140Y-99691833D02*
X155944140Y-99572785D01*
X155944140Y-99572785D02*
X155967949Y-99477547D01*
X155967949Y-99477547D02*
X155991759Y-99429928D01*
X155991759Y-99429928D02*
X156015568Y-99406119D01*
X156015568Y-99406119D02*
X156063187Y-99382309D01*
X154141666Y-90124809D02*
X153903571Y-90124809D01*
X153903571Y-90124809D02*
X153903571Y-89624809D01*
X154522619Y-89791476D02*
X154522619Y-90124809D01*
X154403571Y-89601000D02*
X154284524Y-89958142D01*
X154284524Y-89958142D02*
X154594047Y-89958142D01*
X141249809Y-91533333D02*
X141011714Y-91699999D01*
X141249809Y-91819047D02*
X140749809Y-91819047D01*
X140749809Y-91819047D02*
X140749809Y-91628571D01*
X140749809Y-91628571D02*
X140773619Y-91580952D01*
X140773619Y-91580952D02*
X140797428Y-91557142D01*
X140797428Y-91557142D02*
X140845047Y-91533333D01*
X140845047Y-91533333D02*
X140916476Y-91533333D01*
X140916476Y-91533333D02*
X140964095Y-91557142D01*
X140964095Y-91557142D02*
X140987904Y-91580952D01*
X140987904Y-91580952D02*
X141011714Y-91628571D01*
X141011714Y-91628571D02*
X141011714Y-91819047D01*
X140749809Y-91366666D02*
X140749809Y-91057142D01*
X140749809Y-91057142D02*
X140940285Y-91223809D01*
X140940285Y-91223809D02*
X140940285Y-91152380D01*
X140940285Y-91152380D02*
X140964095Y-91104761D01*
X140964095Y-91104761D02*
X140987904Y-91080952D01*
X140987904Y-91080952D02*
X141035523Y-91057142D01*
X141035523Y-91057142D02*
X141154571Y-91057142D01*
X141154571Y-91057142D02*
X141202190Y-91080952D01*
X141202190Y-91080952D02*
X141226000Y-91104761D01*
X141226000Y-91104761D02*
X141249809Y-91152380D01*
X141249809Y-91152380D02*
X141249809Y-91295237D01*
X141249809Y-91295237D02*
X141226000Y-91342856D01*
X141226000Y-91342856D02*
X141202190Y-91366666D01*
X144069047Y-93199809D02*
X144069047Y-93604571D01*
X144069047Y-93604571D02*
X144092857Y-93652190D01*
X144092857Y-93652190D02*
X144116666Y-93676000D01*
X144116666Y-93676000D02*
X144164285Y-93699809D01*
X144164285Y-93699809D02*
X144259523Y-93699809D01*
X144259523Y-93699809D02*
X144307142Y-93676000D01*
X144307142Y-93676000D02*
X144330952Y-93652190D01*
X144330952Y-93652190D02*
X144354761Y-93604571D01*
X144354761Y-93604571D02*
X144354761Y-93199809D01*
X144854762Y-93699809D02*
X144569048Y-93699809D01*
X144711905Y-93699809D02*
X144711905Y-93199809D01*
X144711905Y-93199809D02*
X144664286Y-93271238D01*
X144664286Y-93271238D02*
X144616667Y-93318857D01*
X144616667Y-93318857D02*
X144569048Y-93342666D01*
X142824809Y-92608333D02*
X142586714Y-92774999D01*
X142824809Y-92894047D02*
X142324809Y-92894047D01*
X142324809Y-92894047D02*
X142324809Y-92703571D01*
X142324809Y-92703571D02*
X142348619Y-92655952D01*
X142348619Y-92655952D02*
X142372428Y-92632142D01*
X142372428Y-92632142D02*
X142420047Y-92608333D01*
X142420047Y-92608333D02*
X142491476Y-92608333D01*
X142491476Y-92608333D02*
X142539095Y-92632142D01*
X142539095Y-92632142D02*
X142562904Y-92655952D01*
X142562904Y-92655952D02*
X142586714Y-92703571D01*
X142586714Y-92703571D02*
X142586714Y-92894047D01*
X142824809Y-92132142D02*
X142824809Y-92417856D01*
X142824809Y-92274999D02*
X142324809Y-92274999D01*
X142324809Y-92274999D02*
X142396238Y-92322618D01*
X142396238Y-92322618D02*
X142443857Y-92370237D01*
X142443857Y-92370237D02*
X142467666Y-92417856D01*
X141941666Y-99849809D02*
X141775000Y-99611714D01*
X141655952Y-99849809D02*
X141655952Y-99349809D01*
X141655952Y-99349809D02*
X141846428Y-99349809D01*
X141846428Y-99349809D02*
X141894047Y-99373619D01*
X141894047Y-99373619D02*
X141917857Y-99397428D01*
X141917857Y-99397428D02*
X141941666Y-99445047D01*
X141941666Y-99445047D02*
X141941666Y-99516476D01*
X141941666Y-99516476D02*
X141917857Y-99564095D01*
X141917857Y-99564095D02*
X141894047Y-99587904D01*
X141894047Y-99587904D02*
X141846428Y-99611714D01*
X141846428Y-99611714D02*
X141655952Y-99611714D01*
X142394047Y-99349809D02*
X142155952Y-99349809D01*
X142155952Y-99349809D02*
X142132143Y-99587904D01*
X142132143Y-99587904D02*
X142155952Y-99564095D01*
X142155952Y-99564095D02*
X142203571Y-99540285D01*
X142203571Y-99540285D02*
X142322619Y-99540285D01*
X142322619Y-99540285D02*
X142370238Y-99564095D01*
X142370238Y-99564095D02*
X142394047Y-99587904D01*
X142394047Y-99587904D02*
X142417857Y-99635523D01*
X142417857Y-99635523D02*
X142417857Y-99754571D01*
X142417857Y-99754571D02*
X142394047Y-99802190D01*
X142394047Y-99802190D02*
X142370238Y-99826000D01*
X142370238Y-99826000D02*
X142322619Y-99849809D01*
X142322619Y-99849809D02*
X142203571Y-99849809D01*
X142203571Y-99849809D02*
X142155952Y-99826000D01*
X142155952Y-99826000D02*
X142132143Y-99802190D01*
X151952190Y-92208333D02*
X151976000Y-92232142D01*
X151976000Y-92232142D02*
X151999809Y-92303571D01*
X151999809Y-92303571D02*
X151999809Y-92351190D01*
X151999809Y-92351190D02*
X151976000Y-92422618D01*
X151976000Y-92422618D02*
X151928380Y-92470237D01*
X151928380Y-92470237D02*
X151880761Y-92494047D01*
X151880761Y-92494047D02*
X151785523Y-92517856D01*
X151785523Y-92517856D02*
X151714095Y-92517856D01*
X151714095Y-92517856D02*
X151618857Y-92494047D01*
X151618857Y-92494047D02*
X151571238Y-92470237D01*
X151571238Y-92470237D02*
X151523619Y-92422618D01*
X151523619Y-92422618D02*
X151499809Y-92351190D01*
X151499809Y-92351190D02*
X151499809Y-92303571D01*
X151499809Y-92303571D02*
X151523619Y-92232142D01*
X151523619Y-92232142D02*
X151547428Y-92208333D01*
X151499809Y-91755952D02*
X151499809Y-91994047D01*
X151499809Y-91994047D02*
X151737904Y-92017856D01*
X151737904Y-92017856D02*
X151714095Y-91994047D01*
X151714095Y-91994047D02*
X151690285Y-91946428D01*
X151690285Y-91946428D02*
X151690285Y-91827380D01*
X151690285Y-91827380D02*
X151714095Y-91779761D01*
X151714095Y-91779761D02*
X151737904Y-91755952D01*
X151737904Y-91755952D02*
X151785523Y-91732142D01*
X151785523Y-91732142D02*
X151904571Y-91732142D01*
X151904571Y-91732142D02*
X151952190Y-91755952D01*
X151952190Y-91755952D02*
X151976000Y-91779761D01*
X151976000Y-91779761D02*
X151999809Y-91827380D01*
X151999809Y-91827380D02*
X151999809Y-91946428D01*
X151999809Y-91946428D02*
X151976000Y-91994047D01*
X151976000Y-91994047D02*
X151952190Y-92017856D01*
X142516666Y-100652190D02*
X142492857Y-100676000D01*
X142492857Y-100676000D02*
X142421428Y-100699809D01*
X142421428Y-100699809D02*
X142373809Y-100699809D01*
X142373809Y-100699809D02*
X142302381Y-100676000D01*
X142302381Y-100676000D02*
X142254762Y-100628380D01*
X142254762Y-100628380D02*
X142230952Y-100580761D01*
X142230952Y-100580761D02*
X142207143Y-100485523D01*
X142207143Y-100485523D02*
X142207143Y-100414095D01*
X142207143Y-100414095D02*
X142230952Y-100318857D01*
X142230952Y-100318857D02*
X142254762Y-100271238D01*
X142254762Y-100271238D02*
X142302381Y-100223619D01*
X142302381Y-100223619D02*
X142373809Y-100199809D01*
X142373809Y-100199809D02*
X142421428Y-100199809D01*
X142421428Y-100199809D02*
X142492857Y-100223619D01*
X142492857Y-100223619D02*
X142516666Y-100247428D01*
X142683333Y-100199809D02*
X143016666Y-100199809D01*
X143016666Y-100199809D02*
X142802381Y-100699809D01*
X152024809Y-96108333D02*
X152024809Y-96346428D01*
X152024809Y-96346428D02*
X151524809Y-96346428D01*
X152024809Y-95679761D02*
X152024809Y-95965475D01*
X152024809Y-95822618D02*
X151524809Y-95822618D01*
X151524809Y-95822618D02*
X151596238Y-95870237D01*
X151596238Y-95870237D02*
X151643857Y-95917856D01*
X151643857Y-95917856D02*
X151667666Y-95965475D01*
X142120603Y-95226229D02*
X141949806Y-94991079D01*
X141834932Y-95231216D02*
X141826206Y-94731292D01*
X141826206Y-94731292D02*
X142016653Y-94727967D01*
X142016653Y-94727967D02*
X142064680Y-94750942D01*
X142064680Y-94750942D02*
X142088902Y-94774333D01*
X142088902Y-94774333D02*
X142113538Y-94821529D01*
X142113538Y-94821529D02*
X142114785Y-94892947D01*
X142114785Y-94892947D02*
X142091810Y-94940974D01*
X142091810Y-94940974D02*
X142068420Y-94965195D01*
X142068420Y-94965195D02*
X142021224Y-94989832D01*
X142021224Y-94989832D02*
X141830776Y-94993157D01*
X142358662Y-95222074D02*
X142453885Y-95220412D01*
X142453885Y-95220412D02*
X142501081Y-95195775D01*
X142501081Y-95195775D02*
X142524472Y-95171553D01*
X142524472Y-95171553D02*
X142570837Y-95099305D01*
X142570837Y-95099305D02*
X142592981Y-95003665D01*
X142592981Y-95003665D02*
X142589656Y-94813218D01*
X142589656Y-94813218D02*
X142565019Y-94766022D01*
X142565019Y-94766022D02*
X142540798Y-94742632D01*
X142540798Y-94742632D02*
X142492771Y-94719657D01*
X142492771Y-94719657D02*
X142397547Y-94721319D01*
X142397547Y-94721319D02*
X142350351Y-94745956D01*
X142350351Y-94745956D02*
X142326961Y-94770177D01*
X142326961Y-94770177D02*
X142303986Y-94818205D01*
X142303986Y-94818205D02*
X142306063Y-94937234D01*
X142306063Y-94937234D02*
X142330700Y-94984430D01*
X142330700Y-94984430D02*
X142354922Y-95007821D01*
X142354922Y-95007821D02*
X142402949Y-95030796D01*
X142402949Y-95030796D02*
X142498173Y-95029133D01*
X142498173Y-95029133D02*
X142545369Y-95004496D01*
X142545369Y-95004496D02*
X142568759Y-94980275D01*
X142568759Y-94980275D02*
X142591734Y-94932248D01*
D11*
X144014285Y-89894771D02*
X144414285Y-90494771D01*
X144414285Y-89894771D02*
X144014285Y-90494771D01*
X144957142Y-90494771D02*
X144614285Y-90494771D01*
X144785714Y-90494771D02*
X144785714Y-89894771D01*
X144785714Y-89894771D02*
X144728571Y-89980485D01*
X144728571Y-89980485D02*
X144671428Y-90037628D01*
X144671428Y-90037628D02*
X144614285Y-90066200D01*
D10*
X152024809Y-98083333D02*
X152024809Y-98321428D01*
X152024809Y-98321428D02*
X151524809Y-98321428D01*
X151572428Y-97940475D02*
X151548619Y-97916666D01*
X151548619Y-97916666D02*
X151524809Y-97869047D01*
X151524809Y-97869047D02*
X151524809Y-97749999D01*
X151524809Y-97749999D02*
X151548619Y-97702380D01*
X151548619Y-97702380D02*
X151572428Y-97678571D01*
X151572428Y-97678571D02*
X151620047Y-97654761D01*
X151620047Y-97654761D02*
X151667666Y-97654761D01*
X151667666Y-97654761D02*
X151739095Y-97678571D01*
X151739095Y-97678571D02*
X152024809Y-97964285D01*
X152024809Y-97964285D02*
X152024809Y-97654761D01*
X141782544Y-97030384D02*
X141611747Y-96795234D01*
X141496873Y-97035371D02*
X141488147Y-96535447D01*
X141488147Y-96535447D02*
X141678594Y-96532123D01*
X141678594Y-96532123D02*
X141726621Y-96555098D01*
X141726621Y-96555098D02*
X141750843Y-96578488D01*
X141750843Y-96578488D02*
X141775480Y-96625684D01*
X141775480Y-96625684D02*
X141776726Y-96697102D01*
X141776726Y-96697102D02*
X141753752Y-96745129D01*
X141753752Y-96745129D02*
X141730361Y-96769351D01*
X141730361Y-96769351D02*
X141683165Y-96793988D01*
X141683165Y-96793988D02*
X141492718Y-96797312D01*
X142258662Y-97022074D02*
X141972991Y-97027060D01*
X142115826Y-97024567D02*
X142107100Y-96524643D01*
X142107100Y-96524643D02*
X142060735Y-96596892D01*
X142060735Y-96596892D02*
X142013954Y-96645335D01*
X142013954Y-96645335D02*
X141966758Y-96669972D01*
X142559412Y-96516748D02*
X142607024Y-96515917D01*
X142607024Y-96515917D02*
X142655051Y-96538892D01*
X142655051Y-96538892D02*
X142679272Y-96562282D01*
X142679272Y-96562282D02*
X142703909Y-96609478D01*
X142703909Y-96609478D02*
X142729377Y-96704286D01*
X142729377Y-96704286D02*
X142731455Y-96823316D01*
X142731455Y-96823316D02*
X142709311Y-96918955D01*
X142709311Y-96918955D02*
X142686336Y-96966982D01*
X142686336Y-96966982D02*
X142662946Y-96991204D01*
X142662946Y-96991204D02*
X142615750Y-97015841D01*
X142615750Y-97015841D02*
X142568138Y-97016672D01*
X142568138Y-97016672D02*
X142520111Y-96993697D01*
X142520111Y-96993697D02*
X142495889Y-96970307D01*
X142495889Y-96970307D02*
X142471252Y-96923110D01*
X142471252Y-96923110D02*
X142445784Y-96828302D01*
X142445784Y-96828302D02*
X142443707Y-96709273D01*
X142443707Y-96709273D02*
X142465850Y-96613634D01*
X142465850Y-96613634D02*
X142488825Y-96565606D01*
X142488825Y-96565606D02*
X142512216Y-96541385D01*
X142512216Y-96541385D02*
X142559412Y-96516748D01*
X154153571Y-91202190D02*
X154129762Y-91226000D01*
X154129762Y-91226000D02*
X154058333Y-91249809D01*
X154058333Y-91249809D02*
X154010714Y-91249809D01*
X154010714Y-91249809D02*
X153939286Y-91226000D01*
X153939286Y-91226000D02*
X153891667Y-91178380D01*
X153891667Y-91178380D02*
X153867857Y-91130761D01*
X153867857Y-91130761D02*
X153844048Y-91035523D01*
X153844048Y-91035523D02*
X153844048Y-90964095D01*
X153844048Y-90964095D02*
X153867857Y-90868857D01*
X153867857Y-90868857D02*
X153891667Y-90821238D01*
X153891667Y-90821238D02*
X153939286Y-90773619D01*
X153939286Y-90773619D02*
X154010714Y-90749809D01*
X154010714Y-90749809D02*
X154058333Y-90749809D01*
X154058333Y-90749809D02*
X154129762Y-90773619D01*
X154129762Y-90773619D02*
X154153571Y-90797428D01*
X154629762Y-91249809D02*
X154344048Y-91249809D01*
X154486905Y-91249809D02*
X154486905Y-90749809D01*
X154486905Y-90749809D02*
X154439286Y-90821238D01*
X154439286Y-90821238D02*
X154391667Y-90868857D01*
X154391667Y-90868857D02*
X154344048Y-90892666D01*
X155058333Y-90749809D02*
X154963095Y-90749809D01*
X154963095Y-90749809D02*
X154915476Y-90773619D01*
X154915476Y-90773619D02*
X154891666Y-90797428D01*
X154891666Y-90797428D02*
X154844047Y-90868857D01*
X154844047Y-90868857D02*
X154820238Y-90964095D01*
X154820238Y-90964095D02*
X154820238Y-91154571D01*
X154820238Y-91154571D02*
X154844047Y-91202190D01*
X154844047Y-91202190D02*
X154867857Y-91226000D01*
X154867857Y-91226000D02*
X154915476Y-91249809D01*
X154915476Y-91249809D02*
X155010714Y-91249809D01*
X155010714Y-91249809D02*
X155058333Y-91226000D01*
X155058333Y-91226000D02*
X155082142Y-91202190D01*
X155082142Y-91202190D02*
X155105952Y-91154571D01*
X155105952Y-91154571D02*
X155105952Y-91035523D01*
X155105952Y-91035523D02*
X155082142Y-90987904D01*
X155082142Y-90987904D02*
X155058333Y-90964095D01*
X155058333Y-90964095D02*
X155010714Y-90940285D01*
X155010714Y-90940285D02*
X154915476Y-90940285D01*
X154915476Y-90940285D02*
X154867857Y-90964095D01*
X154867857Y-90964095D02*
X154844047Y-90987904D01*
X154844047Y-90987904D02*
X154820238Y-91035523D01*
X152099809Y-94133333D02*
X152099809Y-94371428D01*
X152099809Y-94371428D02*
X151599809Y-94371428D01*
X151599809Y-94014285D02*
X151599809Y-93704761D01*
X151599809Y-93704761D02*
X151790285Y-93871428D01*
X151790285Y-93871428D02*
X151790285Y-93799999D01*
X151790285Y-93799999D02*
X151814095Y-93752380D01*
X151814095Y-93752380D02*
X151837904Y-93728571D01*
X151837904Y-93728571D02*
X151885523Y-93704761D01*
X151885523Y-93704761D02*
X152004571Y-93704761D01*
X152004571Y-93704761D02*
X152052190Y-93728571D01*
X152052190Y-93728571D02*
X152076000Y-93752380D01*
X152076000Y-93752380D02*
X152099809Y-93799999D01*
X152099809Y-93799999D02*
X152099809Y-93942856D01*
X152099809Y-93942856D02*
X152076000Y-93990475D01*
X152076000Y-93990475D02*
X152052190Y-94014285D01*
D12*
X144250000Y-93725000D02*
G75*
G02*
X144000000Y-93725000I-125000J0D01*
G01*
X144000000Y-93725000D02*
G75*
G02*
X144250000Y-93725000I125000J0D01*
G01*
D13*
X150339998Y-91997166D02*
X150340002Y-92212837D01*
X151059998Y-91997161D02*
X151060002Y-92212832D01*
D14*
X145580000Y-92839998D02*
X146380000Y-92839998D01*
X145990000Y-92409998D02*
X145580000Y-92839998D01*
X146380000Y-92839998D02*
X145990000Y-92409998D01*
D13*
X152657836Y-90465000D02*
X152442164Y-90465000D01*
X152657836Y-91185000D02*
X152442164Y-91185000D01*
%LPC*%
D15*
X143031000Y-90501000D02*
X143063000Y-90503000D01*
X143094000Y-90507000D01*
X143125000Y-90513000D01*
X143155000Y-90520000D01*
X143185000Y-90529000D01*
X143215000Y-90540000D01*
X143244000Y-90552000D01*
X143272000Y-90565000D01*
X143300000Y-90580000D01*
X143327000Y-90597000D01*
X143353000Y-90615000D01*
X143378000Y-90634000D01*
X143401000Y-90654000D01*
X143424000Y-90676000D01*
X143446000Y-90699000D01*
X143466000Y-90722000D01*
X143485000Y-90747000D01*
X143503000Y-90773000D01*
X143520000Y-90800000D01*
X143535000Y-90828000D01*
X143548000Y-90856000D01*
X143560000Y-90885000D01*
X143571000Y-90915000D01*
X143580000Y-90945000D01*
X143587000Y-90975000D01*
X143593000Y-91006000D01*
X143597000Y-91037000D01*
X143599000Y-91069000D01*
X143600000Y-91100000D01*
X143599000Y-91131000D01*
X143597000Y-91163000D01*
X143593000Y-91194000D01*
X143587000Y-91225000D01*
X143580000Y-91255000D01*
X143571000Y-91285000D01*
X143560000Y-91315000D01*
X143548000Y-91344000D01*
X143535000Y-91372000D01*
X143520000Y-91400000D01*
X143503000Y-91427000D01*
X143485000Y-91453000D01*
X143466000Y-91478000D01*
X143446000Y-91501000D01*
X143424000Y-91524000D01*
X143401000Y-91546000D01*
X143378000Y-91566000D01*
X143353000Y-91585000D01*
X143327000Y-91603000D01*
X143300000Y-91620000D01*
X143272000Y-91635000D01*
X143244000Y-91648000D01*
X143215000Y-91660000D01*
X143185000Y-91671000D01*
X143155000Y-91680000D01*
X143125000Y-91687000D01*
X143094000Y-91693000D01*
X143063000Y-91697000D01*
X143031000Y-91699000D01*
X143000000Y-91700000D01*
X142200000Y-91700000D01*
X142169000Y-91699000D01*
X142137000Y-91697000D01*
X142106000Y-91693000D01*
X142075000Y-91687000D01*
X142045000Y-91680000D01*
X142015000Y-91671000D01*
X141985000Y-91660000D01*
X141956000Y-91648000D01*
X141928000Y-91635000D01*
X141900000Y-91620000D01*
X141873000Y-91603000D01*
X141847000Y-91585000D01*
X141822000Y-91566000D01*
X141799000Y-91546000D01*
X141776000Y-91524000D01*
X141754000Y-91501000D01*
X141734000Y-91478000D01*
X141715000Y-91453000D01*
X141697000Y-91427000D01*
X141680000Y-91400000D01*
X141665000Y-91372000D01*
X141652000Y-91344000D01*
X141640000Y-91315000D01*
X141629000Y-91285000D01*
X141620000Y-91255000D01*
X141613000Y-91225000D01*
X141607000Y-91194000D01*
X141603000Y-91163000D01*
X141601000Y-91131000D01*
X141600000Y-91100000D01*
X141601000Y-91069000D01*
X141603000Y-91037000D01*
X141607000Y-91006000D01*
X141613000Y-90975000D01*
X141620000Y-90945000D01*
X141629000Y-90915000D01*
X141640000Y-90885000D01*
X141652000Y-90856000D01*
X141665000Y-90828000D01*
X141680000Y-90800000D01*
X141697000Y-90773000D01*
X141715000Y-90747000D01*
X141734000Y-90722000D01*
X141754000Y-90699000D01*
X141776000Y-90676000D01*
X141799000Y-90654000D01*
X141822000Y-90634000D01*
X141847000Y-90615000D01*
X141873000Y-90597000D01*
X141900000Y-90580000D01*
X141928000Y-90565000D01*
X141956000Y-90552000D01*
X141985000Y-90540000D01*
X142015000Y-90529000D01*
X142045000Y-90520000D01*
X142075000Y-90513000D01*
X142106000Y-90507000D01*
X142137000Y-90503000D01*
X142169000Y-90501000D01*
X142200000Y-90500000D01*
X143000000Y-90500000D01*
X143031000Y-90501000D01*
G36*
X143031000Y-90501000D02*
G01*
X143063000Y-90503000D01*
X143094000Y-90507000D01*
X143125000Y-90513000D01*
X143155000Y-90520000D01*
X143185000Y-90529000D01*
X143215000Y-90540000D01*
X143244000Y-90552000D01*
X143272000Y-90565000D01*
X143300000Y-90580000D01*
X143327000Y-90597000D01*
X143353000Y-90615000D01*
X143378000Y-90634000D01*
X143401000Y-90654000D01*
X143424000Y-90676000D01*
X143446000Y-90699000D01*
X143466000Y-90722000D01*
X143485000Y-90747000D01*
X143503000Y-90773000D01*
X143520000Y-90800000D01*
X143535000Y-90828000D01*
X143548000Y-90856000D01*
X143560000Y-90885000D01*
X143571000Y-90915000D01*
X143580000Y-90945000D01*
X143587000Y-90975000D01*
X143593000Y-91006000D01*
X143597000Y-91037000D01*
X143599000Y-91069000D01*
X143600000Y-91100000D01*
X143599000Y-91131000D01*
X143597000Y-91163000D01*
X143593000Y-91194000D01*
X143587000Y-91225000D01*
X143580000Y-91255000D01*
X143571000Y-91285000D01*
X143560000Y-91315000D01*
X143548000Y-91344000D01*
X143535000Y-91372000D01*
X143520000Y-91400000D01*
X143503000Y-91427000D01*
X143485000Y-91453000D01*
X143466000Y-91478000D01*
X143446000Y-91501000D01*
X143424000Y-91524000D01*
X143401000Y-91546000D01*
X143378000Y-91566000D01*
X143353000Y-91585000D01*
X143327000Y-91603000D01*
X143300000Y-91620000D01*
X143272000Y-91635000D01*
X143244000Y-91648000D01*
X143215000Y-91660000D01*
X143185000Y-91671000D01*
X143155000Y-91680000D01*
X143125000Y-91687000D01*
X143094000Y-91693000D01*
X143063000Y-91697000D01*
X143031000Y-91699000D01*
X143000000Y-91700000D01*
X142200000Y-91700000D01*
X142169000Y-91699000D01*
X142137000Y-91697000D01*
X142106000Y-91693000D01*
X142075000Y-91687000D01*
X142045000Y-91680000D01*
X142015000Y-91671000D01*
X141985000Y-91660000D01*
X141956000Y-91648000D01*
X141928000Y-91635000D01*
X141900000Y-91620000D01*
X141873000Y-91603000D01*
X141847000Y-91585000D01*
X141822000Y-91566000D01*
X141799000Y-91546000D01*
X141776000Y-91524000D01*
X141754000Y-91501000D01*
X141734000Y-91478000D01*
X141715000Y-91453000D01*
X141697000Y-91427000D01*
X141680000Y-91400000D01*
X141665000Y-91372000D01*
X141652000Y-91344000D01*
X141640000Y-91315000D01*
X141629000Y-91285000D01*
X141620000Y-91255000D01*
X141613000Y-91225000D01*
X141607000Y-91194000D01*
X141603000Y-91163000D01*
X141601000Y-91131000D01*
X141600000Y-91100000D01*
X141601000Y-91069000D01*
X141603000Y-91037000D01*
X141607000Y-91006000D01*
X141613000Y-90975000D01*
X141620000Y-90945000D01*
X141629000Y-90915000D01*
X141640000Y-90885000D01*
X141652000Y-90856000D01*
X141665000Y-90828000D01*
X141680000Y-90800000D01*
X141697000Y-90773000D01*
X141715000Y-90747000D01*
X141734000Y-90722000D01*
X141754000Y-90699000D01*
X141776000Y-90676000D01*
X141799000Y-90654000D01*
X141822000Y-90634000D01*
X141847000Y-90615000D01*
X141873000Y-90597000D01*
X141900000Y-90580000D01*
X141928000Y-90565000D01*
X141956000Y-90552000D01*
X141985000Y-90540000D01*
X142015000Y-90529000D01*
X142045000Y-90520000D01*
X142075000Y-90513000D01*
X142106000Y-90507000D01*
X142137000Y-90503000D01*
X142169000Y-90501000D01*
X142200000Y-90500000D01*
X143000000Y-90500000D01*
X143031000Y-90501000D01*
G37*
X143031000Y-97901000D02*
X143063000Y-97903000D01*
X143094000Y-97907000D01*
X143125000Y-97913000D01*
X143155000Y-97920000D01*
X143185000Y-97929000D01*
X143215000Y-97940000D01*
X143244000Y-97952000D01*
X143272000Y-97965000D01*
X143300000Y-97980000D01*
X143327000Y-97997000D01*
X143353000Y-98015000D01*
X143378000Y-98034000D01*
X143401000Y-98054000D01*
X143424000Y-98076000D01*
X143446000Y-98099000D01*
X143466000Y-98122000D01*
X143485000Y-98147000D01*
X143503000Y-98173000D01*
X143520000Y-98200000D01*
X143535000Y-98228000D01*
X143548000Y-98256000D01*
X143560000Y-98285000D01*
X143571000Y-98315000D01*
X143580000Y-98345000D01*
X143587000Y-98375000D01*
X143593000Y-98406000D01*
X143597000Y-98437000D01*
X143599000Y-98469000D01*
X143600000Y-98500000D01*
X143599000Y-98531000D01*
X143597000Y-98563000D01*
X143593000Y-98594000D01*
X143587000Y-98625000D01*
X143580000Y-98655000D01*
X143571000Y-98685000D01*
X143560000Y-98715000D01*
X143548000Y-98744000D01*
X143535000Y-98772000D01*
X143520000Y-98800000D01*
X143503000Y-98827000D01*
X143485000Y-98853000D01*
X143466000Y-98878000D01*
X143446000Y-98901000D01*
X143424000Y-98924000D01*
X143401000Y-98946000D01*
X143378000Y-98966000D01*
X143353000Y-98985000D01*
X143327000Y-99003000D01*
X143300000Y-99020000D01*
X143272000Y-99035000D01*
X143244000Y-99048000D01*
X143215000Y-99060000D01*
X143185000Y-99071000D01*
X143155000Y-99080000D01*
X143125000Y-99087000D01*
X143094000Y-99093000D01*
X143063000Y-99097000D01*
X143031000Y-99099000D01*
X143000000Y-99100000D01*
X142200000Y-99100000D01*
X142169000Y-99099000D01*
X142137000Y-99097000D01*
X142106000Y-99093000D01*
X142075000Y-99087000D01*
X142045000Y-99080000D01*
X142015000Y-99071000D01*
X141985000Y-99060000D01*
X141956000Y-99048000D01*
X141928000Y-99035000D01*
X141900000Y-99020000D01*
X141873000Y-99003000D01*
X141847000Y-98985000D01*
X141822000Y-98966000D01*
X141799000Y-98946000D01*
X141776000Y-98924000D01*
X141754000Y-98901000D01*
X141734000Y-98878000D01*
X141715000Y-98853000D01*
X141697000Y-98827000D01*
X141680000Y-98800000D01*
X141665000Y-98772000D01*
X141652000Y-98744000D01*
X141640000Y-98715000D01*
X141629000Y-98685000D01*
X141620000Y-98655000D01*
X141613000Y-98625000D01*
X141607000Y-98594000D01*
X141603000Y-98563000D01*
X141601000Y-98531000D01*
X141600000Y-98500000D01*
X141601000Y-98469000D01*
X141603000Y-98437000D01*
X141607000Y-98406000D01*
X141613000Y-98375000D01*
X141620000Y-98345000D01*
X141629000Y-98315000D01*
X141640000Y-98285000D01*
X141652000Y-98256000D01*
X141665000Y-98228000D01*
X141680000Y-98200000D01*
X141697000Y-98173000D01*
X141715000Y-98147000D01*
X141734000Y-98122000D01*
X141754000Y-98099000D01*
X141776000Y-98076000D01*
X141799000Y-98054000D01*
X141822000Y-98034000D01*
X141847000Y-98015000D01*
X141873000Y-97997000D01*
X141900000Y-97980000D01*
X141928000Y-97965000D01*
X141956000Y-97952000D01*
X141985000Y-97940000D01*
X142015000Y-97929000D01*
X142045000Y-97920000D01*
X142075000Y-97913000D01*
X142106000Y-97907000D01*
X142137000Y-97903000D01*
X142169000Y-97901000D01*
X142200000Y-97900000D01*
X143000000Y-97900000D01*
X143031000Y-97901000D01*
G36*
X143031000Y-97901000D02*
G01*
X143063000Y-97903000D01*
X143094000Y-97907000D01*
X143125000Y-97913000D01*
X143155000Y-97920000D01*
X143185000Y-97929000D01*
X143215000Y-97940000D01*
X143244000Y-97952000D01*
X143272000Y-97965000D01*
X143300000Y-97980000D01*
X143327000Y-97997000D01*
X143353000Y-98015000D01*
X143378000Y-98034000D01*
X143401000Y-98054000D01*
X143424000Y-98076000D01*
X143446000Y-98099000D01*
X143466000Y-98122000D01*
X143485000Y-98147000D01*
X143503000Y-98173000D01*
X143520000Y-98200000D01*
X143535000Y-98228000D01*
X143548000Y-98256000D01*
X143560000Y-98285000D01*
X143571000Y-98315000D01*
X143580000Y-98345000D01*
X143587000Y-98375000D01*
X143593000Y-98406000D01*
X143597000Y-98437000D01*
X143599000Y-98469000D01*
X143600000Y-98500000D01*
X143599000Y-98531000D01*
X143597000Y-98563000D01*
X143593000Y-98594000D01*
X143587000Y-98625000D01*
X143580000Y-98655000D01*
X143571000Y-98685000D01*
X143560000Y-98715000D01*
X143548000Y-98744000D01*
X143535000Y-98772000D01*
X143520000Y-98800000D01*
X143503000Y-98827000D01*
X143485000Y-98853000D01*
X143466000Y-98878000D01*
X143446000Y-98901000D01*
X143424000Y-98924000D01*
X143401000Y-98946000D01*
X143378000Y-98966000D01*
X143353000Y-98985000D01*
X143327000Y-99003000D01*
X143300000Y-99020000D01*
X143272000Y-99035000D01*
X143244000Y-99048000D01*
X143215000Y-99060000D01*
X143185000Y-99071000D01*
X143155000Y-99080000D01*
X143125000Y-99087000D01*
X143094000Y-99093000D01*
X143063000Y-99097000D01*
X143031000Y-99099000D01*
X143000000Y-99100000D01*
X142200000Y-99100000D01*
X142169000Y-99099000D01*
X142137000Y-99097000D01*
X142106000Y-99093000D01*
X142075000Y-99087000D01*
X142045000Y-99080000D01*
X142015000Y-99071000D01*
X141985000Y-99060000D01*
X141956000Y-99048000D01*
X141928000Y-99035000D01*
X141900000Y-99020000D01*
X141873000Y-99003000D01*
X141847000Y-98985000D01*
X141822000Y-98966000D01*
X141799000Y-98946000D01*
X141776000Y-98924000D01*
X141754000Y-98901000D01*
X141734000Y-98878000D01*
X141715000Y-98853000D01*
X141697000Y-98827000D01*
X141680000Y-98800000D01*
X141665000Y-98772000D01*
X141652000Y-98744000D01*
X141640000Y-98715000D01*
X141629000Y-98685000D01*
X141620000Y-98655000D01*
X141613000Y-98625000D01*
X141607000Y-98594000D01*
X141603000Y-98563000D01*
X141601000Y-98531000D01*
X141600000Y-98500000D01*
X141601000Y-98469000D01*
X141603000Y-98437000D01*
X141607000Y-98406000D01*
X141613000Y-98375000D01*
X141620000Y-98345000D01*
X141629000Y-98315000D01*
X141640000Y-98285000D01*
X141652000Y-98256000D01*
X141665000Y-98228000D01*
X141680000Y-98200000D01*
X141697000Y-98173000D01*
X141715000Y-98147000D01*
X141734000Y-98122000D01*
X141754000Y-98099000D01*
X141776000Y-98076000D01*
X141799000Y-98054000D01*
X141822000Y-98034000D01*
X141847000Y-98015000D01*
X141873000Y-97997000D01*
X141900000Y-97980000D01*
X141928000Y-97965000D01*
X141956000Y-97952000D01*
X141985000Y-97940000D01*
X142015000Y-97929000D01*
X142045000Y-97920000D01*
X142075000Y-97913000D01*
X142106000Y-97907000D01*
X142137000Y-97903000D01*
X142169000Y-97901000D01*
X142200000Y-97900000D01*
X143000000Y-97900000D01*
X143031000Y-97901000D01*
G37*
D16*
X152065000Y-89800000D03*
X153035000Y-89800000D03*
D17*
X141050002Y-92820000D03*
X141049998Y-92180000D03*
D18*
X144550000Y-94475000D03*
X144550000Y-94975000D03*
X144550000Y-95475000D03*
X144550000Y-95975000D03*
X144550000Y-96475000D03*
X144550000Y-96975000D03*
X144550000Y-97475000D03*
X144550000Y-97975000D03*
D19*
X145250000Y-98675000D03*
X145750000Y-98675000D03*
X146250000Y-98675000D03*
X146750000Y-98675000D03*
X147250000Y-98675000D03*
X147750000Y-98675000D03*
X148250000Y-98675000D03*
X148750000Y-98675000D03*
D18*
X149450000Y-97975000D03*
X149450000Y-97475000D03*
X149450000Y-96975000D03*
X149450000Y-96475000D03*
X149450000Y-95975000D03*
X149450000Y-95475000D03*
X149450000Y-94975000D03*
X149450000Y-94475000D03*
D19*
X148750000Y-93775000D03*
X148250000Y-93775000D03*
X147750000Y-93775000D03*
X147250000Y-93775000D03*
X146750000Y-93775000D03*
X146250000Y-93775000D03*
X145750000Y-93775000D03*
X145250000Y-93775000D03*
D20*
X143325002Y-92255000D03*
X143324998Y-92895000D03*
D21*
X144400000Y-99550000D03*
X143760004Y-99550006D03*
D22*
X150700000Y-91625000D03*
X150700000Y-92584998D03*
D21*
X144399998Y-100375004D03*
X143760002Y-100375010D03*
D23*
X150750000Y-95540000D03*
X150750000Y-96510000D03*
D20*
X143200002Y-94805000D03*
X143199998Y-95445000D03*
D24*
X146050000Y-91599998D03*
X147750000Y-91599998D03*
X147750000Y-90299998D03*
X146050000Y-90299998D03*
D23*
X150725000Y-97515000D03*
X150725000Y-98485000D03*
D17*
X143375001Y-97070002D03*
X143374999Y-96429998D03*
D25*
X153030000Y-90825000D03*
X152070000Y-90825000D03*
D26*
X153080002Y-89600002D03*
D23*
X150700000Y-93565000D03*
X150700000Y-94535000D03*
%LPD*%
M02*
